<svg xmlns="http://www.w3.org/2000/svg" xml:space="preserve" viewBox="0 0 375 72.1">
  <path fill="orange" id="drips" d="M375 0v28.6c-6 .1-9.8 2-10.3 5.3-.3 3.2-.4 6.4-.2 9.6v14.1c0 2.1-2.6 3.9-6.2 4.5-3.8.6-8.2.3-10.6-1.4-1.4-.8-2.3-2.2-2.5-3.8-.2-8.9-.1-17.7-.1-26.6 0-2.2.1-4.4 0-6.6s-2.8-3.9-7.3-4.5c-3.4-.5-6.8-.8-9.6.8-.8.2-2 .4-2.3.7-1.1 1.5-2.8 3.1-2.8 4.7-.2 14-.1 28.1-.1 42.1 0 2.3-2.9 4-7.5 4.5-.7.1-1.5.1-2.3.1-3.4 0-6.7-.9-8.2-2.5-.8-1-1.2-2.2-1.1-3.4-.1-14.7 0-29.4 0-44.1 0-4.2.1-8.3 0-12.5-.1-2-2-3.7-6-4.6-3.7-.9-7.5-.8-11.2.3-3.9 1.2-4.9 3.1-4.9 5.1v57.1c0 3.5-7.5 5.7-14 4.1-4.4-1-5.5-2.9-5.5-5.1V24.2c0-3.3-4.9-5.4-11.9-5.3-5.8.1-10 2.2-10 5.3-.1 10.5-.1 20.9-.1 31.4.1 1 0 1.9-.2 2.9-.5 2-3.8 3.5-8 3.8-3.8.3-8.2-.5-10-2.3-.9-.9-1.5-2.1-1.5-3.4-.1-7.6 0-15.2-.1-22.8 0-3.2-4.9-5.3-11.6-5.2-5.2.1-9.5 1.9-9.9 4.5-.4 3.3-.1 6.5-.5 9.8-.2 1.3-.9 2.4-2 3.1-2.5 1.7-6.7 2.2-10.5 1.5-4.1-.7-6.6-2.2-6.7-4.3-.1-3.2 0-6.4-.1-9.6-.1-2.4-3.6-4.4-8.3-5-4.7-.5-10 .4-12 2.4-1 1-1.6 2.3-1.6 3.8-.1 7.7 0 15.3-.1 23 0 2-2.8 3.7-6.7 4.3-4.1.6-9-.1-10.9-1.9-1.1-1-1.7-2.4-1.7-3.9-.1-9.9-.1-19.9-.1-29.8.1-1.1.1-2.3-.2-3.4-.5-1.4-1.3-2.8-4.9-3.2-.3-.3-.6-.5-1-.6-7.3-1.8-15.8.8-15.8 4.9-.1 11.5 0 23.1 0 34.6 0 2.9.1 5.7 0 8.6-.1 2.5-4.2 4.5-9.2 4.6-4.9.1-9.3-1.6-10-4-.3-1.2-.4-2.4-.4-3.6V10.5c0-.6 0-1.2-.1-1.8-.5-3-7-5.1-13.2-4.3-5.8.7-8.5 2.5-8.5 5.9v53.5c.1 1.3 0 2.5-.1 3.8-.3 1.9-2.3 3.4-6.3 4.1-1.3.2-2.7.4-4 .4-2.6 0-5-.5-6.5-1.7-1.5-1-2.5-2.7-2.7-4.5-.2-14-.1-27.9-.2-41.9 0-2.9-4.4-5-10.4-5.1-6.2-.1-10.6 1.8-11.1 4.7-.2 1-.3 2-.3 3v29.3c.1.9 0 1.9-.3 2.8-.7 1.9-3.4 3-7.4 3.5-3.8.5-7.1 0-9.2-1.4-1.7-.8-2.7-2.2-3-3.8-.2-7.7-.1-15.3-.1-23 0-3.7-5.5-5.9-12.9-5.3V0h375z"/>
</svg>