<!-- Generator: Adobe Illustrator 22.1.0, SVG Export Plug-In  -->
<svg version="1.1"
	 xmlns="http://www.w3.org/2000/svg" xmlns:xlink="http://www.w3.org/1999/xlink" xmlns:a="http://ns.adobe.com/AdobeSVGViewerExtensions/3.0/"
	 x="0px" y="0px" width="436.2px" height="115.6px" viewBox="0 0 436.2 115.6" style="enable-background:new 0 0 436.2 115.6;"
	 xml:space="preserve">
<style type="text/css">
	.st0{fill:#E6E7E8;}
	.st1{fill:#FBB040;}
</style>
<defs>
</defs>
<g>
	<path class="st0" d="M431.8,37.6c-4.2-5.3-9.9-8.9-15.9-11.9c-19.1-9.6-39.7-14.2-60.6-17.7c-28.6-4.8-57.4-7.2-86.5-7.4
		c-1.4,0-5.1,0-7.2-0.6c-6.4,0.9-26.4,0.6-28.4,0.6C176.2,1.9,119.7,7.9,64.7,23.9c-18.1,5.3-35.8,11.7-51.3,22.9
		c-4.2,3-8,6.6-10.7,11.1c-4,6.6-3.5,14,1.3,20c3.9,4.7,8.7,8.3,14,11.1c18.5,9.9,38.5,14.6,58.9,18.3c41.5,7.5,83.4,9,125.4,8.1
		c56.9-1.3,113.2-7.3,168.1-23.1c16.2-4.7,32-10.5,46.5-19.3c5.9-3.6,11.3-7.6,15.4-13.3C437.6,52.4,437.5,44.7,431.8,37.6z M254,45
		c26.6,16.6,56.6,22.6,86.9,27.7c5.9,1,11.9,1.7,17.5,4.1c2,0.8,4.3,1.8,4.3,4.4c-0.1,2.8-2.6,3.8-4.9,4.3
		c-9.5,2.2-19.2,1.6-28.8,0.8c-16.7-1.5-33.3-3.7-50-5.6c-17.3-2-34.8-2-52.2-3.4c-19.5-1.6-38.9,0-58.3,0.6
		c-23.9,0.7-47.7,3.5-71.4,6.5c-15,1.9-30.1,2.8-45.3,2.2c-0.7,0-1.4,0-2-0.2c-1.8-0.5-4.4-0.4-4.8-2.8c-0.4-2.3,1.9-3.3,3.6-4.2
		c7.1-3.6,14.9-4.8,22.6-5.8c44.2-5.6,87.7-14.4,129.6-29.9c2.3-0.8,6.1-1.2,5.9-3.7c-0.2-3-4.2-2.8-6.6-3.1c-6.9-1-13.5,1.5-20.1,3
		c-3.8,0.9-7,0.6-10.5-1c-15-6.9-31-9.8-47.2-12.2c-2.9-0.4-5.9-0.9-8.8-1.4c0-0.4-0.1-0.9-0.1-1.3c11.9-2.8,23.9-3.9,36.3-3.1
		c18.5,1.2,36.1,7.5,54.5,9.4c6.8,0.7,13.6-0.8,20.1-2.9c0.9-0.3,2.1-0.8,1.8-2c-0.2-1.1-1.4-1.3-2.3-1.6c-4-1.4-8.2-1-12.4-1.1
		c-2.6-0.1-5.9,0.8-6.5-3.5c-0.2-1.2-1.8-1.2-3-1.4c-3.3-0.4-6.5-0.9-10.3-1.5c8-4.6,16-3.4,24.3-2.5c13.7,1.5,27.4,2.8,41.2,1.2
		c8.7-1,17.5-1.3,26.3-2.4c3.8-0.5,7,1.1,10.2,3.1c-1.2,1.6-2.6,0.8-3.8,1c-5.3,1-10.9,0.4-15.5,4.5c-2.3,2-5.7,1.7-8.7,1.5
		c-5-0.3-10,0.5-14.8,1.7c-1.2,0.3-2.9,0.5-2.7,2.3c0.1,1.4,1.6,1.6,2.6,2c7.6,2.8,15.4,1.7,23.1,0.5c15-2.3,29.8-5.2,44.8-7.2
		c12.9-1.7,25.8-2.4,38.7,0.5c1.5,0.3,2.9,0.8,4.3,1.3c0.4,0.1,0.7,0.6,1.5,1.4c-8.6,1.2-16.7,2.3-24.8,3.4
		c-17,2.3-33.8,5.7-50.2,10.9c-4.5,1.4-8.7,1.6-13.1-0.3c-6.5-2.7-13.2-3.3-20-1.2c-2,0.6-4.8,0.8-5.1,3.3
		C249.6,43.8,252.4,44,254,45z"/>
	<path class="st1" d="M362.6,81.1c-0.1,2.8-2.6,3.8-4.9,4.3c-9.5,2.2-19.2,1.6-28.8,0.8c-16.7-1.5-33.3-3.7-50-5.6
		c-17.3-2-34.8-2-52.2-3.4c-19.5-1.6-38.9,0-58.3,0.6c-23.9,0.7-47.7,3.5-71.4,6.5c-15,1.9-30.1,2.8-45.3,2.2c-0.7,0-1.4,0-2-0.2
		c-1.8-0.5-4.4-0.4-4.8-2.8c-0.4-2.3,1.9-3.3,3.6-4.2c7.1-3.6,14.9-4.8,22.6-5.8c44.2-5.6,87.7-14.4,129.6-29.9
		c2.3-0.8,6.1-1.2,5.9-3.7c-0.2-3-4.2-2.8-6.6-3.1c-6.9-1-13.5,1.5-20.1,3c-3.8,0.9-7,0.6-10.5-1c-15-6.9-31-9.8-47.2-12.2
		c-2.9-0.4-5.9-0.9-8.8-1.4c0-0.4-0.1-0.9-0.1-1.3c11.9-2.8,23.9-3.9,36.3-3.1c18.5,1.2,36.1,7.5,54.5,9.4
		c6.8,0.7,13.6-0.8,20.1-2.9c0.9-0.3,2.1-0.8,1.8-2c-0.2-1.1-1.4-1.3-2.3-1.6c-4-1.4-8.2-1-12.4-1.1c-2.6-0.1-5.9,0.8-6.5-3.5
		c-0.2-1.2-1.8-1.2-3-1.4c-3.3-0.4-6.5-0.9-10.3-1.5c8-4.6,16-3.4,24.3-2.5c13.7,1.5,27.4,2.8,41.2,1.2c8.7-1,17.5-1.3,26.3-2.4
		c3.8-0.5,7,1.1,10.2,3.1c-1.2,1.6-2.6,0.8-3.8,1c-5.3,1-10.9,0.4-15.5,4.5c-2.3,2-5.7,1.7-8.7,1.5c-5-0.3-10,0.5-14.8,1.7
		c-1.2,0.3-2.9,0.5-2.7,2.3c0.1,1.4,1.6,1.6,2.6,2c7.6,2.8,15.4,1.7,23.1,0.5c15-2.3,29.8-5.2,44.8-7.2c12.9-1.7,25.8-2.4,38.7,0.5
		c1.5,0.3,2.9,0.8,4.3,1.3c0.4,0.1,0.7,0.6,1.5,1.4c-8.6,1.2-16.7,2.3-24.8,3.4c-17,2.3-33.8,5.7-50.2,10.9
		c-4.5,1.4-8.7,1.6-13.1-0.3c-6.5-2.7-13.2-3.3-20-1.2c-2,0.6-4.8,0.8-5.1,3.3c-0.3,2.5,2.5,2.8,4.1,3.8
		c26.6,16.6,56.6,22.6,86.9,27.7c5.9,1,11.9,1.7,17.5,4.1C360.3,77.6,362.7,78.6,362.6,81.1z"/>
</g>
</svg>
