<svg xmlns="http://www.w3.org/2000/svg" width="91.397" height="78.123" viewBox="0 0 91.397 78.123"><g transform="translate(183.324 -338.57)"><path d="M546,422.5a.5.5,0,0,1-.5-.5c0-4.1,0-8.273.006-12.306.008-10.387.016-21.128-.029-31.691-.014-3.312-.158-6.685-.3-9.946-.063-1.487-.128-3.026-.181-4.539a.5.5,0,0,1,.482-.517h.018a.5.5,0,0,1,.5.483c.052,1.51.117,3.046.18,4.531.139,3.27.282,6.652.3,9.984.045,10.566.037,21.308.029,31.7,0,4.033-.006,8.2-.006,12.306A.5.5,0,0,1,546,422.5Z" transform="translate(-701.316 -7.233)"/><path d="M573,422.5a.5.5,0,0,1-.5-.5V362.61l-4.734-4.036-8.329-7.1-14.523,12.175L519.69,384.794a.5.5,0,0,1-.747-.121c-2.309-3.744.093-5.489,1.847-6.763.343-.249.667-.484.944-.721,9.339-7.988,18.921-15.99,28.187-23.728,2.959-2.471,6.02-5.027,9.023-7.541a.5.5,0,0,1,.637,0c2.468,2.015,4.952,4.036,7.355,5.991,5.984,4.87,11.637,9.469,17.369,14.225,4.6,3.815,9.343,7.911,14.5,12.521,1.03.92,1.668,1.528,1.811,2.393.132.794-.154,1.644-.723,3.338l-.085.255a.5.5,0,0,1-.8.223c-.944-.8-1.881-1.6-2.788-2.38-2.065-1.77-4.015-3.442-6.052-5.077-3.863-3.1-7.825-6.21-11.658-9.217-1.583-1.242-3.22-2.527-4.828-3.794A.5.5,0,0,1,573.5,364v58A.5.5,0,0,1,573,422.5Zm-13.731-75.548c-2.9,2.429-5.851,4.892-8.707,7.277-9.264,7.736-18.843,15.736-28.178,23.721-.307.262-.646.509-1.006.77-1.648,1.2-3.21,2.332-1.871,4.924l24.764-20.761,14.847-12.447a.5.5,0,0,1,.646,0l8.651,7.375L573.324,362a.5.5,0,0,1,.176.38V364a.5.5,0,0,1,.809-.388c1.607,1.266,3.244,2.551,4.827,3.793,3.834,3.009,7.8,6.121,11.666,9.224,2.05,1.645,4.006,3.322,6.077,5.1.725.622,1.47,1.26,2.221,1.9a6.076,6.076,0,0,0,.535-2.411c-.084-.506-.541-.962-1.491-1.811-5.153-4.6-9.888-8.69-14.477-12.5-5.729-4.753-11.38-9.351-17.362-14.219C564.006,350.812,561.632,348.88,559.269,346.952Z" transform="translate(-701.316 -7.233)"/><path d="M524,423.926a.5.5,0,0,1-.5-.5q0-1.327,0-2.376c0-1.366.008-2.446-.008-3.543-.128-9.31-.264-18.775-.4-27.929l-.1-7.07a.5.5,0,0,1,1-.014l.1,7.07c.131,9.154.267,18.62.4,27.93.015,1.106.012,2.189.008,3.56q0,.836,0,1.849l28.026-1.31,1.95-.091a.5.5,0,0,1,.047,1l-1.95.091-28.55,1.335Z" transform="translate(-701.316 -7.233)"/><path d="M542,389.25h-9.5a.5.5,0,0,1-.5-.5V380.5a.5.5,0,0,1,1,0v7.75h8.5V373.078l-4.652,3.87-3.529,2.936a.5.5,0,1,1-.64-.769l3.528-2.936,5.472-4.552a.5.5,0,0,1,.82.384V388.75A.5.5,0,0,1,542,389.25Z" transform="translate(-701.316 -7.233)"/><path d="M576.25,410.65a.5.5,0,0,1-.5-.5v-14.3a.5.5,0,0,1,.533-.5l9.75.65a.5.5,0,1,1-.066,1l-9.217-.614v13.231l9.217-.614a.5.5,0,1,1,.066,1l-9.75.65Z" transform="translate(-701.316 -7.233)"/><path d="M591.567,423.537c-4.018,0-8.065-.018-12.074-.082-3.461-.055-6.968-.334-10.36-.6-1.53-.122-3.112-.248-4.666-.352a.5.5,0,1,1,.066-1c1.561.1,3.146.23,4.679.352,3.376.269,6.867.547,10.3.6,6.833.108,13.785.085,20.508.063,2.665-.009,5.417-.018,8.131-.018.8-2.694-.547-3.827-1.974-5.023a6.914,6.914,0,0,1-1.825-1.977H596a.5.5,0,0,1,0-1h8.674a.5.5,0,0,1,.468.324,5.254,5.254,0,0,0,1.675,1.887c1.521,1.276,3.414,2.863,2.167,6.453a.5.5,0,0,1-.472.336c-2.83,0-5.708.009-8.492.018S594.408,423.537,591.567,423.537Z" transform="translate(-701.316 -7.233)"/><path d="M563,420a.5.5,0,0,1-.354-.854,4.629,4.629,0,0,1,.422-.358,2.77,2.77,0,0,0,.39-.342c.046-6.139.044-12.171.042-18.555q0-1.565,0-3.142h-8V418.5a.5.5,0,0,1-1,0V396.25a.5.5,0,0,1,.5-.5h9a.5.5,0,0,1,.5.5q0,1.829,0,3.641c0,6.4,0,12.452-.043,18.612,0,.471-.413.791-.774,1.073a3.891,3.891,0,0,0-.331.277A.5.5,0,0,1,563,420Z" transform="translate(-701.316 -7.233)"/><path d="M576,389.666a.5.5,0,0,1-.5-.5V365.5a.5.5,0,0,1,1,0v23.132l9.467-.63a.5.5,0,1,1,.066,1l-10,.666Z" transform="translate(-701.316 -7.233)"/><path d="M605.25,400.5H596a.5.5,0,0,1,0-1h8.75v-9H596a.5.5,0,0,1,0-1h9.25a.5.5,0,0,1,.5.5v10A.5.5,0,0,1,605.25,400.5Z" transform="translate(-701.316 -7.233)"/><path d="M577,360h-.034a.5.5,0,0,1-.466-.532l.647-9.717h-4.822l-.832,5.821a.5.5,0,0,1-.99-.141l.893-6.25a.5.5,0,0,1,.495-.429h5.79a.5.5,0,0,1,.5.533l-.683,10.25A.5.5,0,0,1,577,360Z" transform="translate(-701.316 -7.233)"/><path d="M543,416.5H532.5a.5.5,0,0,1,0-1h10v-5a.5.5,0,0,1,1,0V416A.5.5,0,0,1,543,416.5Z" transform="translate(-701.316 -7.233)"/><path d="M587,422.5a.5.5,0,0,1-.5-.494c-.042-3.324-.088-6.7-.133-9.972-.132-9.679-.269-19.687-.318-29.531a26.581,26.581,0,0,1,.584-4.879c.132-.721.268-1.466.372-2.194a.5.5,0,1,1,.99.141c-.107.747-.245,1.5-.378,2.233a25.842,25.842,0,0,0-.568,4.694c.049,9.841.185,19.846.318,29.523.045,3.269.091,6.649.133,9.973a.5.5,0,0,1-.494.506Z" transform="translate(-701.316 -7.233)"/><path d="M570,390.25H548.331a.5.5,0,0,1-.5-.54l.669-8.25a.392.392,0,0,0,0-.435c-.051-1.027-.08-2.072-.108-3.082a60.184,60.184,0,0,0-.452-6.863,7.515,7.515,0,0,1,.755-4.9,5.124,5.124,0,0,1,3.755-2.493,35.619,35.619,0,0,1,13.6.117c1.781.418,3.956,1.537,4.721,3.425a4.9,4.9,0,0,1-.781,4.588,2.583,2.583,0,0,0,.2.89,4.357,4.357,0,0,1,.289,1.293c.032,4.048.028,8.094.024,12.007q0,1.9,0,3.747A.5.5,0,0,1,570,390.25Zm-21.127-1H569.5q0-1.605,0-3.248c0-3.911.008-7.955-.024-12a3.705,3.705,0,0,0-.238-.987,2.064,2.064,0,0,1-.094-1.744,3.972,3.972,0,0,0,.7-3.672c-.622-1.536-2.556-2.483-4.023-2.827a34.642,34.642,0,0,0-13.212-.1c-2.762.44-4.171,2.841-3.677,6.267a60.911,60.911,0,0,1,.462,6.978c.028,1,.057,2.044.107,3.06a.64.64,0,0,0,0,.565Z" transform="translate(-701.316 -7.233)"/><path d="M595.5,407.5a.5.5,0,0,1-.5-.5V382.5a.5.5,0,0,1,1,0V407A.5.5,0,0,1,595.5,407.5Z" transform="translate(-701.316 -7.233)"/><path d="M586,416.5h-9.5a.5.5,0,0,1,0-1H586a.5.5,0,0,1,0,1Z" transform="translate(-701.316 -7.233)"/><path d="M586,379.5a.5.5,0,0,1-.3-.1c-.6-.459-1.2-.93-1.781-1.385-1.531-1.2-3.114-2.436-4.729-3.557a3.221,3.221,0,0,0-1.418-.346c-.285-.03-.58-.061-.865-.118a.5.5,0,0,1,.2-.981c.239.048.5.075.773.1a3.936,3.936,0,0,1,1.884.519c1.639,1.137,3.233,2.384,4.775,3.591.581.454,1.181.924,1.774,1.38a.5.5,0,0,1-.305.9Z" transform="translate(-701.316 -7.233)"/><path d="M559,381.5a.5.5,0,0,1-.5-.5V364.5a.5.5,0,0,1,1,0V381A.5.5,0,0,1,559,381.5Z" transform="translate(-701.316 -7.233)"/><path d="M566,389.5h-.011a.5.5,0,0,1-.489-.511q.125-5.875.25-11.75t.25-11.75a.5.5,0,1,1,1,.021q-.125,5.875-.25,11.75t-.25,11.75A.5.5,0,0,1,566,389.5Z" transform="translate(-701.316 -7.233)"/><path d="M552.5,389.5a.5.5,0,0,1-.5-.489q-.125-5.875-.25-11.75t-.25-11.75a.5.5,0,1,1,1-.021q.125,5.875.25,11.75t.25,11.75a.5.5,0,0,1-.489.511Z" transform="translate(-701.316 -7.233)"/><path d="M568,422.5a.5.5,0,0,1-.5-.5c0-.362,0-.731,0-1.088-.005-.794-.01-1.614.01-2.424.018-.754-.1-1.259-.336-1.421-.376-.259-1.38.151-1.98.4a.5.5,0,0,1-.378-.926c.938-.383,2.1-.86,2.926-.294a2.5,2.5,0,0,1,.768,2.269c-.02.795-.015,1.608-.01,2.393,0,.358,0,.729,0,1.094A.5.5,0,0,1,568,422.5Z" transform="translate(-701.316 -7.233)"/><path d="M559.5,390a.5.5,0,0,1-.5-.5V382a.5.5,0,0,1,1,0v7.5A.5.5,0,0,1,559.5,390Z" transform="translate(-701.316 -7.233)"/><path d="M595,422.5a.5.5,0,0,1-.5-.5V408.657a.5.5,0,0,1,.131-.337l7-7.657a.5.5,0,0,1,.738.675l-6.869,7.514V422A.5.5,0,0,1,595,422.5Z" transform="translate(-701.316 -7.233)"/><path d="M551,422.5a.5.5,0,0,1-.5-.5c0-.371-.02-.762-.04-1.139a8.955,8.955,0,0,1,.174-2.968c.183-.632.989-.857,1.841-1.095.3-.083.6-.169.839-.263a.5.5,0,0,1,.371.929,9.532,9.532,0,0,1-.942.3,4.078,4.078,0,0,0-1.156.433,8.2,8.2,0,0,0-.129,2.614c.02.39.041.794.041,1.191A.5.5,0,0,1,551,422.5Z" transform="translate(-701.316 -7.233)"/><path d="M575.5,423h-.021a.5.5,0,0,1-.479-.52q.125-3,.25-6t.25-6a.5.5,0,0,1,1,.042q-.125,3-.25,6t-.25,6A.5.5,0,0,1,575.5,423Z" transform="translate(-701.316 -7.233)"/><path d="M543.5,423a.5.5,0,0,1-.5-.458q-.125-1.5-.25-3t-.25-3a.5.5,0,0,1,1-.083q.125,1.5.25,3t.25,3a.5.5,0,0,1-.457.54Z" transform="translate(-701.316 -7.233)"/><path d="M532,396a.5.5,0,0,1-.5-.5v-6a.5.5,0,0,1,1,0v6A.5.5,0,0,1,532,396Z" transform="translate(-701.316 -7.233)"/><path d="M543,396a.5.5,0,0,1-.5-.5v-6a.5.5,0,0,1,1,0v6A.5.5,0,0,1,543,396Z" transform="translate(-701.316 -7.233)"/><path d="M576,396a.5.5,0,0,1-.5-.5v-6a.5.5,0,0,1,1,0v6A.5.5,0,0,1,576,396Z" transform="translate(-701.316 -7.233)"/><path d="M569,372.5H549.5a.5.5,0,0,1,0-1H569a.5.5,0,0,1,0,1Z" transform="translate(-701.316 -7.233)"/><path d="M531.5,422.5h-.022a.5.5,0,0,1-.478-.521q.125-2.875.25-5.75t.25-5.75a.5.5,0,1,1,1,.044q-.125,2.875-.25,5.75t-.25,5.75A.5.5,0,0,1,531.5,422.5Z" transform="translate(-701.316 -7.233)"/><path d="M569,382h-.013l-9.75-.25-9.75-.25a.5.5,0,0,1,.013-1h.013l9.75.25,9.75.25a.5.5,0,0,1-.013,1Z" transform="translate(-701.316 -7.233)"/><path d="M532,380a.5.5,0,0,1-.485-.379l-.5-2-.5-2a.5.5,0,0,1,.97-.242l.5,2,.5,2A.5.5,0,0,1,532,380Z" transform="translate(-701.316 -7.233)"/><path d="M543,372a.5.5,0,0,1-.5-.45q-.125-1.25-.25-2.5t-.25-2.5a.5.5,0,1,1,.995-.1q.125,1.25.25,2.5t.25,2.5a.5.5,0,0,1-.448.547Z" transform="translate(-701.316 -7.233)"/><path d="M542.5,410.25h-10a.5.5,0,0,1-.5-.5c0-1.055-.007-2.106-.013-3.122-.019-2.983-.037-5.8.1-8.648.035-.7.709-1.234,1.36-1.746a8.061,8.061,0,0,0,.7-.587A3.333,3.333,0,0,0,535,395.5h7.5a.5.5,0,0,1,.5.5v13.75A.5.5,0,0,1,542.5,410.25Zm-9.5-1h9V396.5h-7a.5.5,0,0,1-.236-.059c-.213.2-.457.393-.695.579-.385.3-.967.76-.979,1.009-.139,2.82-.122,5.624-.1,8.592C532.992,407.479,533,408.361,533,409.25Z" transform="translate(-701.316 -7.233)"/></g></svg>