<svg xmlns="http://www.w3.org/2000/svg" width="103.5" height="72.071" viewBox="0 0 103.5 72.071"><g transform="translate(645.566 -233.517)"><path d="M75,281.75H56.5a.5.5,0,0,1-.5-.5V246a.5.5,0,0,1,.5-.5c12.667,0,25.546,0,38,0a.5.5,0,0,1,0,1c-12.291,0-24.994,0-37.5,0V280.75H74.5V269.5a.5.5,0,0,1,1,0v11.75A.5.5,0,0,1,75,281.75Z" transform="translate(-701.316 -7.233)"/><path d="M158.75,282H120a.5.5,0,0,1,0-1h38.25V253H140a.5.5,0,0,1,0-1h18.75a.5.5,0,0,1,.5.5v29A.5.5,0,0,1,158.75,282Z" transform="translate(-701.316 -7.233)"/><path d="M140,307.5a.5.5,0,0,1-.5-.5V287.25a.5.5,0,0,1,.5-.5h10a.5.5,0,0,1,.5.5V306.5a.5.5,0,0,1-1,0V287.75h-9V307A.5.5,0,0,1,140,307.5Z" transform="translate(-701.316 -7.233)"/><path d="M106.5,312.529c-4.6,0-9.182-.007-13.706-.014S83.6,312.5,79,312.5H56.25a.5.5,0,0,1-.5-.5v-5.25a.5.5,0,0,1,.5-.5H74.5V282.5a.5.5,0,0,1,1,0v24.25a.5.5,0,0,1-.5.5H56.75v4.25H79c4.6,0,9.277.007,13.8.014,12.847.02,26.132.041,39.194-.1a32.743,32.743,0,0,0,7.079-1.158c1.091-.261,2.218-.53,3.334-.743a.5.5,0,0,1,.187.982c-1.093.208-2.209.475-3.289.733a33.483,33.483,0,0,1-7.3,1.186C123.538,312.5,114.977,312.529,106.5,312.529Z" transform="translate(-701.316 -7.233)"/><path d="M123.75,302.072a.5.5,0,0,1-.5-.5V286.75a.5.5,0,0,1,.5-.5h7.5a.5.5,0,0,1,.5.5V301.5a.5.5,0,0,1-.5.5H127a.5.5,0,0,1-.5-.489l-1.6.332-1.053.219A.5.5,0,0,1,123.75,302.072ZM127,301h3.75V287.25h-6.5v13.707l.451-.094,1.7-.353a.5.5,0,0,1,.6.489Z" transform="translate(-701.316 -7.233)"/><path d="M120.5,312a.5.5,0,0,1-.5-.5V307H76a.5.5,0,0,1,0-1h44.5a.5.5,0,0,1,.5.5v5A.5.5,0,0,1,120.5,312Z" transform="translate(-701.316 -7.233)"/><path d="M71.25,302.308a.5.5,0,0,1-.083-.007l-7.75-1.308A8.108,8.108,0,0,0,62.5,300V286.75a.5.5,0,0,1,.5-.5h8.25a.5.5,0,0,1,.5.5v15.058a.5.5,0,0,1-.5.5ZM63.5,300a.505.505,0,0,1,.083.007l7.167,1.21V287.25H63.5V300Z" transform="translate(-701.316 -7.233)"/><path d="M110.25,302.017h-.031l-4.226-.265-4.024-.252a.446.446,0,0,0-.469,0H84.25a.5.5,0,0,1-.5-.5V286.75a.5.5,0,0,1,.5-.5h26a.5.5,0,0,1,.5.5v14.767a.5.5,0,0,1-.5.5ZM102,300.5h.032l4.024.252,3.694.232V287.25h-25V300.5H101.5a.5.5,0,0,0,.5,0Z" transform="translate(-701.316 -7.233)"/><path d="M138.5,281a.5.5,0,0,1-.5-.5V246H121a.5.5,0,0,1,0-1h17.5a.5.5,0,0,1,.5.5v35A.5.5,0,0,1,138.5,281Z" transform="translate(-701.316 -7.233)"/><path d="M136.5,307.5a.5.5,0,0,1-.5-.5V281.5a.5.5,0,0,1,1,0V307A.5.5,0,0,1,136.5,307.5Z" transform="translate(-701.316 -7.233)"/><path d="M110.25,277.249l-.045,0-3.257-.3-4.993-.453a.423.423,0,0,0-.455,0H84.25a.5.5,0,0,1-.5-.5v-8.75a.5.5,0,0,1,.5-.5h26a.5.5,0,0,1,.5.5v9.5a.5.5,0,0,1-.5.5ZM102,275.5l.046,0,4.992.453,2.712.246V267.75h-25v7.75H101.5a.5.5,0,0,0,.5,0Z" transform="translate(-701.316 -7.233)"/><path d="M119,306a.5.5,0,0,1-.5-.5V267.173l-20.069-20.62c-.4.191-.793.358-1.175.521A7.593,7.593,0,0,0,94.89,248.4c-3.658,3.571-7.337,7.245-10.894,10.8-2.837,2.834-5.77,5.764-8.677,8.625a4.218,4.218,0,0,1-1.843.883c-.282.083-.548.161-.79.258a.5.5,0,1,1-.371-.929c.286-.114.587-.2.879-.289a3.492,3.492,0,0,0,1.424-.636c2.9-2.859,5.836-5.787,8.672-8.62,3.559-3.555,7.24-7.232,10.9-10.807a8.4,8.4,0,0,1,2.673-1.531c.473-.2.961-.409,1.444-.655a.5.5,0,0,1,.585.1l20.464,21.026a.5.5,0,0,1,.142.349V305.5A.5.5,0,0,1,119,306Z" transform="translate(-701.316 -7.233)"/><path d="M58.5,306.5a.5.5,0,0,1-.5-.5V281.5a.5.5,0,0,1,1,0V306A.5.5,0,0,1,58.5,306.5Z" transform="translate(-701.316 -7.233)"/><path d="M156,306a.5.5,0,0,1-.5-.5V282a.5.5,0,0,1,1,0v23.5A.5.5,0,0,1,156,306Z" transform="translate(-701.316 -7.233)"/><path d="M114.035,248.538c-.776,0-1.564-.009-2.368-.018-.859-.01-1.746-.02-2.667-.02a.5.5,0,0,1-.5-.5v-6.75a.5.5,0,0,1,.5-.5h10.587a.5.5,0,0,1,.489.395l.913,4.25a2.033,2.033,0,0,0-.635.959,8.036,8.036,0,0,0-.583.689c-.507.643-1.03,1.309-1.738,1.365C116.72,248.511,115.4,248.538,114.035,248.538ZM109.5,247.5c.748,0,1.473.011,2.179.019,2.19.025,4.259.049,6.275-.11.271-.022.711-.579,1.031-.987a8.865,8.865,0,0,1,.661-.777.5.5,0,0,1,.342-.146l-.806-3.75H109.5Z" transform="translate(-701.316 -7.233)"/><path d="M137.5,311.5a.5.5,0,0,1-.494-.579,3.525,3.525,0,0,0-.48-2.951c-.6-.7-1.754-1.019-3.518-.988-2.8.049-5.645.038-8.4.027-1.184,0-2.408-.01-3.612-.01a.5.5,0,0,1,0-1c1.206,0,2.431,0,3.616.01,2.746.011,5.586.022,8.375-.027,2.106-.038,3.469.386,4.29,1.332a4.424,4.424,0,0,1,.712,3.764A.5.5,0,0,1,137.5,311.5Z" transform="translate(-701.316 -7.233)"/><path d="M158.75,312.821a.5.5,0,0,1-.122-.015l-3.362-.846-1.889-.475a.5.5,0,0,1,.244-.97l1.889.475,2.739.689v-4.717l-3.679.532a.5.5,0,0,1-.143-.99l4.25-.615a.5.5,0,0,1,.572.495v5.936a.5.5,0,0,1-.5.5Z" transform="translate(-701.316 -7.233)"/><path d="M92,301a.5.5,0,0,1-.5-.5v-13a.5.5,0,0,1,1,0v13A.5.5,0,0,1,92,301Z" transform="translate(-701.316 -7.233)"/><path d="M102,301a.5.5,0,0,1-.5-.5v-13a.5.5,0,0,1,1,0v13A.5.5,0,0,1,102,301Z" transform="translate(-701.316 -7.233)"/><path d="M99.5,246.5a.5.5,0,0,1-.029-1l4.25-.25,4.25-.25a.5.5,0,1,1,.059,1l-4.25.25-4.25.25Z" transform="translate(-701.316 -7.233)"/><path d="M102,276a.5.5,0,0,1-.5-.5V268a.5.5,0,0,1,1,0v7.5A.5.5,0,0,1,102,276Z" transform="translate(-701.316 -7.233)"/><path d="M103,297a.5.5,0,0,1-.332-.874l2.25-2,2.25-2a.5.5,0,1,1,.664.747l-2.25,2-2.25,2A.5.5,0,0,1,103,297Z" transform="translate(-701.316 -7.233)"/><path d="M94.5,293a.5.5,0,0,1-.313-.891l2.5-2,2.5-2a.5.5,0,0,1,.625.781l-2.5,2-2.5,2A.5.5,0,0,1,94.5,293Z" transform="translate(-701.316 -7.233)"/><path d="M86.5,293a.5.5,0,0,1-.307-.895l2.25-1.75,2.25-1.75a.5.5,0,0,1,.614.789l-2.25,1.75-2.25,1.75A.5.5,0,0,1,86.5,293Z" transform="translate(-701.316 -7.233)"/><path d="M95.5,272a.5.5,0,0,1-.379-.825l3-3.5a.5.5,0,1,1,.759.651l-3,3.5A.5.5,0,0,1,95.5,272Z" transform="translate(-701.316 -7.233)"/><path d="M92,276h-.034a.5.5,0,0,1-.466-.532q.125-1.875.25-3.75t.25-3.75a.5.5,0,1,1,1,.067q-.125,1.875-.25,3.75t-.25,3.75A.5.5,0,0,1,92,276Z" transform="translate(-701.316 -7.233)"/><path d="M96.5,275a.5.5,0,0,1-.459-.7l1.5-3.5a.5.5,0,0,1,.919.394l-1.5,3.5A.5.5,0,0,1,96.5,275Z" transform="translate(-701.316 -7.233)"/><path d="M74.5,311.5a.5.5,0,0,1-.494-.429l-.5-3.5a.5.5,0,0,1,.99-.141l.5,3.5a.5.5,0,0,1-.424.566A.506.506,0,0,1,74.5,311.5Z" transform="translate(-701.316 -7.233)"/><path d="M126.5,301a.5.5,0,0,1-.354-.854l3-3a.5.5,0,1,1,.707.707l-3,3A.5.5,0,0,1,126.5,301Z" transform="translate(-701.316 -7.233)"/><path d="M149,308.5a.5.5,0,0,1-.137-.981l1.75-.5,1.75-.5a.5.5,0,0,1,.274.962l-1.75.5-1.75.5A.5.5,0,0,1,149,308.5Z" transform="translate(-701.316 -7.233)"/></g></svg>