<svg xmlns="http://www.w3.org/2000/svg" width="126" height="61.5" viewBox="0 0 126 61.5"><g transform="translate(354.566 -132.517)"><path d="M472.25,201.25h-125a.5.5,0,0,1-.5-.5V197.5a.5.5,0,0,1,.5-.5c.9,0,1.807,0,2.767.008,2.11.008,4.291.017,6.476-.014,7.275-.107,14.671-.233,21.824-.355l8.175-.138a.5.5,0,0,1,.017,1l-8.174.138c-7.154.122-14.551.248-21.827.355-2.194.032-4.38.023-6.494.015-.781,0-1.527-.006-2.263-.007v2.25h124v-2.5H412.5a.5.5,0,0,1-.5-.5V178a.5.5,0,0,1,1,0v18.75h59.25a.5.5,0,0,1,.5.5v3.5A.5.5,0,0,1,472.25,201.25Z" transform="translate(-701.316 -7.233)"/><path d="M472.25,172.5H349.75a.5.5,0,0,1-.5-.5v-9.25a.5.5,0,0,1,.5-.5h50.5v-12.5H350a.5.5,0,0,1-.5-.5v-9a.5.5,0,0,1,.5-.5h64a.5.5,0,0,1,.5.5V171a.5.5,0,0,1-.5.5h57.75V163H453a.5.5,0,0,1,0-1h19.25a.5.5,0,0,1,.5.5V172A.5.5,0,0,1,472.25,172.5Zm-122-1H414a.5.5,0,0,1-.5-.5V140.75h-63v8h50.25a.5.5,0,0,1,.5.5v13.5a.5.5,0,0,1-.5.5h-50.5Z" transform="translate(-701.316 -7.233)"/><path d="M452.619,169.25H425.25a.5.5,0,0,1-.5-.5v-12.5a.5.5,0,0,1,.5-.5h32.5V147.5H415a.5.5,0,0,1,0-1h43.25a.5.5,0,0,1,.5.5v9.25a.5.5,0,0,1-.5.5h-5.817a.5.5,0,0,1,.066.224c.131,2.495.263,4.99.4,7.561l.221,4.189a.5.5,0,0,1-.5.526Zm-26.869-1h26.342l-.193-3.662c-.136-2.571-.267-5.066-.4-7.561a.5.5,0,0,1,.066-.276H425.75Z" transform="translate(-701.316 -7.233)"/><path d="M377,197a.5.5,0,0,1-.5-.5V177.25a.5.5,0,0,1,.5-.5h85.5V173a.5.5,0,0,1,1,0v4.25a.5.5,0,0,1-.5.5H377.5V196.5A.5.5,0,0,1,377,197Z" transform="translate(-701.316 -7.233)"/><path d="M359.5,197.5a.5.5,0,0,1-.5-.5V173a.5.5,0,0,1,1,0v24A.5.5,0,0,1,359.5,197.5Z" transform="translate(-701.316 -7.233)"/><path d="M414.5,197.5a.5.5,0,0,1-.5-.5V178a.5.5,0,0,1,1,0v19A.5.5,0,0,1,414.5,197.5Z" transform="translate(-701.316 -7.233)"/><path d="M388,196.5a.5.5,0,0,1-.5-.5V178.5a.5.5,0,0,1,1,0V196A.5.5,0,0,1,388,196.5Z" transform="translate(-701.316 -7.233)"/><path d="M401,196.5a.5.5,0,0,1-.5-.5V178.5a.5.5,0,0,1,1,0V196A.5.5,0,0,1,401,196.5Z" transform="translate(-701.316 -7.233)"/><path d="M419,197a.5.5,0,0,1-.5-.5v-8a.5.5,0,0,1,.5-.5h8V178a.5.5,0,0,1,1,0v10.5a.5.5,0,0,1-.5.5h-8v7.5A.5.5,0,0,1,419,197Z" transform="translate(-701.316 -7.233)"/><path d="M362.5,163a.5.5,0,0,1-.5-.5v-12a.5.5,0,0,1,1,0v12A.5.5,0,0,1,362.5,163Z" transform="translate(-701.316 -7.233)"/><path d="M353,162.5a.5.5,0,0,1-.5-.5V150.5a.5.5,0,0,1,1,0V162A.5.5,0,0,1,353,162.5Z" transform="translate(-701.316 -7.233)"/><path d="M442.5,169a.5.5,0,0,1-.5-.5V157a.5.5,0,0,1,1,0v11.5A.5.5,0,0,1,442.5,169Z" transform="translate(-701.316 -7.233)"/><path d="M463,197a.5.5,0,0,1-.5-.5v-7.31l-1.3-.1-7.734-.592a.5.5,0,0,1,.076-1l7.734.592,1.766.135a.5.5,0,0,1,.462.5V196.5A.5.5,0,0,1,463,197Z" transform="translate(-701.316 -7.233)"/><path d="M374.5,162.5h-.024a.5.5,0,0,1-.476-.523q.125-2.625.25-5.25t.25-5.25a.5.5,0,1,1,1,.048q-.125,2.625-.25,5.25t-.25,5.25A.5.5,0,0,1,374.5,162.5Z" transform="translate(-701.316 -7.233)"/><path d="M399.5,197.5h-10a.5.5,0,0,1,0-1h10a.5.5,0,0,1,0,1Z" transform="translate(-701.316 -7.233)"/><path d="M425.5,188.5a.5.5,0,0,1-.5-.5V178a.5.5,0,0,1,1,0v10A.5.5,0,0,1,425.5,188.5Z" transform="translate(-701.316 -7.233)"/><path d="M450.5,188.5h-10a.5.5,0,0,1,0-1h10a.5.5,0,0,1,0,1Z" transform="translate(-701.316 -7.233)"/><path d="M428,189a.5.5,0,0,1-.026-1l4.75-.25,4.75-.25a.5.5,0,0,1,.053,1l-4.75.25-4.75.25Z" transform="translate(-701.316 -7.233)"/><path d="M459,188a.5.5,0,0,1-.5-.5V178a.5.5,0,0,1,1,0v9.5A.5.5,0,0,1,459,188Z" transform="translate(-701.316 -7.233)"/><path d="M412,198h-.027l-9.5-.5a.5.5,0,0,1,.053-1l9.5.5a.5.5,0,0,1-.026,1Z" transform="translate(-701.316 -7.233)"/><path d="M433,168.5a.5.5,0,0,1-.5-.5v-9.5a.5.5,0,0,1,1,0V168A.5.5,0,0,1,433,168.5Z" transform="translate(-701.316 -7.233)"/><path d="M387,161a.5.5,0,0,1-.5-.5v-9a.5.5,0,0,1,1,0v9A.5.5,0,0,1,387,161Z" transform="translate(-701.316 -7.233)"/><path d="M432.5,185a.5.5,0,0,1-.317-.887l5.5-4.5a.5.5,0,1,1,.633.774l-5.5,4.5A.5.5,0,0,1,432.5,185Z" transform="translate(-701.316 -7.233)"/><path d="M391.5,195a.5.5,0,0,1-.39-.812l2-2.5,2-2.5a.5.5,0,0,1,.781.625l-2,2.5-2,2.5A.5.5,0,0,1,391.5,195Z" transform="translate(-701.316 -7.233)"/><path d="M417,185.5a.5.5,0,0,1-.354-.854l4.5-4.5a.5.5,0,0,1,.707.707l-4.5,4.5A.5.5,0,0,1,417,185.5Z" transform="translate(-701.316 -7.233)"/><path d="M379.5,185a.5.5,0,0,1-.313-.891l2.5-2,2.5-2a.5.5,0,0,1,.625.781l-2.5,2-2.5,2A.5.5,0,0,1,379.5,185Z" transform="translate(-701.316 -7.233)"/><path d="M406.5,194a.5.5,0,0,1-.354-.854l4-4a.5.5,0,0,1,.707.707l-4,4A.5.5,0,0,1,406.5,194Z" transform="translate(-701.316 -7.233)"/><path d="M442.5,185a.5.5,0,0,1-.3-.9l4-3a.5.5,0,0,1,.6.8l-4,3A.5.5,0,0,1,442.5,185Z" transform="translate(-701.316 -7.233)"/></g></svg>