<svg xmlns="http://www.w3.org/2000/svg" width="121.566" height="50.334" viewBox="0 0 121.566 50.334"><g transform="translate(206.751 -252.517)"><path d="M498.922,310.084a3.055,3.055,0,0,1-1.076-.168,10.824,10.824,0,0,1-2.194-1.232c-.278-.186-.565-.378-.848-.551a.5.5,0,0,1-.211-.593l.427-1.207a.5.5,0,0,1,.471-.333H561V293.5a.5.5,0,0,1,1,0v12.01c2.38.048,4.789.1,7.125.156,5.7.13,11.587.264,17.38.314,6.74.059,13.615.045,20.264.032,2.9-.006,5.9-.012,8.863-.012a.5.5,0,0,1,.5.559c-.45,3.8-2.872,3.607-4.641,3.465-.347-.028-.676-.054-.98-.054H610.5c-30.269.034-61.043.032-90.8.031H500.5c-.238,0-.486.02-.749.04S499.2,310.084,498.922,310.084Zm111.584-1.114c.345,0,.709.029,1.06.057,1.678.134,3.028.242,3.481-2.027-2.773,0-5.568.006-8.277.012-6.652.013-13.529.027-20.274-.032-5.8-.05-11.694-.184-17.394-.314-2.328-.053-4.73-.108-7.1-.156a.5.5,0,0,1-.5.49H495.845l-.176.5c.182.118.362.238.538.356a9.93,9.93,0,0,0,1.987,1.126,3.674,3.674,0,0,0,1.478.064c.271-.021.55-.044.827-.044h38.176c23.76,0,47.947,0,71.823-.031Z" transform="translate(-701.316 -7.233)"/><path d="M534.5,306.5a.5.5,0,0,1-.5-.5V283.5H499.5v22a.5.5,0,0,1-1,0V283a.5.5,0,0,1,.5-.5h35.5a.5.5,0,0,1,.5.5v23A.5.5,0,0,1,534.5,306.5Z" transform="translate(-701.316 -7.233)"/><path d="M530.5,306.5a.5.5,0,0,1-.5-.5V287.75H503.5V305.5a.5.5,0,0,1-1,0V287.25a.5.5,0,0,1,.5-.5h27.5a.5.5,0,0,1,.5.5V306A.5.5,0,0,1,530.5,306.5Z" transform="translate(-701.316 -7.233)"/><path d="M615.25,289H535.5a.5.5,0,0,1,0-1h79.25V265.98a14.785,14.785,0,0,1-4.155.026c-2.594-.228-5.045-.443-7.354,1.748-.709.674-1.948.526-3.259.37A13.345,13.345,0,0,0,598.5,268a.5.5,0,0,1,0-1,14.032,14.032,0,0,1,1.6.131c.976.117,2.083.249,2.452-.1a7.466,7.466,0,0,1,4.087-2.039,16.479,16.479,0,0,1,4.043.02,11.84,11.84,0,0,0,4.425-.146.5.5,0,0,1,.643.479V288.5A.5.5,0,0,1,615.25,289Z" transform="translate(-701.316 -7.233)"/><path d="M543.5,288.5a.5.5,0,0,1-.5-.5V260.25a.5.5,0,0,1,.5-.5H572a.5.5,0,0,1,.5.5V287.5a.5.5,0,0,1-1,0V260.75H544V288A.5.5,0,0,1,543.5,288.5Z" transform="translate(-701.316 -7.233)"/><path d="M568.75,286.25h-22.5a.5.5,0,0,1-.5-.5V262.841a.5.5,0,0,1,.545-.5l7.2.655a.5.5,0,0,1,.5-.5h14.75a.5.5,0,0,1,.5.5v22.75A.5.5,0,0,1,568.75,286.25Zm-22-1h21.5V263.5H554c0,.015,0,.03,0,.045a.5.5,0,0,1-.543.453l-6.7-.609Z" transform="translate(-701.316 -7.233)"/><path d="M528,282.5a.5.5,0,0,1-.5-.5V265.5a.5.5,0,0,1,.5-.5h14.5a.5.5,0,0,1,0,1h-14v16A.5.5,0,0,1,528,282.5Z" transform="translate(-701.316 -7.233)"/><path d="M604.508,277.25H597.5a.5.5,0,0,1-.5-.5V266H573a.5.5,0,0,1,0-1h24.5a.5.5,0,0,1,.5.5v10.75h5.98l-.169-3.068c-.1-1.852-.206-3.753-.31-5.654a.5.5,0,0,1,1-.055c.1,1.9.209,3.8.31,5.654l.2,3.6a.5.5,0,0,1-.5.527Z" transform="translate(-701.316 -7.233)"/><path d="M528.5,290H504a.5.5,0,0,1,0-1h24.5a.5.5,0,0,1,0,1Z" transform="translate(-701.316 -7.233)"/><path d="M528.5,302H504a.5.5,0,0,1,0-1h24.5a.5.5,0,0,1,0,1Z" transform="translate(-701.316 -7.233)"/><path d="M528.5,297H504a.5.5,0,0,1,0-1h24.5a.5.5,0,0,1,0,1Z" transform="translate(-701.316 -7.233)"/><path d="M528.5,304H504a.5.5,0,0,1,0-1h24.5a.5.5,0,0,1,0,1Z" transform="translate(-701.316 -7.233)"/><path d="M528.5,299.5h-23a.5.5,0,0,1,0-1h23a.5.5,0,0,1,0,1Z" transform="translate(-701.316 -7.233)"/><path d="M552.5,306.5a.5.5,0,0,1-.5-.5V292.75a.5.5,0,0,1,.5-.5H588a.5.5,0,0,1,.5.5V305.5a.5.5,0,0,1-1,0V293.25H553V306A.5.5,0,0,1,552.5,306.5Z" transform="translate(-701.316 -7.233)"/><path d="M562,285.5a.5.5,0,0,1-.5-.5V264a.5.5,0,0,1,1,0v21A.5.5,0,0,1,562,285.5Z" transform="translate(-701.316 -7.233)"/><path d="M553.5,285.5a.5.5,0,0,1-.5-.5V264a.5.5,0,0,1,1,0v21A.5.5,0,0,1,553.5,285.5Z" transform="translate(-701.316 -7.233)"/><path d="M606,306a.5.5,0,0,1-.5-.5V293H589a.5.5,0,0,1,0-1h17a.5.5,0,0,1,.5.5v13A.5.5,0,0,1,606,306Z" transform="translate(-701.316 -7.233)"/><path d="M527,293.5H507a.5.5,0,0,1,0-1h20a.5.5,0,0,1,0,1Z" transform="translate(-701.316 -7.233)"/><path d="M609,306a.5.5,0,0,1-.5-.5v-16a.5.5,0,0,1,1,0v16A.5.5,0,0,1,609,306Z" transform="translate(-701.316 -7.233)"/><path d="M597.5,306.5a.5.5,0,0,1-.5-.5V293.5a.5.5,0,0,1,1,0V306A.5.5,0,0,1,597.5,306.5Z" transform="translate(-701.316 -7.233)"/><path d="M570,306h-.021a.5.5,0,0,1-.479-.52q.125-3,.25-6t.25-6a.5.5,0,0,1,1,.042q-.125,3-.25,6t-.25,6A.5.5,0,0,1,570,306Z" transform="translate(-701.316 -7.233)"/><path d="M579.5,306.5a.5.5,0,0,1-.5-.5V293.5a.5.5,0,0,1,1,0V306A.5.5,0,0,1,579.5,306.5Z" transform="translate(-701.316 -7.233)"/><path d="M554.5,304a.5.5,0,0,1-.354-.854l4-4a.5.5,0,0,1,.707.707l-4,4A.5.5,0,0,1,554.5,304Z" transform="translate(-701.316 -7.233)"/><path d="M599.5,298a.5.5,0,0,1-.3-.9l4-3a.5.5,0,0,1,.6.8l-4,3A.5.5,0,0,1,599.5,298Z" transform="translate(-701.316 -7.233)"/><path d="M591.5,304a.5.5,0,0,1-.3-.9l4-3a.5.5,0,0,1,.6.8l-4,3A.5.5,0,0,1,591.5,304Z" transform="translate(-701.316 -7.233)"/><path d="M582.5,299a.5.5,0,0,1-.354-.854l3-3a.5.5,0,0,1,.707.707l-3,3A.5.5,0,0,1,582.5,299Z" transform="translate(-701.316 -7.233)"/><path d="M564.5,299a.5.5,0,0,1-.354-.854l3-3a.5.5,0,0,1,.707.707l-3,3A.5.5,0,0,1,564.5,299Z" transform="translate(-701.316 -7.233)"/><path d="M573.5,306.5a.5.5,0,0,1-.434-.748l2-3.5a.5.5,0,1,1,.868.5l-2,3.5A.5.5,0,0,1,573.5,306.5Z" transform="translate(-701.316 -7.233)"/><path d="M591.25,282.25h-7.6a.5.5,0,0,1-.471-.669,10.267,10.267,0,0,0,.232-4.541c-.228-2.322-.463-4.723,1.733-6.9A3.259,3.259,0,0,0,586,270h5.25a.5.5,0,0,1,.5.5v11.25A.5.5,0,0,1,591.25,282.25Zm-6.923-1h6.423V271H586a.5.5,0,0,1-.234-.058c-1.765,1.813-1.575,3.756-1.355,6A12.491,12.491,0,0,1,584.327,281.25Z" transform="translate(-701.316 -7.233)"/></g></svg>