<svg xmlns="http://www.w3.org/2000/svg" width="116.504" height="63.711" viewBox="0 0 116.504 63.711"><g transform="translate(350.96 -352.561)"><path d="M372.43,423.505c-5.621,0-11.308-.006-16.932-.029a22.707,22.707,0,0,1-3.249-.328c-.477-.072-.971-.146-1.452-.2a.5.5,0,0,1-.44-.525l.089-1.562a.5.5,0,0,1,.468-.471c1.465-.093,2.956-.213,4.4-.329,3.173-.255,6.451-.519,9.689-.511,8.1.021,16.333.124,24.3.224,6.787.085,13.8.173,20.706.209,12.807.068,25.831.041,38.425.015l9.071-.017a2.4,2.4,0,0,0,.829-.251c.165-.07.336-.143.513-.2a1.358,1.358,0,0,0,.743-.019l6.86,1.181a.5.5,0,0,1,.128.945c-.709.334-1.275.651-1.775.93a4.967,4.967,0,0,1-2.3.88c-21,.06-42.356.058-63.005.057q-9.532,0-19.064,0Zm-21.048-1.493c.342.046.683.1,1.016.147a21.964,21.964,0,0,0,3.1.317c8.309.035,16.758.031,24.929.027q9.532,0,19.065,0c20.649,0,42,0,63-.057a4.4,4.4,0,0,0,1.811-.753c.151-.085.314-.176.489-.271l-5.383-.927a.185.185,0,0,0-.257-.018c-.14.047-.285.108-.439.174a3.173,3.173,0,0,1-1.219.331L448.43,421c-12.6.026-25.621.053-38.432-.015-6.9-.036-13.925-.124-20.713-.209-7.96-.1-16.191-.2-24.285-.224-3.2-.009-6.454.254-9.606.508-1.3.1-2.644.213-3.973.3Z" transform="translate(-701.316 -7.233)"/><path d="M365,420a.5.5,0,0,1-.5-.5V390.317l-4.147,2.046-2.988,1.474a.5.5,0,0,1-.684-.26l-.17-.419c-.466-1.146-.823-2.025-1.207-2.97a.5.5,0,0,1,.463-.688c.166,0,.3.009.4.015.053,0,.117.008.151.007,4.429-2.05,8.931-4.13,13.286-6.141,15.8-7.3,32.142-14.845,48.123-22.453,2.489-1.186,4.432-1.632,7-.4,5.515,2.64,11.133,5.3,16.567,7.878,7.02,3.328,14.279,6.769,21.4,10.2a7.39,7.39,0,0,1,2.193,1.958c.371.425.754.864,1.21,1.318a.5.5,0,0,1-.292.85l-6.242.768a.5.5,0,0,1-.122-.993l5.258-.647c-.2-.222-.389-.437-.565-.639a6.644,6.644,0,0,0-1.874-1.715c-7.116-3.428-14.374-6.868-21.393-10.2-5.434-2.576-11.053-5.24-16.57-7.88-2.218-1.062-3.868-.677-6.137.4-15.986,7.611-32.329,15.159-48.133,22.458-4.366,2.016-8.88,4.1-13.319,6.156a.779.779,0,0,1-.194.061l.892,2.2,2.506-1.236,4.868-2.4a.5.5,0,0,1,.721.448V419.5A.5.5,0,0,1,365,420Z" transform="translate(-701.316 -7.233)"/><path d="M458,402H384.5a.5.5,0,0,1,0-1H458a.5.5,0,0,1,0,1Z" transform="translate(-701.316 -7.233)"/><path d="M358.5,420.5a.5.5,0,0,1-.5-.491q-.125-6.625-.25-13.25t-.25-13.25a.5.5,0,0,1,.49-.509H358a.5.5,0,0,1,.5.491q.125,6.625.25,13.25t.25,13.25a.5.5,0,0,1-.49.509Z" transform="translate(-701.316 -7.233)"/><path d="M434.5,420.5a.5.5,0,0,1-.5-.5V405.25a.5.5,0,0,1,.5-.5H455a.5.5,0,0,1,.5.5V419.5a.5.5,0,0,1-1,0V405.75H435V420A.5.5,0,0,1,434.5,420.5Z" transform="translate(-701.316 -7.233)"/><path d="M431.5,420.5a.5.5,0,0,1-.5-.5V405.75H411.5V419.5a.5.5,0,0,1-1,0V405.25a.5.5,0,0,1,.5-.5h20.5a.5.5,0,0,1,.5.5V420A.5.5,0,0,1,431.5,420.5Z" transform="translate(-701.316 -7.233)"/><path d="M408,420a.5.5,0,0,1-.5-.5V405.75h-20V419.5a.5.5,0,0,1-1,0V405.25a.5.5,0,0,1,.5-.5h21a.5.5,0,0,1,.5.5V419.5A.5.5,0,0,1,408,420Z" transform="translate(-701.316 -7.233)"/><path d="M453.25,399.923a.5.5,0,0,1-.076-.006l-9.25-1.423a.5.5,0,1,1,.152-.988l8.674,1.334V382.25h-28v16l4-.327,5.206-.426a.5.5,0,0,1,.081,1l-5.206.426-4.544.371a.5.5,0,0,1-.541-.5V381.75a.5.5,0,0,1,.5-.5h29a.5.5,0,0,1,.5.5v17.673a.5.5,0,0,1-.5.5Z" transform="translate(-701.316 -7.233)"/><path d="M383.5,420.5a.5.5,0,0,1-.5-.5q0-5.013,0-10.025c0-7.858-.01-15.984.013-23.976a9.315,9.315,0,0,1,4.042-7.564,10.546,10.546,0,0,1,8.989-1.6,7.763,7.763,0,0,1,3.088-3.9,17.068,17.068,0,0,1,4.444-1.826,20.729,20.729,0,0,0,3.176-1.152.5.5,0,0,1,.671.228l.254.518.841,1.715.848-3.783a.5.5,0,0,1,.275-.343l7.341-3.462,2.678-1.262a.5.5,0,0,1,.669.246l1.162,2.566.816-1.29.586-.926a.5.5,0,0,1,.627-.189l9.983,4.482a.5.5,0,0,1,.286.363c.138.727.269,1.417.437,2.3l.237,1.251,1.281-2.446a.5.5,0,0,1,.682-.207l5.342,2.909,4.476,2.437a.5.5,0,1,1-.478.878l-4.476-2.437-4.9-2.666-1.363,2.6-.348.665a.5.5,0,0,1-.934-.139l-.505-2.662c-.148-.778-.267-1.406-.388-2.043l-9.35-4.2-.354.559-1.312,2.073a.5.5,0,0,1-.878-.061l-1.335-2.947-2.218,1.046-7.12,3.357-1.106,4.932a.5.5,0,0,1-.937.11l-1.466-2.993-.038-.077a25.606,25.606,0,0,1-2.874,1c-2.989.909-5.812,1.768-7.035,5.541a.5.5,0,0,1-.635.32,9.526,9.526,0,0,0-8.559,1.324A8.327,8.327,0,0,0,384.009,386c-.023,7.99-.018,16.115-.013,23.973q0,5.013,0,10.026A.5.5,0,0,1,383.5,420.5Z" transform="translate(-701.316 -7.233)"/><path d="M459,420a.5.5,0,0,1-.5-.5V382.739a12.472,12.472,0,0,0-11.46-5.241.5.5,0,0,1-.08-1,13.624,13.624,0,0,1,7.4,1.378,14.287,14.287,0,0,1,5.049,4.4.5.5,0,0,1,.1.294V419.5A.5.5,0,0,1,459,420Z" transform="translate(-701.316 -7.233)"/><path d="M365.5,390.5a.5.5,0,0,1-.231-.944c1.218-.632,2.455-1.28,3.651-1.908,3.222-1.69,6.553-3.438,9.891-5.041a7.371,7.371,0,0,1,2.874-.514c.438-.02.852-.039,1.252-.089a.5.5,0,1,1,.124.992c-.44.055-.892.076-1.331.1a6.564,6.564,0,0,0-2.487.416c-3.322,1.595-6.646,3.339-9.86,5.025-1.2.628-2.434,1.277-3.655,1.91A.5.5,0,0,1,365.5,390.5Z" transform="translate(-701.316 -7.233)"/><path d="M382.5,407.5H366a.5.5,0,0,1,0-1h16.5a.5.5,0,0,1,0,1Z" transform="translate(-701.316 -7.233)"/><path d="M424.5,420.5a.5.5,0,0,1-.5-.5V406a.5.5,0,0,1,1,0v14A.5.5,0,0,1,424.5,420.5Z" transform="translate(-701.316 -7.233)"/><path d="M441.5,420.5a.5.5,0,0,1-.5-.5V406a.5.5,0,0,1,1,0v14A.5.5,0,0,1,441.5,420.5Z" transform="translate(-701.316 -7.233)"/><path d="M448.5,420.5a.5.5,0,0,1-.5-.5V406a.5.5,0,0,1,1,0v14A.5.5,0,0,1,448.5,420.5Z" transform="translate(-701.316 -7.233)"/><path d="M401,420a.5.5,0,0,1-.5-.5V406a.5.5,0,0,1,1,0v13.5A.5.5,0,0,1,401,420Z" transform="translate(-701.316 -7.233)"/><path d="M394,420a.5.5,0,0,1-.5-.5V406a.5.5,0,0,1,1,0v13.5A.5.5,0,0,1,394,420Z" transform="translate(-701.316 -7.233)"/><path d="M418,420a.5.5,0,0,1-.5-.481q-.125-3.375-.25-6.75t-.25-6.75a.5.5,0,1,1,1-.037q.125,3.375.25,6.75t.25,6.75a.5.5,0,0,1-.481.518Z" transform="translate(-701.316 -7.233)"/><path d="M444,399.25h-9.566a.5.5,0,0,1-.5-.472c-.039-.7-.085-1.425-.134-2.188-.115-1.808-.233-3.677-.284-5.576-.053-1.979-.04-3.988-.028-5.932.005-.847.011-1.722.011-2.582a.5.5,0,0,1,1,0c0,.863-.006,1.74-.011,2.588-.012,1.935-.025,3.936.028,5.9.05,1.881.168,3.741.282,5.54.038.6.074,1.166.107,1.723H443.5V382.5a.5.5,0,0,1,1,0v16.25A.5.5,0,0,1,444,399.25Z" transform="translate(-701.316 -7.233)"/><path d="M408.5,398.5a.5.5,0,0,1-.5-.5V382.5a.5.5,0,0,1,1,0V398A.5.5,0,0,1,408.5,398.5Z" transform="translate(-701.316 -7.233)"/><path d="M398.5,398.5a.5.5,0,0,1-.5-.5V382.5a.5.5,0,0,1,1,0V398A.5.5,0,0,1,398.5,398.5Z" transform="translate(-701.316 -7.233)"/><path d="M452.5,387.5H425a.5.5,0,0,1,0-1h27.5a.5.5,0,0,1,0,1Z" transform="translate(-701.316 -7.233)"/><path d="M390,388a.5.5,0,0,1-.009-1l13.75-.25,13.75-.25h.009a.5.5,0,0,1,.009,1l-13.75.25-13.75.25Z" transform="translate(-701.316 -7.233)"/></g></svg>