<svg xmlns="http://www.w3.org/2000/svg" width="110.693" height="74.24" viewBox="0 0 110.693 74.24"><g transform="translate(345.316 -452.767)"><path d="M405.61,499.25H395a.5.5,0,0,1-.5-.5V493.5a.409.409,0,0,0,0-.446c-.511-4.7-.785-9.7,1.887-14.489a.5.5,0,0,1,.881.014,33.585,33.585,0,0,0,3.885,5.492c3.293,4.057,6.7,8.251,4.937,14.809A.5.5,0,0,1,405.61,499.25Zm-10.11-1h9.721c1.408-5.851-1.63-9.592-4.842-13.549a39.951,39.951,0,0,1-3.539-4.835c-2.073,4.294-1.807,8.807-1.344,13.08a.613.613,0,0,0,0,.554Z" transform="translate(-701.316 -7.233)"/><path d="M453.5,499H429a.5.5,0,0,1,0-1h24V478.5H431.5a.5.5,0,0,1,0-1h22a.5.5,0,0,1,.5.5v20.5A.5.5,0,0,1,453.5,499Z" transform="translate(-701.316 -7.233)"/><path d="M391.5,516H381.25a.5.5,0,0,1-.5-.5V504.25a.5.5,0,0,1,.5-.5H392a.5.5,0,0,1,.5.5V515a.5.5,0,0,1-.5.5A.5.5,0,0,1,391.5,516Zm-9.75-1h9.75V504.75h-9.75Z" transform="translate(-701.316 -7.233)"/><path d="M373.98,495.25H356.5a.5.5,0,0,1-.5-.5V469.505a.5.5,0,0,1,.5-.5C366.667,469,377,469,387,469a.5.5,0,0,1,0,1c-9.833,0-19.994,0-30,0V494.25h16.631c.25-.695.467-1.378.679-2.041a19.042,19.042,0,0,1,1.825-4.44c3.17-5.028,6.478-10.084,9.676-14.974,2.052-3.137,4.175-6.381,6.239-9.586a6.482,6.482,0,0,0,.689-1.864c.087-.331.177-.673.287-1a.5.5,0,0,1,.949.316c-.1.3-.182.613-.269.943a7.306,7.306,0,0,1-.816,2.152c-2.066,3.207-4.189,6.452-6.243,9.591-3.2,4.886-6.5,9.939-9.667,14.96a18.334,18.334,0,0,0-1.718,4.21c-.248.778-.5,1.582-.814,2.412A.5.5,0,0,1,373.98,495.25Z" transform="translate(-701.316 -7.233)"/><path d="M451.91,533.75H359a.5.5,0,0,1-.5-.5V495.5a.5.5,0,0,1,1,0v37.25h91.858c-.126-1.251-.256-2.49-.383-3.693-.363-3.451-.707-6.711-.925-10.027a22.825,22.825,0,0,1,.249-4.214c.074-.611.151-1.242.2-1.857a.5.5,0,1,1,1,.083c-.053.634-.131,1.275-.206,1.895a22.083,22.083,0,0,0-.244,4.028c.216,3.3.559,6.547.921,9.988.145,1.381.3,2.809.438,4.249a.5.5,0,0,1-.5.549Z" transform="translate(-701.316 -7.233)"/><path d="M430,494a.5.5,0,0,1-.5-.5v-24H413a.5.5,0,0,1,0-1h17a.5.5,0,0,1,.5.5v24.5A.5.5,0,0,1,430,494Z" transform="translate(-701.316 -7.233)"/><path d="M460.688,534.24a.5.5,0,0,1-.4-.2,7.973,7.973,0,0,0-.584-.659,3.22,3.22,0,0,1-1.127-1.859c-.133-2.453-.112-4.946-.092-7.358.007-.874.015-1.778.015-2.665a.5.5,0,0,1,1,0c0,.891-.007,1.8-.015,2.673-.02,2.4-.04,4.874.091,7.3.019.346.462.812.853,1.224.127.134.257.271.381.41l.69-.378V521.5a.5.5,0,0,1,1,0v11.522a.5.5,0,0,1-.26.439l-1.312.718A.5.5,0,0,1,460.688,534.24Z" transform="translate(-701.316 -7.233)"/><path d="M411.5,521.5a.5.5,0,0,1-.5-.5c0-2.412.009-4.864.018-7.235.023-6.149.047-12.506-.087-18.753-.057-2.653-.222-5.651-1.482-7.668-3.641-5.83-7.62-11.593-11.467-17.166-1.445-2.093-2.939-4.258-4.4-6.4a.5.5,0,0,1,.827-.563c1.454,2.136,2.947,4.3,4.392,6.391,3.854,5.582,7.839,11.355,11.492,17.2,1.394,2.232,1.574,5.391,1.634,8.176.134,6.259.11,12.624.087,18.778-.009,2.37-.018,4.821-.018,7.231A.5.5,0,0,1,411.5,521.5Z" transform="translate(-701.316 -7.233)"/><path d="M375,521.5a.5.5,0,0,1-.5-.5V495.5a.5.5,0,0,1,1,0V521A.5.5,0,0,1,375,521.5Z" transform="translate(-701.316 -7.233)"/><path d="M442,510a.5.5,0,0,1-.5-.5v-4.75H434v4.75a.5.5,0,0,1-1,0v-5.25a.5.5,0,0,1,.5-.5H442a.5.5,0,0,1,.5.5v5.25A.5.5,0,0,1,442,510Z" transform="translate(-701.316 -7.233)"/><path d="M376,521.5a.5.5,0,0,1-.007-1l17.25-.25,17.25-.25a.5.5,0,1,1,.015,1l-17.25.25-17.25.25Z" transform="translate(-701.316 -7.233)"/><path d="M411.5,521.5a.5.5,0,0,1-.031-1l23.5-1.5a.5.5,0,1,1,.064,1l-23.5,1.5Z" transform="translate(-701.316 -7.233)"/><path d="M405.665,530.25h-4.858a.5.5,0,0,1-.446-.726,3.25,3.25,0,0,0,.062-1.986,3.668,3.668,0,0,1,.062-2.115c.34-.752,1.114-1.2,2.435-1.417a.4.4,0,0,0,.4-.474.5.5,0,0,1,.644.292l.87,2.31,1.3,3.44a.5.5,0,0,1-.468.676Zm-4.17-1h3.448l-1.041-2.764-.6-1.589a.5.5,0,0,1-.223.1c-2,.326-1.885,1.057-1.67,2.384A5.531,5.531,0,0,1,401.495,529.25Z" transform="translate(-701.316 -7.233)"/><path d="M428,495.5h-.016l-7.75-.25-7.75-.25a.5.5,0,0,1,.032-1l7.75.25,7.75.25a.5.5,0,0,1-.016,1Z" transform="translate(-701.316 -7.233)"/><path d="M465.317,521.2h-.026l-12.667-.662-.65-.034a.5.5,0,1,1,.052-1l.65.034,12.194.637c.212-1.984.4-3.7.59-5.519l.177-1.653H452a.5.5,0,0,1,0-1h14.193a.5.5,0,0,1,.5.553l-.236,2.206c-.21,1.966-.406,3.8-.64,5.99A.5.5,0,0,1,465.317,521.2Z" transform="translate(-701.316 -7.233)"/><path d="M374.5,522h-.018l-7.25-.25-7.25-.25a.5.5,0,0,1,.035-1l7.25.25,7.25.25a.5.5,0,0,1-.017,1Z" transform="translate(-701.316 -7.233)"/><path d="M451,513.5h-.018a.5.5,0,0,1-.482-.518q.125-3.5.25-7t.25-7a.5.5,0,1,1,1,.036q-.125,3.5-.25,7t-.25,7A.5.5,0,0,1,451,513.5Z" transform="translate(-701.316 -7.233)"/><path d="M429,513a.5.5,0,0,1-.5-.46c-.1-1.2-.21-2.429-.321-3.614-.272-2.92-.554-5.939-.593-8.921a11.854,11.854,0,0,1,.886-3.951c.193-.555.392-1.13.543-1.686a.5.5,0,1,1,.965.263c-.161.589-.365,1.179-.563,1.75a10.964,10.964,0,0,0-.831,3.611c.038,2.942.318,5.941.588,8.841.111,1.188.225,2.417.322,3.627a.5.5,0,0,1-.459.538Z" transform="translate(-701.316 -7.233)"/><path d="M411.591,472.75H405a.5.5,0,0,1-.5-.5v-6.5a.5.5,0,0,1,.5-.5h6.8a.5.5,0,0,1,.489.394c.236,1.091.424,1.967.606,2.81l.095.44a1.492,1.492,0,0,0-.014.762c-.174.528-.349,1.055-.538,1.629l-.371,1.121A.5.5,0,0,1,411.591,472.75Zm-6.091-1h5.73l.257-.779c.19-.573.364-1.1.538-1.628a.168.168,0,0,0-.014-.238l-.095-.44c-.159-.739-.324-1.5-.521-2.415h-5.9Z" transform="translate(-701.316 -7.233)"/><path d="M429,533a.5.5,0,0,1-.5-.5V513a.5.5,0,0,1,.5-.5h21.5a.5.5,0,0,1,0,1h-21v19A.5.5,0,0,1,429,533Z" transform="translate(-701.316 -7.233)"/><path d="M436,533a.5.5,0,0,1-.5-.487q-.125-4.75-.25-9.5t-.25-9.5a.5.5,0,0,1,1-.026q.125,4.75.25,9.5t.25,9.5a.5.5,0,0,1-.487.513Z" transform="translate(-701.316 -7.233)"/><path d="M432,533a.5.5,0,0,1-.5-.5V521a.5.5,0,0,1,1,0v11.5A.5.5,0,0,1,432,533Z" transform="translate(-701.316 -7.233)"/><path d="M444,533l-.04,0a.5.5,0,0,1-.459-.538l1.5-19a.5.5,0,1,1,1,.079l-1.5,19A.5.5,0,0,1,444,533Z" transform="translate(-701.316 -7.233)"/><path d="M448,533a.5.5,0,0,1-.5-.5V521a.5.5,0,0,1,1,0v11.5A.5.5,0,0,1,448,533Z" transform="translate(-701.316 -7.233)"/><path d="M412,533a.5.5,0,0,1-.5-.5V522a.5.5,0,0,1,1,0v10.5A.5.5,0,0,1,412,533Z" transform="translate(-701.316 -7.233)"/><path d="M393,533h-.024a.5.5,0,0,1-.476-.523q.125-2.625.25-5.25t.25-5.25a.5.5,0,1,1,1,.048q-.125,2.625-.25,5.25t-.25,5.25A.5.5,0,0,1,393,533Z" transform="translate(-701.316 -7.233)"/><path d="M392,499.25H381.265a.5.5,0,0,1-.491-.405c-1.4-7.264,2.419-12.023,6.115-16.625.915-1.14,1.862-2.319,2.7-3.508a1.856,1.856,0,0,1,1.262-.065,6,6,0,0,0,.516.434c.518.406,1.055.827,1.065,1.411.08,4.751.074,9.421.068,14.366q0,1.932,0,3.892A.5.5,0,0,1,392,499.25Zm-10.317-1H391.5q0-1.707,0-3.393c.006-4.938.012-9.6-.068-14.341-.04-.145-.457-.472-.682-.649-.162-.127-.328-.257-.478-.392-.823,1.15-1.729,2.278-2.606,3.37C384.026,487.382,380.581,491.671,381.683,498.25Z" transform="translate(-701.316 -7.233)"/><path d="M423.25,515.75H415a.5.5,0,0,1-.5-.566l.444-3.331c.362-2.713.709-5.316,1.056-7.919a2.787,2.787,0,0,1,1-.434h6.25a.5.5,0,0,1,.5.5v11.25A.5.5,0,0,1,423.25,515.75Zm-7.679-1h7.179V504.5H417a.508.508,0,0,1-.062,0c-.328,2.46-.656,4.925-1,7.489Z" transform="translate(-701.316 -7.233)"/><path d="M405.75,515.75H394.6a.5.5,0,0,1-.461-.693,9.406,9.406,0,0,0,.317-4.668c-.222-2.305-.452-4.689,1.7-6.751A3.041,3.041,0,0,0,397,503.5h8.75a.5.5,0,0,1,.5.5v11.25A.5.5,0,0,1,405.75,515.75Zm-10.45-1h9.95V504.5H397a.5.5,0,0,1-.236-.059c-1.718,1.707-1.532,3.631-1.318,5.853A11.727,11.727,0,0,1,395.3,514.75Z" transform="translate(-701.316 -7.233)"/><path d="M371.25,515.75H362.6a.5.5,0,0,1-.461-.693,9.406,9.406,0,0,0,.317-4.668c-.222-2.305-.452-4.689,1.7-6.751A3.041,3.041,0,0,0,365,503.5h6.25a.5.5,0,0,1,.5.5v11.25A.5.5,0,0,1,371.25,515.75Zm-7.95-1h7.45V504.5H365a.5.5,0,0,1-.236-.059c-1.718,1.707-1.532,3.631-1.318,5.853A11.727,11.727,0,0,1,363.3,514.75Z" transform="translate(-701.316 -7.233)"/><path d="M369.193,530.25H364.25a.5.5,0,0,1-.46-.7l1.065-2.485,1.185-2.766a3.878,3.878,0,0,1,1.04-.3c1.321.215,2.1.665,2.435,1.417a3.668,3.668,0,0,1,.062,2.115,3.25,3.25,0,0,0,.062,1.986.5.5,0,0,1-.446.726Zm-4.185-1h3.5a5.531,5.531,0,0,1,.085-1.872c.215-1.328.334-2.059-1.67-2.384a.507.507,0,0,1-.079-.019l-1.066,2.488Z" transform="translate(-701.316 -7.233)"/></g></svg>