<svg xmlns="http://www.w3.org/2000/svg" width="129.265" height="50.25" viewBox="0 0 129.265 50.25"><g transform="translate(507.316 -469.267)"><path d="M322.5,526.75h-128a.5.5,0,0,1-.478-.648c.469-1.513,1.357-2.441,2.435-2.544a92.851,92.851,0,0,1,9.547-.529c4.094.033,8.255.127,12.278.217,7.118.16,14.478.325,21.7.162,2.761-.062,5.562-.071,8.27-.08,8.734-.028,17.766-.057,26.73-1.892,7.048-1.442,14.554-1.087,21.813-.743,3.192.151,6.492.307,9.7.307a.5.5,0,0,1,0,1c-3.232,0-6.545-.157-9.748-.308-7.2-.341-14.639-.693-21.565.724q-1.927.394-3.854.684l.659.091a22.353,22.353,0,0,0,3.009.287c5.975.015,12.051.017,17.926.019,8.546,0,17.383.006,26.075.048a8.593,8.593,0,0,1,2.733.627c.4.139.78.271,1.161.375a.5.5,0,0,1,.357.588l-.265,1.221A.5.5,0,0,1,322.5,526.75Zm-127.271-1H322.1l.081-.374c-.26-.083-.518-.172-.77-.26a7.75,7.75,0,0,0-2.41-.571c-8.69-.042-17.526-.045-26.071-.048-5.876,0-11.952,0-17.928-.019a23.1,23.1,0,0,1-3.146-.3c-.463-.065-.941-.133-1.408-.184a.5.5,0,0,1-.4-.713,164.968,164.968,0,0,1-21.789,1.044c-2.7.009-5.5.018-8.25.08-7.249.164-14.62,0-21.749-.162-4.02-.09-8.178-.184-12.264-.217a91.924,91.924,0,0,0-9.443.525A1.843,1.843,0,0,0,195.229,525.75Z" transform="translate(-701.316 -7.233)"/><path d="M267,505.5a.5.5,0,0,1-.083-.007c-.328-.055-.656-.124-.973-.192a9.607,9.607,0,0,0-1.946-.28C251.677,505,239.149,505,227.033,505H199.25a.5.5,0,0,1-.5-.5V483.25a.5.5,0,0,1,.5-.5H258a.5.5,0,0,1,.5.5V503.5a.5.5,0,0,1-1,0V483.75H199.75V504h27.283c12.116,0,24.645,0,36.968.022a10.5,10.5,0,0,1,2.152.3c.307.065.623.132.93.184a.5.5,0,0,1-.082.993Z" transform="translate(-701.316 -7.233)"/><path d="M308.5,524a.5.5,0,0,1-.5-.5V509.25H270.461c.085,1.928.168,3.809.25,5.665.1,2.212.193,4.387.289,6.563a.5.5,0,1,1-1,.044c-.1-2.176-.192-4.352-.289-6.563-.089-2.023-.18-4.076-.273-6.187a.5.5,0,0,1,.5-.522H308.5a.5.5,0,0,1,.5.5V523.5A.5.5,0,0,1,308.5,524Z" transform="translate(-701.316 -7.233)"/><path d="M266.5,524a.5.5,0,0,1-.5-.5v-19a.5.5,0,0,1,.5-.5h48.75V477.5h-50v4.25h44.5a.5.5,0,0,1,.5.5V499.5a.5.5,0,0,1-.5.5H265v4a.5.5,0,0,1-1,0v-4.5a.5.5,0,0,1,.5-.5h44.75V482.75h-44.5a.5.5,0,0,1-.5-.5V477a.5.5,0,0,1,.5-.5h51a.5.5,0,0,1,.5.5v27.5a.5.5,0,0,1-.5.5H267v18.5A.5.5,0,0,1,266.5,524Z" transform="translate(-701.316 -7.233)"/><path d="M263.5,524a.5.5,0,0,1-.5-.5V509.25h-8V523.5a.5.5,0,0,1-1,0V508.75a.5.5,0,0,1,.5-.5h9a.5.5,0,0,1,.5.5V523.5A.5.5,0,0,1,263.5,524Z" transform="translate(-701.316 -7.233)"/><path d="M306.5,512H271a.5.5,0,0,1,0-1h35.5a.5.5,0,0,1,0,1Z" transform="translate(-701.316 -7.233)"/><path d="M306.5,517H271a.5.5,0,0,1,0-1h35.5a.5.5,0,0,1,0,1Z" transform="translate(-701.316 -7.233)"/><path d="M306.5,514.5H271a.5.5,0,0,1,0-1h35.5a.5.5,0,0,1,0,1Z" transform="translate(-701.316 -7.233)"/><path d="M281.095,519.47c-2.292,0-4.606-.144-6.849-.283-1.072-.067-2.181-.135-3.269-.187a.5.5,0,0,1,.048-1c1.1.052,2.208.121,3.284.188,2.359.146,4.8.3,7.189.279,5.944-.048,11.988-.183,17.834-.313,2.347-.052,4.773-.107,7.16-.154h.01a.5.5,0,0,1,.01,1c-2.386.048-4.812.1-7.158.154-5.849.131-11.9.266-17.848.314Z" transform="translate(-701.316 -7.233)"/><path d="M253.25,500.75h-49.5a.5.5,0,0,1-.5-.5v-13.5a.5.5,0,0,1,.545-.5l3.258.3,4.992.453a.38.38,0,0,0,.427,0c.937-.052,1.891-.118,2.814-.181,2.033-.14,4.135-.285,6.211-.3,7.6-.043,15.037-.036,22.905-.028,2.892,0,5.882.005,8.848.005a.5.5,0,0,1,.5.5v13.25A.5.5,0,0,1,253.25,500.75Zm-49-1h48.5V487.5c-2.8,0-5.619,0-8.349-.005-7.867-.007-15.3-.014-22.9.028-2.045.012-4.13.155-6.148.294-.926.064-1.884.13-2.827.182a.659.659,0,0,0-.573,0l-4.992-.453-2.713-.246Z" transform="translate(-701.316 -7.233)"/><path d="M311.5,524h-.014a.5.5,0,0,1-.486-.514q.125-4.5.25-9t.25-9a.5.5,0,0,1,1,.028q-.125,4.5-.25,9t-.25,9A.5.5,0,0,1,311.5,524Z" transform="translate(-701.316 -7.233)"/><path d="M206,523.5a.5.5,0,0,1-.5-.5V505.5a.5.5,0,0,1,1,0V523A.5.5,0,0,1,206,523.5Z" transform="translate(-701.316 -7.233)"/><path d="M297,499a.5.5,0,0,1-.5-.5V483a.5.5,0,0,1,1,0v15.5A.5.5,0,0,1,297,499Z" transform="translate(-701.316 -7.233)"/><path d="M279,499a.5.5,0,0,1-.5-.5V483a.5.5,0,0,1,1,0v15.5A.5.5,0,0,1,279,499Z" transform="translate(-701.316 -7.233)"/><path d="M251,523.5a.5.5,0,0,1-.5-.484q-.125-3.875-.25-7.75t-.25-7.75a.5.5,0,0,1,1-.032q.125,3.875.25,7.75t.25,7.75a.5.5,0,0,1-.484.516Z" transform="translate(-701.316 -7.233)"/><path d="M217.5,520a.5.5,0,0,1-.5-.5v-14a.5.5,0,0,1,1,0v14A.5.5,0,0,1,217.5,520Z" transform="translate(-701.316 -7.233)"/><path d="M241,519a.5.5,0,0,1-.5-.5v-13a.5.5,0,0,1,1,0v13A.5.5,0,0,1,241,519Z" transform="translate(-701.316 -7.233)"/><path d="M288,499a.5.5,0,0,1-.5-.5V483a.5.5,0,0,1,1,0v15.5A.5.5,0,0,1,288,499Z" transform="translate(-701.316 -7.233)"/><path d="M270,499a.5.5,0,0,1-.5-.484q-.125-3.875-.25-7.75t-.25-7.75a.5.5,0,1,1,1-.032q.125,3.875.25,7.75t.25,7.75a.5.5,0,0,1-.484.516Z" transform="translate(-701.316 -7.233)"/><path d="M228.5,500.5a.5.5,0,0,1-.5-.5V488a.5.5,0,0,1,1,0v12A.5.5,0,0,1,228.5,500.5Z" transform="translate(-701.316 -7.233)"/><path d="M237,500a.5.5,0,0,1-.5-.5V488a.5.5,0,0,1,1,0v11.5A.5.5,0,0,1,237,500Z" transform="translate(-701.316 -7.233)"/><path d="M220,500a.5.5,0,0,1-.5-.5V488a.5.5,0,0,1,1,0v11.5A.5.5,0,0,1,220,500Z" transform="translate(-701.316 -7.233)"/><path d="M212,500a.5.5,0,0,1-.5-.5V488a.5.5,0,0,1,1,0v11.5A.5.5,0,0,1,212,500Z" transform="translate(-701.316 -7.233)"/><path d="M245.5,500a.5.5,0,0,1-.5-.5V488a.5.5,0,0,1,1,0v11.5A.5.5,0,0,1,245.5,500Z" transform="translate(-701.316 -7.233)"/><path d="M268.5,486.5H259a.5.5,0,0,1,0-1h9.5a.5.5,0,0,1,0,1Z" transform="translate(-701.316 -7.233)"/><path d="M230,523.5a.5.5,0,0,1-.5-.5V509.5a.5.5,0,0,1,1,0V523A.5.5,0,0,1,230,523.5Z" transform="translate(-701.316 -7.233)"/><path d="M220.5,519a.5.5,0,0,1-.313-.891l2.5-2,2.5-2a.5.5,0,0,1,.625.781l-2.5,2-2.5,2A.5.5,0,0,1,220.5,519Z" transform="translate(-701.316 -7.233)"/><path d="M231,515a.5.5,0,0,1-.294-.9l5.5-4a.5.5,0,0,1,.588.809l-5.5,4A.5.5,0,0,1,231,515Z" transform="translate(-701.316 -7.233)"/><path d="M290.5,496a.5.5,0,0,1-.354-.854l4-4a.5.5,0,0,1,.707.707l-4,4A.5.5,0,0,1,290.5,496Z" transform="translate(-701.316 -7.233)"/><path d="M222.5,512a.5.5,0,0,1-.354-.854l4-4a.5.5,0,0,1,.707.707l-4,4A.5.5,0,0,1,222.5,512Z" transform="translate(-701.316 -7.233)"/><path d="M230.5,494a.5.5,0,0,1-.4-.8l3-4a.5.5,0,1,1,.8.6l-3,4A.5.5,0,0,1,230.5,494Z" transform="translate(-701.316 -7.233)"/><path d="M283.5,489a.5.5,0,0,1-.326-.88l3.5-3a.5.5,0,1,1,.651.759l-3.5,3A.5.5,0,0,1,283.5,489Z" transform="translate(-701.316 -7.233)"/><path d="M246.5,511a.5.5,0,0,1-.372-.834l4.5-5a.5.5,0,1,1,.743.669l-4.5,5A.5.5,0,0,1,246.5,511Z" transform="translate(-701.316 -7.233)"/><path d="M206.5,495a.5.5,0,0,1-.354-.854l3-3a.5.5,0,1,1,.707.707l-3,3A.5.5,0,0,1,206.5,495Z" transform="translate(-701.316 -7.233)"/><path d="M306,499a.5.5,0,0,1-.5-.5V483a.5.5,0,0,1,1,0v15.5A.5.5,0,0,1,306,499Z" transform="translate(-701.316 -7.233)"/></g></svg>