<svg xmlns="http://www.w3.org/2000/svg" width="97.762" height="68.25" viewBox="0 0 97.762 68.25"><g transform="translate(491.438 -237.017)"><path d="M303,272a.5.5,0,0,1-.5-.5H210.378a.5.5,0,0,1-.5-.5c-.026-6.361,1.743-12.366,3.453-18.172.786-2.669,1.6-5.429,2.228-8.191a.5.5,0,0,1,.488-.389h84.9a.5.5,0,0,1,.482.366c.6,2.143,1.2,4.292,1.792,6.37,1.493,5.283,2.9,10.274,4.217,15.4a4.339,4.339,0,0,1-.435,3.669,5.3,5.3,0,0,1-3.946,1.94A.507.507,0,0,1,303,272Zm-92.12-1.5H302.5a.5.5,0,0,1,.5.5,4.323,4.323,0,0,0,3.179-1.509,3.4,3.4,0,0,0,.289-2.852c-1.31-5.116-2.719-10.1-4.211-15.378-.554-1.961-1.126-3.985-1.691-6.008H216.444c-.622,2.661-1.4,5.3-2.154,7.862C212.645,258.7,210.946,264.466,210.88,270.5Z" transform="translate(-701.316 -7.233)"/><path d="M264,310a.5.5,0,0,1-.5-.5V288.75h-10V309.5a.5.5,0,0,1-1,0V288.25a.5.5,0,0,1,.5-.5h11a.5.5,0,0,1,.5.5V309.5A.5.5,0,0,1,264,310Z" transform="translate(-701.316 -7.233)"/><path d="M244.5,312.5H214a.5.5,0,0,1-.5-.5V272a.5.5,0,0,1,1,0v39.5h30a.5.5,0,0,1,0,1Z" transform="translate(-701.316 -7.233)"/><path d="M303,312.5H272.5a.5.5,0,0,1,0-1h30V272a.5.5,0,0,1,1,0v40A.5.5,0,0,1,303,312.5Z" transform="translate(-701.316 -7.233)"/><path d="M301.5,308.5h-30a.5.5,0,0,1,0-1h30a.5.5,0,0,1,0,1Z" transform="translate(-701.316 -7.233)"/><path d="M245.5,308.5h-30a.5.5,0,0,1,0-1h30a.5.5,0,0,1,0,1Z" transform="translate(-701.316 -7.233)"/><path d="M271.5,312a.5.5,0,0,1-.354-.146,10.332,10.332,0,0,0-.887-.748c-.8-.627-1.626-1.275-1.65-2.094-.215-7.416-.214-14.129,0-20.525a4.792,4.792,0,0,1,1.59-2.72,12.408,12.408,0,0,0,.89-1.058.5.5,0,1,1,.814.581,13.32,13.32,0,0,1-.963,1.147c-.644.713-1.311,1.45-1.333,2.083-.216,6.374-.216,13.067,0,20.461.01.351.737.921,1.267,1.337a11.009,11.009,0,0,1,.977.827.5.5,0,0,1-.354.854Z" transform="translate(-701.316 -7.233)"/><path d="M248.5,310a.5.5,0,0,1-.5-.489c-.054-2.363.019-4.776.09-7.109.175-5.816.357-11.829-1.338-18.022a.5.5,0,0,1,.2-.543L258.5,275.8a.5.5,0,0,1,.583.009l5.625,4.157L270.3,284.1a.5.5,0,1,1-.594.8l-5.585-4.128-5.337-3.944-10.973,7.628c1.636,6.215,1.456,12.191,1.281,17.974-.07,2.32-.142,4.72-.089,7.056a.5.5,0,0,1-.489.511Z" transform="translate(-701.316 -7.233)"/><path d="M291.5,263.5h-17a.5.5,0,0,1,0-1h17a.5.5,0,0,1,0,1Z" transform="translate(-701.316 -7.233)"/><path d="M242.5,263.5h-16a.5.5,0,0,1,0-1h16a.5.5,0,0,1,0,1Z" transform="translate(-701.316 -7.233)"/><path d="M270.5,265a.5.5,0,0,1-.339-.867l4.021-3.712,8.548-7.89a.5.5,0,0,1,.68,0l3.462,3.231,8.969,8.371a.5.5,0,0,1-.682.731l-8.969-8.371-3.123-2.914-8.207,7.575-4.021,3.712A.5.5,0,0,1,270.5,265Z" transform="translate(-701.316 -7.233)"/><path d="M247,265a.5.5,0,0,1-.34-.134l-6.279-5.831-5.894-5.473-7.492,6.95-4.154,3.854a.5.5,0,0,1-.68-.733l4.154-3.854,7.833-7.266a.5.5,0,0,1,.68,0l6.234,5.789,6.279,5.831A.5.5,0,0,1,247,265Z" transform="translate(-701.316 -7.233)"/><path d="M265.5,284.5a.5.5,0,0,1-.283-.088l-5.854-4.034-.711-.49-1.943,1.457L253.3,283.9a.5.5,0,1,1-.6-.8l3.408-2.555,2.231-1.673a.5.5,0,0,1,.584-.012l1.007.694,5.854,4.034a.5.5,0,0,1-.284.912Z" transform="translate(-701.316 -7.233)"/><path d="M236.5,302.105l-.05,0-6-.605-.014,0a.5.5,0,0,1-.436.254h-6a.5.5,0,0,1-.5-.5v-4.9c0-3.166,0-6.259,0-9.352,0-2.517.565-4.351,1.731-5.607A6.821,6.821,0,0,1,230.5,279.5h.041a6.384,6.384,0,0,1,4.754,1.57c1.2,1.209,1.746,3.1,1.716,5.935-.033,3.2-.025,6.4-.017,9.788q.005,2.326.007,4.812a.5.5,0,0,1-.5.5Zm-6-1.605.05,0,5.45.55q0-2.192-.007-4.257c-.008-3.393-.016-6.6.017-9.8.026-2.555-.427-4.214-1.426-5.221A5.5,5.5,0,0,0,230.5,280.5h0Zm-6,.25h5v-20.2a5.284,5.284,0,0,0-3.536,1.527c-.986,1.062-1.465,2.674-1.464,4.926,0,3.093,0,6.186,0,9.352Z" transform="translate(-701.316 -7.233)"/><path d="M293,301.75H280.764a.5.5,0,0,1-.5-.564c.13-1.016.252-1.967.369-2.886.125-.98.246-1.922.367-2.864a.36.36,0,0,0,0-.413c-.05-1.052-.138-2.129-.222-3.171a41.665,41.665,0,0,1-.16-7.39,5.441,5.441,0,0,1,1.818-3.844,6.95,6.95,0,0,1,4.563-1.31,7.136,7.136,0,0,1,4.592,1.309,5.224,5.224,0,0,1,1.794,3.853c.284,3.869.226,7.681.165,11.717-.025,1.651-.051,3.358-.051,5.062A.5.5,0,0,1,293,301.75Zm-11.668-1H292.5c0-1.544.028-3.084.05-4.577.061-4.013.118-7.8-.163-11.628a4.216,4.216,0,0,0-1.428-3.151,6.194,6.194,0,0,0-3.96-1.085c-3.39,0-5.1,1.351-5.386,4.251a40.92,40.92,0,0,0,.162,7.212c.085,1.05.173,2.136.224,3.2a.7.7,0,0,0,0,.587c-.121.942-.241,1.884-.367,2.864Z" transform="translate(-701.316 -7.233)"/><path d="M287,301a.5.5,0,0,1-.5-.5v-20a.5.5,0,0,1,1,0v20A.5.5,0,0,1,287,301Z" transform="translate(-701.316 -7.233)"/><path d="M263.5,284.5h-12a.5.5,0,0,1,0-1h12a.5.5,0,0,1,0,1Z" transform="translate(-701.316 -7.233)"/><path d="M235.5,295.5H225a.5.5,0,0,1,0-1h10.5a.5.5,0,0,1,0,1Z" transform="translate(-701.316 -7.233)"/><path d="M292,288.5H282a.5.5,0,0,1,0-1h10a.5.5,0,0,1,0,1Z" transform="translate(-701.316 -7.233)"/><path d="M292,295.5H282a.5.5,0,0,1,0-1h10a.5.5,0,0,1,0,1Z" transform="translate(-701.316 -7.233)"/><path d="M282,261.5a.5.5,0,0,1-.49-.6q.125-.625.25-1.25l.25-1.25a.5.5,0,0,1,.74-.335l.027-.014a.5.5,0,0,1,.671.224l.5,1,.5,1a.5.5,0,0,1-.326.708l-2,.5A.5.5,0,0,1,282,261.5Zm.847-2.187-.107.535-.095.475.629-.157-.221-.442Z" transform="translate(-701.316 -7.233)"/><path d="M234.17,261.727a.5.5,0,0,1-.414-.219l-1.007-1.486-.434-.641a.5.5,0,0,1,.254-.754l1.771-.6a.607.607,0,0,0,.55-.014.5.5,0,0,1,.6.377l.257,1.134.257,1.135a.5.5,0,0,1-.326.584l-1.344.458A.5.5,0,0,1,234.17,261.727Zm-.659-2.364.066.1.792,1.17.557-.19-.158-.7-.17-.751Z" transform="translate(-701.316 -7.233)"/></g></svg>