<svg xmlns="http://www.w3.org/2000/svg" width="114.295" height="66.177" viewBox="0 0 114.295 66.177"><g transform="translate(646.066 -126.204)"><path d="M91.39,166.5H55.75a.5.5,0,0,1-.5-.5V137.5a.5.5,0,0,1,.5-.5h14.3c20.164,0,41.014,0,61.454.022a28.083,28.083,0,0,1,3.477.3c.516.066,1.05.134,1.572.186a.5.5,0,1,1-.1,1c-.535-.054-1.076-.122-1.6-.189a27.334,27.334,0,0,0-3.352-.288C115.767,138,99.788,138,84.07,138H56.25v27.5H90.989l1.639-7.359a.5.5,0,0,1,.488-.391h19.521l12.34-9.872,15.445-12.356a.5.5,0,0,1,.624,0l11.023,8.767,17.289,13.752a.5.5,0,0,1,.1.678,3.425,3.425,0,0,1-2.246,1.691c-1.107.133-2.028-.677-2.919-1.46-.2-.18-.416-.365-.626-.537-5.606-4.581-11.126-9.015-16.971-13.709-1.943-1.561-3.949-3.172-5.943-4.776-2.142,1.713-4.273,3.4-6.336,5.038-5.577,4.42-10.846,8.6-16.025,12.993a11.111,11.111,0,0,1-7.9,3.076c-3.993-.081-8.058-.064-11.99-.047-1.638.007-3.332.014-5,.014a.5.5,0,0,1-.43-.244l-1.192,5.353A.5.5,0,0,1,91.39,166.5Zm2.127-7.75-.3,1.336A.5.5,0,0,1,93.5,160c1.665,0,3.358-.007,4.995-.014,3.937-.017,8.009-.034,12.014.047a10.191,10.191,0,0,0,7.232-2.838c5.193-4.408,10.467-8.588,16.051-13.014,2.163-1.715,4.4-3.488,6.646-5.285a.5.5,0,0,1,.626,0c2.1,1.687,4.21,3.385,6.255,5.027,5.846,4.7,11.368,9.131,16.977,13.714.224.183.443.375.654.561.759.667,1.476,1.3,2.14,1.218a2.137,2.137,0,0,0,1.263-.9l-16.908-13.449-10.71-8.519L125.6,148.659l-12.477,9.981a.5.5,0,0,1-.312.11Z" transform="translate(-701.316 -7.233)"/><path d="M110,191.5a.5.5,0,0,1-.5-.5V170.75h-11V191a.5.5,0,0,1-1,0V170.25a.5.5,0,0,1,.5-.5h12a.5.5,0,0,1,.5.5V191A.5.5,0,0,1,110,191.5Z" transform="translate(-701.316 -7.233)"/><path d="M107.16,199.507c-4.207,0-8.457-.006-12.663-.03a29.406,29.406,0,0,1-3.486-.3c-.513-.064-1.043-.131-1.561-.183a.5.5,0,0,1,.1-1c.531.053,1.067.12,1.586.186a28.658,28.658,0,0,0,3.367.289c6.434.036,12.976.031,19.3.026q3.347,0,6.694,0h41.964c.109-1.713.225-3.4.338-5.03.273-3.965.531-7.709.671-11.49.194-5.234.295-10.562.392-15.715.042-2.221.085-4.518.136-6.777a.5.5,0,0,1,1,.022c-.05,2.257-.094,4.553-.136,6.774-.1,5.157-.2,10.489-.393,15.733-.14,3.8-.4,7.549-.673,11.522-.123,1.78-.25,3.621-.367,5.492a.5.5,0,0,1-.5.469H120.5q-3.347,0-6.693,0C111.613,199.505,109.392,199.507,107.16,199.507Z" transform="translate(-701.316 -7.233)"/><path d="M162.5,193h-43a.5.5,0,0,1,0-1h43a.5.5,0,0,1,0,1Z" transform="translate(-701.316 -7.233)"/><path d="M74.35,199.615c-2.487,0-4.96-.029-7.4-.057-2.422-.028-4.927-.057-7.38-.057a.5.5,0,0,1-.5-.433c-.576-4.255-.814-6.016.017-6.933.683-.753,1.836-.711,3.929-.634a.5.5,0,0,1-.037,1c-1.674-.062-2.78-.1-3.151.306-.5.549-.272,2.386.174,5.694,2.318,0,4.673.031,6.954.057,6.562.076,13.347.155,19.984-.33,1.368-.1,2.783-1.754,4.152-3.354a26.858,26.858,0,0,1,2.065-2.241.5.5,0,1,1,.678.735,26.154,26.154,0,0,0-1.984,2.156c-1.5,1.755-3.055,3.57-4.839,3.7C82.816,199.532,78.564,199.615,74.35,199.615Z" transform="translate(-701.316 -7.233)"/><path d="M91.5,164.5h-.007l-17.5-.25-17.5-.25a.5.5,0,0,1,.014-1l17.5.25,17.5.25a.5.5,0,0,1-.007,1Z" transform="translate(-701.316 -7.233)"/><path d="M119,198.5a.5.5,0,0,1-.5-.452c-.154-1.595-.332-3.217-.5-4.785-.384-3.515-.782-7.149-.95-10.741-.25-5.372-.339-10.837-.425-16.122-.037-2.258-.075-4.593-.125-6.889a.5.5,0,0,1,1-.022c.05,2.3.088,4.635.125,6.894.086,5.278.174,10.735.424,16.091.166,3.561.562,7.18.945,10.679.172,1.572.35,3.2.5,4.8a.5.5,0,0,1-.45.546Z" transform="translate(-701.316 -7.233)"/><path d="M158.75,184.75h-36.5a.5.5,0,0,1-.5-.5V166.869a.5.5,0,0,1,.55-.5l5.923.6.277.028a.5.5,0,0,1,.5-.5h29.75a.5.5,0,0,1,.5.5v17.25A.5.5,0,0,1,158.75,184.75Zm-36-1h35.5V167.5H129a.494.494,0,0,1,0,.05.5.5,0,0,1-.548.447l-.327-.033-5.372-.542Z" transform="translate(-701.316 -7.233)"/><path d="M90.5,192a.5.5,0,0,1-.5-.5V167a.5.5,0,0,1,1,0v24.5A.5.5,0,0,1,90.5,192Z" transform="translate(-701.316 -7.233)"/><path d="M61,191.5a.5.5,0,0,1-.5-.5V167a.5.5,0,0,1,1,0v24A.5.5,0,0,1,61,191.5Z" transform="translate(-701.316 -7.233)"/><path d="M86.5,182.5a.5.5,0,0,1-.064,0l-5.75-.74a.5.5,0,0,1-.436-.5V169.25H70.735c-.254,3.9-.5,7.589-.737,11.283a.5.5,0,1,1-1-.065c.251-3.841.5-7.682.767-11.75a.5.5,0,0,1,.5-.467H80.75a.5.5,0,0,1,.5.5v12.07l5.314.684a.5.5,0,0,1-.063,1Z" transform="translate(-701.316 -7.233)"/><path d="M140,184h-.016a.5.5,0,0,1-.484-.516q.125-3.875.25-7.75t.25-7.75a.5.5,0,0,1,1,.032q-.125,3.875-.25,7.75t-.25,7.75A.5.5,0,0,1,140,184Z" transform="translate(-701.316 -7.233)"/><path d="M129,184a.5.5,0,0,1-.5-.484q-.125-3.875-.25-7.75t-.25-7.75a.5.5,0,1,1,1-.032q.125,3.875.25,7.75t.25,7.75a.5.5,0,0,1-.484.516Z" transform="translate(-701.316 -7.233)"/><path d="M88,191.5a.5.5,0,0,1-.5-.5V167a.5.5,0,0,1,1,0v24A.5.5,0,0,1,88,191.5Z" transform="translate(-701.316 -7.233)"/><path d="M64.928,192.652l-.052,0-1.458-.152a.5.5,0,0,1-.448-.523q.133-2.625.265-5.25t.265-5.25a.5.5,0,0,1,.473-.474,12.974,12.974,0,0,0-.587-1.446c-1.182-2.478-.9-5.618-.625-8.654.117-1.3.238-2.646.238-3.9a.5.5,0,1,1,1,0c0,1.3-.123,2.667-.243,3.99-.262,2.9-.532,5.9.532,8.134a19.335,19.335,0,0,1,1.535,8.365c.025.972.051,1.976.141,2.969a2.776,2.776,0,0,1-.361,1.379c-.078.169-.151.329-.2.48A.5.5,0,0,1,64.928,192.652Zm-.935-1.1.612.064c.03-.066.06-.132.089-.2a2.1,2.1,0,0,0,.274-.871c-.093-1.025-.119-2.047-.145-3.034a28.38,28.38,0,0,0-.388-4.749q-.1,2.005-.2,4.01Q64.114,189.164,63.993,191.552Z" transform="translate(-701.316 -7.233)"/><path d="M97.5,137.5a.5.5,0,0,1-.5-.5v-2.5c-.782,0-1.538-.018-2.274-.032a47.763,47.763,0,0,0-6.157.145c-.422.047-.945.709-1.406,1.293a11.013,11.013,0,0,1-.809.949.5.5,0,1,1-.707-.707,10.145,10.145,0,0,0,.732-.862c.611-.773,1.243-1.572,2.079-1.666a48.483,48.483,0,0,1,6.287-.151c.887.016,1.8.033,2.756.033a.5.5,0,0,1,.5.5v3A.5.5,0,0,1,97.5,137.5Z" transform="translate(-701.316 -7.233)"/><path d="M152,184a.5.5,0,0,1-.5-.5V168a.5.5,0,0,1,1,0v15.5A.5.5,0,0,1,152,184Z" transform="translate(-701.316 -7.233)"/><path d="M117,192.5H86a.5.5,0,0,1,0-1h31a.5.5,0,0,1,0,1Z" transform="translate(-701.316 -7.233)"/><path d="M73.532,192.6a.5.5,0,0,1-.5-.474l-.532-10.1a.5.5,0,1,1,1-.053l.506,9.612.994-.024V182a.5.5,0,0,1,1,0v10.05a.5.5,0,0,1-.488.5l-1.968.047Z" transform="translate(-701.316 -7.233)"/><path d="M68.532,192.6a.5.5,0,0,1-.5-.474l-.532-10.1a.5.5,0,0,1,.131-.364l-1.68-.164a.5.5,0,0,1,.1-1l4,.391a.5.5,0,0,1,.451.5v10.663a.5.5,0,0,1-.485.5l-1.468.043Zm-.1-10.857a.5.5,0,0,1,.072.234l.506,9.609.494-.014v-9.724Z" transform="translate(-701.316 -7.233)"/><path d="M79.54,192.77a.5.5,0,0,1-.081-.007l-1.54-.251a.5.5,0,0,1-.42-.493V182a.5.5,0,0,1,1,0v9.594l.765.125,1.292-2.452a.5.5,0,0,1,.885.466l-1.46,2.77A.5.5,0,0,1,79.54,192.77Z" transform="translate(-701.316 -7.233)"/><path d="M143.5,178a.5.5,0,0,1-.313-.89l7.5-6a.5.5,0,0,1,.625.781l-7.5,6A.5.5,0,0,1,143.5,178Z" transform="translate(-701.316 -7.233)"/><path d="M143.5,183a.5.5,0,0,1-.384-.82l5-6a.5.5,0,1,1,.768.64l-5,6A.5.5,0,0,1,143.5,183Z" transform="translate(-701.316 -7.233)"/><path d="M133,175.5a.5.5,0,0,1-.421-.769l1.75-2.75,1.75-2.75a.5.5,0,1,1,.844.537l-1.75,2.75-1.75,2.75A.5.5,0,0,1,133,175.5Z" transform="translate(-701.316 -7.233)"/><path d="M132,178.5a.5.5,0,0,1-.354-.854l4.5-4.5a.5.5,0,0,1,.707.707l-4.5,4.5A.5.5,0,0,1,132,178.5Z" transform="translate(-701.316 -7.233)"/><path d="M80,181.5H71a.5.5,0,0,1,0-1h9a.5.5,0,0,1,0,1Z" transform="translate(-701.316 -7.233)"/><path d="M84.5,193.43a.5.5,0,0,1-.458-.3l-1.5-3.43a.5.5,0,0,1,.916-.4l1.042,2.382,1.042-2.382a.5.5,0,1,1,.916.4l-1.5,3.43A.5.5,0,0,1,84.5,193.43Z" transform="translate(-701.316 -7.233)"/><path d="M142.75,155.75h-4.768a.5.5,0,0,1-.493-.581l.478-2.911c.359-2.186.7-4.263,1.04-6.339A3,3,0,0,1,140,145.5h2.75a.5.5,0,0,1,.5.5v9.25A.5.5,0,0,1,142.75,155.75Zm-4.179-1h3.679V146.5H140a.5.5,0,0,1-.075-.006c-.319,1.939-.638,3.885-.972,5.925Z" transform="translate(-701.316 -7.233)"/></g></svg>