<svg xmlns="http://www.w3.org/2000/svg" width="110.766" height="70.653" viewBox="0 0 110.766 70.653"><g transform="translate(650.093 -451.82)"><path d="M150.369,529.5c-.641,0-1.254,0-1.873-.007l-21.189-.172c-13.212-.108-26.874-.219-40.311-.321-3.19-.024-6.435-.017-9.574-.011C75.973,529,74.474,529,73,529a.5.5,0,0,1,0-1c1.473,0,2.972,0,4.42-.006,3.141-.006,6.388-.013,9.583.011,13.437.1,27.1.213,40.311.321l21.189.172c1.113.009,2.213.007,3.486,0l1.51,0V490a.5.5,0,0,1,1,0v39a.5.5,0,0,1-.5.5l-2.008,0Z" transform="translate(-701.316 -7.233)"/><path d="M153,526.5h-.007l-11.616-.158c-20.283-.275-41.256-.56-61.884-.851-.928-.013-1.85-.086-2.826-.163-.466-.037-.949-.075-1.449-.108a.5.5,0,0,1-.467-.5V509.145a.5.5,0,0,1,.154-.361c2.879-2.766,6.423-2.532,9.849-2.306a25.56,25.56,0,0,0,4.687.025.5.5,0,0,1,.121.993,26.284,26.284,0,0,1-4.873-.02c-3.291-.217-6.4-.423-8.937,1.885v14.893c.341.025.672.051,1,.076.96.076,1.867.147,2.762.16,20.628.291,41.6.576,61.884.851l11.616.158a.5.5,0,0,1-.007,1Z" transform="translate(-701.316 -7.233)"/><path d="M84.132,494.2a.5.5,0,0,1-.376-.17l-1.434-1.635a.5.5,0,0,1,.03-.691,281.579,281.579,0,0,1,22.184-18.482c5.759-4.472,11.713-9.1,17.366-14.044a.5.5,0,0,1,.645-.012l2.71,2.2c11.993,9.757,24.394,19.845,36.522,29.791a.761.761,0,0,1,.14.854c-.058.185-.147.4-.251.657s-.213.521-.3.782a.5.5,0,0,1-.772.24l-5.212-3.884-4.6.275a.5.5,0,0,1-.53-.5V485.74l-5.164-4.131-4.776-3.822-3.468,1a.5.5,0,0,1-.624-.359l-1.2-4.8-9.317-7.539-2.608.231-2.886.256c-4.58,2.449-6.888,3.688-8.343,5.14s-2.122,3.184-3.474,6.661a.5.5,0,0,1-.6.3l-3.264-.945a17.2,17.2,0,0,1-3.961,3.052c-2.985,1.883-6.072,3.831-6.311,8.658a.5.5,0,0,1-.555.472l-3.273-.369-.474-.054a.5.5,0,1,1,.112-.994l.474.054,2.754.311c.46-4.963,3.79-7.063,6.739-8.924a15.24,15.24,0,0,0,3.927-3.088.5.5,0,0,1,.531-.17l3.14.909c1.3-3.327,2.006-5.056,3.534-6.581,1.57-1.566,3.942-2.834,8.668-5.362a.5.5,0,0,1,.192-.057L123,465.33l2.809-.249a.5.5,0,0,1,.359.109l9.6,7.771a.5.5,0,0,1,.171.267l1.117,4.458,3.219-.932a.5.5,0,0,1,.451.09l4.979,3.983,5.351,4.282a.5.5,0,0,1,.188.39v3.554l4.254-.254a.5.5,0,0,1,.329.1l4.826,3.6.083-.2c.068-.166.153-.374.2-.521-12.063-9.892-24.393-19.923-36.32-29.625l-2.383-1.939c-5.579,4.862-11.431,9.407-17.093,13.8-7.346,5.7-14.937,11.6-21.759,18.084l.742.846,5.492-6.27a.5.5,0,0,1,.752.659l-5.868,6.7A.5.5,0,0,1,84.132,494.2Z" transform="translate(-701.316 -7.233)"/><path d="M58.5,529.706a.5.5,0,0,1-.5-.5v-34.9l-5.229,1.045-.116.023a.5.5,0,0,1-.522-.226l-.834-1.338a.5.5,0,0,1,.112-.655l2.2-1.759,34.278-27.349a.5.5,0,0,1,.623,0l9.874,7.842,3.42,2.716a.5.5,0,0,1-.622.783l-3.42-2.716-9.562-7.594-33.967,27.1-1.857,1.482.416.667,5.6-1.12a.5.5,0,0,1,.6.49v32.295q0-.023,0-.046a.5.5,0,0,1,.548-.446,30.1,30.1,0,0,0,4.582-.01c2.872-.152,5.841-.308,8.644,1.061a.5.5,0,0,1,.281.449v1.478a.5.5,0,0,1-.474.5l-14.058.725Zm.5-3.7v2.673l13.058-.673v-.685c-2.487-1.114-5.106-.976-7.872-.83a30.829,30.829,0,0,1-4.736.006A.5.5,0,0,1,59,526.006Z" transform="translate(-701.316 -7.233)"/><path d="M87.5,525.5a.5.5,0,0,1-.5-.5V514.75H80.5v9.75a.5.5,0,0,1-1,0V514.25a.5.5,0,0,1,.5-.5h7.5a.5.5,0,0,1,.5.5V525A.5.5,0,0,1,87.5,525.5Z" transform="translate(-701.316 -7.233)"/><path d="M146.5,522.75H98.25a.5.5,0,0,1-.5-.5V509.341a.5.5,0,0,1,.545-.5l7.2.655a.5.5,0,0,1,.5-.5h40.5a.5.5,0,0,1,.5.5v12.75A.5.5,0,0,1,146.5,522.75Zm-47.75-1H146V510H106c0,.015,0,.03,0,.045a.5.5,0,0,1-.543.453l-6.7-.609Z" transform="translate(-701.316 -7.233)"/><path d="M133,496.5a.5.5,0,0,1-.5-.566c.341-2.561.683-5.123,1.038-7.789l.386-2.895H110.971c-.9,6.851-.787,7.882.944,10.472a.5.5,0,1,1-.831.556c-1.938-2.9-2.045-4.09-1.047-11.594a.5.5,0,0,1,.5-.434H134.5a.5.5,0,0,1,.5.566l-.462,3.461c-.356,2.666-.7,5.228-1.038,7.789A.5.5,0,0,1,133,496.5Z" transform="translate(-701.316 -7.233)"/><path d="M150.5,526a.5.5,0,0,1-.5-.5v-19a.5.5,0,0,1,1,0v19A.5.5,0,0,1,150.5,526Z" transform="translate(-701.316 -7.233)"/><path d="M94,525.5a.5.5,0,0,1-.5-.5V507a.5.5,0,0,1,1,0v18A.5.5,0,0,1,94,525.5Z" transform="translate(-701.316 -7.233)"/><path d="M69.75,505.75H62.337a.5.5,0,0,1-.5-.468l-.337-5.25a.5.5,0,0,1,.467-.531h.026l-.794-4.92a.5.5,0,0,1,.494-.58H69.75a.5.5,0,0,1,.5.5v10.75A.5.5,0,0,1,69.75,505.75Zm-6.944-1H69.25V495H62.28l.713,4.42a.5.5,0,0,1-.414.573A.507.507,0,0,1,62.5,500Z" transform="translate(-701.316 -7.233)"/><path d="M70.125,522.619a.5.5,0,0,1-.055,0l-5.279-.581-2.346-.258a.5.5,0,0,1-.445-.5V511a.5.5,0,0,1,.5-.5h7.712a.5.5,0,0,1,.495.57l-.712,5a.31.31,0,0,0,0,.374l.625,5.619a.5.5,0,0,1-.5.555ZM63,520.832l1.9.209,4.658.513-.556-5a.809.809,0,0,0,0-.626l.631-4.43H63Z" transform="translate(-701.316 -7.233)"/><path d="M90.5,526a.5.5,0,0,1-.5-.5q0-3.9,0-7.8c-.006-7.275-.012-14.8.031-22.2v-.035c.013-2.142-.073-3.268-2.076-3.464a.5.5,0,1,1,.1-1c3,.294,2.99,2.51,2.979,4.466v.035c-.044,7.4-.037,14.918-.031,22.192q0,3.9,0,7.805A.5.5,0,0,1,90.5,526Z" transform="translate(-701.316 -7.233)"/><path d="M77,525h-.02a.5.5,0,0,1-.48-.52q.125-3.125.25-6.25t.25-6.25a.5.5,0,1,1,1,.04q-.125,3.125-.25,6.25t-.25,6.25A.5.5,0,0,1,77,525Z" transform="translate(-701.316 -7.233)"/><path d="M116.5,498a.506.506,0,0,1-.063,0,.5.5,0,0,1-.434-.558l1.5-12a.5.5,0,1,1,.992.124l-1.5,12A.5.5,0,0,1,116.5,498Z" transform="translate(-701.316 -7.233)"/><path d="M138.5,522.5a.5.5,0,0,1-.5-.5V510.5a.5.5,0,0,1,1,0V522A.5.5,0,0,1,138.5,522.5Z" transform="translate(-701.316 -7.233)"/><path d="M89.5,511.5h-14a.5.5,0,0,1,0-1h14a.5.5,0,0,1,0,1Z" transform="translate(-701.316 -7.233)"/><path d="M114,522a.5.5,0,0,1-.5-.5v-11a.5.5,0,0,1,1,0v11A.5.5,0,0,1,114,522Z" transform="translate(-701.316 -7.233)"/><path d="M105.5,522a.5.5,0,0,1-.5-.5v-11a.5.5,0,0,1,1,0v11A.5.5,0,0,1,105.5,522Z" transform="translate(-701.316 -7.233)"/><path d="M130,522a.5.5,0,0,1-.5-.5v-11a.5.5,0,0,1,1,0v11A.5.5,0,0,1,130,522Z" transform="translate(-701.316 -7.233)"/><path d="M97,506a.5.5,0,0,1-.5-.5V498a.5.5,0,0,1,.5-.5h13a.5.5,0,0,1,0,1H97.5v7A.5.5,0,0,1,97,506Z" transform="translate(-701.316 -7.233)"/><path d="M122,522a.5.5,0,0,1-.5-.5v-11a.5.5,0,0,1,1,0v11A.5.5,0,0,1,122,522Z" transform="translate(-701.316 -7.233)"/><path d="M147.5,506a.5.5,0,0,1-.5-.5v-7H134a.5.5,0,0,1,0-1h13.5a.5.5,0,0,1,.5.5v7.5A.5.5,0,0,1,147.5,506Z" transform="translate(-701.316 -7.233)"/><path d="M126,506a.5.5,0,0,1-.5-.486q-.125-4.5-.25-9t-.25-9a.5.5,0,1,1,1-.028q.125,4.5.25,9t.25,9a.5.5,0,0,1-.486.514Z" transform="translate(-701.316 -7.233)"/><path d="M129,506a.5.5,0,0,1-.5-.5v-7a.5.5,0,0,1,1,0v7A.5.5,0,0,1,129,506Z" transform="translate(-701.316 -7.233)"/><path d="M110.5,506a.5.5,0,0,1-.492-.591,11.3,11.3,0,0,0-.214-3.77,12.155,12.155,0,0,1-.256-2.587,2.22,2.22,0,0,1,1.127-1.993.5.5,0,0,1,.238-.06h22.575a.5.5,0,0,1,.5.467c.15,2.289.336,5.144.522,8a.5.5,0,0,1-1,.065c-.174-2.665-.347-5.328-.491-7.533H111.042c-.716.488-.564,1.655-.261,3.475a12.206,12.206,0,0,1,.211,4.115A.5.5,0,0,1,110.5,506Z" transform="translate(-701.316 -7.233)"/><path d="M142.5,506a.5.5,0,0,1-.5-.5V499a.5.5,0,0,1,1,0v6.5A.5.5,0,0,1,142.5,506Z" transform="translate(-701.316 -7.233)"/><path d="M145.5,506a.5.5,0,0,1-.5-.5V499a.5.5,0,0,1,1,0v6.5A.5.5,0,0,1,145.5,506Z" transform="translate(-701.316 -7.233)"/><path d="M122,506a.5.5,0,0,1-.5-.5V499a.5.5,0,0,1,1,0v6.5A.5.5,0,0,1,122,506Z" transform="translate(-701.316 -7.233)"/><path d="M106.5,506a.5.5,0,0,1-.5-.5V499a.5.5,0,0,1,1,0v6.5A.5.5,0,0,1,106.5,506Z" transform="translate(-701.316 -7.233)"/><path d="M138.5,506a.5.5,0,0,1-.5-.5V499a.5.5,0,0,1,1,0v6.5A.5.5,0,0,1,138.5,506Z" transform="translate(-701.316 -7.233)"/><path d="M99.5,506a.5.5,0,0,1-.5-.5V499a.5.5,0,0,1,1,0v6.5A.5.5,0,0,1,99.5,506Z" transform="translate(-701.316 -7.233)"/><path d="M102.5,506a.5.5,0,0,1-.5-.5V499a.5.5,0,0,1,1,0v6.5A.5.5,0,0,1,102.5,506Z" transform="translate(-701.316 -7.233)"/><path d="M152.5,506.5h-61a.5.5,0,0,1,0-1h61a.5.5,0,0,1,0,1Z" transform="translate(-701.316 -7.233)"/><path d="M69,500H63a.5.5,0,0,1,0-1h6a.5.5,0,0,1,0,1Z" transform="translate(-701.316 -7.233)"/><path d="M69,516.5H63.5a.5.5,0,0,1,0-1H69a.5.5,0,0,1,0,1Z" transform="translate(-701.316 -7.233)"/><path d="M109.5,522.5a.5.5,0,0,1-.446-.274l-.956-1.884a.5.5,0,0,1,.045-.526l.212-.284L110.1,517.2a.5.5,0,0,1,.8.6l-1.743,2.332-.027.036.815,1.607a.5.5,0,0,1-.445.726Z" transform="translate(-701.316 -7.233)"/><path d="M112.5,490a.5.5,0,0,1-.354-.854l3-3a.5.5,0,0,1,.707.707l-3,3A.5.5,0,0,1,112.5,490Z" transform="translate(-701.316 -7.233)"/><path d="M108.5,514a.5.5,0,0,1-.354-.854l3-3a.5.5,0,0,1,.707.707l-3,3A.5.5,0,0,1,108.5,514Z" transform="translate(-701.316 -7.233)"/><path d="M124.5,517a.5.5,0,0,1-.354-.854l3-3a.5.5,0,0,1,.707.707l-3,3A.5.5,0,0,1,124.5,517Z" transform="translate(-701.316 -7.233)"/><path d="M135.5,516a.5.5,0,0,1-.354-.854l1-1a.5.5,0,0,1,.707.707l-1,1A.5.5,0,0,1,135.5,516Z" transform="translate(-701.316 -7.233)"/></g></svg>