<svg xmlns="http://www.w3.org/2000/svg" width="117.812" height="52.464" viewBox="0 0 117.812 52.464"><g transform="translate(654.5 -355.767)"><path d="M101.208,415.464c-12.8,0-24.873-.15-34.417-.43-5.634-.165-10.161-.37-13.454-.609-4.817-.349-5.892-.686-6.29-.94a.5.5,0,0,1,.111-.9l3.051-1.018,1.633-.545a16.842,16.842,0,0,1,1.012.121,2.542,2.542,0,0,1,.2.234c.023.029.052.067.079.1,16.242.01,32.751.014,48.719.017,18.075,0,36.766.008,55.15.022,1.645,0,3.308.125,4.916.245.735.055,1.5.112,2.241.155a.5.5,0,0,1,.309.867c-.38.35-1.41.766-6.167,1.207-3.22.3-7.7.56-13.329.779-10.275.4-24.139.643-39.039.686Q103.557,415.464,101.208,415.464ZM49.1,413c2.051.3,6.787.717,17.705,1.038,10.69.314,24.57.465,39.083.424,14.879-.042,28.728-.285,39-.683,5.609-.218,10.081-.478,13.29-.774,1.063-.1,1.989-.2,2.77-.306-1.306-.094-2.637-.175-3.944-.176-18.383-.014-37.074-.018-55.149-.022-16.011,0-32.567-.007-48.851-.017a.973.973,0,0,1-.734-.482l-.04-.051a.5.5,0,0,1-.067.028l-1.633.545Z" transform="translate(-701.316 -7.233)"/><path d="M58.5,412a.5.5,0,0,1-.5-.5V371a.5.5,0,0,1,.5-.5H140a.5.5,0,0,1,.5.5v9.5h12.1a.5.5,0,0,1,.437.257l3.688,6.634,1.112-.376a.5.5,0,0,1,.66.474V411a.5.5,0,0,1-1,0V388.186l-.847.286a.5.5,0,0,1-.6-.231l-3.747-6.741H140a.5.5,0,0,1-.5-.5v-9.5H59v40A.5.5,0,0,1,58.5,412Z" transform="translate(-701.316 -7.233)"/><path d="M73,370.5l-.046,0a.5.5,0,0,1-.452-.543l.593-6.5a.5.5,0,0,1,.5-.455H125a.5.5,0,0,1,.5.5V370a.5.5,0,0,1-1,0v-6H74.049l-.552,6.045A.5.5,0,0,1,73,370.5Z" transform="translate(-701.316 -7.233)"/><path d="M107.5,412a.5.5,0,0,1-.5-.5v-20a.5.5,0,0,1,.5-.5h32v-9.5a.5.5,0,0,1,1,0v10a.5.5,0,0,1-.5.5H108v19.5A.5.5,0,0,1,107.5,412Z" transform="translate(-701.316 -7.233)"/><path d="M52,411.5a.5.5,0,0,1-.5-.5V382a.5.5,0,0,1,.5-.5h5.5a.5.5,0,0,1,0,1h-5V411A.5.5,0,0,1,52,411.5Z" transform="translate(-701.316 -7.233)"/><path d="M134.5,408.5H112.25a.5.5,0,0,1-.5-.5V395a.5.5,0,0,1,.5-.5H134.5a.5.5,0,0,1,0,1H112.75v12H134.5a.5.5,0,0,1,0,1Z" transform="translate(-701.316 -7.233)"/><path d="M105,409.25H61.75a.5.5,0,0,1-.5-.5v-34.5a.5.5,0,0,1,.5-.5h75a.5.5,0,0,1,.5.5V388.5a.5.5,0,0,1-.5.5H62.5a.5.5,0,0,1-.25-.067V408.25H104.5V389.5a.5.5,0,0,1,1,0v19.25A.5.5,0,0,1,105,409.25Zm-42.75-34.5v13.317A.5.5,0,0,1,62.5,388h73.75V374.75Z" transform="translate(-701.316 -7.233)"/><path d="M135.5,412a.5.5,0,0,1-.5-.5v-19a.5.5,0,0,1,1,0v19A.5.5,0,0,1,135.5,412Z" transform="translate(-701.316 -7.233)"/><path d="M128.5,408a.5.5,0,0,1-.5-.5V396a.5.5,0,0,1,1,0v11.5A.5.5,0,0,1,128.5,408Z" transform="translate(-701.316 -7.233)"/><path d="M120,407.5a.5.5,0,0,1-.5-.5V396a.5.5,0,0,1,1,0v11A.5.5,0,0,1,120,407.5Z" transform="translate(-701.316 -7.233)"/><path d="M88.5,409a.5.5,0,0,1-.5-.5V375a.5.5,0,0,1,1,0v33.5A.5.5,0,0,1,88.5,409Z" transform="translate(-701.316 -7.233)"/><path d="M68,408.5a.5.5,0,0,1-.5-.5V375a.5.5,0,0,1,1,0v33A.5.5,0,0,1,68,408.5Z" transform="translate(-701.316 -7.233)"/><path d="M74.5,409a.5.5,0,0,1-.5-.5V375a.5.5,0,0,1,1,0v33.5A.5.5,0,0,1,74.5,409Z" transform="translate(-701.316 -7.233)"/><path d="M102,408.5a.5.5,0,0,1-.5-.5V375a.5.5,0,0,1,1,0v33A.5.5,0,0,1,102,408.5Z" transform="translate(-701.316 -7.233)"/><path d="M108.5,388.5a.5.5,0,0,1-.5-.5V375a.5.5,0,0,1,1,0v13A.5.5,0,0,1,108.5,388.5Z" transform="translate(-701.316 -7.233)"/><path d="M115.5,388.5a.5.5,0,0,1-.5-.5V375a.5.5,0,0,1,1,0v13A.5.5,0,0,1,115.5,388.5Z" transform="translate(-701.316 -7.233)"/><path d="M81.5,409a.5.5,0,0,1-.5-.5V375a.5.5,0,0,1,1,0v33.5A.5.5,0,0,1,81.5,409Z" transform="translate(-701.316 -7.233)"/><path d="M95,408.5a.5.5,0,0,1-.5-.5V375a.5.5,0,0,1,1,0v33A.5.5,0,0,1,95,408.5Z" transform="translate(-701.316 -7.233)"/><path d="M136,381.5H62.5a.5.5,0,0,1,0-1H136a.5.5,0,0,1,0,1Z" transform="translate(-701.316 -7.233)"/><path d="M122,388a.5.5,0,0,1-.5-.5V375a.5.5,0,0,1,1,0v12.5A.5.5,0,0,1,122,388Z" transform="translate(-701.316 -7.233)"/><path d="M129,388a.5.5,0,0,1-.5-.5V375a.5.5,0,0,1,1,0v12.5A.5.5,0,0,1,129,388Z" transform="translate(-701.316 -7.233)"/><path d="M104,396.5H62.5a.5.5,0,0,1,0-1H104a.5.5,0,0,1,0,1Z" transform="translate(-701.316 -7.233)"/><path d="M74.5,403.5h-12a.5.5,0,0,1,0-1h12a.5.5,0,0,1,0,1Z" transform="translate(-701.316 -7.233)"/><path d="M104,403.5h-.009l-14.25-.25L75.491,403a.5.5,0,1,1,.018-1l14.25.25,14.25.25a.5.5,0,0,1-.009,1Z" transform="translate(-701.316 -7.233)"/></g></svg>