<svg xmlns="http://www.w3.org/2000/svg" width="101.33" height="82.625" viewBox="0 0 101.33 82.625"><g transform="translate(493.238 -334.642)"><path d="M293,424.5H208.578a.5.5,0,0,1-.389-.814c.481-.6.847-1.115,1.141-1.533.568-.807.943-1.34,1.531-1.548a11.456,11.456,0,0,1,2.906-.489c.388-.031.789-.064,1.172-.112a.5.5,0,0,1,.312.063.492.492,0,0,1,.261-.067c2.3.052,4.63.118,6.888.181,4.951.139,10.07.282,15.1.3,13.574.038,27.376.036,40.723.035,8.94,0,18.184,0,27.276.009a11.549,11.549,0,0,1,2.239.3c.394.078.8.158,1.247.229a.5.5,0,0,1,.294.827,5.493,5.493,0,0,1-3.931,2.311C303.324,424.5,299.874,424.5,293,424.5Zm-83.405-1H293c6.823,0,10.247,0,12.2-.3a4.03,4.03,0,0,0,2.729-1.323l-.381-.075a10.852,10.852,0,0,0-2.046-.28c-9.092-.011-18.335-.01-27.275-.009-13.348,0-27.15,0-40.726-.035-5.045-.014-10.171-.157-15.128-.3-2.256-.063-4.589-.129-6.882-.181a.38.38,0,0,0-.426,0c-.4.051-.817.084-1.215.116a10.558,10.558,0,0,0-2.653.435c-.287.1-.589.531-1.046,1.181C209.987,422.957,209.8,423.215,209.595,423.5Z" transform="translate(-701.316 -7.233)"/><path d="M308,402.5a.5.5,0,0,1-.435-.745,2.705,2.705,0,0,0,.228-2.775,7.581,7.581,0,0,0-2.014-2.049c-.21-.167-.426-.341-.631-.512-4.5-3.788-9.131-7.583-13.607-11.253-2.907-2.383-5.912-4.847-8.856-7.287-6.095-5.052-12.124-10.087-18.508-15.418-2.833-2.366-5.762-4.812-8.748-7.3a.5.5,0,0,1-.18-.384V343.184l-2.526,1.263a.5.5,0,0,1-.447-.894l3.25-1.625a.5.5,0,0,1,.724.447v12.166c2.924,2.439,5.793,4.834,8.569,7.152,6.383,5.33,12.412,10.365,18.505,15.416,2.941,2.438,5.946,4.9,8.852,7.284,4.478,3.672,9.109,7.468,13.616,11.261.194.164.4.325.611.5a8.277,8.277,0,0,1,2.271,2.357,3.661,3.661,0,0,1-.238,3.739A.5.5,0,0,1,308,402.5Z" transform="translate(-701.316 -7.233)"/><path d="M282,420.5h-.007a.5.5,0,0,1-.493-.507q.125-9.375.25-18.75t.25-18.75a.5.5,0,0,1,.5-.493h.007a.5.5,0,0,1,.493.507q-.125,9.375-.25,18.75t-.25,18.75A.5.5,0,0,1,282,420.5Z" transform="translate(-701.316 -7.233)"/><path d="M231,387.5h-8.25a.5.5,0,0,1-.5-.5V375.368l-11.808,9.851a.5.5,0,0,1-.812-.292c-.109-.586-.253-1.129-.379-1.607-.287-1.085-.461-1.74-.019-2.126,8.706-7.624,17.335-15.049,26.47-22.91l4.042-3.478.306-2.16c.145-1.021.3-2.119.456-3.216a.5.5,0,0,1,.99.14c-.156,1.1-.311,2.194-.456,3.216l-.332,2.346a.5.5,0,0,1-.169.309l-4.184,3.6c-9.108,7.838-17.712,15.241-26.391,22.841a7.157,7.157,0,0,0,.255,1.181c.071.267.146.553.219.857l11.993-10a.5.5,0,0,1,.82.384v12.2H231a.5.5,0,0,1,0,1Z" transform="translate(-701.316 -7.233)"/><path d="M215,420.5a.5.5,0,0,1-.5-.493q-.125-9.375-.25-18.75t-.25-18.75a.5.5,0,1,1,1-.013q.125,9.375.25,18.75t.25,18.75a.5.5,0,0,1-.493.507Z" transform="translate(-701.316 -7.233)"/><path d="M301,420.5h-.012a.5.5,0,0,1-.488-.512q.125-5.375.25-10.75t.25-10.75a.5.5,0,1,1,1,.023q-.125,5.375-.25,10.75t-.25,10.75A.5.5,0,0,1,301,420.5Z" transform="translate(-701.316 -7.233)"/><path d="M306.5,421a.5.5,0,0,1-.5-.5V402.069c-2.743-2.35-5.565-4.779-8.3-7.129-6.69-5.757-13.607-11.71-20.547-17.531-4.635-3.888-9.451-7.724-14.108-11.434-2.088-1.663-4.247-3.383-6.362-5.085a.5.5,0,1,1,.627-.779c2.113,1.7,4.271,3.42,6.358,5.082,4.662,3.714,9.483,7.554,14.128,11.45,6.945,5.826,13.865,11.781,20.557,17.539,2.788,2.4,5.672,4.881,8.469,7.277a.5.5,0,0,1,.175.38V420.5A.5.5,0,0,1,306.5,421Z" transform="translate(-701.316 -7.233)"/><path d="M271,420.5a.5.5,0,0,1-.5-.5q0-4.988,0-9.977c0-9.677-.009-19.683.026-29.525.006-1.621.153-3.258.295-4.841.065-.72.131-1.464.184-2.193a.5.5,0,0,1,1,.071c-.053.739-.12,1.487-.185,2.211-.14,1.562-.285,3.177-.291,4.755-.035,9.84-.031,19.846-.026,29.521q0,4.988,0,9.977A.5.5,0,0,1,271,420.5Z" transform="translate(-701.316 -7.233)"/><path d="M240,395a.5.5,0,0,1-.5-.5v-34a.5.5,0,0,1,1,0v34A.5.5,0,0,1,240,395Z" transform="translate(-701.316 -7.233)"/><path d="M241,348a.5.5,0,0,1-.495-.432c-.126-.912-.252-1.823-.371-2.688l-.212-1.53a.5.5,0,0,1,.425-.563,27.1,27.1,0,0,1,7.959-.159,14.721,14.721,0,0,1,7,2.977.5.5,0,1,1-.614.789c-4.277-3.33-9.294-3.271-13.712-2.685l.143,1.034c.12.865.246,1.776.371,2.688a.5.5,0,0,1-.5.568Z" transform="translate(-701.316 -7.233)"/><path d="M240.5,421a.5.5,0,0,1-.5-.5V395.907l-17,1.622V404.5a.5.5,0,0,1-1,0v-7.426a.5.5,0,0,1,.453-.5l18-1.717a.5.5,0,0,1,.547.5V420.5A.5.5,0,0,1,240.5,421Z" transform="translate(-701.316 -7.233)"/><path d="M232,420.5h-.011a.5.5,0,0,1-.489-.511q.125-5.75.25-11.5t.25-11.5a.5.5,0,0,1,1,.022q-.125,5.75-.25,11.5t-.25,11.5A.5.5,0,0,1,232,420.5Z" transform="translate(-701.316 -7.233)"/><path d="M219,420.5a.5.5,0,0,1-.5-.5V406a.5.5,0,0,1,1,0v14A.5.5,0,0,1,219,420.5Z" transform="translate(-701.316 -7.233)"/><path d="M256,396a.5.5,0,0,1-.5-.5c0-1.147,0-2.313-.009-3.441-.01-2.48-.02-5.043.018-7.567.1-6.733.227-13.577.349-20.2q.072-3.9.142-7.805a.5.5,0,0,1,1,.018q-.07,3.9-.142,7.806c-.122,6.618-.248,13.462-.349,20.193-.038,2.514-.028,5.073-.018,7.548,0,1.129.009,2.3.009,3.444A.5.5,0,0,1,256,396Z" transform="translate(-701.316 -7.233)"/><path d="M247,386.5a.5.5,0,0,1-.464-.314l-1.2-3a.5.5,0,0,1,.464-.686h5.746a.5.5,0,0,1,.5.43l.132.933a.5.5,0,0,1-.336.544l-3.1,1.04-.08.027a.5.5,0,1,1-.319-.948l.08-.027,2.7-.908-.013-.091h-4.573l.926,2.314a.5.5,0,0,1-.464.686Z" transform="translate(-701.316 -7.233)"/><path d="M263.5,421a.5.5,0,0,1-.5-.5V404a.5.5,0,0,1,1,0v16.5A.5.5,0,0,1,263.5,421Z" transform="translate(-701.316 -7.233)"/><path d="M233,396.5a.5.5,0,0,1-.49-.4c-.1-.516-.233-1.046-.358-1.558a17.491,17.491,0,0,1-.611-3.524c-.19-5.493-.3-11.079-.414-16.482-.04-1.974-.082-4.016-.127-6.023a.5.5,0,0,1,1-.022c.045,2.009.086,4.051.127,6.025.11,5.4.224,10.981.413,16.467a16.5,16.5,0,0,0,.583,3.32c.128.522.26,1.062.368,1.6a.5.5,0,0,1-.491.6Z" transform="translate(-701.316 -7.233)"/><path d="M263.5,395h-.009a.5.5,0,0,1-.491-.509q.125-7,.25-14t.25-14a.5.5,0,0,1,1,.018q-.125,7-.25,14t-.25,14A.5.5,0,0,1,263.5,395Z" transform="translate(-701.316 -7.233)"/><path d="M255,373.5a.5.5,0,0,1-.223-.053,24.176,24.176,0,0,0-2.315-.95c-1.9-.705-3.859-1.434-4.644-2.9a2.479,2.479,0,0,0-2.826-1.5,5.241,5.241,0,0,1-1.626-.121.5.5,0,1,1,.269-.963,4.431,4.431,0,0,0,1.324.085,3.448,3.448,0,0,1,3.74,2.023c.607,1.132,2.388,1.794,4.111,2.434a24.894,24.894,0,0,1,2.414.993.5.5,0,0,1-.224.947Z" transform="translate(-701.316 -7.233)"/><path d="M223,375a.5.5,0,0,1-.327-.879c1.354-1.168,2.737-2.347,4.074-3.489,3.434-2.931,6.984-5.961,10.371-9.051a12.3,12.3,0,0,1,1.06-.829c1.65-1.2,2.6-2.03,1.4-3.991a.5.5,0,1,1,.852-.524c1.752,2.85-.221,4.28-1.66,5.324a11.411,11.411,0,0,0-.973.758c-3.4,3.1-6.956,6.137-10.4,9.073-1.336,1.14-2.717,2.319-4.07,3.485A.5.5,0,0,1,223,375Z" transform="translate(-701.316 -7.233)"/><path d="M237.5,405a.5.5,0,0,1-.5-.469q-.125-2-.25-4t-.25-4a.5.5,0,1,1,1-.062q.125,2,.25,4t.25,4a.5.5,0,0,1-.468.53Z" transform="translate(-701.316 -7.233)"/><path d="M234.5,405a.5.5,0,0,1-.5-.467q-.125-1.875-.25-3.75t-.25-3.75a.5.5,0,1,1,1-.067q.125,1.875.25,3.75t.25,3.75a.5.5,0,0,1-.466.532Z" transform="translate(-701.316 -7.233)"/><path d="M228,404.5a.5.5,0,0,1-.5-.5v-6.5a.5.5,0,0,1,1,0V404A.5.5,0,0,1,228,404.5Z" transform="translate(-701.316 -7.233)"/><path d="M256.5,416.5a.5.5,0,0,1-.5-.455c-.052-.567-.111-1.145-.169-1.7-.129-1.249-.262-2.54-.319-3.821-.149-3.314-.263-6.685-.374-9.945-.045-1.33-.092-2.706-.14-4.058a.5.5,0,1,1,1-.036c.048,1.354.1,2.73.14,4.06.111,3.257.225,6.625.373,9.934.056,1.252.187,2.528.315,3.763.058.562.118,1.142.17,1.715a.5.5,0,0,1-.453.543Z" transform="translate(-701.316 -7.233)"/><path d="M225,404.5a.5.5,0,0,1-.5-.5v-6.5a.5.5,0,0,1,1,0V404A.5.5,0,0,1,225,404.5Z" transform="translate(-701.316 -7.233)"/><path d="M270,403.5H257a.5.5,0,0,1,0-1h13a.5.5,0,0,1,0,1Z" transform="translate(-701.316 -7.233)"/><path d="M221.5,415a.5.5,0,0,1-.384-.82l2.5-3,2.5-3a.5.5,0,1,1,.768.64l-2.5,3-2.5,3A.5.5,0,0,1,221.5,415Z" transform="translate(-701.316 -7.233)"/><path d="M270,396h-.02l-6.5-.25-6.5-.25a.5.5,0,1,1,.039-1l6.5.25,6.5.25a.5.5,0,0,1-.019,1Z" transform="translate(-701.316 -7.233)"/><path d="M270,376.5h-5.5a.5.5,0,0,1,0-1H270a.5.5,0,0,1,0,1Z" transform="translate(-701.316 -7.233)"/><path d="M262.5,409.5H257a.5.5,0,0,1,0-1h5.5a.5.5,0,0,1,0,1Z" transform="translate(-701.316 -7.233)"/><path d="M262.5,386.5H257a.5.5,0,0,1,0-1h5.5a.5.5,0,0,1,0,1Z" transform="translate(-701.316 -7.233)"/><path d="M234.5,383a.5.5,0,0,1-.354-.854l1.691-1.692,3.054-3.054-.2-.4H233a.5.5,0,0,1,0-1h6a.5.5,0,0,1,.447.276l.5,1a.5.5,0,0,1-.094.577l-3.309,3.308-1.691,1.692A.5.5,0,0,1,234.5,383Z" transform="translate(-701.316 -7.233)"/><path d="M257,370a.5.5,0,0,1-.287-.91l5-3.5a.5.5,0,0,1,.573.819l-5,3.5A.5.5,0,0,1,257,370Z" transform="translate(-701.316 -7.233)"/><path d="M234.5,414a.5.5,0,0,1-.354-.854l4-4a.5.5,0,0,1,.707.707l-4,4A.5.5,0,0,1,234.5,414Z" transform="translate(-701.316 -7.233)"/><path d="M226.5,419a.5.5,0,0,1-.4-.8l3-4a.5.5,0,0,1,.8.6l-3,4A.5.5,0,0,1,226.5,419Z" transform="translate(-701.316 -7.233)"/><path d="M256,420.5a.5.5,0,0,1-.5-.5v-3.125a.5.5,0,0,1,.2-.4l4.5-3.375a.5.5,0,1,1,.6.8l-4.3,3.225V420A.5.5,0,0,1,256,420.5Z" transform="translate(-701.316 -7.233)"/><path d="M239.5,405.5H216a.5.5,0,0,1,0-1h23.5a.5.5,0,0,1,0,1Z" transform="translate(-701.316 -7.233)"/></g></svg>