<svg xmlns="http://www.w3.org/2000/svg" width="95.547" height="76.892" viewBox="0 0 95.547 76.892"><g transform="translate(341.502 -231.383)"><path d="M434.133,315.508q-3.669,0-7.284,0-9.261-.007-18.522,0c-14.365,0-29.219,0-43.828-.026a16.972,16.972,0,0,1-2.94-.35c-.432-.077-.88-.157-1.315-.219a.5.5,0,0,1-.43-.521l0-.029q.035-.688.069-1.376a.5.5,0,0,1,.4-.466L364,311.8V295.25a.5.5,0,0,1,.5-.5h4a.5.5,0,0,1,.5.5V312a.5.5,0,0,1-1,0V295.75h-3v16.462a.5.5,0,0,1-.405.491l-3.73.719q-.014.281-.029.563c.3.049.6.1.9.156a15.981,15.981,0,0,0,2.765.335c14.608.03,29.461.028,43.826.026q9.262,0,18.523,0c7.914.006,16.1.013,24.146-.049a7.992,7.992,0,0,0,2.424-.574l.3-.1-4.575-3.08-.422-.284a.5.5,0,1,1,.558-.83l.422.284,5.439,3.661a.5.5,0,0,1-.147.9c-.42.115-.84.259-1.248.4a8.83,8.83,0,0,1-2.741.629C445.4,315.5,439.73,315.508,434.133,315.508Z" transform="translate(-701.316 -7.233)"/><path d="M362.5,312.5a.5.5,0,0,1-.5-.474c-.1-1.988-.06-3.94-.016-6.006a48.039,48.039,0,0,0-.944-12.94.5.5,0,0,1,.083-.415,9.857,9.857,0,0,1,6.221-3.771,37.507,37.507,0,0,1,7.885-.471l.275,0c18.225.129,36.758.109,54.68.09,6.494-.007,13.21-.014,19.815-.014a.5.5,0,0,1,0,1c-6.6,0-13.32.007-19.814.014s-13.076.014-19.689.014c-11.633,0-23.377-.022-35-.1l-.276,0c-5.27-.039-10.254-.076-13.154,3.652a49.451,49.451,0,0,1,.916,12.967c-.044,2.047-.085,3.981.015,5.934a.5.5,0,0,1-.474.525Z" transform="translate(-701.316 -7.233)"/><path d="M407,311.5a.5.5,0,0,1-.5-.5V296h-14v15a.5.5,0,0,1-1,0V295.5a.5.5,0,0,1,.5-.5h15a.5.5,0,0,1,.5.5V311A.5.5,0,0,1,407,311.5Z" transform="translate(-701.316 -7.233)"/><path d="M423,312h-.025a.5.5,0,0,1-.474-.524l0-.056c.274-5.484.548-10.967.8-15.944a.5.5,0,0,1,.5-.475h26.7V268a.5.5,0,0,1,1,0v27.5a.5.5,0,0,1-.5.5H424.276c-.243,4.85-.508,10.159-.773,15.469l0,.056A.5.5,0,0,1,423,312Z" transform="translate(-701.316 -7.233)"/><path d="M375.5,312.5a.5.5,0,0,1-.5-.5V295.75h-3.5V311.5a.5.5,0,0,1-1,0V295.25a.5.5,0,0,1,.5-.5h4.5a.5.5,0,0,1,.5.5V312A.5.5,0,0,1,375.5,312.5Z" transform="translate(-701.316 -7.233)"/><path d="M448.5,312.5H421a.5.5,0,0,1-.5-.5V295.1l-6.713.754-5.731.644a.5.5,0,1,1-.112-.994l5.731-.644,7.269-.817a.5.5,0,0,1,.556.5V311.5h27a.5.5,0,0,1,0,1Z" transform="translate(-701.316 -7.233)"/><path d="M453.029,267.5H418.5a.5.5,0,0,1,0-1h34.112l.039-.212.066-.365c-1.128-1.129-2.262-2.281-3.361-3.4-2.987-3.033-6.075-6.17-9.259-9.085a8.628,8.628,0,0,0-5.1-2.323c-6.515-.071-13.145.083-19.557.231-2.27.053-4.618.107-6.927.151a.5.5,0,1,1-.019-1c2.307-.044,4.653-.1,6.923-.151,6.42-.149,13.059-.3,19.591-.232a9.684,9.684,0,0,1,5.767,2.585c3.2,2.932,6.3,6.078,9.3,9.121,1.158,1.176,2.355,2.392,3.54,3.577a.5.5,0,0,1,.138.442l-.113.623-.113.622A.5.5,0,0,1,453.029,267.5Z" transform="translate(-701.316 -7.233)"/><path d="M377.75,313.08a.5.5,0,0,1-.5-.5V294.512a.5.5,0,0,1,.556-.5l13.25,1.488a.5.5,0,1,1-.112.994l-12.694-1.426v16.985l4.7-.214,7.528-.342a.5.5,0,1,1,.046,1l-7.528.343-5.222.237Z" transform="translate(-701.316 -7.233)"/><path d="M370,267.5a.5.5,0,0,1-.107-.011l-2.621-.569a.5.5,0,0,1-.258-.831L381.49,250.71l11.237-11.937a.5.5,0,0,1,.7-.025c1.618,1.495,3.143,2.9,4.617,4.251,3.073,2.824,5.975,5.491,8.787,8.147,4.379,4.137,8.789,8.4,13.484,13.032a2.593,2.593,0,0,1,.562,1.576,5.838,5.838,0,0,0,.1.624.5.5,0,1,1-.97.243,6.644,6.644,0,0,1-.126-.736,2.109,2.109,0,0,0-.274-1c-4.689-4.627-9.095-8.885-13.468-13.016-2.806-2.651-5.706-5.316-8.777-8.138-1.364-1.253-2.771-2.546-4.255-3.916l-10.9,11.577L368.349,266.13l1.757.381a.5.5,0,0,1-.106.989Z" transform="translate(-701.316 -7.233)"/><path d="M408.75,284.25h-10a.5.5,0,0,1-.5-.5v-13a.5.5,0,0,1,.571-.495l4.261.607.989.141a.291.291,0,0,0,.358,0l4.25-.611a.5.5,0,0,1,.571.495V283.75A.5.5,0,0,1,408.75,284.25Zm-9.5-1h9V271.466l-3.679.529a.862.862,0,0,0-.642,0l-.989-.141-3.691-.526Z" transform="translate(-701.316 -7.233)"/><path d="M439.25,284.25h-10a.5.5,0,0,1-.5-.5V270.87a.5.5,0,0,1,.56-.5l2.044.245L434.5,271a.5.5,0,0,1,.5-.5h4.25a.5.5,0,0,1,.5.5v12.75A.5.5,0,0,1,439.25,284.25Zm-9.5-1h9V271.5H435a.5.5,0,0,1-.559.5l-3.206-.385-1.484-.178Z" transform="translate(-701.316 -7.233)"/><path d="M417.5,289a.5.5,0,0,1-.5-.5v-25a.5.5,0,0,1,1,0v25A.5.5,0,0,1,417.5,289Z" transform="translate(-701.316 -7.233)"/><path d="M388.75,284.25h-9.5a.5.5,0,0,1-.5-.5V270.906a.5.5,0,0,1,.562-.5l4.75.594a.3.3,0,0,0,.367,0l4.25-.611a.5.5,0,0,1,.571.495V283.75A.5.5,0,0,1,388.75,284.25Zm-9-1h8.5V271.466l-3.679.529a.833.833,0,0,0-.633,0l-4.188-.524Z" transform="translate(-701.316 -7.233)"/><path d="M371,288.5a.5.5,0,0,1-.5-.49q-.125-6.125-.25-12.25T370,263.51a.5.5,0,0,1,.49-.51h.01a.5.5,0,0,1,.5.49q.125,6.125.25,12.25t.25,12.25a.5.5,0,0,1-.49.51Z" transform="translate(-701.316 -7.233)"/><path d="M429,312h-.035a.5.5,0,0,1-.464-.533q.25-3.625.5-7.25t.5-7.25a.5.5,0,0,1,1,.069q-.25,3.625-.5,7.25t-.5,7.25A.5.5,0,0,1,429,312Z" transform="translate(-701.316 -7.233)"/><path d="M439.5,312.5a.5.5,0,0,1-.5-.483q-.125-3.625-.25-7.25t-.25-7.25a.5.5,0,0,1,1-.035q.125,3.625.25,7.25t.25,7.25a.5.5,0,0,1-.482.517Z" transform="translate(-701.316 -7.233)"/><path d="M420.5,312.5h-12a.5.5,0,0,1,0-1h12a.5.5,0,0,1,0,1Z" transform="translate(-701.316 -7.233)"/><path d="M405.5,312.5h-12a.5.5,0,0,1,0-1h12a.5.5,0,0,1,0,1Z" transform="translate(-701.316 -7.233)"/><path d="M404,283.5a.5.5,0,0,1-.5-.5V272a.5.5,0,0,1,1,0v11A.5.5,0,0,1,404,283.5Z" transform="translate(-701.316 -7.233)"/><path d="M384,283.5a.5.5,0,0,1-.5-.5V272a.5.5,0,0,1,1,0v11A.5.5,0,0,1,384,283.5Z" transform="translate(-701.316 -7.233)"/><path d="M434.5,283.5a.5.5,0,0,1-.5-.5V272a.5.5,0,0,1,1,0v11A.5.5,0,0,1,434.5,283.5Z" transform="translate(-701.316 -7.233)"/><path d="M450.092,310.173a.5.5,0,0,1-.407-.21c-1.549-2.176-1.362-4.644-1.181-7.03a16.612,16.612,0,0,0,0-3.854.5.5,0,0,1,.987-.158,17.6,17.6,0,0,1,.007,4.087c-.168,2.214-.327,4.31.837,6.136l.662-.07V299a.5.5,0,0,1,1,0v10.524a.5.5,0,0,1-.447.5l-1.408.149Z" transform="translate(-701.316 -7.233)"/><path d="M392.919,257.327a2.439,2.439,0,0,1-1.523-.964c-.24-.257-1.428-1.582-1.195-2.445a6.718,6.718,0,0,1,1.985-2.764c.321-.32.654-.651.935-.98a3.849,3.849,0,0,1,1.108-.119l4.384,2.253a.5.5,0,0,1,.27.488l-.147,1.678a.5.5,0,0,1-.278.405c-.479.235-.966.5-1.438.759a14.31,14.31,0,0,1-3.957,1.675A.731.731,0,0,1,392.919,257.327Zm-1.75-3.159a2.845,2.845,0,0,0,.695,1.213,3.442,3.442,0,0,0,1.05.942,13.565,13.565,0,0,0,3.627-1.562c.4-.218.81-.442,1.223-.653l.093-1.065-4.082-2.1c-.28.315-.586.62-.883.917A6,6,0,0,0,391.169,254.169Z" transform="translate(-701.316 -7.233)"/><path d="M425.5,250.5a.5.5,0,0,1-.493-.59l.591-3.25a.5.5,0,0,1,.492-.411H433a.5.5,0,0,1,.5.5v2.75a.5.5,0,0,1-1,0v-2.25h-5.992l-.516,2.839A.5.5,0,0,1,425.5,250.5Z" transform="translate(-701.316 -7.233)"/><path d="M365,313a.5.5,0,0,1-.019-1l6.5-.25,6.5-.25a.5.5,0,0,1,.039,1l-6.5.25-6.5.25Z" transform="translate(-701.316 -7.233)"/><path d="M449.912,299.242a.5.5,0,0,1-.3-.1l-1.027-.781a.5.5,0,0,1-.174-.548l.615-1.961a.5.5,0,1,1,.954.3l-.51,1.626.261.2.1-.206.722-1.487a.5.5,0,0,1,.9.437l-.721,1.486-.366.755a.5.5,0,0,1-.45.282Z" transform="translate(-701.316 -7.233)"/></g></svg>