<svg xmlns="http://www.w3.org/2000/svg" viewBox="0 0 1462.44 1340.02"><title>icon_cleanup</title><g id="Layer_1" data-name="Layer 1"><path d="M177.75,1012.5c2.45,1.3,5.21,1.2,7.83,1.68,15.65,2.88,27.85,10.88,36.42,24.34-1.24-.58-2.49-1.12-3.7-1.72-6.91-3.45-14-6.4-21.75-7.28l-1.54-.61a49.56,49.56,0,0,0-7.63-6.38c-7.67-5.09-16.19-7.77-25.23-9,.55-.21,1.26-.19,1.35-1Z" transform="translate(916.5 -56.47)" style="fill:#ed1767"/><path d="M162.15,1013.51c9,1.25,17.56,3.93,25.23,9a49.56,49.56,0,0,1,7.63,6.38c-1.24,0-2.49,0-3.73-.13a43.51,43.51,0,0,0-32,9.82,14.31,14.31,0,0,0-5.32,8.77c-1,5.64-1.68,11.34-2.3,17a7.89,7.89,0,0,0,6.39,8.82,139,139,0,0,0,19.63,2.39,2.38,2.38,0,0,0,.24.57c-2.88,1.7-1.65,4.09-.94,6.26q8.85,27.09,17.79,54.14c1.57,4.78.92,7.22-2.92,10.53-.56.49-1.28.79-1.32,1.67-4.19-1.54-7-4.6-9.16-8.36s-4.06-3.84-6.74-.49c-7.91,9.86-20.89,11.12-30.56,2.91-2.07-1.76-4-3.73-5.95-5.61,0-12.86,0-25.73-.15-38.59a19.8,19.8,0,0,0-9.11-17c-7-4.8-14.81-2.53-22.52-2.87,10.9,5.28,12.93,14.81,12.89,25.42,0,11.74.06,23.48,0,35.22,0,4.49-.56,9-3.74,12.59-3.62-1.25-4.42,1.29-5.45,3.86-7.53,18.83-20,26.65-40.08,25.28.23-16.69-1.49-33.47,2.08-50a94.87,94.87,0,0,1,29-50.82,20.58,20.58,0,0,0,3.91-5c7.2-12.54,14.21-25.21,21.7-37.58C134.7,1024.33,146.55,1016.08,162.15,1013.51Z" transform="translate(916.5 -56.47)" style="fill:#ee3d81"/><path d="M69.85,1303.76-7,1303.63c-1.5,0-3,0-4.5,0-4.86-.22-8-3.2-8.07-8q-.19-9.37,0-18.74c.11-4.81,3.31-8,8.15-7.9,18,.57,35.93,1.36,53.89,2,9.11.34,18.22.61,27.32.92,9.48.71,19,1,28.46,1.06l1.56.18a18.27,18.27,0,0,0,5.9.26l11.17.35c4.5,1,9.1.13,13.62.78l0,29-25.83.24-2,.07Z" transform="translate(916.5 -56.47)" style="fill:#f6aa6d"/><path d="M290.69,1280.86l40,1.66c5.61.23,11.23.45,16.83.74,4.22.22,6.38,2.44,6.54,6.61.07,1.75,0,3.5,0,5.25,0,6.66-1.81,8.5-8.37,8.51H293.28c-4.37,0-8.74-.05-13.11-.08-2.88,0-5.8.3-8.61-.12-4.93-.73-7.59,3.67-5.14,8,3.66,6.52,6.4,13.54,10.39,19.9,1.73,2.75,2.58,5.59,1.46,8.78a14.42,14.42,0,0,1-6.4-4.33c-8.46-8.83-17-17.57-25.37-26.49a17.31,17.31,0,0,0-13.63-5.73c-7.86.11-15.72,0-23.58,0l.09-25.87q25.94.94,51.88,1.88c8.7.33,17.4.75,26.1,1.13Z" transform="translate(916.5 -56.47)" style="fill:#f6aa6d"/><path d="M215.94,1143.68c4,14.88,3,29.56-1.8,44.09-2.54,7.76-6.71,14.68-11,21.58Q183.54,1241.17,164,1273c-.52.84-.94,1.75-1.4,2.62a.82.82,0,0,0-.51.08c-2.65-8.36-4.76-10.2-12.06-10.53a13,13,0,0,1,.9-2.42c10.23-16.62,20.55-33.17,30.71-49.82,5.57-9.12,11.32-18.13,14.28-28.61a81.63,81.63,0,0,0,2.09-33.91A47.76,47.76,0,0,0,215.94,1143.68Z" transform="translate(916.5 -56.47)" style="fill:#455caa"/><path d="M98.27,1272.94c-9.5,0-19-.35-28.46-1.06q.07-23.19.13-46.36c13.19,2,24.14-2,32.66-12.31a43.06,43.06,0,0,0,7.74-14c.88-2.68,2.41-3.63,5.08-2.75l3.12,2c0,7-.18,14,0,20.94a39.3,39.3,0,0,1-3.67,17c-3.59,8.2-7.58,16.22-11.32,24.35C101.7,1264.71,100,1268.85,98.27,1272.94Z" transform="translate(916.5 -56.47)" style="fill:#5668b0"/><path d="M104.72,1303.72l25.82-.24,3,.68c-.23,6.12,1.2,12.1,1.72,18.16.87,10.12,2.33,20.18,3.51,30.28,1,8.37,1.95,16.74,2.86,25.12.64,5.78.25,11.21-4.85,15.27-1.17.94-2.91,1.58-3.24,3.41-7.37-.11-12.71-4.92-14.18-12.82-2.16-11.65-4.34-23.29-6.47-34.95Q108.76,1326.19,104.72,1303.72Z" transform="translate(916.5 -56.47)" style="fill:#5668b0"/><path d="M115.42,1196.45c-2.67-.88-4.2.07-5.08,2.75a43.06,43.06,0,0,1-7.74,14c-8.52,10.34-19.47,14.3-32.66,12.31l0-44.41c20.11,1.37,32.55-6.45,40.08-25.28,1-2.57,1.83-5.11,5.45-3.86l3.2,1.84c0,10.74-.24,21.47,0,32.2A15.93,15.93,0,0,1,115.42,1196.45Z" transform="translate(916.5 -56.47)" style="fill:#fde079"/><path d="M133.51,1396.4c.33-1.83,2.07-2.47,3.24-3.41,5.1-4.06,5.49-9.49,4.85-15.27-.91-8.38-1.88-16.75-2.86-25.12-1.18-10.1-2.64-20.16-3.51-30.28-.52-6.06-1.95-12-1.72-18.16l8.23-.25c1.32,2,2.13,4.46,4.56,5.58,2,2.08,4.63,1.64,7.13,1.64q3.85,34.27,7.69,68.56c1.07,9.63-5.29,16.8-14.9,16.81C142,1396.5,137.75,1396.43,133.51,1396.4Z" transform="translate(916.5 -56.47)" style="fill:#455caa"/><path d="M215.94,1143.68a47.76,47.76,0,0,1-18,6.74c-2.45-.73-5.13-.36-7.45-1.64,0-.88.76-1.18,1.32-1.67,3.84-3.31,4.49-5.75,2.92-10.53q-8.91-27.07-17.79-54.14c-.71-2.17-1.94-4.56.94-6.26a113.31,113.31,0,0,1,17.12,2.34l0-.08q9.53,29.22,19.06,58.43C214.8,1139.11,215.32,1141.41,215.94,1143.68Z" transform="translate(916.5 -56.47)" style="fill:#ed1767"/><path d="M236.21,1091.34l-38.69-12.23c-.82-.26-1.67-.44-2.5-.67l0,.08c6.77-10.58,14-20.8,21.65-30.78a3.17,3.17,0,0,1,2.46.61c3.5,3.51,7.6,6.56,10.3,10.72C235.82,1068.9,239.59,1079.41,236.21,1091.34Z" transform="translate(916.5 -56.47)" style="fill:#7b6f7b"/><path d="M236.21,1091.34c3.38-11.93-.39-22.44-6.76-32.27-2.7-4.16-6.8-7.21-10.3-10.72a3.17,3.17,0,0,0-2.46-.61q2.64-4.21,5.3-8.43c15.76,3.35,33.22,23,34.46,38.92.21,2.71.75,5.42.33,8.18-.93,6.16-5.86,9.54-11.81,7.85C242,1093.43,239.13,1092.32,236.21,1091.34Z" transform="translate(916.5 -56.47)" style="fill:#685f68"/><path d="M102.1,1304.29c-2.54,7-6.1,13.56-9.2,20.32-4.13,9-8.44,18-12.63,27-1.26,2.7-3,4.77-6.26,4.05s-4.35-3.18-4.29-6.47c.17-8.71.15-17.43.21-26.15,3.07.42,4.95-1.08,6.18-3.73,1.94-4.18,4-8.32,5.84-12.53a3.81,3.81,0,0,1,4-2.53C91.37,1304.36,96.73,1304.28,102.1,1304.29Z" transform="translate(916.5 -56.47)" style="fill:#455caa"/><path d="M290.69,1280.86l-3.33-.11-.57-5.73c5.09-1.54,8.65-5.07,11.75-9.14,6.49-8.52,7.26-18.39,6.63-28.58,3.48-2.32,7.5-3.21,11.47-4.07s7.49,2.13,7.87,7c1.07,13.42-3.34,27.57-18.06,35.27C301.45,1278.09,296,1279.28,290.69,1280.86Z" transform="translate(916.5 -56.47)" style="fill:#88be42"/><path d="M222,1039.31q-2.66,4.21-5.3,8.43c-7.61,10-14.88,20.2-21.65,30.78a113.31,113.31,0,0,0-17.12-2.34,2.38,2.38,0,0,1-.24-.57c1.14-1.78,2.21-3.6,3.43-5.32,6.16-8.72,12.42-17.38,18.53-26.14,2.63-3.78,2.34-6.92-.45-10.6-1-1.28-1.77-2.68-2.64-4,7.76.88,14.84,3.83,21.75,7.28,1.21.6,2.46,1.14,3.7,1.72C222,1038.78,222,1039.05,222,1039.31Z" transform="translate(916.5 -56.47)" style="fill:#c9e8f8"/><path d="M278.27,1340.15c1.12-3.19.27-6-1.46-8.78-4-6.36-6.73-13.38-10.39-19.9-2.45-4.37.21-8.77,5.14-8,2.81.42,5.73.11,8.61.12-1.89,1.68-1.79,3.41-.63,5.6,4.26,8,8.36,16.07,12.48,24.14,2.53,5,.92,7.73-4.57,7.66C284.39,1340.91,281.22,1341.62,278.27,1340.15Z" transform="translate(916.5 -56.47)" style="fill:#eb9d5a"/><path d="M153.43,1311.13c-2.5,0-5.1.44-7.13-1.64,3.28-2.27,4.34-5.68,4.4-9.37.13-7.72.16-15.45,0-23.17-.08-3.78-.84-7.47-4.61-9.59.89-1.46,2.65-1.38,3.92-2.18,7.3.33,9.41,2.17,12.06,10.53,0,5.85,0,11.7-.11,17.55-.08,3.58.61,7.22-.71,10.72A10.25,10.25,0,0,1,153.43,1311.13Z" transform="translate(916.5 -56.47)" style="fill:#ffd05d"/><path d="M209.38,1277.74l-.09,25.87c-4.09,7.59-8.94,9.52-15.13,6,3.38-3.12,4.06-7.05,3.9-11.48-.24-6.82-.27-13.66,0-20.48a14.11,14.11,0,0,0-3.79-10.84c7.09-3.67,14.48.44,15,8.31C209.29,1276,209.33,1276.88,209.38,1277.74Z" transform="translate(916.5 -56.47)" style="fill:#ffd05d"/><path d="M161.24,1304c1.32-3.5.63-7.14.71-10.72.12-5.85.08-11.7.11-17.55a.82.82,0,0,1,.51-.08l15.94.94,0,27C172.79,1304.34,167,1303.63,161.24,1304Z" transform="translate(916.5 -56.47)" style="fill:#f6aa6d"/><path d="M305.17,1237.3c.63,10.19-.14,20.06-6.63,28.58-3.1,4.07-6.66,7.6-11.75,9.14C284.75,1257.61,291.41,1243.93,305.17,1237.3Z" transform="translate(916.5 -56.47)" style="fill:#9bcb3e"/><path d="M194.29,1266.83a14.11,14.11,0,0,1,3.79,10.84c-.29,6.82-.26,13.66,0,20.48.16,4.43-.52,8.36-3.9,11.48a9.84,9.84,0,0,1-4.44-5.64,36.9,36.9,0,0,1-.66-8.46c0-6.3,0-12.61-.07-18.91C189.82,1272.85,190.2,1268.83,194.29,1266.83Z" transform="translate(916.5 -56.47)" style="fill:#fde079"/><path d="M189,1276.62c0,6.3.09,12.61.07,18.91a36.9,36.9,0,0,0,.66,8.46c-3.72-.19-7.48.5-11.18-.4l0-27Z" transform="translate(916.5 -56.47)" style="fill:#eb9d5a"/><path d="M102.1,1304.29c-5.37,0-10.73.07-16.1-.06a3.81,3.81,0,0,0-4,2.53c-1.88,4.21-3.9,8.35-5.84,12.53-1.23,2.65-3.11,4.15-6.18,3.73q0-9.63-.08-19.26l32.85,0Z" transform="translate(916.5 -56.47)" style="fill:#5668b0"/><path d="M196.55,1029.52c.87,1.35,1.68,2.75,2.64,4,2.79,3.68,3.08,6.82.45,10.6-6.11,8.76-12.37,17.42-18.53,26.14-1.22,1.72-2.29,3.54-3.43,5.32a139,139,0,0,1-19.63-2.39,7.89,7.89,0,0,1-6.39-8.82c.62-5.69,1.32-11.39,2.3-17a14.31,14.31,0,0,1,5.32-8.77,43.51,43.51,0,0,1,32-9.82c1.24.1,2.49.09,3.73.13Zm-16.76,31.66c3.84-.07,10-6.21,9.94-9.72a5.53,5.53,0,0,0-3.12-5.13,5,5,0,0,0-5.93.5,44.29,44.29,0,0,0-5.26,5.26,5.08,5.08,0,0,0-.45,6A5.65,5.65,0,0,0,179.79,1061.18Z" transform="translate(916.5 -56.47)" style="fill:#ebf4fb"/><path d="M150,1265.18c-1.27.8-3,.72-3.92,2.18-3,1.64-4,4.47-4.47,7.58-3.69-.16-7.37-1-11.09-.43-4.52-.65-9.12.23-13.61-.78a16.27,16.27,0,0,1,.69-2.11c4.61-9.79,9.29-19.55,13.87-29.36,3.21-6.88,6.25-13.91,6.45-21.6.28-10.21,0-20.44,0-30.66v-44.48q.1-4.15.22-8.29c2,1.88,3.88,3.85,5.95,5.61,9.67,8.21,22.65,7,30.56-2.91,2.68-3.35,4.55-3.26,6.74.49s5,6.82,9.16,8.36c2.32,1.28,5,.91,7.45,1.64a81.63,81.63,0,0,1-2.09,33.91c-3,10.48-8.71,19.49-14.28,28.61-10.16,16.65-20.48,33.2-30.71,49.82A13,13,0,0,0,150,1265.18Z" transform="translate(916.5 -56.47)" style="fill:#5567b0"/><path d="M138.12,1137.23q-.12,4.14-.22,8.29c-4.8,6.53-10.42,11.15-19.26,8.29l-3.2-1.84c3.18-3.62,3.7-8.1,3.74-12.59.11-11.74,0-23.48,0-35.22,0-10.61-2-20.14-12.89-25.42,7.71.34,15.48-1.93,22.52,2.87a19.8,19.8,0,0,1,9.11,17C138.13,1111.5,138.08,1124.37,138.12,1137.23Z" transform="translate(916.5 -56.47)" style="fill:#ed1767"/><path d="M137.9,1190c0,10.22.3,20.45,0,30.66-.2,7.69-3.24,14.72-6.45,21.6-4.58,9.81-9.26,19.57-13.87,29.36a16.27,16.27,0,0,0-.69,2.11l-11.18-.35c-1.92-1.08-3.91-.79-5.9-.26l-1.56-.18c1.76-4.09,3.43-8.23,5.29-12.28,3.74-8.13,7.73-16.15,11.32-24.35a39.3,39.3,0,0,0,3.67-17c-.19-7,0-14,0-20.94,5.18,1.47,10,.94,14.18-2.71A68.44,68.44,0,0,0,137.9,1190Z" transform="translate(916.5 -56.47)" style="fill:#455caa"/><path d="M130.52,1274.51c3.72-.55,7.4.27,11.09.42q.07,14.49.13,29l-8.23.25-3-.68Q130.54,1289,130.52,1274.51Z" transform="translate(916.5 -56.47)" style="fill:#eb9d5a"/><path d="M99.83,1273.12c2-.53,4-.82,5.9.26A18.27,18.27,0,0,1,99.83,1273.12Z" transform="translate(916.5 -56.47)" style="fill:#5668b0"/><path d="M137.9,1190a68.44,68.44,0,0,1-5.18,5.69c-4.14,3.65-9,4.18-14.18,2.71l-3.12-2a15.93,15.93,0,0,0,3.17-10.44c-.19-10.73,0-21.46,0-32.2,8.84,2.86,14.46-1.76,19.26-8.29Z" transform="translate(916.5 -56.47)" style="fill:#ffd05d"/><path d="M141.74,1303.91q-.06-14.49-.13-29c.51-3.1,1.47-5.93,4.47-7.57,3.77,2.12,4.53,5.81,4.61,9.59.17,7.72.14,15.45,0,23.17-.06,3.69-1.12,7.1-4.4,9.37C143.87,1308.37,143.06,1305.94,141.74,1303.91Z" transform="translate(916.5 -56.47)" style="fill:#fde079"/><path d="M179.79,1061.18A5.65,5.65,0,0,1,175,1058a5.08,5.08,0,0,1,.45-6,44.29,44.29,0,0,1,5.26-5.26,5,5,0,0,1,5.93-.5,5.53,5.53,0,0,1,3.12,5.13C189.75,1055,183.63,1061.11,179.79,1061.18Z" transform="translate(916.5 -56.47)" style="fill:#7b6f7b"/><path d="M-233.36,1273.75c0,24.23-.06,48.46.06,72.69,0,4.94-1.45,8.72-5.95,11.06h-6c-4.67-3.25-10.14-4.9-15.1-7.56-1.19-.64-2.36-1.32-3.53-2,5.68-1,8.11-3.82,8.12-9.7q0-31.63,0-63.27C-248.34,1273.8-240.81,1274.55-233.36,1273.75Z" transform="translate(916.5 -56.47)" style="fill:#685e68"/><path d="M-373.65,1231.72c-7.74-14.81-15.25-29.75-23.29-44.4a122.34,122.34,0,0,1-15.56-61.65c.25-18.86-.34-37.73.14-56.58.86-33.5,16.61-57.77,46.6-72.77,1.09-.54,2.17-1.28,3.51-1.1-8.76,9.54-10.1,20-3.88,31.41-1.06,1-.61,2.36-.61,3.55,0,15.6-.1,31.2,0,46.79.12,17,6.78,31,20.15,41.54,8.15,6.38,17.33,11.27,26.23,16.54l.94,1.12c-1.44,1.32-.8,3.06-.8,4.6q-.06,47.07,0,94.13c0,1.74-.16,3.49-.24,5.23-4.13-9.19-11.07-11.76-18.53-6.86-4.44,3-5.22,7.58-5.23,12.46l-14.25.15-8.18-.2C-366,1239.54-368.29,1234.85-373.65,1231.72Z" transform="translate(916.5 -56.47)" style="fill:#7b6e7a"/><path d="M-320.49,1240.13c.08-1.74.24-3.49.24-5.23q0-47.07,0-94.13c0-1.54-.64-3.28.8-4.6,1.19.65,2.39,1.28,3.55,2,6.07,3.53,11.77,7.68,18.08,10.81.47,12-.89,24,.78,35.9a59.34,59.34,0,0,0,18.46,35.4c4.67,4.47,9.76,8.52,14.35,13.07,2.43,2.42,4.19,2,6.3,0a7.38,7.38,0,0,0,2.16-5.75c0-27.87.19-55.74-.15-83.61a35,35,0,0,0-9.72-24c-8.76-9.39-20.71-11.91-32-15.91v-8.42c14.65,5,29.49,9.65,43.52,16.14,14.54,6.73,20.74,19.47,20.79,35.19.09,31.45,0,62.91,0,94.36,0,1.5,0,3,.08,4.49-.22,1-.38,2-.68,2.89-1.5,4.81-6.9,6.69-10.22,3-4.74-5.26-10.29-6.73-16.94-5.9a30.28,30.28,0,0,1-4.46-.09,18.29,18.29,0,0,0-1.45-1.7c-10-9.19-20-18.39-29.58-28-.21-.21-.63-.21-1.23-.38v30.09l-22.44.07C-320.3,1243.84-320.4,1242-320.49,1240.13Z" transform="translate(916.5 -56.47)" style="fill:#685e68"/><path d="M-320.21,1245.7l22.44-.07h32.26a30.28,30.28,0,0,0,4.46.09c6.65-.83,12.2.64,16.94,5.9,3.32,3.69,8.72,1.81,10.22-3,.3-.94.46-1.93.68-2.89q9.35,0,18.7,0a14.62,14.62,0,0,0,11-4.61q13.86-14.43,27.65-28.9c2.32-2.43,4.52-5,7.84-6.14a16,16,0,0,1-1.86,8.94c-4.24,7.85-8.3,15.81-12.31,23.79-2,4.05-.23,6.84,4.31,6.9,3.85,0,7.7,0,11.55,0l55.81,0c6.43,0,8.42,2,8.43,8.54,0,2.25,0,4.5,0,6.74-.11,4.58-2.35,7-6.84,7.19-9.47.49-18.93,1-28.4,1.38-20.81.87-41.63,1.66-62.44,2.54-11.21.48-22.42,1.07-33.63,1.61-7.45.8-15,0-22.41,1.24-14-.14-28,1.25-42,1.65l-22.4.79Q-320.2,1261.57-320.21,1245.7Z" transform="translate(916.5 -56.47)" style="fill:#f5aa6d"/><path d="M-297.75,973.62h68.28a6.45,6.45,0,0,0,1.31.61c15.51,3.24,26.37,12.06,32.32,26.81q5.63,14,11.23,28c-.13.51-.26,1-.38,1.53q-2.53,5-5.06,9.92-8.87-5.58-17.72-11.18a24.83,24.83,0,0,0-13.43-4q-38.22,0-76.44,0l-.09-.11Q-297.74,999.41-297.75,973.62Z" transform="translate(916.5 -56.47)" style="fill:#9aca3d"/><path d="M-297.64,1025.29q38.22,0,76.44,0a24.83,24.83,0,0,1,13.43,4q8.84,5.61,17.72,11.18c-2.62,5.89-6,11.42-8.24,17.5q-37.4.08-74.79.14c-8.22,0-16.44.1-24.67.16Q-297.69,1041.76-297.64,1025.29Z" transform="translate(916.5 -56.47)" style="fill:#fee179"/><path d="M-297.8,1276.64c14-.4,28-1.79,42-1.65q0,31.63,0,63.27c0,5.88-2.44,8.74-8.12,9.7-14.53-5.37-26.72-13.29-31.83-29a37.93,37.93,0,0,1-2.07-12C-297.72,1296.83-297.79,1286.73-297.8,1276.64Z" transform="translate(916.5 -56.47)" style="fill:#7b6e7a"/><path d="M-403.61,1281.23c-6.59.36-13.18.78-19.77,1.07-13.7.6-27.4,1.2-41.1,1.67-7.58.25-10.95-3.19-11-10.83,0-6-.08-12,0-18,.1-5.56,3.66-9.34,9.08-9.36,20.71,0,41.41,0,62.12.06,0,2.86-.1,5.73,0,8.58C-404,1263.38-405,1272.34-403.61,1281.23Z" transform="translate(916.5 -56.47)" style="fill:#f5aa6d"/><path d="M-297.64,1025.29q0,16.49-.11,33l.12,37.31V1104l-.15,45c-6.31-3.13-12-7.28-18.08-10.81-1.16-.68-2.36-1.31-3.55-2-.31-.37-.62-.75-.94-1.12,0-1.75.1-3.49.1-5.24q0-48.49,0-97l22.49-7.63Z" transform="translate(916.5 -56.47)" style="fill:#ffd15c"/><path d="M-366.13,1026.63c-6.22-11.4-4.88-21.87,3.88-31.41l0,0a1.32,1.32,0,0,0,1.58-.79q17.06-6,34.1-12c2.11-.73,4.25-1.38,6.37-2.07,0,6,0,11.92,0,17.88,0,1.29.53,2.78-.9,3.76-4.36-2.8-6.26-2.66-9.84.85-2.84,2.79-5.67,5.59-8.44,8.45-3,3.12-3.25,6.3-.77,8.89s5.71,2.54,8.86-.52c3.74-3.64,7.35-7.41,11-11.12,0,3.85-.08,7.72.13,11.57s-1.91,5.9-5.33,7c-4.48,1.4-9,2.68-13.45,4.24-6.51,2.29-13.06,3.89-20,2.45-.31-.06-.75.48-1.14.74C-363,1032.59-364.76,1029.74-366.13,1026.63Z" transform="translate(916.5 -56.47)" style="fill:#5668b0"/><path d="M-360.15,1034.56c.39-.26.83-.8,1.14-.74,7,1.44,13.51-.16,20-2.45,4.44-1.56,9-2.84,13.45-4.24,3.42-1.07,5.55-3,5.33-7s-.1-7.72-.13-11.57a8.89,8.89,0,0,0-.83-6.55c1.43-1,.89-2.47.9-3.76.06-6,0-11.92,0-17.88,7.42-2.49,14.41-6.43,22.48-6.78q0,25.78,0,51.56l-22.49,7.63c-6.71,2-13.38,4.23-20.15,6C-347.6,1040.77-354.34,1039.59-360.15,1034.56Z" transform="translate(916.5 -56.47)" style="fill:#455ca9"/><path d="M-184.61,1029q-5.61-14-11.23-28c-5.95-14.75-16.81-23.57-32.32-26.81a6.45,6.45,0,0,1-1.31-.61c8.68.1,17.46-1.19,26,1,15.79,4.14,26.06,14.26,31.24,29.67Z" transform="translate(916.5 -56.47)" style="fill:#87bd41"/><path d="M-184.61,1029l12.38-24.66c5.37,13.52,10.81,27,16.1,40.57,2.51,6.45-.36,11.32-7.42,13a61.34,61.34,0,0,0-17.17,0H-183a4.59,4.59,0,0,1,.73-1.22c5.12-4.48,5.7-6.8,3.29-13-1.4-3.58-2.72-7.2-4.1-10.79-.39-1-.54-2.24-2-2.46C-184.87,1030-184.74,1029.51-184.61,1029Z" transform="translate(916.5 -56.47)" style="fill:#ed1867"/><path d="M-320.21,1245.7q0,15.87,0,31.73c-3.22,8-6.5,10.61-13.08,10.32a8.31,8.31,0,0,1-5.71-2.27c3.48-3.81,4.62-8.35,4.51-13.42q-.19-10.49,0-21c.13-6.39.28-12.71-4.54-17.81,7.46-4.9,14.4-2.33,18.53,6.86C-320.4,1242-320.3,1243.84-320.21,1245.7Z" transform="translate(916.5 -56.47)" style="fill:#ffd15c"/><path d="M-373.65,1231.72c5.36,3.13,7.63,7.82,7,14q-.06,16.88-.11,33.77c-2.76,5.08-6.37,8.86-12.79,8.29-2.4-.21-4.64-.78-6.14-2.9,3.47-1.9,4.65-5.15,4.68-8.78.1-11.24.13-22.49,0-33.74a10.49,10.49,0,0,0-4.5-8.59C-382.08,1230.16-377.91,1230.66-373.65,1231.72Z" transform="translate(916.5 -56.47)" style="fill:#ffd15c"/><path d="M-166.29,1245.7c-3.85,0-7.7.08-11.55,0-4.54-.06-6.34-2.85-4.31-6.9,4-8,8.07-15.94,12.31-23.79a16,16,0,0,0,1.86-8.94c4.72-1.69,9.61-1,14.38-.62,2.91.25,3.66,3.55,1.91,7q-7.22,14.12-14.54,28.15C-167.11,1242.33-168,1244-166.29,1245.7Z" transform="translate(916.5 -56.47)" style="fill:#eb9c5a"/><path d="M-403.61,1281.23c-1.37-8.89-.35-17.85-.63-26.78-.09-2.85,0-5.72,0-8.58l14.12-.18q0,13.9.06,27.83c0,2.47-.13,5,.76,7.32Z" transform="translate(916.5 -56.47)" style="fill:#eb9c5a"/><path d="M-358.5,1245.88l14.25-.15q0,16.47.07,32.94l-13.53.56a13.06,13.06,0,0,1-.81-5.08C-358.47,1264.72-358.5,1255.3-358.5,1245.88Z" transform="translate(916.5 -56.47)" style="fill:#eb9c5a"/><path d="M-344.18,1278.67q0-16.47-.07-32.94c0-4.88.79-9.43,5.23-12.46,4.82,5.1,4.67,11.42,4.54,17.81q-.21,10.49,0,21c.11,5.07-1,9.61-4.51,13.42C-341.82,1284.05-342.48,1281-344.18,1278.67Z" transform="translate(916.5 -56.47)" style="fill:#fde078"/><path d="M-389.29,1280.84c-.89-2.37-.75-4.85-.76-7.32q0-13.92-.06-27.83c-.19-4.64.16-9.07,4.55-12a10.49,10.49,0,0,1,4.5,8.59c.15,11.25.12,22.5,0,33.74,0,3.63-1.21,6.88-4.68,8.78C-387.55,1284.07-388.2,1282.26-389.29,1280.84Z" transform="translate(916.5 -56.47)" style="fill:#fde078"/><path d="M-185,1030.53c1.41.22,1.56,1.46,2,2.46,1.38,3.59,2.7,7.21,4.1,10.79,2.41,6.21,1.83,8.53-3.29,13A4.59,4.59,0,0,0-183,1058l-15.33-.06c2.23-6.08,5.62-11.61,8.24-17.5Q-187.53,1035.49-185,1030.53Z" transform="translate(916.5 -56.47)" style="fill:#ee4282"/><path d="M-358.5,1245.88c0,9.42,0,18.84,0,28.27a13.06,13.06,0,0,0,.81,5.08l-9.08.22q.06-16.89.11-33.77Z" transform="translate(916.5 -56.47)" style="fill:#f6aa6d"/><path d="M-180.72,1058a61.34,61.34,0,0,1,17.17,0A138.54,138.54,0,0,1-180.72,1058Z" transform="translate(916.5 -56.47)" style="fill:#ee4282"/><path d="M-360.7,994.45a1.32,1.32,0,0,1-1.58.79C-362,994.49-361.33,994.5-360.7,994.45Z" transform="translate(916.5 -56.47)" style="fill:#7b6e7a"/><path d="M-360.15,1034.56c5.81,5,12.55,6.21,19.78,4.28,6.77-1.8,13.44-4,20.15-6q0,48.51,0,97c0,1.75-.06,3.49-.1,5.24-8.9-5.27-18.08-10.16-26.23-16.54-13.37-10.49-20-24.53-20.15-41.54-.11-15.59,0-31.19,0-46.79,0-1.19-.45-2.52.61-3.55C-364.76,1029.74-363,1032.59-360.15,1034.56Z" transform="translate(916.5 -56.47)" style="fill:#fde078"/><path d="M-297.78,1148.94l.15-45c11.32,4,23.27,6.52,32,15.91a35,35,0,0,1,9.72,24c.34,27.87.11,55.74.15,83.61a7.38,7.38,0,0,1-2.16,5.75c-2.11,2-3.87,2.46-6.3,0-4.59-4.55-9.68-8.6-14.35-13.07a59.34,59.34,0,0,1-18.46-35.4C-298.67,1172.91-297.31,1160.9-297.78,1148.94Z" transform="translate(916.5 -56.47)" style="fill:#7b6e7a"/><path d="M-265.51,1245.64h-32.26v-30.09c.6.17,1,.17,1.23.38,9.58,9.63,19.58,18.83,29.58,28A18.29,18.29,0,0,1-265.51,1245.64Z" transform="translate(916.5 -56.47)" style="fill:#7b6e7a"/><path d="M-321.17,1002a8.89,8.89,0,0,1,.83,6.55c-3.67,3.71-7.28,7.48-11,11.12-3.15,3.06-6.33,3.16-8.86.52s-2.25-5.77.77-8.89c2.77-2.86,5.6-5.66,8.44-8.45C-327.43,999.38-325.53,999.24-321.17,1002Z" transform="translate(916.5 -56.47)" style="fill:#e7f1fa"/><path d="M-878.33,918.26c-9.36,1.16-18.74,2.24-28.08,3.53-4.44.61-7.77-.72-10.09-4.54V865.5c2-3.88,5.06-5.33,9.43-5.27,13.86.21,27.73.15,41.6.19,0,4.62.06,9.24,0,13.85-.12,4.85.47,9.72-.38,14.55-1.58,8.93-7.14,16.11-10.62,24.2C-877.25,914.72-878.42,916.27-878.33,918.26Z" transform="translate(916.5 -56.47)" style="fill:#f6aa6d"/><path d="M-735.72,1133.85c-20.6-.44-41.32,1.72-61.77-1.38-38.92-5.91-67.75-26.7-85.06-62-16.11-32.86-15.4-66.3.36-99.32,8.28-17.35,16.78-34.59,25.16-51.89.54-1.11,1-2.28,1.44-3.43,3.45-6.9,6.94-13.78,10.33-20.71A24.13,24.13,0,0,0-843,884.23c-.05-8,0-16,0-23.94,1.49-3.68,3.62-6.75,7.57-8.14,5.61,4.25,6.15,10.09,6.07,16.64-.29,21.83-.11,43.68-.11,65.52,0,10,0,20,0,30,0,6.08,3.81,13.07,12.29,12.3,3.47-.32,7-.12,10.48-.15l1.25.35c1.29,3.41,4.64,5,6.69,7.85a58.36,58.36,0,0,1,11.3,30.65c.29,3.73,3.07,5.84,6.94,5.5a5.78,5.78,0,0,0,5-6.31c-1.57-11.94-4.83-23.3-11.63-33.41a4.36,4.36,0,0,1-1-3.08l15.78.35a53.83,53.83,0,0,0,5.68,23.72c6.67,13.53,15.07,26.08,22.8,39a12.29,12.29,0,0,0,4.65,4.22c5.39,3.12,11.23,1.63,16.86,1.54,2.88,0,3.86-3.36,2.06-5.93-6.49-9.27-13-18.56-19.6-27.71-7.46-10.27-11.15-21.81-12.22-34.32-.78-14.11,2.72-27.13,9.53-39.48,7.17-13,13.92-26.24,20.85-39.38a35.73,35.73,0,0,0,3.46-12.47c1.06-9,.27-18.13.78-27.19,1.62-3.83,3.75-7.14,8.14-8.23,4.43,3.18,6.07,7.6,7.05,12.92,3.84,21,8.18,41.88,12.28,62.82.77,3.9,1.11,7.75-.4,11.71-4.22,11.05-8.15,22.22-12.26,33.32-3.33,9-6.32,17.89-6.13,27.85.36,18.16,12.33,36.6,30.25,43.4,8.15,3.09,16.38,6,24.57,9,6.29,2.29,7.45,5.76,3.93,11.49-1.63,2.65-3.07,5.41-4.64,8.1-9,15.48-19.5,29.75-33.82,40.86-13.37,10.38-28.33,17-45.19,19C-734.78,1132.61-735.57,1132.72-735.72,1133.85Z" transform="translate(916.5 -56.47)" style="fill:#7b6e7a"/><path d="M-735.72,1133.85c.15-1.13.94-1.24,1.89-1.36,16.86-2,31.82-8.59,45.19-19,14.32-11.11,24.79-25.38,33.82-40.86,1.57-2.69,3-5.45,4.64-8.1,3.52-5.73,2.36-9.2-3.93-11.49-8.19-3-16.42-5.88-24.57-9-17.92-6.8-29.89-25.24-30.25-43.4-.19-10,2.8-18.85,6.13-27.85,4.11-11.1,8-22.27,12.26-33.32,1.51-4,1.17-7.81.4-11.71-4.1-20.94-8.44-41.83-12.28-62.82-1-5.32-2.62-9.74-7.05-12.92a52.61,52.61,0,0,1,21.43.13c4,.91,6.18,4.36,7.42,8.23.37,2.19.66,4.41,1.12,6.58,1.88,8.79,2.8,17.77,5.24,26.45.73,8.12,2.84,16,4.11,24,.62,3.89,1.3,7.77,1.95,11.65a12.49,12.49,0,0,1-.62,3.66c-4.4,11.92-8.71,23.87-13.09,35.79-3.79,10.32-7.23,20.56-5.2,31.94q5.11,28.69,32.09,38.93c14.54,5.54,29.26,10.58,43.9,15.84-7.67,14.29-15.35,28.58-26.82,40.34-21.64,22.16-47.73,35-78.71,37.73A184,184,0,0,1-735.72,1133.85Z" transform="translate(916.5 -56.47)" style="fill:#685e68"/><path d="M-611.12,1055.3c-14.64-5.26-29.36-10.3-43.9-15.84q-27-10.26-32.09-38.93c-2-11.38,1.41-21.62,5.2-31.94,4.38-11.92,8.69-23.87,13.09-35.79a12.49,12.49,0,0,0,.62-3.66c1.85-1.2,1.39-3.69,2.85-5.11a4.08,4.08,0,0,0,1.41-.41c8.09-6.55,16.86-6.84,26.32-3.34,21.94,8.11,43.94,16,65.92,24,14.21,5.18,24,18.65,17.37,35.58-5.67,14.45-10.45,29.26-15.29,44-4.57,13.95-14.43,22.52-27.26,28.48-2.82,1.31-6.31,1.37-8.35,4.24C-607.31,1056.73-609.12,1055.61-611.12,1055.3Zm40.56-42.83c3.57-4,4.28-9.24,5.79-14.11,2.3-3.89,3.27-8.31,4.89-12.46,2.68-6.87,1-10.65-5.83-13.16q-37.93-13.86-75.94-27.54c-6-2.17-10.09.2-11.71,6.51-1.85,4.22-3.75,8.43-4.48,13a45.77,45.77,0,0,0-5.14,14.1,17.26,17.26,0,0,0-2.27,5.85,31.25,31.25,0,0,0,16.9,34.79,96.3,96.3,0,0,0,15.32,5.65l11.15,4.07,11.39,4.15c10.19,3.52,19.93,2.46,28.65-3.84C-576.09,1025.36-571,1020.35-570.56,1012.47Z" transform="translate(916.5 -56.47)" style="fill:#7b6e7a"/><path d="M-605.23,1056.62c2-2.87,5.53-2.93,8.35-4.24,12.83-6,22.69-14.53,27.26-28.48,4.84-14.76,9.62-29.57,15.29-44,6.65-16.93-3.16-30.4-17.37-35.58-22-8-44-15.91-65.92-24-9.46-3.5-18.23-3.21-26.32,3.34a4.08,4.08,0,0,1-1.41.41,23.36,23.36,0,0,1,28.55-11.51c10,3.33,19.86,7.07,30,10.73.17-3.7,0-7.17.75-10.56.91-4,3.71-6.22,7.1-5.48s5.1,3.59,4.4,7.76a21.21,21.21,0,0,0-.31,3c-.3,8.39,2.36,11.57,11.23,13.34.2-3.48-.12-7,.81-10.4s3.64-5.57,6.78-5c3.34.56,5.19,3.42,4.65,7.29a25.1,25.1,0,0,0-.15,7.83c.61,3.51,2.21,6.13,6,7.35,6,2,12,4.17,17.83,6.54,12.17,4.91,18.27,17.64,14,30-6,17.26-11.95,34.55-18.77,51.49-7.77,19.28-22.91,29.12-43.43,31A41,41,0,0,1-605.23,1056.62Z" transform="translate(916.5 -56.47)" style="fill:#685f68"/><path d="M-806.9,860.3l66.68.15c0,2.48,0,5,0,7.44,0,9.26.36,18.54-2.18,27.63-.64,2.26-2.49,4.07-2.3,6.59l-61.74,7.66c-.12-1.48-.32-2.95-.33-4.43Q-806.87,882.83-806.9,860.3Z" transform="translate(916.5 -56.47)" style="fill:#f6aa6d"/><path d="M-806.9,860.3q0,22.53.1,45c0,1.48.21,2.95.33,4.43-.07,1.49-.2,3-.2,4.47q0,31.1,0,62.17c-3.5,0-7-.17-10.48.15-8.48.77-12.28-6.22-12.29-12.3,0-10,0-20,0-30,0-21.84-.18-43.69.11-65.52.08-6.55-.46-12.39-6.07-16.64a52.15,52.15,0,0,1,20.3-.16C-810.69,852.78-808.31,856.19-806.9,860.3Z" transform="translate(916.5 -56.47)" style="fill:#675e68"/><path d="M-573,799l16.07-.21c1.43,0,2.72.09,3.46,1.61.84,1.74-.19,2.82-1.24,3.92-5.71,5.92-11.44,11.83-17.13,17.77-.66.7-1.66,1.14-1.83,2.25-.66,1.52-2.86,1.58-3.22,3.39-7.27,7.37-14.59,14.7-21.8,22.12q-14,14.37-27.81,28.88c-8.44,8.81-19.15,12.17-30.93,13.05-1.86.14-3.71.39-5.57.59,0-1.17.78-1.74,1.74-2.2,3.22-1.52,5.72-3.94,8.2-6.42C-642.37,873-632.09,862-621.76,851c12.81-13.64,26-26.88,38.8-40.56C-579.51,806.72-575.56,803.4-573,799Z" transform="translate(916.5 -56.47)" style="fill:#eb9c5a"/><path d="M-573,799c-2.59,4.45-6.54,7.77-10,11.46-12.76,13.68-26,26.92-38.8,40.56-10.33,11-20.61,22-31.27,32.73-2.48,2.48-5,4.9-8.2,6.42-1,.46-1.72,1-1.74,2.2l-11.29,1.15c-2.44-8.68-3.36-17.66-5.24-26.45-.46-2.17-.75-4.39-1.12-6.58,6.73-.05,13.46-.15,20.19-.13A16.37,16.37,0,0,0-650,856.85c8-6.29,16-12.66,24-19a3,3,0,0,0,1.47-2.06l1-.21,37.21-29.23c2.24-1.77,4.45-3.59,6.74-5.3C-577.59,799.62-575.52,798.49-573,799Z" transform="translate(916.5 -56.47)" style="fill:#f6aa6d"/><path d="M-843,860.29c0,8-.06,16,0,23.94a24.13,24.13,0,0,1-2.23,10.87c-3.39,6.93-6.88,13.81-10.33,20.71l-22.74,2.44c-.09-2,1.08-3.53,1.81-5.23,3.48-8.09,9-15.27,10.62-24.2.85-4.83.26-9.7.38-14.55.11-4.61,0-9.23,0-13.85Z" transform="translate(916.5 -56.47)" style="fill:#eb9c59"/><path d="M-744.73,902.11c-.19-2.52,1.66-4.33,2.3-6.59,2.54-9.09,2.18-18.37,2.18-27.63,0-2.48,0-5,0-7.44l22.61-.14c-.51,9.06.28,18.14-.78,27.19A35.73,35.73,0,0,1-721.85,900a26.57,26.57,0,0,0-3,0Q-734.77,901-744.73,902.11Z" transform="translate(916.5 -56.47)" style="fill:#eb9c59"/><path d="M-576.86,827.68c.36-1.81,2.56-1.87,3.22-3.39,4.71-.62,8.7-3.45,13.48-4.11,9.9-1.35,20.92,3.36,26.22,11.77,2.36,3.75,1.27,7.41-2.87,9.64-12.69,6.83-26.05,3.94-35.74-7.81C-574.12,831.86-575.43,829.72-576.86,827.68Z" transform="translate(916.5 -56.47)" style="fill:#88be42"/><path d="M-623.45,835.58l-1,.21a41.68,41.68,0,0,1-13.69-6.66,27.06,27.06,0,0,1-9.71-29c1.24-4.22,5.09-5.81,9.55-4,14.05,5.83,20.22,19.1,16.16,34.74C-622.59,832.46-623,834-623.45,835.58Z" transform="translate(916.5 -56.47)" style="fill:#9bcb3e"/><path d="M-772.46,978.31l20.23.52c1.07,12.51,4.76,24,12.22,34.32,6.65,9.15,13.11,18.44,19.6,27.71,1.8,2.57.82,5.89-2.06,5.93-5.63.09-11.47,1.58-16.86-1.54A12.29,12.29,0,0,1-744,1041c-7.73-12.92-16.13-25.47-22.8-39A53.83,53.83,0,0,1-772.46,978.31Z" transform="translate(916.5 -56.47)" style="fill:#675e68"/><path d="M-805.46,976.76c5.72.65,11.54,0,17.22,1.2a4.36,4.36,0,0,0,1,3.08c6.8,10.11,10.06,21.47,11.63,33.41a5.78,5.78,0,0,1-5,6.31c-3.87.34-6.65-1.77-6.94-5.5a58.36,58.36,0,0,0-11.3-30.65C-800.82,981.81-804.17,980.17-805.46,976.76Z" transform="translate(916.5 -56.47)" style="fill:#675e68"/><path d="M-657.84,964.75c.73-4.61,2.63-8.82,4.48-13a11.92,11.92,0,0,1,8.7.5c3.68,1.5,7.49,2.67,11.23,4,15.43,5.63,30.87,11.2,46.25,16.94,5.59,2.08,7.11,5.85,5.17,11.59-3.38-1.55-6.71-3.18-10.14-4.6s-6.43-.16-7.8,2.85c-1.29,2.84-.23,5.78,2.81,7.58,3.53,2.09,7.08,4.12,10.62,6.18a5.58,5.58,0,0,1,.09.59c-1.26,3.38-2.75,6.7-3.75,10.15-3.29,11.39-9.31,20.55-20.31,25.84l-11.39-4.15c1.24-7.15,4.57-13.6,6.89-20.39,2.35.78,4.69,1.58,7.06,2.32,3.48,1.08,6.54-.22,7.68-3.23a5.64,5.64,0,0,0-3.59-7.51q-12.72-4.81-25.56-9.32a5.52,5.52,0,0,0-7.49,3.57c-1,3,.23,5.77,3.5,7.23,2.37,1.06,4.82,1.94,7.24,2.9-1.85,6.94-5.26,13.34-6.88,20.36a96.3,96.3,0,0,1-15.32-5.65,31.25,31.25,0,0,1-16.9-34.79,17.26,17.26,0,0,1,2.27-5.85c3.81-2.78,8.16-3.41,12.73-3.38,7.16,0,14,1.61,20.9,3.5,4.08,1.12,7.26-.21,8.25-3.44,1-3.39-.71-6.4-4.72-7.57C-636.29,964.9-646.9,963.15-657.84,964.75Z" transform="translate(916.5 -56.47)" style="fill:#fde3c1"/><path d="M-582,984.77c1.94-5.74.42-9.51-5.17-11.59-15.38-5.74-30.82-11.31-46.25-16.94-3.74-1.36-7.55-2.53-11.23-4a11.92,11.92,0,0,0-8.7-.5c1.62-6.31,5.7-8.68,11.71-6.51q38,13.69,75.94,27.54c6.87,2.51,8.51,6.29,5.83,13.16-1.62,4.15-2.59,8.57-4.89,12.46-5-5.18-10.43-9.9-17.06-13C-581.89,985.16-581.95,985-582,984.77Z" transform="translate(916.5 -56.47)" style="fill:#fad0a4"/><path d="M-610.49,1033.36c11-5.29,17-14.45,20.31-25.84,1-3.45,2.49-6.77,3.75-10.15,2.7,2,5.5,3.79,8.06,5.91,3.13,2.59,6.48,5.05,7.81,9.19-.43,7.88-5.53,12.89-11.28,17C-590.56,1035.82-600.3,1036.88-610.49,1033.36Z" transform="translate(916.5 -56.47)" style="fill:#fcd1a5"/><path d="M-657.84,964.75c10.94-1.6,21.55.15,32,3.21,4,1.17,5.76,4.18,4.72,7.57-1,3.23-4.17,4.56-8.25,3.44-6.85-1.89-13.74-3.46-20.9-3.5-4.57,0-8.92.6-12.73,3.38A45.77,45.77,0,0,1-657.84,964.75Z" transform="translate(916.5 -56.47)" style="fill:#6a6069"/><path d="M-570.56,1012.47c-1.33-4.14-4.68-6.6-7.81-9.19-2.56-2.12-5.36-3.95-8.06-5.91a5.58,5.58,0,0,0-.09-.59c1.88-3.68,2.45-7.89,4.69-11.41,6.63,3.09,12,7.81,17.06,13C-566.28,1003.23-567,1008.44-570.56,1012.47Z" transform="translate(916.5 -56.47)" style="fill:#685f68"/><path d="M-615,1008.82c-2.32,6.79-5.65,13.24-6.89,20.39l-11.15-4.07c1.62-7,5-13.42,6.88-20.36A78.63,78.63,0,0,1-615,1008.82Z" transform="translate(916.5 -56.47)" style="fill:#fcd1a5"/><path d="M-615,1008.82a78.63,78.63,0,0,0-11.16-4c-2.42-1-4.87-1.84-7.24-2.9-3.27-1.46-4.54-4.2-3.5-7.23a5.52,5.52,0,0,1,7.49-3.57q12.84,4.49,25.56,9.32a5.64,5.64,0,0,1,3.59,7.51c-1.14,3-4.2,4.31-7.68,3.23C-610.3,1010.4-612.64,1009.6-615,1008.82Z" transform="translate(916.5 -56.47)" style="fill:#7d707b"/><path d="M-581.83,985.37c-2.24,3.52-2.81,7.73-4.69,11.41-3.54-2.06-7.09-4.09-10.62-6.18-3-1.8-4.1-4.74-2.81-7.58,1.37-3,4.47-4.24,7.8-2.85s6.76,3.05,10.14,4.6C-581.95,985-581.89,985.16-581.83,985.37Z" transform="translate(916.5 -56.47)" style="fill:#7d707b"/></g><g id="Done"><path d="M504.09,283.27c-2,3.09-4.13,6.16-6.16,9.26-4.35,6.67-6,7-12.49,2.59-9.24-6.29-18.53-12.51-27.8-18.77a29,29,0,0,0-2.26-1.89Q385,226.39,314.72,178.26c-2.27-1.56-3.59-1-5.51.26Q253.89,216.4,198.5,254.19c-10.7,7.32-21.31,14.77-32,22.17L138,295.62c-5.53,3.73-7.52,3.31-11.22-2.35-1.64-2.51-3.3-5-4.91-7.53-2.9-4.52-2.4-6.92,2.08-10l48.56-33.17L302.1,154c8.73-6,11.26-6,19.89-.08q87.36,59.68,174.72,119.38c2.52,1.73,4.92,3.62,7.38,5.43Z" transform="translate(916.5 -56.47)" style="fill:#405157"/><path d="M439.84,282.91c-9.47-6.2-18.7-12.77-28-19.16Q372.63,237,333.45,210.29c-6.16-4.21-12.27-8.52-18.35-12.84-2-1.39-3.29-1.71-5.71,0-13.83,9.75-27.95,19.11-41.94,28.65q-37,25.23-74,50.5a5.73,5.73,0,0,0-2.9,5.23c.13,9.12.11,18.25,0,27.37,0,2.58.44,3.84,3.35,2.72a9.8,9.8,0,0,1,3.35-.13c28.12,0,56.24.19,84.35-.14,7.4-.09,14.14,6.72,14.11,14.13-.23,54.48-.12,109-.11,163.44.87.06,1.74.17,2.6.17H454.26c.87,0,1.74-.1,2.6-.15l.72-.51V294.51C451.26,291.28,445.76,286.78,439.84,282.91Zm-124.66,7.91c-.55,1.63-.79,3.52-3.07,3.72-1.83-.05-2.58-1.27-3-2.8-3.5-11.66-10.15-20.93-20.56-27.46-2.89-1.81-2.67-3.93.39-5.71,9.88-5.75,15.78-14.57,19.66-25,.65-1.77.76-4.13,3.5-4.23,2.17,0,2.51,1.77,3,3.27a47.9,47.9,0,0,0,20.06,26.09c3.44,2.19,3.45,3.74-.09,6C325.1,270.88,318.9,279.9,315.18,290.82ZM427.37,424.4q-42.54-.45-85.08,0c-7.13.08-13.87-6.71-13.81-13.65q.4-42.72,0-85.46c-.06-6.95,6.7-13.66,13.46-13.61q42.92.36,85.83,0c6.73-.06,13.61,6.65,13.43,13.63-.36,14.36-.11,28.73-.11,43.1,0,14-.31,28,.13,42C441.45,417.74,434.47,424.47,427.37,424.4Z" transform="translate(916.5 -56.47)" style="fill:#eaf0f9"/><path d="M457.64,276.35l-.06,18.16c-6.32-3.23-11.82-7.73-17.74-11.6-9.47-6.2-18.7-12.77-28-19.16Q372.63,237,333.45,210.29c-6.16-4.21-12.27-8.52-18.35-12.84-2-1.39-3.29-1.71-5.71,0-13.83,9.75-27.95,19.11-41.94,28.65q-37,25.23-74,50.5a5.73,5.73,0,0,0-2.9,5.23c.13,9.12.11,18.25,0,27.37,0,2.58.44,3.84,3.35,2.72a9.8,9.8,0,0,1,3.35-.13c28.12,0,56.24.19,84.35-.14,7.4-.09,14.14,6.72,14.11,14.13-.23,54.48-.12,109-.11,163.44l-7.77,0a.28.28,0,0,0,0-.45c.07-1.24.21-2.48.21-3.73q0-78.68,0-157.36c0-.62,0-1.25,0-1.87-.25-3.83-2.62-6.45-6.42-6.45-22.1,0-44.2.07-66.3.13-5.61-.07-11.22-.18-16.83-.19-6,0-7.82,1.86-7.82,7.79q0,35.38,0,70.75,0,45.67.08,91.34l-24.84.26a2.28,2.28,0,0,1-.23-.56c1.28-.87.94-2.21.94-3.42q0-104.57,0-209.12c10.65-7.4,21.26-14.85,32-22.17q55.35-37.86,110.71-75.67c1.92-1.31,3.24-1.82,5.51-.26q70.27,48.19,140.66,96.2A29,29,0,0,1,457.64,276.35Z" transform="translate(916.5 -56.47)" style="fill:#d7e3f3"/><path d="M481.86,506.37c-.06,5.44-1.78,7.15-7.19,7.15H170.32c-1.5,0-3-.08-4.49-.12-5.85.05-11.7.13-17.55.12-3.77,0-5.93-1.77-6.16-5.5a118.72,118.72,0,0,1,0-13.07c.2-3.87,2.53-5.83,6.73-5.93,5.6-.13,11.2-.09,16.81-.12a2.28,2.28,0,0,0,.23.56l24.84-.26c1.24.06,2.48.18,3.72.18q37,0,74,0c6.47,0,12.94-.11,19.42-.17l7.77,0c.87.06,1.74.17,2.6.17H454.26c.87,0,1.74-.1,2.6-.15l.77-.07c5.86,0,11.73,0,17.6.14,4.79.07,6.53,1.8,6.62,6.58C481.92,499.38,481.9,502.88,481.86,506.37Z" transform="translate(916.5 -56.47)" style="fill:#3f5056"/><path d="M457.6,213.54c-2.28-.08-2.69-1.83-3.23-3.53-3.54-11.22-10-20.22-20-26.56-3.19-2-3.12-4,.07-5.89,9.87-5.75,15.78-14.57,19.67-25,.65-1.76.72-4.15,3.49-4.22Z" transform="translate(916.5 -56.47)" style="fill:#93c6eb"/><path d="M457.6,213.54l0-65.22c2-.06,2.43,1.53,2.9,2.9,3.86,11.35,10.51,20.49,20.79,26.89,2.61,1.63,2.63,3.51-.09,5.16-10.53,6.38-17,15.76-20.69,27.29C460,212,459.55,213.51,457.6,213.54Z" transform="translate(916.5 -56.47)" style="fill:#b7d9f2"/><path d="M457.63,489.16l-.77.07.72-.51A.83.83,0,0,1,457.63,489.16Z" transform="translate(916.5 -56.47)" style="fill:#d7e3f3"/><path d="M441.09,368.41c0,14-.31,28,.13,42,.23,7.35-6.75,14.08-13.85,14q-42.54-.45-85.08,0c-7.13.08-13.87-6.71-13.81-13.65q.4-42.72,0-85.46c-.06-6.95,6.7-13.66,13.46-13.61q42.92.36,85.83,0c6.73-.06,13.61,6.65,13.43,13.63C440.84,339.67,441.09,354,441.09,368.41Zm-81,5.62V362h0c5.24,0,10.47-.05,15.7.06,2.17.05,3.13-.53,3.12-2.92q-.15-18.51,0-37c0-2.42-1-2.93-3.15-2.88-5.23.11-10.47.06-15.7.08-5.62,0-11.24-.1-16.86,0-5.06.07-7.06,2.12-7.06,7.07,0,11.87,0,23.73,0,35.6v12.09c0,11.73,0,23.45,0,35.18,0,5.5,2,7.45,7.44,7.49s11,0,16.47,0c5.24,0,10.47-.06,15.7.12,2.52.08,3.17-.89,3.16-3.27-.1-12.09-.12-24.18,0-36.26,0-2.74-1-3.38-3.5-3.31-5.1.15-10.22.06-15.33.06Zm52-12c6.12,0,12.24-.1,18.35,0,2.5.06,3.2-.84,3.18-3.25-.1-10.74,0-21.47-.06-32.21,0-4.52-2.71-7.29-7.18-7.31-10.86-.06-21.72,0-32.58-.06-2.3,0-3,.77-3,3,.08,12.23.1,24.47,0,36.7,0,2.6,1,3.14,3.34,3.1C400.12,362,406.11,362,412.1,362Zm-21.26,33.21c0,6.24.06,12.48,0,18.72,0,2.1.7,2.85,2.81,2.84,11-.07,22,0,33-.05,4.24,0,7-2.83,7-7.13.06-10.86,0-21.72.05-32.58,0-2.23-.65-3.07-3-3.06q-18.34.13-36.7,0c-2.54,0-3.19.91-3.14,3.28C390.93,383.25,390.84,389.25,390.84,395.24Z" transform="translate(916.5 -56.47)" style="fill:#d8e4f4"/><path d="M312.11,294.54c-1.83-.05-2.58-1.27-3-2.8-3.5-11.66-10.15-20.93-20.56-27.46-2.89-1.81-2.67-3.93.39-5.71,9.88-5.75,15.78-14.57,19.66-25,.65-1.77.76-4.13,3.5-4.23Q312.09,261.93,312.11,294.54Z" transform="translate(916.5 -56.47)" style="fill:#93c6eb"/><path d="M312.11,294.54q0-32.61-.05-65.22c2.17,0,2.51,1.77,3,3.27a47.9,47.9,0,0,0,20.06,26.09c3.44,2.19,3.45,3.74-.09,6-9.94,6.24-16.14,15.26-19.86,26.18C314.63,292.45,314.39,294.34,312.11,294.54Z" transform="translate(916.5 -56.47)" style="fill:#b7d9f2"/><path d="M215.29,319.51c22.1-.06,44.2-.15,66.3-.13,3.8,0,6.17,2.62,6.42,6.45,0,.62,0,1.25,0,1.87q0,78.68,0,157.36c0,1.25-.14,2.49-.21,3.73-22.81,0-45.63-.05-68.44,0-3,0-4.12-.6-4.1-3.87.15-19.7.08-39.39.08-59.09,0-1.24-.14-2.51.74-3.57,3.61-1,4.83-3.5,4.79-7q-.12-10.87,0-21.74c0-3.95-1.46-6.48-5.52-7.15Z" transform="translate(916.5 -56.47)" style="fill:#f0b0a2"/><path d="M287.84,489.24c-6.48.06-12.95.17-19.42.17q-37,0-74,0c-1.24,0-2.48-.12-3.72-.18q0-45.66-.08-91.34,0-35.37,0-70.75c0-5.93,1.87-7.82,7.82-7.79,5.61,0,11.22.12,16.83.19l.06,66.87c-4.83,1-6,2.41-6.07,7.32q0,10.67,0,21.33c0,5.18,1.56,6.8,6.8,7.28-.88,1.06-.74,2.33-.74,3.57,0,19.7.07,39.39-.08,59.09,0,3.27,1.14,3.88,4.1,3.87,22.81-.1,45.63,0,68.44,0A.28.28,0,0,1,287.84,489.24Z" transform="translate(916.5 -56.47)" style="fill:#ea9d8e"/><path d="M412.1,362c-6,0-12-.08-18,0-2.32,0-3.36-.5-3.34-3.1.11-12.23.09-24.47,0-36.7,0-2.26.71-3,3-3,10.86.09,21.72,0,32.58.06,4.47,0,7.16,2.79,7.18,7.31.05,10.74,0,21.47.06,32.21,0,2.41-.68,3.31-3.18,3.25C424.34,361.93,418.22,362,412.1,362Z" transform="translate(916.5 -56.47)" style="fill:#b7d9f2"/><path d="M390.84,395.24c0-6,.09-12,0-18-.05-2.37.6-3.31,3.14-3.28q18.35.15,36.7,0c2.33,0,3,.83,3,3.06-.08,10.86,0,21.72-.05,32.58,0,4.3-2.75,7.1-7,7.13-11,.07-22,0-33,.05-2.11,0-2.84-.74-2.81-2.84C390.9,407.72,390.84,401.48,390.84,395.24Z" transform="translate(916.5 -56.47)" style="fill:#b7d9f2"/><path d="M336.13,362c0-11.87,0-23.73,0-35.6,0-4.95,2-7,7.06-7.07,5.62-.08,11.24,0,16.86,0l0,42.67h0Z" transform="translate(916.5 -56.47)" style="fill:#93c6eb"/><path d="M360,416.7c-5.49,0-11,.09-16.47,0s-7.42-2-7.44-7.49c0-11.73,0-23.45,0-35.18l23.95,0h0Q360.05,395.37,360,416.7Z" transform="translate(916.5 -56.47)" style="fill:#93c6eb"/><path d="M360.07,362l0-42.67c5.23,0,10.47,0,15.7-.08,2.13-.05,3.16.46,3.15,2.88q-.15,18.51,0,37c0,2.39-.95,3-3.12,2.92C370.54,362,365.31,362,360.07,362Z" transform="translate(916.5 -56.47)" style="fill:#b7d9f2"/><path d="M360,416.7q0-21.33.05-42.66c5.1,0,10.22.09,15.32-.06,2.5-.07,3.53.57,3.5,3.31-.13,12.08-.11,24.17,0,36.26,0,2.38-.64,3.35-3.16,3.27C370.5,416.64,365.27,416.72,360,416.7Z" transform="translate(916.5 -56.47)" style="fill:#b7d9f2"/><path d="M360.08,374l-23.95,0V362l23.95,0Z" transform="translate(916.5 -56.47)" style="fill:#c0d3ed"/><path d="M216.08,422.31c-5.24-.48-6.78-2.1-6.8-7.28q0-10.66,0-21.33c0-4.91,1.24-6.34,6.07-7.32,4.06.67,5.57,3.2,5.52,7.15q-.13,10.86,0,21.74C220.91,418.81,219.69,421.33,216.08,422.31Z" transform="translate(916.5 -56.47)" style="fill:#405056"/><path d="M251.38,136.75c-2.44.28-3.39-1.48-4.34-3.2-2.44-4.39-5.41-8.59-7.15-13.24-2.48-6.67-7.67-9.89-13.46-12.81-4-2-7.87-4.18-11.79-6.28-1.79-1-3.15-2.1-3.19-4.44s1.28-3.43,3.12-4.4c6-3.15,11.76-6.59,17.81-9.53,3.81-1.85,5.08-5.4,6.93-8.59,2.75-4.74,5.34-9.57,7.89-14.42A11.41,11.41,0,0,1,250,56.47h1.37c0,2.63.11,5.26,0,7.88-.38,8.22,1.86,15.3,7.59,21.52,5.32,5.77,4.75,10.28-.55,16.16A24.61,24.61,0,0,0,252,114.57C250.71,122,251.7,129.36,251.38,136.75Z" transform="translate(916.5 -56.47)" style="fill:#fedeb0"/><path d="M251.38,136.75c.32-7.39-.67-14.8.57-22.18A24.61,24.61,0,0,1,258.38,102c5.3-5.88,5.87-10.39.55-16.16-5.73-6.22-8-13.3-7.59-21.52.13-2.62,0-5.25,0-7.88h2.06c5,6.33,8,13.78,12,20.69A13.27,13.27,0,0,0,271,82.84c5.59,2.84,11.05,5.94,16.55,9,2,1.1,4.17,2.14,4.28,4.86s-2,3.91-4,5q-8.85,4.88-17.76,9.61a8.15,8.15,0,0,0-3.64,3.43c-3.45,6.43-7,12.78-10.52,19.21C254.87,135.8,253.74,137.18,251.38,136.75Z" transform="translate(916.5 -56.47)" style="fill:#fed79d"/><path d="M517.75,401.68c-1.49.27-2.14-.65-2.75-1.79-2.13-3.95-4.44-7.82-6.43-11.84a10.16,10.16,0,0,0-4.76-4.71c-3.64-1.89-7.26-3.81-10.84-5.79-1.38-.77-2.94-1.56-2.85-3.51.09-1.76,1.5-2.47,2.82-3.2,4-2.21,8-4.54,12.1-6.59,2.42-1.2,3.15-3.53,4.35-5.54,1.79-3,3.33-6.14,5-9.21.76-1.39,1.41-2.94,3.35-3.05,0,2.49.13,5,0,7.48-.38,5.41.68,10.05,4.86,14.08,3.48,3.36,3.1,6.14,0,10-2.72,3.35-5.23,6.69-4.89,11.45C518,393.49,517.74,397.59,517.75,401.68Z" transform="translate(916.5 -56.47)" style="fill:#fedeb0"/><path d="M517.75,401.68c0-4.09.21-8.19-.07-12.26-.34-4.76,2.17-8.1,4.89-11.45,3.1-3.82,3.48-6.6,0-10-4.18-4-5.24-8.67-4.86-14.08.17-2.49,0-5,0-7.48,1.73-.27,2.5.86,3.2,2.15,1.77,3.24,3.85,6.34,5.3,9.72,1.62,3.76,4.39,6,7.89,7.72,3.05,1.5,6,3.19,9,4.83,3.72,2.06,3.8,4.4.11,6.57a96.3,96.3,0,0,1-9.23,4.95,14.77,14.77,0,0,0-7.84,7.76c-1.38,3.09-3.16,6-4.79,9C520.58,400.55,519.76,402,517.75,401.68Z" transform="translate(916.5 -56.47)" style="fill:#fed79d"/><path d="M166.64,200.92c-2.36.31-3.07-1.31-3.58-3.1-3.95-13.84-12.18-24.44-24.1-32.37-3.47-2.31-3.67-4.64-.6-6.52,12.15-7.45,20-18.16,24.56-31.51a37.3,37.3,0,0,1,1.89-4h1.78Q166.62,162.18,166.64,200.92Z" transform="translate(916.5 -56.47)" style="fill:#93c6eb"/><path d="M166.64,200.92q0-38.74,0-77.5h1.78c3,7,5.58,14.26,10.13,20.6,4.21,5.84,9.05,10.81,15.33,14.38,4.14,2.35,4.2,4.33,0,7-11.71,7.48-19.16,18.13-23.61,31.08C169.6,198.4,169.33,200.65,166.64,200.92Z" transform="translate(916.5 -56.47)" style="fill:#b7d9f2"/></g></svg>