<?xml version="1.0" encoding="utf-8"?>
<!-- Generator: Adobe Illustrator 22.1.0, SVG Export Plug-In . SVG Version: 6.00 Build 0)  -->
<svg version="1.1" id="Layer_1" xmlns="http://www.w3.org/2000/svg" xmlns:xlink="http://www.w3.org/1999/xlink" x="0px" y="0px"
	 viewBox="0 0 1498.4 1243.7" style="enable-background:new 0 0 1498.4 1243.7;" xml:space="preserve">
<style type="text/css">
	.st0{fill:#D7E3F3;}
	.st1{fill:#405157;}
	.st2{fill:#F2F0F3;}
	.st3{fill:#E3DEE1;}
	.st4{fill:#3F5056;}
	.st5{fill:#D8E4F4;}
	.st6{fill:#B6AEB7;}
	.st7{fill:#A89CA7;}
	.st8{fill:#93C6EB;}
	.st9{fill:#C0D3ED;}
	.st10{fill:#405056;}
	.st11{fill:#72B5E3;}
	.st12{fill:#B7D9F2;}
	.st13{fill:#FFEAC8;}
	.st14{fill:#4FA1D9;}
	.st15{fill:#F59AA2;}
	.st16{fill:#DCECF9;}
	.st17{fill:#FFD188;}
	.st18{fill:#F37F89;}
	.st19{fill:#FED088;}
	.st20{fill:#4FA1D8;}
	.st21{fill:#B9DAF3;}
	.st22{fill:#F16470;}
	.st23{fill:#B9DBF3;}
	.st24{fill:#DBECF9;}
	.st25{fill:#F37E88;}
</style>
<title>icon_dothejob</title>
<g id="Paint">
	<path class="st0" d="M971.9,1023.3l-2,0.2l1.9-1.4C971.9,1022.5,972,1023,971.9,1023.3z"/>
	<path class="st1" d="M1095.4,476c-5.4,8.2-11,16.4-16.4,24.6c-11.6,17.7-15.9,18.6-33.2,6.9c-24.6-16.7-49.3-33.2-73.9-49.9
		c-2-1.7-3.9-3.6-6-5C841.3,367.4,716.6,282.2,592,196.9c-6.1-4.1-9.6-2.8-14.6,0.7c-98.1,67.1-196.2,134.2-294.3,201.2
		c-28.5,19.5-56.7,39.3-85.1,58.9l-75.8,51.2c-14.7,9.9-20,8.8-29.8-6.2c-4.4-6.7-8.8-13.3-13.1-20c-7.7-12-6.4-18.4,5.6-26.6
		L214,367.8l344.5-235.4c23.2-15.9,29.9-15.9,52.9-0.2C766.2,238.1,921,343.9,1075.9,449.6c6.7,4.6,13.1,9.6,19.6,14.4L1095.4,476z"
		/>
	<path class="st2" d="M953.8,495.2c-9.8-6.5-19.2-13.6-29.1-20.1c-25.2-16.5-49.7-33.9-74.6-50.9c-69.4-47.4-138.8-94.8-208.2-142.1
		c-16.4-11.2-32.6-22.6-48.8-34.1c-5.3-3.7-8.7-4.5-15.2,0c-36.8,25.9-74.4,50.8-111.5,76.2c-65.6,44.7-131.1,89.5-196.7,134.2
		c-5,2.8-8,8.2-7.7,13.9c0.3,24.2,0.3,48.5,0,72.8c0,6.9,1.2,10.2,8.9,7.2c2.9-0.6,5.9-0.7,8.9-0.3c74.7,0,149.5,0.5,224.2-0.4
		c19.7-0.2,37.6,17.9,37.5,37.6c-0.6,144.8-0.3,289.8-0.3,434.5c2.3,0.2,4.6,0.5,6.9,0.5h414.7c2.3,0,4.6-0.3,6.9-0.4l1.9-1.4V505.9
		C965.5,502.7,959.5,499.1,953.8,495.2z M922.3,833.8c-6.8,10.5-18.3,17-30.8,17.4c-17.4-0.2-34.9-0.3-52.3-0.4
		c-58-0.3-115.9-0.2-173.9,0.4c-19,0.2-36.9-17.8-36.7-36.3c0.7-75.7,0.7-151.4,0-227.2c-0.2-18.5,17.8-36.3,35.8-36.2
		c76.1,0.6,152.1,0.6,228.2,0c6.2,0.1,12.3,1.9,17.5,5.3c10.5,6.5,18.3,18.3,18.2,30.5v0.5c-0.3,13.6-0.5,27.2-0.5,40.9
		c0,10.2,0,20.3,0,30.5c0,13.8,0.2,27.6,0.2,41.4v1.8c0,9.6,0,19.1,0,28.7c-0.2,27.6-0.4,55.3,0.5,82.9
		C928.4,821,926.3,827.9,922.3,833.8z"/>
	<path class="st3" d="M972,457.6c0,12.5,0,25-0.1,37.5c0,3.6,0,7.2,0,10.6c-6.2-3.2-12.2-6.8-18-10.6c-9.8-6.5-19.2-13.6-29.1-20.1
		c-25.2-16.5-49.7-33.9-74.6-50.9c-69.4-47.4-138.8-94.8-208.2-142.1c-16.4-11.2-32.6-22.6-48.8-34.1c-5.3-3.7-8.7-4.5-15.2,0
		c-36.8,25.9-74.4,50.8-111.5,76.2c-65.6,44.7-131.1,89.5-196.7,134.2c-5,2.8-8,8.2-7.7,13.9c0.3,24.2,0.3,48.5,0,72.8
		c0,6.9,1.2,10.2,8.9,7.2c2.9-0.6,5.9-0.7,8.9-0.3c74.7,0,149.5,0.5,224.2-0.4c19.7-0.2,37.6,17.9,37.5,37.6
		c-0.6,144.8-0.3,289.8-0.3,434.5h-20.7c0.3-0.2,0.4-0.7,0.2-1c0-0.1-0.1-0.1-0.2-0.2c0.2-3.3,0.6-6.6,0.6-9.9
		c0-139.4,0-278.9,0-418.3c0-1.6,0-3.3,0-5c-0.7-10.2-6.9-17.1-17-17.1c-58.8,0-117.5,0.2-176.3,0.3c-14.9-0.2-29.8-0.5-44.7-0.5
		c-15.8,0-20.8,4.9-20.8,20.7c0,62.7,0,125.4,0,188.1V902c0,40.5,0,81,0.1,121.4l0,0l-66,0.7c-0.3-0.5-0.5-1-0.6-1.5
		c3.4-2.3,2.5-5.9,2.5-9.1c0-185.3,0-370.6,0-555.9c28.3-19.7,56.5-39.5,85.1-58.9c98.1-67.1,196.2-134.1,294.3-201.2
		c5.1-3.5,8.6-4.8,14.6-0.7c124.5,85.4,249.2,170.6,373.9,255.7C968.1,454.1,970,456.1,972,457.6z"/>
	<path class="st4" d="M1036.3,1069.1c-0.2,14.5-4.7,19-19.1,19h-809c-4,0-8-0.2-11.9-0.3c-15.6,0-31.1,0.3-46.7,0.3
		c-10,0-15.8-4.7-16.3-14.6c-0.7-11.6-0.7-23.2,0-34.7c0.5-10.3,6.7-15.5,17.9-15.8c14.9-0.3,29.8-0.2,44.7-0.3
		c0.1,0.5,0.4,1,0.6,1.5l66-0.7l0,0c3.3,0.2,6.6,0.5,9.9,0.5c65.6,0,131.1,0,196.7,0c17.2,0,34.4-0.3,51.6-0.5h20.7
		c2.3,0.2,4.6,0.5,6.9,0.5h414.7c2.3,0,4.6-0.3,6.9-0.4l2-0.2c15.6,0,31.2,0.1,46.8,0.4c12.7,0.2,17.3,4.8,17.6,17.5
		C1036.5,1050.5,1036.4,1059.8,1036.3,1069.1z"/>
	<path class="st5" d="M927.8,731c0-9.6,0-19.1,0-28.7v-1.7c0-13.8,0-27.6-0.2-41.4c0-10.2,0-20.3,0-30.5c0-13.7,0-27.3,0.5-40.9
		v-0.5c0-12.1-7.8-23.9-18.2-30.5c-5.2-3.4-11.3-5.2-17.5-5.3c-76.1,0.6-152.1,0.6-228.2,0c-18,0-35.9,17.7-35.8,36.2
		c0.7,75.7,0.7,151.5,0,227.2c-0.2,18.4,17.8,36.5,36.7,36.3c58-0.6,115.9-0.7,173.9-0.4c17.4,0.1,34.9,0.2,52.3,0.4
		c12.5-0.4,24-6.9,30.8-17.4c4-5.8,6.1-12.7,6-19.8C927.4,786.3,927.7,758.7,927.8,731z M762.6,822.4c0,6.3-1.7,8.9-8.4,8.7
		c-13.9-0.5-27.8-0.2-41.7-0.3c-14.6,0-29.2,0.2-43.8,0c-14.5-0.2-19.8-5.3-19.8-19.9c0-31.2,0-62.3,0-93.5v-32
		c0-31.6,0-63.1,0-94.6c0-13.2,5.3-18.6,18.8-18.8c14.9-0.2,29.9,0,44.8,0c13.9,0,27.8,0,41.7-0.2c5.7-0.1,8.4,1.2,8.4,7.7
		c-0.2,32.8-0.2,65.6,0,98.4c0,6.4-2.7,8-8.3,7.8c-13.9-0.3-27.8-0.1-41.8-0.2l0,0v31.9c13.6,0,27.2,0.2,40.8-0.2
		c6.6-0.2,9.4,1.5,9.3,8.8C762.2,758.1,762.4,790.2,762.6,822.4z M908.1,731c0,9.3,0,18.6,0,27.9c0,17.7,0,35.3,0,53
		c0,11.4-7.3,18.9-18.6,18.9c-29.2,0.2-58.5,0-87.7,0.2c-5.6,0-7.6-2-7.5-7.5c0.2-16.6,0-33.2,0-49.8c0-15.9,0.2-31.9,0-47.8
		c-0.1-6.3,1.6-8.8,8.3-8.7c32.5,0.3,65.1,0.3,97.6,0c6.2,0,8,2.2,8,8.1C908.1,727.2,908.1,729.1,908.1,731L908.1,731z M899.7,685.5
		c-16.3-0.4-32.5,0-48.8,0s-31.9-0.2-47.8,0c-6.2,0-8.9-1.3-8.9-8.2c0.3-32.5,0.3-65,0-97.6c0-6,1.9-8.1,8-8
		c28.9,0.2,57.7,0,86.6,0.2c0.7,0,1.4,0,2.1,0c0.6,0,1.1,0,1.7,0.2l0.9,0.1h0.2l1.2,0.3c0.6,0.1,1.1,0.3,1.6,0.5h0.3
		c1.1,0.4,2.1,0.9,3.1,1.5l0.5,0.3c0.5,0.3,0.9,0.7,1.4,1c0.4,0.3,0.7,0.6,1.1,1l0.2,0.2c0.3,0.3,0.6,0.7,0.9,1.1l0.2,0.2
		c0.3,0.4,0.6,0.9,0.9,1.3c0.3,0.6,0.7,1.2,1,1.8c0.3,0.6,0.4,0.9,0.5,1.3l0.2,0.4c0.2,0.5,0.3,0.9,0.4,1.4c0.1,0.2,0.1,0.3,0.1,0.5
		c0.1,0.4,0.2,0.8,0.3,1.3c0.1,0.6,0.2,1.2,0.3,1.8c0,0.3,0,0.6,0,1s0,1.3,0,2c0.1,28.5,0,57.1,0.2,85.6
		C908.2,683.3,906.3,685.7,899.7,685.5z"/>
	<path class="st6" d="M327.7,572.4c58.7-0.2,117.5-0.4,176.3-0.3c10.1,0,16.4,7,17,17.1c0,1.6,0,3.3,0,5c0,139.4,0,278.9,0,418.3
		c0,3.3-0.4,6.6-0.6,9.9c-60.6,0-121.3,0-181.9,0.1c-8,0-11-1.6-10.9-10.3c0.4-52.4,0.2-104.7,0.2-157.1c0-3.3-0.4-6.7,2-9.5
		c9.6-2.7,12.8-9.3,12.7-18.6c-0.2-19.3-0.2-38.5,0-57.8c0.2-10.5-3.9-17.2-14.7-19L327.7,572.4z"/>
	<path class="st7" d="M520.6,1023.6c-17.2,0.2-34.6,0.5-51.6,0.5c-65.6,0-131.1,0-196.7,0c-3.3,0-6.6-0.3-9.9-0.5l0,0
		c0-40.5,0-80.9,0-121.4V780.7c0-62.7,0-125.4,0-188.1c0-15.8,5-20.8,20.8-20.7c14.9,0,29.8,0.3,44.7,0.5l0.2,177.8
		c-12.8,2.7-16.1,6.4-16.1,19.5c0,18.9,0,37.8,0,56.7c0,13.8,4.1,18.1,18.1,19.4c-2.4,2.8-2,6.2-2,9.5c0,52.4,0.2,104.7-0.2,157.1
		c0,8.7,3,10.3,10.9,10.3c60.7-0.3,121.3-0.1,181.9-0.1C520.9,1022.7,520.9,1023.2,520.6,1023.6
		C520.6,1023.5,520.6,1023.5,520.6,1023.6z"/>
	<path class="st8" d="M649,685.3c0-31.6,0-63.1,0-94.6c0-13.2,5.3-18.6,18.8-18.8c14.9-0.2,29.9,0,44.8,0v113.4l0,0L649,685.3z"/>
	<path class="st8" d="M712.5,830.7c-14.6,0-29.2,0.2-43.8,0c-14.5-0.2-19.8-5.3-19.8-19.9c0-31.2,0-62.3,0-93.5h63.6l0,0
		C712.5,755.1,712.5,792.9,712.5,830.7z"/>
	<path class="st9" d="M712.6,717.3H649v-32h63.6V717.3z"/>
	<path class="st10" d="M329.8,845.6c-14-1.3-18-5.6-18.1-19.4c0-18.9,0-37.8,0-56.7c0-13.1,3.3-16.9,16.1-19.5
		c10.8,1.8,14.8,8.5,14.7,19c-0.2,19.2-0.2,38.5,0,57.8C342.6,836.2,339.5,843,329.8,845.6z"/>
	<path class="st11" d="M627.9,585.7c0.7,75.7,0.7,151.4,0,227.1c-0.2,18.4,17.8,36.5,36.7,36.3c62-0.6,124-0.8,185.9-0.3v173.1
		H618.3V447.7c7.8-9,16.9-16.8,27-23.1c9.4-5.9,9.4-10,0.2-15.9c-10.1-6.4-19.3-14.2-27.2-23.2V264.2c7.6,5.3,15.2,10.6,22.8,15.8
		l101.5,69.3c0,0.5,0,1,0,1.5c-7.7,0-15.4,0-23.1,0c-5,0-9.9-0.3-14.8,2c-13.8,6.4-17.3,18.3-18.1,31.9c2.9,12.6,1.1,25.4,1.4,38.1
		c0.3,18.4,10.8,29.2,29,29.2h25.5c0,3,0.2,5.9,0.3,8.8c0.8,22.4,18.9,40.3,41.3,40.9c22.2,0,44.3,0,66.5,0v48
		c-62.3,0.3-124.5,0.2-186.8-0.3C645.7,549.4,627.7,567.2,627.9,585.7z"/>
	<path class="st12" d="M850.9,685.4c-15.9,0-31.9-0.2-47.8,0c-6.2,0-8.9-1.3-8.9-8.2c0.3-32.5,0.3-65,0-97.6c0-6,1.9-8.1,8-8
		c28.9,0.2,57.7,0,86.6,0.2c11.9,0,19,7.4,19.1,19.4c0.1,28.5,0,57.1,0.2,85.6c0,6.4-1.8,8.8-8.4,8.6
		C883.4,685.1,867.1,685.4,850.9,685.4z"/>
	<path class="st12" d="M794.4,773.7c0-15.9,0.2-31.9,0-47.8c-0.1-6.3,1.6-8.8,8.3-8.7c32.5,0.3,65.1,0.3,97.6,0c6.2,0,8,2.2,8,8.1
		c-0.2,28.9,0,57.7-0.2,86.6c0,11.4-7.3,18.9-18.6,18.9c-29.2,0.2-58.5,0-87.7,0.2c-5.6,0-7.6-2-7.5-7.5
		C794.5,807,794.4,790.3,794.4,773.7z"/>
	<path class="st12" d="M712.6,685.3V571.9c13.9,0,27.8,0,41.7-0.2c5.7-0.1,8.4,1.2,8.4,7.7c-0.2,32.8-0.2,65.6,0,98.4
		c0,6.4-2.7,8-8.3,7.8C740.4,685.2,726.5,685.3,712.6,685.3z"/>
	<path class="st12" d="M712.5,830.7c0-37.8,0-75.6,0.1-113.4c13.6,0,27.2,0.2,40.8-0.2c6.6-0.2,9.4,1.5,9.3,8.8
		c-0.3,32.1-0.3,64.3,0,96.4c0,6.3-1.7,8.9-8.4,8.7C740.3,830.6,726.4,830.9,712.5,830.7z"/>
	<path class="st11" d="M1099.1,501.7c-0.3,12.2,0.2,24.5-7.2,35.4c-11.7,17.9-35.7,22.8-53.6,11.1c-5.8-3.8-10.4-9-13.4-15.2
		c-1.4-2.8-2.8-5.7-4.2-8.5c0-26.4-0.1-52.8-0.2-79.3c0-3.3,0-6.7-3.5-8.3c-3.5-1.6-5.1,2-7,3.9c-12.2,11.8-30.5,14.8-45.7,7.4
		c-10.6-4.8-15.9-13.5-20.4-24.9c-0.4,3.7-0.6,6-0.8,8.3c-1.5-1.2-0.3-3.9-2.7-4.7c2.4-6.8,3.4-14.1,3-21.3c0-34.9,0-69.8,0-104.7
		h232.9l0.2,115.8l-1.5,6.2c-2.9,14.3-14,25.5-28.3,28.4c-15.3,3.5-29.2-0.4-39.5-13.3c-2.9-4.1-5.5-8.4-8-12.8L1099.1,501.7z"/>
	<path class="st13" d="M1176.5,416.8l-0.2-115.8h110.8c13.6,4.8,25.7,11.3,31.5,25.8c2.6,6.7,4,13.8,3.9,20.9c0,9.6,0,19.2,0,28.8
		l-0.2,6.6c-0.7,1.4-1.5,2.7-2,4.2c-8.9,21.1-21.5,29.2-44.4,29.4L1176.5,416.8z"/>
	<path class="st13" d="M864.7,301v3c0,26,0,52,0,78c0,11.6,0,23.2,0,34.9h-23.3h-55.2c-3.2,0.1-6.4-0.2-9.5-0.8
		c-18.6-4.1-28.9-16.6-33.8-34.4c-0.1-10.3-0.2-20.5-0.3-30.7c0-0.5,0-1,0-1.5c-0.3-17.3,5.3-30.4,17-39.2
		c5.6-4.1,11.9-7.2,18.6-9.1L864.7,301z"/>
	<path class="st14" d="M864.7,416.8c0-38.6,0-77.2,0-115.8h78.7c0,34.9,0,69.8,0,104.7c0.4,7.2-0.6,14.4-3,21.3
		c-10.6,28.2-44.8,34.8-65.3,12.8C869.2,433,867.1,424.9,864.7,416.8z"/>
	<path class="st15" d="M1087.5,818.2c24.9,2.3,35.7,14,35.7,38.9v229.2c0,24.2-12.9,36.9-37.2,36.9c-13.3,0-26.6-0.2-40.1-0.2
		c-15.8-6.2-25.5-16.9-25.5-34.8c0-77.8,0-155.7,0-233.5c0-14.2,4.8-26.2,18.9-32.5c1.7-0.8,3.4-1.6,3.7-3.9l12.8-0.2L1087.5,818.2z
		"/>
	<path class="st16" d="M1322.3,383.1l0.2-6.6c18.3,0.7,36.7-1.8,54.8,4.5c27.5,9.5,47.1,38.6,46.6,65.3c-0.9,47.4-1.1,94.8,0,142.1
		c0.7,30-21.5,62.1-53.8,68.8c-39.3,8.1-78.8,15.2-118.1,22.8c-25.8,5-51.6,10.3-77.4,15.2c-21.9,4.2-43.9,8-65.8,12.1
		c-13,2.3-24.6,9.8-31.9,20.8c-1.3,1.9-1.7,4.7-4.7,4.9c0.1-16.6,4.7-32.8,13.3-47c6.7-11.1,15.9-19.8,25-28.7
		c14.5-3.1,28.8-6.4,43.4-9.2c26.3-5.1,52.7-9.8,79-14.9c40.6-7.8,81.2-16.3,121.9-23.4c11.6-2,20.5-11.6,20.6-26.2
		c0.2-43.8,0.3-87.7,0-131.5c0-18.5-11.2-27.2-27-26.1c-8.5,0.6-17.1,0-25.7,0L1322.3,383.1z"/>
	<path class="st17" d="M1322.3,383.1l0.3,43.1c-1.2,14.1,1.6,28.3-1.6,42.3c-4,19.6-21.4,33.6-41.5,33.2c-60.1,0-120.3,0-180.4,0
		v-76.4c2.4,4.4,5.1,8.7,8,12.8c10.3,12.8,24.2,16.7,39.5,13.3c14.3-2.9,25.5-14.1,28.3-28.4l1.5-6.2h99.3c23,0,35.5-8.3,44.4-29.4
		C1320.8,385.8,1321.6,384.5,1322.3,383.1z"/>
	<path class="st18" d="M1043.2,818.3c-0.2,2.2-1.9,3.1-3.7,3.9c-14.1,6.3-18.9,18.3-18.9,32.5c-0.2,77.8,0,155.7,0,233.5
		c0,17.8,9.7,28.5,25.5,34.8c-15.8,0-31.6,0.5-47.3,0.2c-17.6-0.4-30.8-14.8-30.9-33.5c-0.1-34.2,0-68.5,0-102.7V857.7
		c0-25.7,10.6-37.4,36-39.5L1043.2,818.3z"/>
	<path class="st19" d="M943.1,431.5c0,1.3,0,2.7,0,4l-0.3,50.6c0,5.2,0,10.3,0,15.5h-92.2c-22.1,0-44.3,0-66.5,0
		c-22.4-0.5-40.5-18.5-41.3-40.9c0-2.9-0.2-5.8-0.3-8.8v-48.2l0.5-22.2c4.8,17.8,15.1,30.2,33.8,34.4c3.1,0.6,6.3,0.9,9.5,0.8h55.2
		h23.3c2.4,8.1,4.5,16.2,10.6,22.8l1.4,1.5c3.5,3.4,7.5,6.2,11.9,8.2c18.3,8.3,40,0.9,49.3-16.9c0.9-1.7,1.7-3.5,2.4-5.3
		C942.9,427.5,941.6,430.3,943.1,431.5z"/>
	<path class="st20" d="M942.7,501.7c0.2-23.4,0.3-46.8,0.5-70.2c0.2-2.3,0.5-4.5,0.8-8.3c4.4,11.4,9.9,20,20.4,24.9
		c15.3,7.4,33.6,4.5,45.7-7.3c1.9-1.8,3.3-5.6,7-3.9c3.7,1.7,3.5,5,3.5,8.3c0,26.4,0.1,52.8,0.2,79.3c0,17.4,0,34.7-0.1,52.1
		c-0.2,22.5-16.9,39.2-38.8,39.2c-21.3,0-38.5-17.3-38.5-38.5c0-0.1,0-0.2,0-0.3C942.9,551.8,942.9,526.8,942.7,501.7z"/>
	<path class="st21" d="M1110.4,657.4c-9.1,8.9-18.3,17.6-25,28.7c-8.6,14.2-13.2,30.4-13.3,47c-0.9,10.6-2.5,21.1-1.7,31.7h-49.9
		c-1.2-23.4,2.4-45.7,15.9-65.6c14.1-21.2,36.3-35.6,61.3-40C1102,658.3,1106.3,658,1110.4,657.4z"/>
	<path class="st22" d="M1020.6,764.8h49.8l-0.2,0.5c-9.7,4-13.8,11.9-14.2,21.8c-0.4,10.3,0,20.7,0,31l-12.8,0.2h-39.4
		c0-10.2-0.5-20.3-0.2-30.4C1003.8,774.7,1008,769.4,1020.6,764.8z"/>
	<path class="st23" d="M742.5,403.7V452H717c-18.2,0-28.6-10.8-29-29.2c-0.3-12.7,1.5-25.5-1.4-38.1c2.4,0,3.1,1.7,4,3.3
		c5.7,10.3,14.9,15,26.2,15.7C725.3,404.2,733.9,403.7,742.5,403.7z"/>
	<path class="st24" d="M742.9,381.5l-0.5,22.2c-8.6,0-17.1,0.4-25.7,0c-11.2-0.7-20.5-5.4-26.2-15.7c-0.9-1.6-1.7-3.4-4-3.3
		c0.8-13.6,4.3-25.4,18.1-31.9c4.9-2.3,9.8-1.9,14.8-2c7.7,0,15.4,0,23.1,0C742.7,361,742.8,371.2,742.9,381.5z"/>
	<path class="st25" d="M1055.9,818.2c0-10.4-0.3-20.7,0-31c0.4-9.9,4.5-17.8,14.2-21.8c11.4,2.2,17.2,9.2,17.5,21.9
		c0.2,10.3,0,20.7-0.1,31L1055.9,818.2z"/>
</g>
</svg>
