<?xml version="1.0" encoding="utf-8"?>
<!-- Generator: Adobe Illustrator 22.1.0, SVG Export Plug-In . SVG Version: 6.00 Build 0)  -->
<svg version="1.1" id="Layer_1" xmlns="http://www.w3.org/2000/svg" xmlns:xlink="http://www.w3.org/1999/xlink" x="0px" y="0px"
	 viewBox="0 0 1493.9 1243.7" style="enable-background:new 0 0 1493.9 1243.7;" xml:space="preserve">
<style type="text/css">
	.st0{fill:#405157;}
	.st1{fill:#F2F0F3;}
	.st2{fill:#E3DEE1;}
	.st3{fill:#3F5056;}
	.st4{fill:#D7E3F3;}
	.st5{fill:#D8E4F4;}
	.st6{fill:#B6AEB7;}
	.st7{fill:#A89CA7;}
	.st8{fill:#B7D9F2;}
	.st9{fill:#93C6EB;}
	.st10{fill:#C0D3ED;}
	.st11{fill:#405056;}
	.st12{fill:#F1CB39;}
	.st13{fill:#E47E27;}
	.st14{fill:#F8E9AF;}
</style>
<title>icon_preparation</title>
<g id="Prepare">
	<path class="st0" d="M1103,492.2c-5.5,8.3-11.1,16.6-16.6,24.9c-11.7,17.9-16.1,18.8-33.6,6.9c-24.8-16.9-49.8-33.6-74.7-50.4
		c-2-1.7-3.9-3.6-6.1-5.1c-126-86.1-252-172.3-378-258.5c-6.1-4.2-9.7-2.8-14.8,0.7C480.1,278.6,381,346.3,281.8,414.1
		c-28.8,19.7-57.3,39.7-86,59.6l-76.6,51.8c-14.9,10-20.2,8.9-30.2-6.3c-4.4-6.7-8.9-13.4-13.2-20.2c-7.8-12.1-6.4-18.6,5.6-26.9
		l130.5-89.2l348.3-237.9c23.5-16.1,30.2-16.1,53.5-0.2c156.5,107,313,213.9,469.6,320.9c6.8,4.6,13.2,9.7,19.8,14.6L1103,492.2z"/>
	<path class="st1" d="M959.8,511.6c-9.9-6.6-19.5-13.8-29.4-20.3c-25.5-16.7-50.3-34.3-75.4-51.5c-70.2-47.9-140.4-95.8-210.5-143.7
		c-16.6-11.3-32.9-22.9-49.3-34.5c-5.4-3.7-8.8-4.6-15.3,0c-37.2,26.2-75.2,51.4-112.7,77c-66.3,45.2-132.6,90.4-198.9,135.7
		c-5,2.8-8,8.3-7.8,14.1c0.3,24.5,0.3,49,0,73.6c0,6.9,1.2,10.3,9,7.3c3-0.6,6-0.8,9-0.3c75.5,0,151.1,0.5,226.7-0.4
		c19.9-0.2,38,18.1,37.9,38c-0.6,146.4-0.3,292.9-0.3,439.2c2.3,0.2,4.7,0.5,7,0.5H969c2.3,0,4.7-0.3,7-0.4l1.9-1.4V522.4
		C971.7,519.1,965.6,515.5,959.8,511.6z M928,853.8c-6.9,10.6-18.5,17.2-31.2,17.6c-17.6-0.2-35.2-0.3-52.9-0.4
		c-58.6-0.3-117.2-0.2-175.8,0.4c-19.2,0.2-37.3-18-37.1-36.7c0.7-76.5,0.7-153.1,0-229.7c-0.2-18.7,18-36.7,36.1-36.6
		c76.9,0.6,153.8,0.6,230.7,0c6.3,0.1,12.4,1.9,17.7,5.4c10.6,6.6,18.5,18.5,18.4,30.8v0.5c-0.3,13.8-0.5,27.5-0.5,41.4
		c0,10.3,0,20.5,0,30.8c0,13.9,0.2,27.9,0.2,41.8v1.8c0,9.7,0,19.3,0,29c-0.2,27.9-0.4,55.9,0.5,83.8C934.2,841,932,848,928,853.8z"
		/>
	<path class="st2" d="M978.2,473.6c0,12.7,0,25.3-0.1,37.9c0,3.6,0,7.2,0,10.7c-6.3-3.2-12.4-6.8-18.2-10.7
		c-9.9-6.6-19.5-13.8-29.4-20.3c-25.5-16.7-50.3-34.3-75.4-51.5c-70.2-47.9-140.4-95.8-210.5-143.7c-16.6-11.3-32.9-22.9-49.3-34.5
		c-5.4-3.7-8.8-4.6-15.3,0c-37.2,26.2-75.2,51.4-112.7,77c-66.3,45.2-132.6,90.4-198.9,135.7c-5,2.8-8,8.3-7.8,14.1
		c0.3,24.5,0.3,49,0,73.6c0,6.9,1.2,10.3,9,7.3c3-0.6,6-0.8,9-0.3c75.5,0,151.1,0.5,226.7-0.4c19.9-0.2,38,18.1,37.9,38
		c-0.6,146.4-0.3,292.9-0.3,439.2h-20.9c0.3-0.2,0.4-0.7,0.2-1.1c0-0.1-0.1-0.1-0.2-0.2c0.2-3.3,0.6-6.7,0.6-10
		c0-141,0-281.9,0-422.9c0-1.7,0-3.4,0-5c-0.7-10.3-7-17.3-17.2-17.3c-59.4,0-118.8,0.2-178.2,0.3c-15.1-0.2-30.2-0.5-45.2-0.5
		c-16,0-21,5-21,20.9c0,63.4,0,126.8,0,190.1v122.7c0,40.9,0,81.8,0.1,122.7l0,0l-66.7,0.7c-0.3-0.5-0.5-1-0.6-1.5
		c3.4-2.3,2.5-5.9,2.5-9.2c0-187.3,0-374.7,0-562c28.6-19.9,57.1-39.9,86-59.6c99.1-67.8,198.3-135.6,297.5-203.4
		c5.1-3.5,8.7-4.9,14.8-0.7c125.9,86.3,251.9,172.5,378,258.5C974.3,470,976.2,472,978.2,473.6z"/>
	<path class="st3" d="M1043.2,1091.8c-0.2,14.6-4.8,19.2-19.3,19.2H206c-4,0-8.1-0.2-12.1-0.3c-15.7,0-31.4,0.3-47.2,0.3
		c-10.1,0-15.9-4.8-16.5-14.8c-0.7-11.7-0.7-23.4,0-35.1c0.5-10.4,6.8-15.7,18.1-15.9c15-0.3,30.1-0.2,45.2-0.3
		c0.1,0.5,0.4,1,0.6,1.5l66.7-0.7l0,0c3.3,0.2,6.6,0.5,10,0.5c66.3,0,132.6,0,198.9,0c17.4,0,34.8-0.3,52.2-0.5h20.9
		c2.3,0.2,4.7,0.5,7,0.5H969c2.3,0,4.7-0.3,7-0.4l2-0.2c15.8,0,31.6,0.1,47.3,0.4c12.9,0.2,17.5,4.8,17.8,17.7
		C1043.4,1073,1043.3,1082.4,1043.2,1091.8z"/>
	<path class="st4" d="M978.1,1045.5l-2,0.2l1.9-1.4C978.1,1044.7,978.2,1045.1,978.1,1045.5z"/>
	<path class="st5" d="M933.6,750c0-9.7,0-19.3,0-29v-1.7c0-13.9,0-27.9-0.2-41.8c0-10.3,0-20.5,0-30.8c0-13.8,0-27.6,0.5-41.4v-0.5
		c0-12.3-7.8-24.2-18.4-30.8c-5.3-3.4-11.4-5.3-17.7-5.4c-76.9,0.6-153.8,0.6-230.7,0c-18.2,0-36.3,17.9-36.1,36.6
		c0.7,76.6,0.7,153.1,0,229.7c-0.2,18.7,18,36.9,37.1,36.7c58.6-0.6,117.2-0.7,175.8-0.4c17.6,0.1,35.2,0.3,52.9,0.4
		c12.7-0.4,24.3-7,31.2-17.6c4-5.9,6.2-12.9,6-20C933.2,805.9,933.4,778,933.6,750z M766.5,842.3c0,6.4-1.7,9-8.5,8.8
		c-14-0.5-28.1-0.2-42.2-0.3c-14.7,0-29.6,0.2-44.2,0c-14.7-0.2-20-5.4-20-20.1c0-31.5,0-63,0-94.5v-32.4c0-31.9,0-63.8,0-95.7
		c0-13.3,5.4-18.8,19-19c15.1-0.2,30.2,0,45.3,0c14.1,0,28.1,0,42.2-0.2c5.7-0.1,8.5,1.2,8.5,7.7c-0.3,33.2-0.3,66.3,0,99.4
		c0,6.4-2.7,8.1-8.4,7.8c-14.1-0.3-28.1-0.1-42.2-0.2l0,0v32.2c13.7,0,27.5,0.2,41.2-0.2c6.7-0.2,9.5,1.5,9.4,8.9
		C766.1,777.3,766.3,809.8,766.5,842.3z M913.6,750c0,9.4,0,18.8,0,28.2c0,17.9,0,35.7,0,53.6c0,11.6-7.4,19.1-18.8,19.1
		c-29.6,0.2-59.1,0-88.7,0.2c-5.7,0-7.7-2-7.6-7.6c0.2-16.8,0-33.5,0-50.3c0-16.1,0.2-32.2,0-48.4c-0.1-6.4,1.6-8.9,8.4-8.8
		c32.9,0.3,65.8,0.3,98.6,0c6.3,0,8.1,2.2,8.1,8.2C913.6,746.2,913.6,748,913.6,750L913.6,750z M905.1,704c-16.4-0.4-32.9,0-49.3,0
		s-32.2-0.2-48.4,0c-6.2,0-9-1.3-9-8.3c0.3-32.9,0.3-65.8,0-98.6c0-6.1,1.9-8.2,8.1-8.1c29.2,0.2,58.4,0,87.6,0.2c0.7,0,1.4,0,2.1,0
		c0.6,0,1.1,0,1.7,0.2l0.9,0.1h0.2l1.2,0.3c0.6,0.1,1.1,0.3,1.6,0.5h0.3c1.1,0.4,2.1,0.9,3.1,1.5l0.5,0.3c0.5,0.3,1,0.7,1.4,1
		c0.4,0.3,0.7,0.6,1.1,1l0.2,0.2c0.3,0.3,0.6,0.7,0.9,1.1l0.2,0.2c0.3,0.4,0.6,0.9,0.9,1.3c0.3,0.6,0.7,1.2,1,1.8
		c0.3,0.6,0.4,0.9,0.5,1.3l0.2,0.4c0.2,0.5,0.3,0.9,0.4,1.4c0.1,0.2,0.1,0.3,0.1,0.5c0.1,0.4,0.2,0.9,0.3,1.3
		c0.1,0.6,0.2,1.2,0.3,1.8c0,0.3,0,0.6,0,1s0,1.3,0,2c0.1,28.9,0,57.7,0.2,86.6C913.7,701.7,911.8,704.1,905.1,704z"/>
	<path class="st6" d="M326.9,589.6c59.4-0.2,118.8-0.4,178.2-0.3c10.2,0,16.6,7,17.2,17.3c0,1.7,0,3.4,0,5c0,141,0,281.9,0,422.9
		c0,3.4-0.4,6.7-0.6,10c-61.3,0-122.6,0-183.9,0.1c-8.1,0-11.1-1.6-11-10.4c0.4-52.9,0.2-105.9,0.2-158.8c0-3.3-0.4-6.7,2-9.6
		c9.7-2.7,13-9.4,12.8-18.8c-0.2-19.5-0.2-38.9,0-58.4c0.2-10.6-3.9-17.4-14.8-19.2L326.9,589.6z"/>
	<path class="st7" d="M521.8,1045.7c-17.4,0.2-34.9,0.5-52.2,0.5c-66.3,0-132.6,0-198.9,0c-3.3,0-6.6-0.3-10-0.5l0,0
		c0-40.9,0-81.8,0-122.7V800.2c0-63.4,0-126.7,0-190.1c0-15.9,5-21,21-20.9c15.1,0,30.2,0.3,45.2,0.5l0.2,179.7
		c-13,2.7-16.3,6.5-16.3,19.7c0,19.1,0,38.2,0,57.3c0,13.9,4.2,18.3,18.3,19.6c-2.4,2.8-2,6.3-2,9.6c0,52.9,0.2,105.9-0.2,158.8
		c0,8.8,3,10.4,11,10.4c61.3-0.3,122.6-0.1,183.9-0.1C522.2,1044.9,522.2,1045.4,521.8,1045.7
		C521.9,1045.7,521.9,1045.7,521.8,1045.7z"/>
	<path class="st8" d="M855.8,703.9c-16.1,0-32.2-0.2-48.4,0c-6.2,0-9-1.3-9-8.3c0.3-32.9,0.3-65.8,0-98.6c0-6.1,1.9-8.2,8.1-8.1
		c29.2,0.2,58.4,0,87.6,0.2c12,0,19.2,7.5,19.3,19.6c0.1,28.9,0,57.7,0.2,86.6c0,6.5-1.8,8.9-8.5,8.7
		C888.7,703.6,872.2,703.9,855.8,703.9z"/>
	<path class="st8" d="M798.6,793.1c0-16.1,0.2-32.2,0-48.4c-0.1-6.4,1.6-8.9,8.4-8.8c32.9,0.3,65.8,0.3,98.6,0
		c6.3,0,8.1,2.2,8.1,8.2c-0.2,29.2,0,58.4-0.2,87.6c0,11.6-7.4,19.1-18.8,19.1c-29.6,0.2-59.1,0-88.7,0.2c-5.7,0-7.7-2-7.6-7.6
		C798.8,826.8,798.6,809.9,798.6,793.1z"/>
	<path class="st9" d="M651.6,703.7c0-31.9,0-63.8,0-95.7c0-13.3,5.4-18.8,19-19c15.1-0.2,30.2,0,45.3,0v114.7l0,0L651.6,703.7z"/>
	<path class="st9" d="M715.8,850.8c-14.7,0-29.6,0.2-44.2,0c-14.7-0.2-20-5.4-20-20.1c0-31.5,0-63,0-94.5h64.3l0,0
		C715.9,774.3,715.9,812.6,715.8,850.8z"/>
	<path class="st8" d="M715.9,703.8V589.1c14.1,0,28.1,0,42.2-0.2c5.7-0.1,8.5,1.2,8.5,7.7c-0.3,33.2-0.3,66.3,0,99.4
		c0,6.4-2.7,8.1-8.4,7.8C744.1,703.6,730,703.8,715.9,703.8z"/>
	<path class="st8" d="M715.8,850.8c0-38.2,0-76.4,0.1-114.6c13.7,0,27.5,0.2,41.2-0.2c6.7-0.2,9.5,1.5,9.4,8.9
		c-0.3,32.5-0.3,65,0,97.4c0,6.4-1.7,9-8.5,8.8C744,850.6,729.9,851,715.8,850.8z"/>
	<path class="st10" d="M716,736.1h-64.3v-32.4H716V736.1z"/>
	<path class="st11" d="M329,865.9c-14.1-1.3-18.2-5.6-18.3-19.6c0-19.1,0-38.2,0-57.3c0-13.2,3.3-17,16.3-19.7
		c10.9,1.8,15,8.6,14.8,19.2c-0.2,19.5-0.2,38.9,0,58.4C342,856.3,338.8,863.2,329,865.9z"/>
	<path class="st12" d="M809.9,478.5l216.2-129.7c1.1,0.9,2,0,3-0.3c16.5-6,34.2-8.4,51.7-7c35.8,2.5,67.9,15.6,98.2,33.8
		c63.5,38.1,112.3,91.4,152.8,152.3c18.2,27.3,34.1,56,47.5,85.9c17.6,38.4,30.3,78.9,37.9,120.5c7.4,42.8,9,85.6-3.3,127.9
		c-10.3,35.4-29.7,63.9-63.9,80.3c-5,1.6-9.9,3.4-15,4.8c-33.5,9.4-65.9,4.2-97.5-8.1c-58.9-22.8-105.5-62.5-147-108.8
		c-15.5-17.3-29.8-35.6-43.7-54.4c1.8,3,3.5,5.9,5.4,8.9c12,20,24,40,36,60c7.6,12.6,14.9,25.4,22.4,38.1L921,996.6
		c-1.1-1.6-2.3-3.2-3.3-4.9c-26.4-43.9-52.5-88-79.1-131.7c-25.1-40.7-45-84.4-59.1-130.1c-16.3-53.6-25-108.1-15.2-164.1
		c5.1-29.1,15.8-55.7,36.4-77.6C803.7,485,807.9,482.8,809.9,478.5z M1062.3,545.9c-1.3,15.1-0.2,30.3,3.2,45
		c14.4,67,47.1,124.1,95.2,172.5c16.4,16.6,34.7,30.9,56.4,40.3c9.9,5.8,21.1,9.2,32.5,9.8c24.4,2.2,43.4-8.9,53.6-31.3
		c7.2-15.8,8.8-32.6,8.1-49.7c-1.8-39.4-14.1-76-32-110.6c-20-38.7-44.8-74.1-78.3-102.7c-20.4-17.5-42.4-32.2-69.3-37.9
		c-13.2-2.7-26.4-2.7-38.5,4.3C1069.6,498.9,1062.9,521,1062.3,545.9L1062.3,545.9z"/>
	<path class="st13" d="M1062.3,545.9c0.6-25,7.3-47,30.7-60.3c12.1-6.9,25.3-7,38.5-4.3c26.9,5.6,48.9,20.4,69.3,37.9
		c33.5,28.6,58.2,64,78.3,102.7c17.9,34.6,30.2,71.2,32,110.6c0.8,17.1-0.8,33.9-8.1,49.7c-10.2,22.4-29.1,33.5-53.6,31.3
		c-11.5-0.6-22.6-4-32.5-9.8c-11.7-40.7-27.8-80-48.2-117.2C1140.5,634.6,1104.6,587.2,1062.3,545.9z"/>
	<path class="st13" d="M1350,942.3c-61.5,36.9-122.6,74.4-184.5,110.5c-27.9,16.3-58.9,15.9-89.7,8.8c-10.2-2.3-20.2-5.9-30.3-8.9
		c-0.6-1.4-0.7-3-0.3-4.5c1.9-14.6,4-29.2,5.6-43.8c0.5-4.7,2.1-4.6,5.8-3.2c14.9,5.8,30,11.2,45,17.1c4.5,1.8,6,1.1,6.6-3.9
		c2-17.4,4.4-34.9,6.7-52.9l52.9,19.7l1-1.5l-58.2-96.9c-7.4-12.7-14.8-25.4-22.4-38.1c-11.9-20-24-40-36-60c-1.8-3-3.6-5.9-5.4-8.9
		c13.9,18.8,28.2,37.1,43.7,54.4c41.5,46.3,88.1,86,147,108.8c31.6,12.2,64,17.4,97.5,8.1C1340.1,945.9,1345,944.1,1350,942.3z"/>
	<path class="st14" d="M1110.5,883l58.2,96.9l-1,1.5l-52.9-19.7c-2.3,18.1-4.7,35.4-6.7,52.9c-0.6,4.9-2.1,5.6-6.6,3.9
		c-14.9-5.9-30-11.3-45-17.1c-3.7-1.4-5.4-1.5-5.8,3.2c-1.6,14.6-3.7,29.2-5.6,43.8c-0.4,1.5-0.3,3.1,0.3,4.5
		c-0.8,5.2-2.9,6-8.1,3.9c-14-5.8-28.4-10.6-42.4-16.3c-5.5-2.3-6.9-0.5-7.5,4.6c-2,16.6-4.2,33.1-6.3,49.4c-2,0.7-2.4-0.6-2.9-1.4
		c-18.7-31.1-37.4-62.2-56-93.4c-0.5-1-1-2-1.4-3L1110.5,883z"/>
</g>
</svg>
