<svg id="Layer_1" data-name="Layer 1" xmlns="http://www.w3.org/2000/svg" viewBox="0 0 180 193.19"><title>icon_cleanup</title><g id="Done"><path d="M183.31,110.28c-.84,1.3-1.74,2.6-2.6,3.91-1.84,2.82-2.54,3-5.28,1.1-3.9-2.66-7.83-5.29-11.75-7.94a12.17,12.17,0,0,0-1-.8Q133,86.24,103.28,65.89A1.74,1.74,0,0,0,101,66Q77.57,82,54.15,98c-4.52,3.09-9,6.24-13.52,9.37L28.58,115.5c-2.33,1.57-3.17,1.4-4.74-1-.69-1.06-1.39-2.11-2.07-3.18-1.23-1.91-1-2.92.88-4.23l20.52-14L97.94,55.64c3.69-2.54,4.76-2.54,8.41,0l73.85,50.45c1.06.73,2.07,1.53,3.11,2.3Z" transform="translate(-21 -14.41)" style="fill:#415258"/><path d="M156.16,110.12c-4-2.62-7.91-5.39-11.84-8.09l-33.13-22.6c-2.6-1.78-5.18-3.6-7.75-5.43A1.74,1.74,0,0,0,101,74c-5.84,4.13-11.81,8.08-17.72,12.11L52,107.46a2.44,2.44,0,0,0-1.23,2.21c.06,3.85.05,7.71,0,11.57,0,1.09.19,1.62,1.42,1.15a4.23,4.23,0,0,1,1.42-.06c11.88,0,23.77.08,35.65-.06a6.16,6.16,0,0,1,6,6c-.1,23,0,46.07,0,69.08.37,0,.74.08,1.1.08h66c.37,0,.74-.05,1.1-.07l.31-.21V115A84,84,0,0,1,156.16,110.12Zm-52.69,3.35c-.23.69-.33,1.49-1.3,1.57-.77,0-1.09-.54-1.27-1.18a19.91,19.91,0,0,0-8.69-11.61c-1.22-.76-1.12-1.66.17-2.41,4.18-2.43,6.67-6.16,8.31-10.57.27-.75.32-1.74,1.48-1.79.92,0,1.06.75,1.27,1.39a20.2,20.2,0,0,0,8.47,11c1.46.93,1.46,1.58,0,2.54A19.93,19.93,0,0,0,103.47,113.47Zm47.42,56.46q-18-.19-36,0a6.09,6.09,0,0,1-5.84-5.77q.16-18.06,0-36.12a6.07,6.07,0,0,1,5.69-5.76q18.14.16,36.28,0a6,6,0,0,1,5.67,5.77c-.15,6.06,0,12.14,0,18.21s-.13,11.84.05,17.75A6.07,6.07,0,0,1,150.89,169.93Z" transform="translate(-21 -14.41)" style="fill:#ebf1f9"/><path d="M163.68,107.35l0,7.68a84,84,0,0,1-7.5-4.91c-4-2.62-7.91-5.39-11.84-8.09l-33.13-22.6c-2.6-1.78-5.18-3.6-7.75-5.43A1.74,1.74,0,0,0,101,74c-5.84,4.13-11.81,8.08-17.72,12.11L52,107.46a2.44,2.44,0,0,0-1.23,2.21c.06,3.85.05,7.71,0,11.57,0,1.09.19,1.62,1.42,1.15a4.23,4.23,0,0,1,1.42-.06c11.88,0,23.77.08,35.65-.06a6.16,6.16,0,0,1,6,6c-.1,23,0,46.07,0,69.08H91.91a.11.11,0,0,0,0-.16l0,0c0-.52.09-1,.09-1.57v-67.3a2.65,2.65,0,0,0-2.71-2.73q-14,0-28,.06c-2.37,0-4.74-.08-7.11-.08-2.54,0-3.31.78-3.31,3.29v29.9q0,19.31,0,38.61l-10.5.11a1.22,1.22,0,0,1-.1-.24c.54-.37.4-.93.4-1.45V107.35c4.5-3.13,9-6.28,13.53-9.37Q77.6,82,101,66a1.71,1.71,0,0,1,2.33-.11q29.7,20.35,59.45,40.65Q163.25,106.93,163.68,107.35Z" transform="translate(-21 -14.41)" style="fill:#d7e4f4"/><path d="M173.92,204.57c0,2.3-.75,3-3,3H42.24c-.63,0-1.26,0-1.89-.05-2.48,0-5,.06-7.42.05a2.28,2.28,0,0,1-2.61-2.32,50.82,50.82,0,0,1,0-5.52c.09-1.64,1.07-2.47,2.85-2.51,2.37-.06,4.73,0,7.1-.05a1.6,1.6,0,0,0,.1.23l10.5-.11c.52,0,1.05.08,1.57.08H83.72c2.73,0,5.47,0,8.21-.07h3.28c.37,0,.74.07,1.1.07h65.94c.37,0,.74,0,1.1-.06l.33,0c2.47,0,5,0,7.44.06,2,0,2.76.76,2.79,2.78C173.94,201.62,173.94,203.1,173.92,204.57Z" transform="translate(-21 -14.41)" style="fill:#405157"/><path d="M163.66,80.81c-1,0-1.13-.78-1.36-1.5a19.91,19.91,0,0,0-8.45-11.22c-1.35-.85-1.32-1.69,0-2.49,4.17-2.43,6.67-6.16,8.31-10.57.27-.74.3-1.75,1.47-1.78Z" transform="translate(-21 -14.41)" style="fill:#93c6eb"/><path d="M163.66,80.81V53.24c.85,0,1,.65,1.23,1.23a20.69,20.69,0,0,0,8.79,11.36c1.1.69,1.11,1.48,0,2.18a20,20,0,0,0-8.75,11.54C164.68,80.15,164.49,80.79,163.66,80.81Z" transform="translate(-21 -14.41)" style="fill:#b8d9f2"/><path d="M163.68,197.3l-.33,0,.31-.22A.41.41,0,0,1,163.68,197.3Z" transform="translate(-21 -14.41)" style="fill:#d7e4f4"/><path d="M156.69,146.26c0,5.92-.13,11.84.05,17.75a6.06,6.06,0,0,1-5.85,5.92q-18-.19-36,0a6.09,6.09,0,0,1-5.84-5.77q.16-18.06,0-36.12a6.06,6.06,0,0,1,5.69-5.75q18.14.15,36.28,0a6,6,0,0,1,5.67,5.76C156.58,134.11,156.69,140.17,156.69,146.26Zm-34.24,2.38v-5.09h0c2.22,0,4.43,0,6.64,0,.91,0,1.32-.23,1.32-1.24q-.07-7.82,0-15.63c0-1-.43-1.24-1.34-1.22-2.21,0-4.42,0-6.63,0-2.38,0-4.75,0-7.13,0-2.14,0-3,.9-3,3v35c0,2.32.84,3.14,3.14,3.16s4.65,0,7,0,4.43,0,6.64.05c1.07,0,1.34-.37,1.34-1.38q-.07-7.67,0-15.33c0-1.15-.43-1.42-1.48-1.39-2.16.06-4.32,0-6.48,0Zm22-5.07c2.59,0,5.17,0,7.76,0,1.05,0,1.35-.36,1.34-1.38,0-4.54,0-9.07,0-13.61a2.83,2.83,0,0,0-3-3.09c-4.59,0-9.18,0-13.77,0-1,0-1.27.33-1.27,1.27q.06,7.76,0,15.51c0,1.1.42,1.33,1.41,1.31h7.59Zm-9,14c0,2.64,0,5.28,0,7.91,0,.89.3,1.21,1.19,1.2,4.65,0,9.3,0,14,0a2.81,2.81,0,0,0,3-3c0-4.59,0-9.18,0-13.77,0-.94-.28-1.3-1.27-1.29q-7.75,0-15.51,0c-1.07,0-1.35.38-1.33,1.38,0,2.53,0,5.07,0,7.6Z" transform="translate(-21 -14.41)" style="fill:#d8e4f4"/><path d="M102.17,115c-.77,0-1.09-.54-1.27-1.18a19.91,19.91,0,0,0-8.69-11.61c-1.22-.76-1.12-1.66.17-2.41,4.18-2.43,6.67-6.16,8.31-10.57.27-.75.32-1.74,1.48-1.79Z" transform="translate(-21 -14.41)" style="fill:#93c6eb"/><path d="M102.17,115q0-13.79,0-27.57c.92,0,1.06.75,1.27,1.39a20.22,20.22,0,0,0,8.48,11c1.45.93,1.46,1.58,0,2.54a20.15,20.15,0,0,0-8.39,11.07C103.24,114.16,103.14,115,102.17,115Z" transform="translate(-21 -14.41)" style="fill:#b8d9f2"/><path d="M61.25,125.59c9.34,0,18.68-.06,28,0A2.66,2.66,0,0,1,92,128.27v67.3c0,.52-.06,1.05-.09,1.57-9.64,0-19.29,0-28.93,0-1.27,0-1.74-.25-1.73-1.63.06-8.33,0-16.65,0-25a2.17,2.17,0,0,1,.31-1.51,2.64,2.64,0,0,0,2-3q0-4.59,0-9.18c0-1.67-.62-2.74-2.33-3Z" transform="translate(-21 -14.41)" style="fill:#f0b0a2"/><path d="M91.91,197.33c-2.73,0-5.47.07-8.2.07H52.43c-.52,0-1-.05-1.57-.07q0-19.31,0-38.61v-29.9c0-2.51.79-3.31,3.31-3.29,2.37,0,4.74,0,7.11.08l0,28.26c-2,.42-2.54,1-2.57,3.09v9c0,2.19.66,2.87,2.88,3.08a2.09,2.09,0,0,0-.32,1.5c0,8.33,0,16.65,0,25,0,1.38.48,1.64,1.73,1.64,9.64-.05,19.29,0,28.93,0A.1.1,0,0,1,91.91,197.33Z" transform="translate(-21 -14.41)" style="fill:#ea9d8f"/><path d="M144.43,143.55c-2.53,0-5.07,0-7.6,0-1,0-1.42-.21-1.42-1.31.05-5.17,0-10.34,0-15.51,0-1,.3-1.27,1.27-1.27,4.59,0,9.18,0,13.77,0a2.84,2.84,0,0,1,3,3.09c0,4.54,0,9.07,0,13.61,0,1-.28,1.4-1.34,1.38C149.61,143.52,147,143.55,144.43,143.55Z" transform="translate(-21 -14.41)" style="fill:#b8d9f2"/><path d="M135.45,157.6c0-2.53,0-5.07,0-7.61,0-1,.25-1.39,1.33-1.38q7.75.06,15.51,0c1,0,1.26.35,1.26,1.29,0,4.59,0,9.18,0,13.77a2.8,2.8,0,0,1-2.95,3c-4.65,0-9.3,0-14,0-.89,0-1.2-.32-1.19-1.2C135.47,162.88,135.45,160.24,135.45,157.6Z" transform="translate(-21 -14.41)" style="fill:#b8d9f2"/><path d="M112.32,143.55v-15c0-2.1.85-3,3-3,2.37,0,4.75,0,7.12,0v18H112.32Z" transform="translate(-21 -14.41)" style="fill:#93c6eb"/><path d="M122.41,166.67c-2.32,0-4.65,0-7,0s-3.13-.84-3.14-3.16V148.64h10.12Q122.43,157.66,122.41,166.67Z" transform="translate(-21 -14.41)" style="fill:#93c6eb"/><path d="M122.44,143.55v-18c2.21,0,4.43,0,6.64,0,.9,0,1.33.2,1.33,1.22q-.06,7.83,0,15.64c0,1-.4,1.27-1.32,1.23C126.87,143.55,124.66,143.55,122.44,143.55Z" transform="translate(-21 -14.41)" style="fill:#b8d9f2"/><path d="M122.41,166.67q0-9,0-18c2.16,0,4.32,0,6.48,0,1.06,0,1.49.24,1.48,1.4-.06,5.1,0,10.21,0,15.32,0,1-.27,1.42-1.34,1.38C126.85,166.65,124.64,166.68,122.41,166.67Z" transform="translate(-21 -14.41)" style="fill:#b8d9f2"/><path d="M122.45,148.62H112.32v-5.07h10.13Z" transform="translate(-21 -14.41)" style="fill:#c1d4ed"/><path d="M61.58,169c-2.21-.2-2.86-.88-2.87-3.07v-9c0-2.07.52-2.68,2.57-3.09,1.71.28,2.35,1.35,2.33,3q-.06,4.59,0,9.19A2.64,2.64,0,0,1,61.58,169Z" transform="translate(-21 -14.41)" style="fill:#415157"/><path d="M76.5,48.35c-1,.12-1.43-.63-1.83-1.35a42.72,42.72,0,0,1-3-5.6C70.6,38.58,68.41,37.22,66,36c-1.69-.85-3.33-1.77-5-2.66a2.07,2.07,0,0,1-1.35-1.87A1.94,1.94,0,0,1,61,29.6c2.53-1.34,5-2.79,7.52-4,1.61-.78,2.15-2.28,2.93-3.63,1.17-2,2.26-4.05,3.34-6.1a4.89,4.89,0,0,1,1.18-1.42h.58c0,1.11,0,2.22,0,3.33a11.92,11.92,0,0,0,3.21,9.09c2.25,2.44,2,4.35-.23,6.83A10.38,10.38,0,0,0,76.77,39C76.22,42.12,76.64,45.23,76.5,48.35Z" transform="translate(-21 -14.41)" style="fill:#ffdfb0"/><path d="M76.5,48.35c.14-3.12-.28-6.26.25-9.38a10.41,10.41,0,0,1,2.71-5.31c2.24-2.48,2.48-4.39.24-6.83a11.82,11.82,0,0,1-3.21-9.09c.05-1.11,0-2.22,0-3.33h.87c2.11,2.67,3.38,5.82,5.07,8.74a5.57,5.57,0,0,0,2.37,2.41c2.36,1.2,4.67,2.51,7,3.81.85.46,1.76.9,1.81,2.05s-.84,1.65-1.69,2.12c-2.49,1.37-5,2.72-7.51,4.06a3.36,3.36,0,0,0-1.53,1.45c-1.46,2.71-3,5.4-4.45,8.12C78,48,77.5,48.53,76.5,48.35Z" transform="translate(-21 -14.41)" style="fill:#ffd89e"/><path d="M189.09,160.32c-.63.12-.91-.27-1.16-.75-.9-1.67-1.88-3.31-2.72-5a4.36,4.36,0,0,0-2-2q-2.31-1.2-4.59-2.44c-.58-.33-1.24-.66-1.2-1.49s.63-1,1.19-1.35c1.69-.93,3.38-1.92,5.12-2.79,1-.5,1.33-1.49,1.83-2.34.76-1.27,1.41-2.59,2.12-3.89.32-.59.59-1.24,1.41-1.29,0,1.05.06,2.11,0,3.16a6.93,6.93,0,0,0,2.06,6c1.47,1.42,1.31,2.6,0,4.23-1.15,1.42-2.21,2.83-2.07,4.84C189.19,156.86,189.08,158.6,189.09,160.32Z" transform="translate(-21 -14.41)" style="fill:#ffdfb0"/><path d="M189.09,160.32c0-1.72.09-3.46,0-5.18-.15-2,.92-3.42,2.06-4.84,1.32-1.61,1.48-2.79,0-4.22a7,7,0,0,1-2.05-6c.07-1.06,0-2.12,0-3.17.73-.11,1.06.37,1.35.91.75,1.37,1.63,2.68,2.24,4.11a6.4,6.4,0,0,0,3.34,3.26c1.29.64,2.53,1.35,3.8,2,1.57.88,1.61,1.86,0,2.78a39.52,39.52,0,0,1-3.9,2.09,6.27,6.27,0,0,0-3.32,3.28c-.58,1.31-1.33,2.54-2,3.81C190.28,159.85,189.94,160.46,189.09,160.32Z" transform="translate(-21 -14.41)" style="fill:#ffd89e"/><path d="M40.69,75.47c-1,.13-1.3-.55-1.51-1.31A23.9,23.9,0,0,0,29,60.48c-1.47-1-1.55-2-.25-2.76A24.15,24.15,0,0,0,39.12,44.41a16.28,16.28,0,0,1,.79-1.69h.76Q40.69,59.1,40.69,75.47Z" transform="translate(-21 -14.41)" style="fill:#93c6eb"/><path d="M40.69,75.47V42.72h.75c1.27,3,2.36,6,4.28,8.7A20.56,20.56,0,0,0,52.2,57.5c1.75,1,1.78,1.83,0,3a24.32,24.32,0,0,0-10,13.13C41.94,74.41,41.83,75.36,40.69,75.47Z" transform="translate(-21 -14.41)" style="fill:#b8d9f2"/></g></svg>