<?xml version="1.0" encoding="utf-8"?>
<!-- Generator: Adobe Illustrator 22.1.0, SVG Export Plug-In . SVG Version: 6.00 Build 0)  -->
<svg version="1.1" id="Layer_1" xmlns="http://www.w3.org/2000/svg" xmlns:xlink="http://www.w3.org/1999/xlink" x="0px" y="0px"
	 viewBox="0 0 1508.2 1243.7" style="enable-background:new 0 0 1508.2 1243.7;" xml:space="preserve">
<style type="text/css">
	.st0{fill:#405157;}
	.st1{fill:#F2F0F3;}
	.st2{fill:#E3DEE1;}
	.st3{fill:#3F5056;}
	.st4{fill:#D7E3F3;}
	.st5{fill:#D8E4F4;}
	.st6{fill:#B6AEB7;}
	.st7{fill:#A89CA7;}
	.st8{fill:#B7D9F2;}
	.st9{fill:#93C6EB;}
	.st10{fill:#C0D3ED;}
	.st11{fill:#405056;}
	.st12{fill:#EAF4FC;}
	.st13{fill:#D8EBF9;}
	.st14{fill:#83C994;}
	.st15{fill:#81C992;}
	.st16{fill:#50BE9A;}
</style>
<title>icon_estimate</title>
<g id="Estimate">
	<path class="st0" d="M1052.4,480.3c-4.9,7.4-9.8,14.7-14.7,22c-10.4,15.9-14.3,16.7-29.7,6.1c-22-14.9-44.1-29.7-66.1-44.6
		c-1.8-1.5-3.5-3.2-5.4-4.5c-111.6-76.3-223.2-152.6-334.7-228.9c-5.4-3.7-8.6-2.5-13.1,0.6c-87.8,60.1-175.6,120.1-263.4,180.1
		c-25.5,17.4-50.7,35.1-76.1,52.8l-67.8,45.8c-13.2,8.9-17.9,7.9-26.7-5.6c-3.9-6-7.9-11.9-11.7-17.9c-6.9-10.8-5.7-16.5,5-23.8
		l115.6-79l308.4-210.7c20.8-14.3,26.8-14.3,47.3-0.2c138.6,94.7,277.2,189.4,415.8,284.1c6,4.1,11.7,8.6,17.6,12.9L1052.4,480.3z"
		/>
	<path class="st1" d="M925.6,497.4c-8.8-5.8-17.2-12.2-26.1-18C877,464.7,855,449,832.8,433.8c-62.1-42.4-124.3-84.8-186.4-127.2
		c-14.7-10-29.2-20.3-43.7-30.6c-4.8-3.3-7.8-4.1-13.6,0c-32.9,23.2-66.6,45.5-99.8,68.2c-58.7,40-117.4,80.1-176.1,120.2
		c-4.5,2.5-7.1,7.3-6.9,12.4c0.3,21.7,0.2,43.4,0,65.1c0,6.1,1,9.1,8,6.5c2.6-0.6,5.3-0.7,8-0.3c66.9,0,133.8,0.5,200.7-0.3
		c17.6-0.2,33.7,16,33.6,33.6c-0.5,129.6-0.3,259.4-0.3,388.9c2.1,0.1,4.1,0.4,6.2,0.4h371.2c2.1,0,4.1-0.2,6.2-0.4l1.7-1.2V507
		C936.1,504.1,930.7,500.9,925.6,497.4z M897.4,800.5c-6.1,9.4-16.4,15.2-27.6,15.6c-15.6-0.2-31.2-0.3-46.8-0.4
		c-51.9-0.3-103.8-0.2-155.6,0.4c-17,0.2-33-16-32.9-32.5c0.6-67.8,0.6-135.6,0-203.4c-0.2-16.5,15.9-32.5,32-32.4
		c68.1,0.6,136.2,0.6,204.2,0c5.6,0.1,11,1.7,15.6,4.8c9.4,5.9,16.4,16.4,16.3,27.3v0.4c-0.3,12.2-0.4,24.4-0.4,36.6
		c0,9.1,0,18.2,0,27.3c0,12.4,0.1,24.7,0.1,37.1v1.6c0,8.6,0,17.1,0,25.7c-0.2,24.7-0.4,49.5,0.4,74.2
		C902.9,789.1,901,795.3,897.4,800.5z"/>
	<path class="st2" d="M941.9,463.8c0,11.2,0,22.4-0.1,33.6c0,3.2,0,6.4,0,9.5c-5.6-2.9-10.9-6-16.1-9.5c-8.8-5.8-17.2-12.2-26.1-18
		C877,464.7,855,449,832.8,433.8c-62.1-42.4-124.3-84.8-186.4-127.2c-14.7-10-29.2-20.3-43.7-30.6c-4.8-3.3-7.8-4.1-13.6,0
		c-32.9,23.2-66.6,45.5-99.8,68.2c-58.7,40-117.4,80.1-176.1,120.2c-4.5,2.5-7.1,7.3-6.9,12.4c0.3,21.7,0.2,43.4,0,65.1
		c0,6.1,1,9.1,8,6.5c2.6-0.6,5.3-0.7,8-0.3c66.9,0,133.8,0.5,200.7-0.3c17.6-0.2,33.7,16,33.6,33.6c-0.5,129.6-0.3,259.4-0.3,388.9
		h-18.5c0.3-0.2,0.4-0.6,0.1-0.9c0-0.1-0.1-0.1-0.1-0.1c0.2-3,0.5-5.9,0.5-8.9c0-124.8,0-249.6,0-374.5c0-1.5,0-3,0-4.4
		c-0.6-9.1-6.2-15.3-15.3-15.3c-52.6,0-105.2,0.2-157.8,0.3c-13.3-0.2-26.7-0.4-40-0.5c-14.2,0-18.6,4.4-18.6,18.5
		c0,56.1,0,112.3,0,168.4v108.7c0,36.2,0,72.5,0.1,108.7l0,0l-59.1,0.6c-0.3-0.4-0.4-0.9-0.6-1.3c3-2.1,2.2-5.3,2.2-8.1
		c0-165.9,0-331.7,0-497.6c25.3-17.6,50.6-35.3,76.1-52.8C413.3,351,501.1,291,589,231c4.5-3.1,7.7-4.3,13.1-0.6
		c111.5,76.4,223,152.8,334.7,228.9C938.4,460.6,940.1,462.4,941.9,463.8z"/>
	<path class="st3" d="M999.5,1011.2c-0.1,12.9-4.2,17-17.1,17H258.2c-3.5,0-7.1-0.2-10.7-0.3c-13.9,0-27.8,0.3-41.8,0.3
		c-8.9,0-14.1-4.2-14.6-13.1c-0.6-10.4-0.6-20.7,0-31.1c0.5-9.2,6-13.9,16-14.1c13.3-0.3,26.7-0.2,40-0.3c0.1,0.5,0.3,0.9,0.6,1.3
		l59.1-0.6l0,0c3,0.1,5.9,0.4,8.8,0.4c58.7,0,117.4,0,176.1,0c15.4,0,30.8-0.3,46.2-0.4h18.5c2.1,0.1,4.1,0.4,6.2,0.4h371.2
		c2.1,0,4.1-0.2,6.2-0.4l1.8-0.2c14,0,27.9,0.1,41.9,0.3c11.4,0.2,15.5,4.3,15.8,15.7C999.7,994.5,999.6,1002.9,999.5,1011.2z"/>
	<path class="st4" d="M941.8,970.2l-1.8,0.2l1.7-1.2C941.8,969.5,941.9,969.9,941.8,970.2z"/>
	<path class="st5" d="M902.4,708.6c0-8.6,0-17.1,0-25.7v-1.5c0-12.4,0-24.7-0.1-37.1c0-9.1,0-18.2,0-27.3c0-12.2,0-24.4,0.4-36.6
		V580c0-10.9-6.9-21.4-16.3-27.3c-4.7-3-10.1-4.7-15.6-4.8c-68.1,0.5-136.2,0.5-204.2,0c-16.1,0-32.2,15.8-32,32.4
		c0.6,67.8,0.6,135.6,0,203.4c-0.1,16.5,15.9,32.7,32.9,32.5c51.9-0.5,103.8-0.6,155.6-0.4c15.6,0.1,31.2,0.2,46.8,0.4
		c11.2-0.4,21.5-6.2,27.6-15.6c3.6-5.2,5.5-11.4,5.4-17.7C902,758.1,902.2,733.3,902.4,708.6z M754.5,790.3c0,5.7-1.5,8-7.5,7.8
		c-12.4-0.4-24.9-0.2-37.4-0.3c-13,0-26.2,0.2-39.2,0c-13-0.2-17.7-4.8-17.7-17.8c0-27.9,0-55.8,0-83.7v-28.7c0-28.2,0-56.5,0-84.7
		c0-11.8,4.8-16.7,16.8-16.8c13.4-0.2,26.7,0,40.1,0c12.5,0,24.9,0,37.4-0.2c5.1-0.1,7.5,1.1,7.5,6.9c-0.2,29.4-0.2,58.7,0,88
		c0,5.7-2.4,7.1-7.4,6.9c-12.5-0.3-24.9-0.1-37.4-0.1l0,0v28.6c12.2,0,24.3,0.2,36.5-0.1c5.9-0.2,8.4,1.4,8.3,7.9
		C754.1,732.8,754.3,761.5,754.5,790.3z M884.7,708.5c0,8.3,0,16.6,0,25c0,15.8,0,31.6,0,47.4c0,10.2-6.5,16.9-16.7,16.9
		c-26.2,0.2-52.4,0-78.5,0.1c-5,0-6.8-1.8-6.7-6.8c0.2-14.8,0-29.7,0-44.5c0-14.3,0.2-28.6,0-42.8c-0.1-5.6,1.5-7.9,7.5-7.8
		c29.1,0.2,58.2,0.2,87.3,0c5.5,0,7.1,2,7.1,7.3C884.7,705.2,884.7,706.8,884.7,708.5L884.7,708.5z M877.2,667.8
		c-14.6-0.3-29.1,0-43.7,0s-28.6-0.2-42.8,0c-5.5,0-8-1.2-7.9-7.4c0.3-29.1,0.2-58.2,0-87.3c0-5.4,1.7-7.3,7.1-7.1
		c25.8,0.2,51.7,0,77.5,0.1c0.6,0,1.3,0,1.9,0c0.5,0,1,0,1.5,0.2l0.8,0.1h0.2l1.1,0.3c0.5,0.1,1,0.3,1.5,0.5h0.3
		c1,0.3,1.9,0.8,2.7,1.4l0.5,0.3c0.4,0.3,0.8,0.6,1.2,0.9c0.3,0.3,0.7,0.6,1,0.9l0.1,0.1c0.3,0.3,0.6,0.6,0.8,1l0.1,0.2
		c0.3,0.4,0.6,0.8,0.8,1.2c0.3,0.5,0.6,1,0.9,1.6c0.3,0.6,0.3,0.8,0.5,1.2l0.1,0.4c0.2,0.4,0.3,0.8,0.4,1.3c0.1,0.1,0.1,0.3,0.1,0.4
		c0.1,0.4,0.2,0.8,0.2,1.1c0.1,0.5,0.2,1.1,0.2,1.6c0,0.3,0,0.6,0,0.9c0,0.3,0,1.2,0,1.8c0.1,25.6,0,51.1,0.1,76.6
		C884.8,665.8,883.1,667.9,877.2,667.8z"/>
	<path class="st6" d="M365.2,566.5c52.6-0.1,105.2-0.4,157.8-0.3c9,0,14.7,6.2,15.3,15.3c0,1.5,0,3,0,4.4c0,124.8,0,249.6,0,374.5
		c0,3-0.3,5.9-0.5,8.9c-54.3,0-108.6,0-162.9,0.1c-7.1,0-9.8-1.4-9.7-9.2c0.3-46.9,0.2-93.7,0.2-140.6c0-3-0.3-6,1.8-8.5
		c8.6-2.4,11.5-8.3,11.4-16.7c-0.2-17.2-0.2-34.5,0-51.7c0.1-9.4-3.5-15.4-13.1-17L365.2,566.5z"/>
	<path class="st7" d="M537.8,970.4c-15.4,0.1-30.9,0.4-46.2,0.4c-58.7,0-117.4,0-176.1,0c-3,0-5.9-0.3-8.8-0.4l0,0
		c0-36.2,0-72.4,0-108.7V753c0-56.1,0-112.2,0-168.4c0-14.1,4.4-18.6,18.6-18.5c13.3,0,26.7,0.3,40,0.5l0.1,159.1
		c-11.5,2.4-14.4,5.7-14.4,17.4c0,16.9,0,33.8,0,50.7c0,12.4,3.7,16.2,16.2,17.3c-2.1,2.5-1.8,5.5-1.8,8.5
		c0,46.9,0.2,93.7-0.2,140.6c0,7.8,2.7,9.2,9.7,9.2c54.3-0.2,108.6-0.1,162.9-0.1C538.1,969.7,538.1,970.1,537.8,970.4
		C537.8,970.4,537.8,970.4,537.8,970.4z"/>
	<path class="st8" d="M833.5,667.7c-14.3,0-28.6-0.2-42.8,0c-5.5,0-8-1.2-7.9-7.4c0.3-29.1,0.2-58.2,0-87.3c0-5.4,1.7-7.3,7.1-7.1
		c25.8,0.2,51.7,0,77.5,0.1c10.6,0,17,6.6,17.1,17.4c0.1,25.6,0,51.1,0.1,76.6c0,5.7-1.6,7.9-7.5,7.7
		C862.6,667.5,848.1,667.7,833.5,667.7z"/>
	<path class="st8" d="M782.9,746.7c0-14.3,0.2-28.6,0-42.8c-0.1-5.6,1.5-7.9,7.5-7.8c29.1,0.2,58.2,0.2,87.3,0c5.5,0,7.1,2,7.1,7.3
		c-0.2,25.8,0,51.7-0.1,77.5c0,10.2-6.5,16.9-16.7,16.9c-26.2,0.2-52.4,0-78.5,0.1c-5,0-6.8-1.8-6.7-6.8
		C783,776.6,782.9,761.6,782.9,746.7z"/>
	<path class="st9" d="M652.7,667.6c0-28.2,0-56.5,0-84.7c0-11.8,4.8-16.7,16.8-16.8c13.4-0.2,26.7,0,40.1,0v101.5l0,0L652.7,667.6z"
		/>
	<path class="st9" d="M709.6,797.8c-13,0-26.2,0.2-39.2,0c-13-0.2-17.7-4.8-17.7-17.8c0-27.9,0-55.8,0-83.7h57l0,0
		C709.6,730.1,709.6,764,709.6,797.8z"/>
	<path class="st8" d="M709.7,667.6V566.1c12.5,0,24.9,0,37.4-0.2c5.1-0.1,7.5,1.1,7.5,6.9c-0.2,29.4-0.2,58.7,0,88
		c0,5.7-2.4,7.1-7.4,6.9C734.6,667.5,722.1,667.7,709.7,667.6z"/>
	<path class="st8" d="M709.6,797.8c0-33.8,0-67.7,0.1-101.5c12.2,0,24.3,0.2,36.5-0.1c5.9-0.2,8.4,1.4,8.3,7.9
		c-0.3,28.7-0.2,57.5,0,86.3c0,5.7-1.5,8-7.5,7.8C734.5,797.7,722.1,798,709.6,797.8z"/>
	<path class="st10" d="M709.7,696.3h-57v-28.7h57V696.3z"/>
	<path class="st11" d="M367.1,811.2c-12.5-1.1-16.2-5-16.2-17.3c0-16.9,0-33.8,0-50.7c0-11.7,3-15.1,14.4-17.4
		c9.7,1.6,13.3,7.6,13.1,17c-0.2,17.2-0.2,34.5,0,51.7C378.5,802.7,375.7,808.8,367.1,811.2z"/>
	<path class="st12" d="M1315.3,219.7c0,278.4,0,556.8,0,835.2c-3,0.4-6-0.2-8.6-1.7c-10.3-7.7-20.3-6-30.4,0.6
		c-2.1,1.1-4.3,2-6.5,2.9c-16.9,8.4-34.9,14.6-50.9,25h-14.3c-0.1-1.8-1.2-3.4-2.9-4.1c-20.9-9.5-41.9-19.1-62.8-28.7
		c-4.5-1.8-9.5-1.5-13.6,1c-7.4,3.7-15.1,6.8-22.4,10.7c-14.1,7.4-29.5,11.9-42.8,21.1h-10.7c-1.1-1-2.3-1.8-3.5-2.6
		c-21.1-10-42.2-20-63.3-29.9c-5-2.4-9.5-1.5-14.4,0.7c-18.8,8.7-37.6,17.1-56.4,25.7c-2.8,1.3-6.5,1.8-6.9,6h-16.1
		c-0.5-1-0.8-2.6-1.6-3c-21.5-10.1-43-20.1-64.6-30c-3.9-1.6-8.3-1.4-12,0.7c-18.3,8.6-36.6,17-54.7,25.7
		c-13.5,6.4-16.9,4.4-16.9-10.3c0-280.7-0.1-561.4-0.2-842.1c0-30.2,27.1-54.8,54.8-54.7c159.7,0.2,319.3,0.2,479,0
		c2.1,2.4,5.3,2.5,8,3.5C1300.2,178.6,1315.3,199.3,1315.3,219.7z"/>
	<path class="st13" d="M1369.3,1067.3c0,13.5-3.7,15.6-16.2,9.6c-10.7-5.1-21.4-10.1-32.2-15.2c-2.6-1.3-5.7-2.1-7-5.2
		c0-278.4,0-556.8,0-835.2c0-20.5-15-41.1-34.8-48.3c-2.7-1-5.9-1.1-8-3.5c14.3,0,28.6,0.5,42.8,0c29.5-1.2,55.7,25.2,55.6,55.7
		C1369.1,505.9,1369,786.6,1369.3,1067.3z"/>
	<path class="st7" d="M939.3,295.1c-32.9,0-65.9,0-98.9,0c-6.5,0-12.5-0.9-15.9-7.5c-3.5-6.3-1.3-14.2,5-17.7
		c0.8-0.4,1.6-0.8,2.5-1.1c3.4-0.9,7-1.3,10.6-1.1c64.4,0,128.9,0,193.3,0c1.8,0,3.6,0,5.4,0c8.4,0.8,13.8,6,14,13.4
		c0.2,7.7-5.4,13.6-14.3,13.8c-14,0.4-27.9,0.1-41.9,0.1L939.3,295.1z"/>
	<path class="st7" d="M940,322.9c31.8,0,63.6,0,95.5,0c3.5-0.1,7.1,0.3,10.5,1.1c5.8,1.5,9.6,6.9,9.1,12.8
		c0.2,6.2-4.2,11.7-10.4,12.6c-3.2,0.6-6.5,0.8-9.8,0.7c-63.9,0-127.9,0-191.8,0c-3.3,0.1-6.5-0.1-9.8-0.7
		c-7.1-1.7-11.5-8.8-9.9-15.9c1-4.5,4.3-8.1,8.7-9.6c3.4-0.9,7-1.2,10.6-1.1C875.1,322.9,907.5,322.9,940,322.9z"/>
	<path class="st14" d="M1223,547.4c0,9.5,0,19,0.3,28.6c0.2,7-2.8,10.6-9.9,10.6c-23.2,0-46.3,0-69.5,0c-6.9,0-10.2-3.2-10.2-10.4
		c0.2-23.2,0.1-46.3,0-69.5c0-7.1,3.6-10.4,10.4-10.4c22.9,0,45.7,0,68.6,0c7.1,0,11.1,3.2,10.7,10.9c0,2.7,0.3,5.3,0.8,7.9
		c-10.2,5.4-20.5,10.7-30.6,16.1c-4.2,2.3-7.6,3-10.2-2.4c-1.3-2-2.9-3.8-4.8-5.3c-3.8-4-9.8-5-14.7-2.4c-5,2.4-6.9,6.4-7.1,12.2
		c-0.4,8.9,6.2,13.8,10.3,20.1c9.3,14.4,13.5,15.4,29.1,7.6L1223,547.4z"/>
	<path class="st14" d="M1222.9,720.4c0,9.5,0,19,0.4,28.6c0.2,6.8-3,10.2-9.5,10.3c-23.5,0.2-47,0.2-70.5,0c-6.4,0-9.7-3.5-9.7-10.1
		c0-23.5,0-47,0-70.5c0-6.9,3.7-9.7,10-9.7c23.2,0,46.4-0.1,69.6,0c9.1,0,10.3,2.5,9.8,17.5c-6.7,7.6-17.3,8.9-25,14.9
		c-6.4,5-12.1,6.6-16.7-2.9c-2.9-5.8-9.1-7.7-15.3-5.5c-6,1.6-10,7.4-9.2,13.6c0.7,10.3,8,16.9,13.5,24.4c6.7,9.1,12.2,9.7,22.4,4.6
		S1212,723.7,1222.9,720.4z"/>
	<path class="st15" d="M1223.3,891.9c0,9.5-0.3,19,0,28.6c0.2,7.4-2.6,11-10.4,10.9c-22.9-0.2-45.7-0.2-68.6,0
		c-7.6,0-10.7-3.1-10.6-10.7c0.2-22.6,0.2-45.1,0-67.7c0-7.9,3.1-11.3,11.1-11.2c20.5,0.2,41,0,61.5,0c17.2,0,17.2,0,16.9,17.6
		c-8.8,6.6-18.9,10.9-28.4,16.3c-5.6,3.2-9,3.1-12.7-2.9c-4.8-8.1-12.7-10.2-18.7-6.2c-7.1,4.9-8.9,13.9-3.8,21.8
		c3.5,5.5,7.1,10.9,11.1,16c5.6,7.4,11.5,8.6,20.2,4.2C1201.8,903.2,1212.5,897.5,1223.3,891.9z"/>
	<path class="st15" d="M1223.1,374.4c0,9.8,0,19.6,0,29.4c0,6.6-3,9.9-9.7,9.8c-23.5,0-46.9,0-70.4,0c-6.8,0-9.5-3.5-9.5-10
		c0.1-23.2,0.1-46.3,0-69.5c0-7.3,3.4-10.1,10.4-10c20.5,0.1,41,0,61.5,0c17.8,0,17.8,0,17.6,17.7c-6.3,5.7-14.9,7.3-21.5,12.1
		c-8.6,6.2-15.6,8.7-22.3-2.5c-3.4-5.7-9.8-4.6-15.3-2.8c-6.2,2-8.2,7-6.9,12.8c3,12.4,10.2,23.3,20.4,30.9
		c3.9,3.1,8.5,1.5,12.6-0.7C1201,385.8,1212.1,380,1223.1,374.4z"/>
	<path class="st7" d="M964.2,405.3c-24.7,0-49.4,0.1-74.1,0c-11,0-17-6.4-15.6-15.7c1.1-7.4,6.7-11.4,16.7-11.4
		c35.1,0,70.2,0,105.3,0c14,0,28,0,42,0c10.7,0,17.2,5.6,16.8,14.1c-0.3,8.5-6.4,12.9-16.9,13C1013.5,405.3,988.9,405.3,964.2,405.3
		z"/>
	<path class="st7" d="M1055.2,510.9c0.2,7.7-5.4,13.6-14.3,13.8c-14,0.4-27.9,0-41.9,0H840.4c-6.5,0-12.5-0.9-15.9-7.5
		c-3.5-6.3-1.3-14.2,5-17.7c0.8-0.4,1.6-0.8,2.5-1.1c3.4-0.9,7-1.3,10.6-1.1h193.3c1.7,0,3.4,0,5.1,0h0.3
		C1049.6,498.3,1055,503.5,1055.2,510.9z"/>
	<path class="st7" d="M1055.1,566.6c0.2,6.2-4.2,11.7-10.4,12.6c-3.2,0.6-6.5,0.8-9.8,0.7H843.1c-3.3,0.1-6.5-0.1-9.8-0.7
		c-5.9-0.9-10.2-6-10.2-11.9c0-0.5,0-1,0-1.4c-0.3-5.7,3.5-10.9,9.1-12.2c3.4-0.9,7-1.2,10.6-1.1c14.6,0,29.1,0,43.7,0h55.3
		c31.2,0,62.5,0,93.7,0c3.5-0.1,7.1,0.3,10.5,1.1C1051.8,555.2,1055.6,560.7,1055.1,566.6z"/>
	<path class="st7" d="M1055.2,813.9c0.2,7.7-5.4,13.6-14.3,13.8c-14,0.4-27.9,0.1-41.9,0.1h-59.8c-32.9,0-65.9,0-98.9,0
		c-6.5,0-12.5-0.9-15.9-7.5c-0.8-1.5-1.3-3.1-1.5-4.8c-0.9-6.3,2.9-12.3,8.9-14.1c3.5-0.9,7-1.2,10.6-1.1h193.3c1.8,0,3.6,0,5.4,0
		C1049.6,801.4,1055,806.6,1055.2,813.9z"/>
	<path class="st7" d="M1055.1,869.6c0.2,6.3-4.2,11.7-10.4,12.7c-3.2,0.5-6.5,0.8-9.8,0.6h-93.2c-32.9,0-65.7,0-98.6,0
		c-3.3,0.1-6.5-0.1-9.8-0.7c-7.1-1.7-11.5-8.8-9.9-15.9c1-4.5,4.3-8.1,8.7-9.6c3.4-0.9,7-1.2,10.6-1.1c32.4,0,64.8,0,97.3,0h1.8
		c31.2,0,62.5,0,93.7,0c3.5-0.1,7.1,0.3,10.5,1.1C1051.7,858.3,1055.6,863.7,1055.1,869.6z"/>
	<path class="st7" d="M940,617c31.8,0,63.6,0,95.5,0c3.5-0.1,7.1,0.3,10.5,1.1c5.8,1.4,9.6,6.8,9.1,12.8c0.2,6.3-4.2,11.7-10.4,12.7
		c-3.2,0.5-6.5,0.8-9.8,0.6c-63.9,0-127.9,0-191.8,0c-3.3,0.1-6.5-0.1-9.8-0.6c-7.1-1.6-11.6-8.7-9.9-15.9c1-4.5,4.4-8.2,8.8-9.6
		c3.5-0.9,7-1.2,10.6-1.1C875.1,616.9,907.5,616.9,940,617z"/>
	<path class="st7" d="M939.9,681.4c31.8,0,63.7,0,95.5,0c3.5-0.1,7.1,0.3,10.5,1.1c5.8,1.4,9.6,6.8,9.1,12.8
		c0.3,6.3-4.2,11.7-10.4,12.7c-3.2,0.6-6.5,0.8-9.7,0.7H843.1c-3.3,0.1-6.5-0.1-9.8-0.7c-7.1-1.7-11.5-8.8-9.9-15.9
		c1-4.5,4.3-8.1,8.7-9.6c3.4-0.9,7-1.2,10.6-1.1C875.1,681.4,907.5,681.4,939.9,681.4z"/>
	<path class="st16" d="M1223.1,374.4c-11,5.8-22.1,11.5-33.1,17.3c-4.1,2.2-8.7,3.8-12.6,0.7c-10.2-7.6-17.4-18.6-20.4-30.9
		c-1.3-5.8,0.7-10.8,6.9-12.8c5.5-1.8,11.9-3,15.3,2.8c6.7,11.3,13.8,8.7,22.3,2.5c6.7-4.8,15.3-6.4,21.5-12.1
		c7.4-3.7,14.8-7.3,22.2-10.9c9-4.4,16.5-2.4,20.4,5.2c3.9,7.6,1.2,13.9-7.7,19C1246.4,361.5,1234.8,367.8,1223.1,374.4z"/>
	<path class="st16" d="M1222.9,720.4c-10.9,3.4-20.1,10.1-30.1,15.1c-10,5-15.7,4.4-22.4-4.6c-5.5-7.4-12.8-14.1-13.5-24.4
		c-0.8-6.2,3.1-12,9.2-13.6c6.2-2.2,12.5-0.3,15.3,5.5c4.8,9.5,10.3,7.9,16.7,2.9c7.7-6,18.3-7.1,25-14.9c8.1-1.2,14.3-6.6,21.4-10
		c9.5-4.6,17.3-3,21.3,4.9c3.8,7.4,0.8,14.1-8.4,19.4C1246,707.5,1233.4,712.2,1222.9,720.4z"/>
	<path class="st16" d="M1223,547.4l-26.9,13.4c-15.6,7.8-19.8,6.9-29.1-7.6c-4-6.3-10.6-11.1-10.3-20.1c0.2-5.8,2.1-9.9,7.1-12.2
		c4.9-2.6,10.9-1.7,14.7,2.4c1.9,1.5,3.5,3.3,4.8,5.3c2.6,5.3,6,4.5,10.2,2.4c10.2-5.4,20.4-10.8,30.6-16.1
		c6.8-3.6,13.4-7.4,20.3-10.9c9.5-5,17.3-3.3,21.4,4.4s0.9,14.5-8.7,20C1245.6,534.8,1233.6,539.8,1223,547.4z"/>
	<path class="st16" d="M1223.3,891.9c-10.8,5.6-21.4,11.2-32.3,16.7c-8.8,4.4-14.6,3.3-20.2-4.2c-3.9-5.2-7.6-10.6-11.1-16
		c-5.1-7.9-3.5-16.9,3.8-21.8c6-4,13.8-1.9,18.7,6.2c3.6,6,7.1,6,12.7,2.9c9.5-5.4,19.5-9.7,28.4-16.3c8.1-1.5,14.3-6.9,21.4-10.4
		c9.1-4.4,16.7-2.9,20.9,4.4c4.2,7.3,1.4,14.8-7.7,19.8C1246.3,879.6,1234.8,885.7,1223.3,891.9z"/>
</g>
</svg>
