<svg xmlns="http://www.w3.org/2000/svg" xml:space="preserve" viewBox="0 0 504.2 292.1">
  <linearGradient id="SVGID_1_" x1="101.6004" x2="408.6064" y1="146.0517" y2="146.0517" gradientUnits="userSpaceOnUse">
    <stop offset="0" stop-color="#c39830"/>
    <stop offset=".12" stop-color="#b1872d"/>
    <stop offset=".31" stop-color="#f8f299"/>
    <stop offset=".41" stop-color="#e6d26f"/>
    <stop offset=".56" stop-color="#c39830"/>
    <stop offset=".59" stop-color="#cfab41"/>
    <stop offset=".65" stop-color="#e1c966"/>
    <stop offset=".7" stop-color="#efe07d"/>
    <stop offset=".75" stop-color="#f7ee8d"/>
    <stop offset=".79" stop-color="#f8f299"/>
    <stop offset=".88" stop-color="#b1872d"/>
    <stop offset="1" stop-color="#c39830"/>
  </linearGradient>
  <path fill="url(#SVGID_1_)" d="m329 181.8 11.3-9.7 39.1-34.6 29.2-25.8-23.5-2.2-34-2.8-46.5-4.6-8.2-5.4-32.9-77.3L253.7 0l-13.1 30.8-11.1 26-18 39.9-5.9 4.8-23.3 2.7-59.7 5.5-21 2.9 9.2 9.3 35.1 31.3 35.8 30.2.7 4.8-19.5 88.7-2.7 15 12.2-7.1 78.2-46 7.1-.4 63.1 37.8 27.3 15.8.2-5.1-21.8-96.2 2.5-8.9z"/>
  <path d="m57.6 218 8.3-36.7-1.7-5.4-61.8-54.2-2.4-2.6 19.2-3.1 41.2-4.3 18.9 8.1 30.2 26.6 25.3 21.9 22.3 20.3 2.9 9.5-7.8 34.1-4.9 1.1-16.8-9.9-9.9-.5-49.1 29.4L47 266.5 57.6 218zM457.2 266l-29.5-17.8-42.9-25.5h-9l-18.2 10.2-9-38.4.9-4 31.9-28.2 26.1-22.5 28.8-25.2 7.8-2.6 47 4.8 9.4.1 3.7 1.6-1.9 2.9-26.7 24L448 169l-6.3 23.7 15.5 68.2v5.1zM125.7 27.3l19 43.6 5.2 12.6-2.2 3.7-42.9 4.6-5.7-6.3 23.4-54.6 3.2-3.6zM404 90.7l-31.2-3.1-15.2-1.8-1.7-3.4 20.3-47 4.2-7.9 26.3 59.6-2.7 3.6z" class="st1"/>
</svg>
