<svg xmlns="http://www.w3.org/2000/svg" width="18.524" height="15.009" viewBox="0 0 18.524 15.009"><defs><style>.a{fill:#fff;}.b{fill:#002b7f;}.c{fill:#ce1126;}</style></defs><path class="a" d="M-14.287.009C-14.681.009-15-.8-15-1.807V-13.184c0-1,.319-1.816.713-1.816s.713.813.713,1.816V-1.807C-13.575-.8-13.894.009-14.287.009Z" transform="translate(16.425 15)"/><path class="b" d="M-34.15-29.5c-1.574,0-2.85-.641-2.85-1.431v-4.642c0-.79,1.276-1.431,2.85-1.431s2.85.641,2.85,1.431v4.642C-31.3-30.136-32.576-29.5-34.15-29.5Z" transform="translate(49.824 37)"/><path class="a" d="M-14.287.009C-14.681.009-15-1-15-2.243V-12.749c0-1.243.319-2.251.713-2.251s.713,1.008.713,2.251V-2.243C-13.575-1-13.894.009-14.287.009Z" transform="translate(19.275 15)"/><path class="c" d="M-14.287-7.5C-14.681-7.5-15-8-15-8.621v-5.253c0-.622.319-1.126.713-1.126s.713.5.713,1.126v5.253C-13.575-8-13.894-7.5-14.287-7.5Z" transform="translate(32.098 22.504)"/><path class="c" d="M-14.287-7.5C-14.681-7.5-15-8-15-8.621v-5.253c0-.622.319-1.126.713-1.126s.713.5.713,1.126v5.253C-13.575-8-13.894-7.5-14.287-7.5Z" transform="translate(29.249 22.504)"/><path class="a" d="M-14.287.009c-.394,0-.713-.492-.713-1.1V-13.9c0-.607.319-1.1.713-1.1s.713.492.713,1.1V-1.09C-13.575-.483-13.894.009-14.287.009Z" transform="translate(22.125 15)"/><path class="c" d="M-14.287.009c-.394,0-.713-.492-.713-1.1V-13.9c0-.607.319-1.1.713-1.1s.713.492.713,1.1V-1.09C-13.575-.483-13.894.009-14.287.009Z" transform="translate(20.699 15)"/><path class="a" d="M-14.287-7.5A.647.647,0,0,1-15-8.045v-6.406A.647.647,0,0,1-14.287-15a.647.647,0,0,1,.713.549v6.406A.647.647,0,0,1-14.287-7.5Z" transform="translate(27.824 22.504)"/><path class="a" d="M-14.287-7.5A.647.647,0,0,1-15-8.045v-6.406A.647.647,0,0,1-14.287-15a.647.647,0,0,1,.713.549v6.406A.647.647,0,0,1-14.287-7.5Z" transform="translate(30.674 22.504)"/><path class="a" d="M-14.287.009C-14.681.009-15-.629-15-1.416V-13.575c0-.787.319-1.425.713-1.425s.713.638.713,1.425V-1.416C-13.575-.629-13.894.009-14.287.009Z" transform="translate(24.974 15)"/><path class="c" d="M-14.287.009c-.394,0-.713-.492-.713-1.1V-13.9c0-.607.319-1.1.713-1.1s.713.492.713,1.1V-1.09C-13.575-.483-13.894.009-14.287.009Z" transform="translate(17.85 15)"/><path class="c" d="M-14.287.009c-.394,0-.713-.492-.713-1.1V-13.9c0-.607.319-1.1.713-1.1s.713.492.713,1.1V-1.09C-13.575-.483-13.894.009-14.287.009Z" transform="translate(15 15)"/><path class="c" d="M-14.287.009c-.394,0-.713-.492-.713-1.1V-13.9c0-.607.319-1.1.713-1.1s.713.492.713,1.1V-1.09C-13.575-.483-13.894.009-14.287.009Z" transform="translate(26.399 15)"/><path class="c" d="M-14.287.009c-.394,0-.713-.492-.713-1.1V-13.9c0-.607.319-1.1.713-1.1s.713.492.713,1.1V-1.09C-13.575-.483-13.894.009-14.287.009Z" transform="translate(23.55 15)"/></svg>