<svg xmlns="http://www.w3.org/2000/svg" width="18.428" height="15.009" viewBox="0 0 18.428 15.009"><defs><style>.a{fill:#002b7f;}.b{fill:#ce1126;}.c{fill:#fff;}</style></defs><g transform="translate(0 0)"><path class="a" d="M-13.575.009A1.656,1.656,0,0,1-15-1.807V-13.184A1.656,1.656,0,0,1-13.575-15a1.656,1.656,0,0,1,1.425,1.816V-1.807A1.656,1.656,0,0,1-13.575.009Z" transform="translate(15 15)"/><path class="b" d="M-33.485-21.991c-1.941,0-3.515-1.282-3.515-2.862v-9.284C-37-35.718-35.426-37-33.485-37s3.515,1.282,3.515,2.862v9.284C-29.971-23.273-31.544-21.991-33.485-21.991Z" transform="translate(42.699 37)"/><path class="c" d="M-13.575.009C-14.362.009-15-1-15-2.243V-12.749c0-1.243.638-2.251,1.425-2.251s1.425,1.008,1.425,2.251V-2.243C-12.15-1-12.788.009-13.575.009Z" transform="translate(17.85 15)"/><path class="c" d="M-13.575.009A1.294,1.294,0,0,1-15-1.09V-13.9A1.294,1.294,0,0,1-13.575-15a1.294,1.294,0,0,1,1.425,1.1V-1.09A1.294,1.294,0,0,1-13.575.009Z" transform="translate(27.729 15)"/><path class="a" d="M-13.575.009A1.425,1.425,0,0,1-15-1.416V-13.575A1.425,1.425,0,0,1-13.575-15a1.425,1.425,0,0,1,1.425,1.425V-1.416A1.425,1.425,0,0,1-13.575.009Z" transform="translate(30.579 15)"/></g></svg>