<?xml version="1.0" encoding="utf-8"?>
<!-- Generator: Adobe Illustrator 22.1.0, SVG Export Plug-In . SVG Version: 6.00 Build 0)  -->
<svg version="1.1" id="Layer_1" xmlns="http://www.w3.org/2000/svg" xmlns:xlink="http://www.w3.org/1999/xlink" x="0px" y="0px"
	 viewBox="0 0 35.4 44.4" style="enable-background:new 0 0 35.4 44.4;" xml:space="preserve">
<style type="text/css">
	.st0{fill:url(#SVGID_1_);}
</style>
<g>
	
		<linearGradient id="SVGID_1_" gradientUnits="userSpaceOnUse" x1="1.0446" y1="28.65" x2="34.3894" y2="28.65" gradientTransform="matrix(1 0 0 -1 0 46)">
		<stop  offset="0" style="stop-color:#C4992F"/>
		<stop  offset="0.12" style="stop-color:#B1872D"/>
		<stop  offset="0.31" style="stop-color:#F9F396"/>
		<stop  offset="0.41" style="stop-color:#E6D16E"/>
		<stop  offset="0.56" style="stop-color:#C4992F"/>
		<stop  offset="0.59" style="stop-color:#CEAB41"/>
		<stop  offset="0.65" style="stop-color:#E1C966"/>
		<stop  offset="0.7" style="stop-color:#EFE07E"/>
		<stop  offset="0.75" style="stop-color:#F7EE8E"/>
		<stop  offset="0.79" style="stop-color:#F9F396"/>
		<stop  offset="0.88" style="stop-color:#B1872D"/>
		<stop  offset="1" style="stop-color:#C4992F"/>
	</linearGradient>
	<path class="st0" d="M34.4,17.4C34.4,25.9,28,33,19.7,34c-0.2-1.2-0.2-2.4,0.4-3.4c0.2-0.3,0.4-0.2,0.5-0.5s0-0.9,0-1.3
		c0-0.8-0.3-2.1,0-2.8c0.4-1,2.2-0.1,2.9,0.2c1,0.4,3.6,1.8,4.5,0.7c1.1-1.3-0.9-2.4-1.8-2.8c-2.4-1.5-4.2-3.4-5.7-5.9
		c-0.5-0.8-1.5-2-1.2-3.1c0.6-1.7,2-0.2,2.6,0.6c1.6-2.4,3.9-4.2,6.6-5.3c-0.9-1.7-2.8-1.5-4.2-0.7c-0.9,0.5-1.6,1-2.4,1.6
		c-0.6,0.4-1.3,1.1-2,1c-1.6-0.2-1.7-2.4-0.2-2.9c0.9-0.3,0.9-0.1,1.1-1.1C21,7.5,21.6,7,22.4,7c-0.3-0.5-0.7-1-1-1.5
		c-1.9,1.7-5.6,1.8-7.4,0c-0.3,0.5-0.7,1-1,1.5c0.8,0,1.4,0.5,1.6,1.3c0.2,0.8,0.1,0.7,0.9,1c0.7,0.2,1.3,0.6,1.3,1.5
		c0,0.7-0.6,1.4-1.3,1.4c-1.4,0.1-3-1.9-4.2-2.5c-1.5-0.9-3.5-1.3-4.5,0.5c2.6,1.1,5,2.9,6.6,5.3c0.4-0.5,1-1.5,1.7-1.3
		c0.7,0.1,1,0.9,0.9,1.6c-0.2,1.3-1.6,3.2-2.4,4.2c-1,1.3-2.3,2.4-3.6,3.4c-1,0.7-3,1.2-2.9,2.7c0.2,3.1,6-1.3,7.3-0.7
		c1,0.4,0.2,3.3,0.4,4.3c0.1,0.5,0,0.1,0.3,0.5s0.6,0.6,0.8,1.2c0.2,0.8,0.2,1.7,0.1,2.6C7.6,33,1,26,1,17.4C1,8.2,8.5,0.7,17.7,0.7
		S34.4,8.2,34.4,17.4z"/>
	<path d="M26.3,24c-2.4-1.5-4.2-3.4-5.7-5.9c-0.5-0.8-1.5-2-1.2-3.1c0.6-1.7,2-0.2,2.6,0.6c1.6-2.4,3.9-4.2,6.6-5.3
		c-0.9-1.7-2.8-1.5-4.2-0.7c-0.9,0.5-1.6,1-2.4,1.6c-0.6,0.4-1.3,1.1-2,1c-1.6-0.2-1.7-2.4-0.2-2.9c0.9-0.3,0.9-0.1,1.1-1.1
		c0.2-0.8,0.8-1.3,1.6-1.3c-0.3-0.5-0.7-1-1-1.5c-1.9,1.7-5.6,1.8-7.4,0c-0.3,0.5-0.7,1-1,1.5c0.8,0,1.4,0.5,1.6,1.3
		c0.2,0.8,0.1,0.7,0.9,1c0.7,0.2,1.3,0.6,1.3,1.5c0,0.7-0.6,1.4-1.3,1.4c-1.4,0.1-3-1.9-4.2-2.5c-1.5-0.9-3.5-1.3-4.5,0.5
		c2.6,1.1,5,2.9,6.6,5.3c0.4-0.5,1-1.5,1.7-1.3c0.7,0.1,1,0.9,0.9,1.6c-0.2,1.3-1.6,3.2-2.4,4.2c-1,1.3-2.3,2.4-3.6,3.4
		c-1,0.7-3,1.2-2.9,2.7c0.2,3.1,6-1.3,7.3-0.7c1,0.4,0.2,3.3,0.4,4.3c0.1,0.5,0,0.1,0.3,0.5s0.6,0.6,0.8,1.2
		c0.2,0.8,0.2,1.7,0.1,2.6c-0.1,0.8-0.3,1.6-0.4,2.3c-0.4,2.2-1.4,7.7,2.5,7.4c4.2-0.3,2.2-6.6,1.9-8.9c0-0.3-0.1-0.5-0.1-0.8
		c-0.2-1.2-0.2-2.4,0.4-3.4c0.2-0.3,0.4-0.2,0.5-0.5s0-0.9,0-1.3c0-0.8-0.3-2.1,0-2.8c0.4-1,2.2-0.1,2.9,0.2c1,0.4,3.6,1.8,4.5,0.7
		C29.2,25.5,27.2,24.4,26.3,24z M17.8,42.5c-1.9,0-1.9-3.9,0-3.9C19.6,38.6,19.7,42.5,17.8,42.5z"/>
</g>
<title>logo</title>
</svg>
