<svg xmlns="http://www.w3.org/2000/svg" xml:space="preserve" style="enable-background:new 0 0 152.2 382.9" viewBox="0 0 152.2 382.9"><style>.st1{fill:#babbd3}.st2{fill:#002b7f}.st3{fill:#375da7}.st6{fill:#ce1126}.st7{fill:#fff}.st8{fill:#e58966}</style><g id="Ohters"><path d="M149.4 59.8c.2-.4-6.9-4.1-13.8-7.6-.1 0-.1-.1-.2-.1-3.9-2.1-7.8-4.1-11.9-6-3-1.4-9.5-5.8-15-7-.3-.1-.7-.2-1-.2-.2 0-.4 0-.6-.1-2.8-.4-5.2.4-6.4 3.1-1.7-1.6-7.9-10.3-10.1-6.2-.6 1.2.7 5 1.6 6.1 1.7 2.3 5.7 3.6 8.1 4.8 8.1 4.1 21.9 8.1 17.6 19.9-2.2 6.1-5.4 11.4-7.2 17.6-1.5 5-2.9 9.9-4.4 14.8l-.1-.1c-1.6-1.6-3.5-3.7-5.1-5.5l-.8-.8h-.2c-.2 0-.5 0-.7.2.1-.2.2-.4.3-.5.1-.2.1-.3.2-.4.3-1.2.3-2.5 0-3.8.7-1.4 2.2-2.4 3.3-4.1 3-4.6 5.3-10 7.7-15 1.6-3.4 3.9-6.3 1.3-9.7-5.8-7.7-19.3-7.1-25.2-14.8-4.8-6.3-.9-15.3 6.8-16.3 3.3-.4 3.9.1 6.4-1.9 2-1.6-.5-1.2 2.5-1.8 1.9-.4 3.5.6 5.2 1.4 10.5 4.9 20.7 10.6 31 15.9 6.3 3.4 19.5 9.1 10.7 18.1z" style="fill:#f0e8e6"/><path d="M149.5 59.9c-4.7 6.8-16.4-1.9-21.5-4.4-9.2-4.5-18.2-9.1-27.3-13.6 1.2-2.6 3.5-3.4 6.3-3.1.2 0 .4 0 .6.1.3.1.7.1 1 .2 5.5 1.3 12 5.6 15 7 4 1.9 8 3.9 11.9 6 .1 0 .1 0 .2.1 6.8 3.5 13.9 7.3 13.8 7.7zM92.2 371.2c-11.9 8-25.9 11.1-40.1 11.6-6.9.2-13.9.1-20.7-.7-3.3-.3-6.7-1.3-10-1-1.8.2-3.9 1.6-5.4 1.7-.9 0-1.7-.9-2.4-1h.1c1.3-.2 3.1-1.6 4.4-3.1l.1-.1c.3-.3.6-.7.9-1 0 0 0-.1.1-.1v-.1c.1-.2.2-.3.3-.5-1.2-.6-2-1.6-2.5-2.7 0-.1-.1-.2-.1-.3-.1-.4-.2-.9-.3-1.4-.2-1.9.9-5 .3-6.2.2-1.1.5-2.2.7-3.1.4-2 .9-3.3.8-4.1.1-1.3-.7-1.3-3.5-1.3h-.6l.3-.3c1.7-1.5 4.2-3 5.5-4.9.2-.1.3-.2.5-.2 2.6-.9 6.6-.3 9.2-.4 7-.3 14.1-.7 21.2-1-.7 2.7-1.2 5.5-.4 7v.1c-.1 1.5-.4 2.9-.5 4.2v.4c0 1.1.2 2.2 1.1 3.1.9 1 2.6 1.4 4.3 1.6h.1c2.9.6 6 .6 9.1.5h.1c6 .3 11.8.6 17.8 1.6.2 0 .4.1.5.1 3.4.5 6.2 1.1 9.1 1.6z" class="st1"/></g><g id="Blues"><path d="M106.1 102c-.1.9-.4 1.7-1.1 2.2-2.7 1.8-9.7 1.5-12.9 1.3h-.5c-.5 0-1-.1-1.5-.1-.4 0-.8-.1-1.2-.2l-1.2-.3-1.2-.3-.9-.3c-.5-.2-1-.3-1.5-.5-2.1-.9-2.6-1.5-4.5-1.4-.8 0-1.8.5-2.7.9-.2.1-.3.2-.5.3-.1 0-.2.1-.3.1-.2.1-.3.2-.5.2h-.1c-.2.1-.3.2-.5.2-.2.1-.5.2-.7.3-1.6.7-3.2 1.4-4.9 1.9 0-.2-.1-.4-.3-.5-.7-.4-2.5-.4-4.8-.2-1.4 0-2.6.1-4.1.3-.6.1-1.4.4-2.4.7-2.7.5-4.9 1-5.6 1.2 0 0 .1 0 .1.1H52c-.1 0-.2 0-.3-.1-.2-.1-.4-.2-.5-.3-.2-.1-.4-.2-.5-.4-.2-.1-.3-.3-.5-.5l-.3-.3c-.2-.2-.3-.4-.5-.6 0-.1-.1-.1-.1-.2-.1-.2-.3-.3-.4-.5-.3-.4-.6-.8-.8-1.2l-.1-.1c-.4-.7-.8-1.3-1.1-1.7-2.4-3.8-4.1-8.2-6.2-12.2-.3-.5-.5-1-.6-1.3-.4-.9-.6-.9-1.7-1.3l-.9-.3c-3.9-1.5-9.1-2.2-13.3-2.8-2.7-.4-5.5-.5-7.8 1.1-3.1 2.1-3.2 5.8-4.9 8.8 0 .1-.1.2-.2.3-1.6-5.9.7-12.4 6.2-15.2 3.9-2 14.3-1.2 15.8-6.4.1-.2.1-.4.1-.5 1.4 2.5 3.8 4.6 5.9 6.4 1.6 1.4 2.6 1.9 4.7 3 2.9 1.5 4.5 3.5 7 5.5 5.3 4.3 10.6 4.1 17 3.3 3.9-.5 6.8.4 10.5 1 2.2.3 2.5.7 3.8-1.8.6-1.3.9-2.6.8-4-.3-3.2-5.3-8.9-3.1-12 .4-.5 1-1 2-1.3 4.5-1.6 11.5 5.2 13.8 8.5 1.4 1.9 3.1 4.6 3.7 7.3.3 1.3.4 2.6 0 3.8 0 .2-.1.3-.2.4-.1.2-.2.4-.3.5-1.7.7-3.9 3.9-5.2 5.3 2.7.5 5.8 1.5 8.5 1.4.8 0 3.5-.4 3.7-.4.3.4.2 2 .1 2.9zM59.6 2.3c-.3.5-.7 1.1-1 1.6-.7 1.1-1.4 2.2-2.1 3.2-1.4 2.2-2.8 4.5-4.3 6.7-.5.5-1 1-1.5 1.4-.5.5-1.1 1-1.7 1.4.1-.1.2-.2.3-.2-.4.3-.8.5-1.2.8-1.7 1.3-3.2 2.7-4.9 4-.6.4-1.2.9-1.7 1.3-1.9 1.1-5.7 2.9-6.2 4.2-.2.5-.2 1-.2 1.2-.2.5-.4 1.1-.4 1.8-.1 1.1.7 2 .1 3-.6.5-1.3.1-1.9 0-.7-1.2-1.1-3.5-1-4.1-.4-.3-.6-.6-.7-.8-.1-.3 0-.6.5-.7.4-.3.9-.5 1.3-.7.2-.3.4-.4.6-.6.6-.9 1-2 1.4-2.9.2-.4.3-.8.4-1 0-.1.1-.2.1-.3l.1-.1c.8-1.3 2-2.5 3.3-3.5.5-.4 1.1-.8 1.7-1.2 1.1-.8 2.3-1.5 3.2-2.2 4-3 7.9-6.1 11.8-9.1 1.3-1.2 2.6-2.2 4-3.2z" class="st2"/><path d="M50.2 15.9s-.1 0 0 0c-.1.1-.1.1 0 0-.3.2-.6.4-.9.5.3-.2.6-.4.9-.5zM4.7 354.4c.2.3.6.4 1 .5-.3-.2-.7-.4-1-.5zm1.6.7c1.6 1.3 4.2 2 6.1 2.9-2.1-1-4.1-1.9-6.1-2.9zm26.1-231.5-.3-.3c.1 0 .2.2.3.3.5.6 1.1 1.2 1.7 1.7-.5-.6-1.1-1.2-1.7-1.7z" class="st2"/><path d="M51.9 168.3v-1.9c0-.6 0-1.3-.1-1.9 0-.6-.1-1.3-.1-1.9 0-.7-.1-1.4-.1-2 0-.6-.1-1.2-.2-1.7-.1-1.3-.3-2.5-.4-3.8v-.5c-.4-3.2-.5-6.4-1.3-9.4 0-1.3-.5-2.7-1.3-4.1-.1-.1-.2-.2-.3-.2l-.3-.3c-.1-.1-.3-.2-.4-.3-2.6-2.2-4.8-5.7-6.7-8-.8-1-1.6-1.9-2.4-2.8l-.1-.1c-.3-.3-.6-.7-.9-1l-2.7-3c0-.1-.1-.1-.2-.2l-.1-.1c-.6-.5-1.2-1.1-1.7-1.7-.1-.1-.2-.2-.3-.4-5.2-5.2-10.8-9.9-16.2-15-.1.3-.2.7-.3 1-1.7 8.2 5.3 16.9 8.2 24.2 1.6 4 2.7 8.2 3 12.6.3 5-1.3 9.5-2.3 14.4-2.1 9.9-2.3 20.5-2.9 30.6-.7 10.4-1.3 20.9-1.2 31.3.2 10.1.9 20.3-.6 30.3s-5.5 19-9.1 28.3c-1.8 4.6-3.7 9-4 14-.3 5.2.1 10.7.3 15.9.2 6.6.2 12.9 1.6 19.3.3 1.2 1.6 4.3 1.2 5.5-.5 1.7-3.4 2.6-4.4 3.9-1.5 2-1.3 3.4-1.2 6 0 1.5-.4 7.6.5 8.8.3.2.7.3 1 .5.2.1.4.2.5.3 2 1 4 1.9 6.1 2.9-.5.1-1 .2-1.4.3-.5.1-.9.2-1.4.3h-.1c-.2 0-.4.1-.6.1 2.8.5 5.6 1.1 8.4 1.6-.6 1.2-1.7 2.3-3.1 2 3.1 4.6 3.2 2.3 4.2-1.3.3-1 .5-1.7.5-2.2.1-1.3-.7-1.3-3.5-1.3h-.6l.3-.3c1.7-1.5 4.2-3 5.5-4.9.1-.2.3-.4.4-.6.7-1.3 2.2-6.7 1.8-8.1-1.2.5-3.5 1-5.6.9-.4 0-.8-.1-1.2-.1-1.1-.2-2-.6-2.5-1.4-1.2-2 1-4.1 1-5.9v-.1c0-.1 0-.2-.1-.3-.2-.7-1.2-.9-1.5-1.5-1.4-.4-1.6-1.2-.6-2.3v-.3c.1-1.4.8-2.9 1.2-4.4.5-3.1.3-6.2 1.2-9.1.7-2.2 1.8-3.8 2.7-5.6v-.1c.3-.9.6-1.8.9-2.8.1-.3.1-.6.1-.9.5-4.2.9-8.4 1.3-12.6.4-3.7.1-8.4 1.1-12.1.1-1.1.2-2.1.7-2.6 1-1.2 2.6-1.1 3.7-2.6.1-.1.1-.2.2-.3.1-.1.1-.3.2-.4.9-2.2.8-5 1.3-7.3 1.1-4.6 2.4-9.1 3.8-13.7 2.5-8.7 5.3-17.4 8.2-26 2-5.8 3.9-11.7 5.5-17.7v-.1c3-10.5 5.3-21.3 6.7-32 .1-.8.2-1.5.3-2.3v-.2c0-.5.1-1.1.1-1.6v-.2l.3-4.2v-5.3zm-5.8 7.6c-.3.9-.6 1.9-.9 2.9V179.1c-.7 2.4-1.5 4.7-2.7 6.8-2.3 3.9-5.6 3.6-9.8 3-1.8-.3-3.7-.8-5.2-1.9-2-1.5-2.8-3.6-2.7-6.6.1-2.6.1-6.6.9-9.8.1-.2.1-.4.2-.6v-.2c.2-.7.5-1.3.7-1.8 0 0 0-.1.1-.1 0 0 0-.1.1-.1l.1-.1c0-.1.1-.2.2-.3 1.4-1.8 4.4-2.7 7.6-2.8 3.8 0 7.8 1 9.4 2.7l.3.3c0 .1.1.1.2.2.9 1.4 1.2 3.3 1.8 4.9.1 1.2 0 2.3-.3 3.2zM73.1 343.5s-.4.2-1 .3h-.2.2c-.9.2-2.2.5-3.4.8-1.1.3-2.1.5-2.5.5-4.3.6-8.8.5-13.2.7 0-3.3-1.1-5.7-2-8.9-1.5-4.9.1-8.2.4-13 .4-5.7-.6-11.7-1-17.4-.5-5.6-2.1-12-2-17.5.3-11.4 4.3-22.9 5.2-34.2.6-7.4 2.7-15.3-6.4-17.2.1-.3.2-.5.3-.7v-.1c2.4-4.7 5-8.7 6.7-13.8 1-3 1.9-6 2.8-9 .2-.5.3-.9.5-1.4.2-.7.5-1.4.7-2.1.9-2.4 1.7-5.9 3.3-8.5.1-.1.2-.3.2-.4 1-1.9 2.4-3.3 4.2-3.4 1.9-.1 3.1 1 3.8 2.5.4.5.7 1.1.9 1.7 1.7 4.4 1.6 11.2 2 15.9 0 .3 0 .6.1.9 0 .5.1 1.1.1 1.6 0 .8.1 1.6.1 2.4v2.7c0 11.1-2.2 22-4.9 32.9 0 .1 0 .2-.1.3-2.4 9.8-5.2 19.6-7.2 29.3-1.4 6.9-1.8 13.6-1.5 20.5 0 .8.1 1.5.1 2.3v.6c0 .2 0 .5.1.7v.2c0 .6.1 1.3.2 1.9.3 2.8.6 5.6 1 8.4 0 .3.1.7.1 1.2.1.9.3 1.8.4 2.7.1.9.2 1.7.3 2.2.3.6.4.9.6 1.2.4.3 1 .4 2.1.3h.5c5.2-.2 6.5-5 8.6 1 1.4 4.1 2.5 8.2-.1 11.9zM72.1 343.8c-.1 0-.1 0 0 0h-.2.2z" class="st2"/><path d="M46.1 175.9c-.3.9-.6 1.9-.9 2.9V179.1c-.7 2.4-1.5 4.7-2.7 6.8-2.3 3.9-5.6 3.6-9.8 3-1.8-.3-3.7-.8-5.2-1.9-2-1.5-2.8-3.6-2.7-6.6.1-2.6.1-6.6.9-9.8.1-.2.1-.4.2-.6v-.2c.2-.7.5-1.3.7-1.8 0 0 0-.1.1-.1 0 0 0-.1.1-.1l.1-.1c0-.1.1-.2.2-.3 1.4-1.8 4.4-2.7 7.6-2.8 3.8 0 7.8 1 9.4 2.7l.3.3c0 .1.1.1.2.2.9 1.4 1.2 3.3 1.8 4.9.1 1.2 0 2.3-.3 3.2z" class="st3"/><path d="M89.2 202.4c-.4-6.5-2.4-12.6-3.1-19-1.2-10.3-2.2-20.6-3.3-30.9-.2-1.5.1-7.9-.9-8.8-.1-.1-.4-.2-.7-.2-.5.1-.9.1-1.4-.1-.5 0-.9-.2-1.2-.5-.9-1-1-2.5-1-3.9v-2c0-.3.1-.7.1-1 0-.2.1-.4.1-.6.1-.6.3-1.1.6-1.7.1-.2.2-.3.2-.5.1-.2.3-.5.4-.7.1-.2.3-.5.4-.7 2.1-3.3 5.7-5.9 8.7-8.4.3-.2.5-.4.8-.7-.2-.2-.5-.4-.7-.6-2.1-.8-5-3.1-6.7-4.1-1 .1-2 .3-3 .5-1 .3-1.6.5-2 .7-.2.3-.3.6-.3 1.1.4.6 1.5 1.3 2.3 2.4 2.1 2.7 2.4 5.3 1.6 7.5-.2.5-.4 1.1-.7 1.7-2.7 4.9-8.2 6.6-13.4 8.1-5 2-10.8 4-15.7 2.4-.1-.1-.3-.1-.4-.2-.1 0-.2-.1-.4-.2s-.4-.2-.5-.3c-.2-.1-.5-.3-.7-.4.8 1.4 1.3 2.8 1.3 4.1.8 3 1 6.2 1.3 9.4v.5c.2 1.3.3 2.5.4 3.8.1.6.1 1.1.2 1.7.1.7.1 1.4.1 2 0 .6.1 1.3.1 1.9 0 .6.1 1.3.1 1.9v7.3c0 1.4-.1 2.8-.3 4.2v.2c0 .5-.1 1.1-.1 1.6v.2c-.1.8-.2 1.5-.3 2.3-1.4 10.7-3.8 21.5-6.7 32v.1c-1.7 6-3.5 12-5.5 17.7-3 8.6-5.7 17.3-8.2 26-1.3 4.5-2.7 9.1-3.8 13.7-.5 2.2-.4 5.1-1.3 7.3-.1.1-.1.3-.2.4-.1.1-.1.2-.2.3-1 1.5-2.7 1.4-3.7 2.6-.4.5-.6 1.6-.7 2.6-1 3.7-.7 8.4-1.1 12.1-.4 4.2-.9 8.4-1.3 12.6 0 .3-.1.6-.1.9-.3 1-.6 1.9-.9 2.8v.1c-.8 1.8-1.9 3.4-2.7 5.6-.9 2.9-.7 6-1.2 9.1-.5 1.5-1.1 3-1.2 4.4v.3c-1 1.1-.8 1.9.6 2.3.2.6 1.3.8 1.5 1.5 0 .1.1.2.1.3v.1c0 1.8-2.3 3.9-1 5.9.5.8 1.4 1.2 2.5 1.4.4.1.8.1 1.2.1 2.1.1 4.4-.4 5.6-.9-2.5-4.4-1.4-8.9 0-13.4 1.6-5.3 2.7-10.8 3.8-16.2 2.4-11.4 4.5-23.1 8.8-34 4.1-10.4 8.1-20.1 9.9-31.2.5-3.5.7-8.1 2-11.2.1-.3.2-.5.3-.7v-.1c2.4-4.7 5-8.7 6.7-13.8 1-3 1.9-6 2.8-9 .2-.5.3-.9.5-1.4.2-.7.5-1.4.7-2.1.9-2.4 1.7-5.9 3.3-8.5.1-.1.2-.3.2-.4 1-1.9 2.4-3.3 4.2-3.4 1.9-.1 3.1 1 3.8 2.5.4.5.7 1.1.9 1.7 1.7 4.4 1.6 11.2 2 15.9 0 .3 0 .6.1.9 0 .5.1 1.1.1 1.6 0 .8.1 1.6.1 2.4V225.9c0 11.1-2.2 22-4.9 32.9 0 .1 0 .2-.1.3-2.4 9.8-5.2 19.6-7.2 29.3-1.4 6.9-1.8 13.6-1.5 20.5 0 .8.1 1.5.1 2.3 0 .4.1.9.1 1.3v.2c0 .6.1 1.3.2 1.9.3 2.8.6 5.6 1 8.4 0 .3.1.7.1 1.2.1.9.3 1.8.4 2.7.1.9.2 1.7.3 2.2.3.6.4.9.6 1.2.4.3 1 .4 2.1.3h.5c1.2-.2 6.9-2.8 7.4-2.3.5-11.9-.4-25.1 2-36.8 2.4-11.9 5.5-23.7 8.2-35.6 2.7-11.7 5.8-23 6.7-35 .3-6 .5-12.3.2-18.5zM81 164.6c-.5 7.9-7.1 13.5-14.9 11.9-9.5-2-8.3-10.3-8.5-18-.1-2.1-1-6.3.9-8.1 2.3-2.1 8 .2 11-.3s7.7-2 9.9 1c2 2.6 1.8 10.4 1.6 13.5z" style="fill:#214a9a"/><path d="M81 164.6c-.5 7.9-7.1 13.5-14.9 11.9-9.5-2-8.3-10.3-8.5-18-.1-2.1-1-6.3.9-8.1 2.3-2.1 8 .2 11-.3s7.7-2 9.9 1c2 2.6 1.8 10.4 1.6 13.5z" class="st3"/><path d="M72.2 115.6c-.8.9-2.9 1.4-5 1.6.1 0 .2-.1.3-.2-.1-.1-.2-.1-.3-.2-3.2-2.2-6.3-4.7-9.7-6.6-1-.5-2-.9-3.1-1.3-.4-.1-.8-.3-1.1-.4h-.1c-.3-.1-.6-.3-.9-.5 0 0-.1 0-.1-.1.6-.1 2.9-.7 5.6-1.2 1-.3 1.8-.6 2.4-.7 1.5-.2 2.7-.4 4.1-.3 2.2-.2 4-.3 4.8.2.2.1.3.3.3.5.1.2.1.4.2.6 1.5 2.5 4.9 6.1 2.6 8.6z" class="st1"/><path d="M67.6 117s-.1 0 0 0c-.1 0-.1 0 0 0-.1 0-.1 0 0 0-.2.1-.2.2-.3.2-1.7.1-3.3.1-4.2-.1-2.7-.6-2.5-2.2-4.3-3.5-.4-.3-.8-.4-1.1-.4-.8 0-1.4.4-2.4-.1-.2-.1-.3-.2-.5-.3l-.3-.3c-.5-.7-.8-1.7-.6-2.5.1-.4.2-.7.5-1l.1-.1c-.4-.1-.7-.3-1-.4.4.1.8.3 1.1.4 1 .4 2.1.8 3.1 1.3 3.4 1.9 6.5 4.4 9.7 6.6l.2.2z" style="fill:#395590"/><path d="M94.5 124.2c-.8.8-1.5 1.6-2.3 2.4-1.1-1.7-2.1-3-3.2-4-.2-.2-.5-.4-.7-.6-2.1-.8-5-3.1-6.7-4.1.6-.1 1.3-.1 1.9-.1 3.2.3 6.1 1.2 8.4 3.2.6.7 1.2 1.5 1.9 2.2.3.3.5.7.7 1z" class="st1"/></g><g id="Reds"><path d="M41.9 15.4c-.2.5-1 .9-1.4 1.3-.6.4-1.1.8-1.7 1.2-1.3 1-2.6 2.2-3.3 3.5 0 0 0 .1-.1.1 0 .1-.1.2-.1.3-.1.3-.3.6-.4 1-.4.9-.8 2-1.4 2.9-.2.2-.4.3-.6.6-.4.2-.9.5-1.3.7-.4.1-.6.4-.5.7-.6.1-1.3-.1-2.1-.6-4-2.8.2-15.1 1.9-18 .8-1.3 2.3-2.5 4.1-3.3 3.6-1.7 7.9-1.6 6.5 3.4-.5 2.1 1 4.6.4 6.2zM51 3.8c-2.6 2.6-3.4 3.7-6.3 1.5l3-3.6.1-.1 1.8 1.2c.4.3.9.7 1.4 1z" class="st6"/></g><g id="Whites"><path d="m48.1 103.8-.6-.6c-1.1 4.4-.8 4-4.6 5.3-2.3.8-4.4 2.1-6.2 3.9-1.8 1.7-6 6.7-5.5 9.4.1.4.4.9.9 1.5-5.2-5.2-10.8-9.9-16.2-15-.1.3-.2.7-.3 1-2.3-4.6-3.9-10.2-3.9-15.2 1.7-3 1.8-6.6 4.9-8.8 2.3-1.6 5.1-1.5 7.8-1.1 4.2.6 9.4 1.3 13.3 2.8.4.1.7.3.9.3 1.1.4 1.2.5 1.7 1.3.2.3.3.7.6 1.3 2 4 3.8 8.4 6.2 12.2.2.4.6 1 1 1.7zM82.4 89.5c-1.3 2.5-1.6 2.2-3.8 1.8-3.8-.6-6.6-1.4-10.5-1-6.4.8-11.7 1-17-3.3-2.5-2-4.1-4-7-5.5-2.1-1-3-1.5-4.7-3-2.1-1.9-4.4-4-5.9-6.4C34.8 66.9 39 64 40.1 60c.5 1.7 1.3 2.9 3.3 4.9 2.6 2.4 5.5 4.4 8.8 5.8 2.5 1.1 7.6 3.5 10.2 1.6 1.9-1.4 1.6-3.1 1-4.8 4.1 3 8.7 1.8 16.7 6-2.2 3 2.9 8.8 3.1 12 .1 1.4-.2 2.7-.8 4z" class="st7"/></g><g id="Skin"><path d="m32.4 123.6-.3-.3c.1 0 .2.2.3.3.5.6 1.1 1.2 1.7 1.7-.5-.6-1.1-1.2-1.7-1.7z" class="st8"/><path d="M121 122c-3.5 7.3-12 7.4-18.6 5.2-2.9-1-6.3-1.9-8.4-3.9l-.1-.1c-.8-.7-1.3-1.5-1.9-2.2-2.3-2-5.2-2.9-8.4-3.2-.6 0-1.3 0-1.9.1h-.1l.1.1c-1 .1-2 .3-3 .5-1 .3-1.6.5-2 .7-.2.3-.3.6-.3 1.1.4.6 1.5 1.3 2.3 2.4 2.1 2.7 2.4 5.3 1.6 7.5-.2.5-.4 1.1-.7 1.7-2.7 4.9-8.2 6.6-13.4 8.1-5 2-10.8 4-15.7 2.4-.1-.1-.3-.1-.4-.2-.1 0-.2-.1-.4-.2s-.4-.2-.5-.3c-.2-.1-.5-.3-.7-.4-.1-.1-.2-.2-.3-.2l-.3-.3c-.1-.1-.3-.2-.4-.3-2.6-2.2-4.8-5.7-6.7-8-.8-1-1.6-1.9-2.4-2.8l-.1-.1c-.3-.3-.6-.7-.9-1-.5-.6-1.1-1.2-1.6-1.8l-1.1-1.1c0-.1-.1-.1-.2-.2l-.1-.1c-.5-.6-1.1-1.2-1.7-1.7l-.3-.3c-.5-.5-.8-1.1-.9-1.5-.5-2.7 3.8-7.7 5.5-9.4 1.8-1.7 3.9-3.1 6.2-3.9 3.8-1.3 3.6-.9 4.6-5.3l.6.6.1.1c.3.4.5.8.8 1.2.1.2.2.3.4.5 0 .1.1.1.1.2.2.2.3.4.5.6l.3.3.5.5c.2.2.3.3.5.4.2.1.4.2.5.3.1 0 .2.1.3.1h.3c.3.2.6.4.9.5h.1c.3.1.7.3 1 .4l-.1.1c-.2.3-.4.6-.5 1-.2.8.1 1.8.6 2.5l.3.3c.2.2.3.3.5.3 1 .5 1.6 0 2.4.1.3 0 .7.1 1.1.4 1.9 1.3 1.6 2.9 4.3 3.5.9.2 2.5.2 4.2.1 2-.2 4.2-.7 5-1.6 2.3-2.5-1.1-6.1-2.5-8.7-.1-.2-.2-.4-.2-.6 1.6-.5 3.3-1.2 4.9-1.9.2-.1.5-.2.7-.3.2-.1.3-.1.5-.2h.1c.1-.1.3-.1.5-.2.1 0 .2-.1.3-.1.2-.1.3-.2.5-.3.9-.4 1.9-.9 2.7-.9 1.9-.1 2.4.5 4.5 1.4.5.2 1 .4 1.5.5l.9.3 1.2.3 1.2.3c.4.1.8.1 1.2.2.5.1 1 .1 1.5.1h.5c3.2.2 10.2.5 12.9-1.3.8-.5 1-1.3 1.1-2.2.1-.9.3-2.4.1-2.9 3.7 3.7 9.9 4.1 13.4 8.5 2.8 3.9 3.2 9.7 1 14.3z" class="st8"/><path d="M85.2 118c-.5-.1-1-.1-1.5-.2h.3" style="fill:none"/><path d="M63.3 67.5c.7 1.7.9 3.4-1 4.8-2.6 2-7.8-.5-10.2-1.6-3.2-1.4-6.2-3.4-8.8-5.8-2-1.9-2.8-3.2-3.3-4.9-.3-.8-.5-1.8-.7-2.9-1.4-6.6-9.1-12-9.1-19.1 0-1.6.6-4.1 2-5.1.2-.1.3-.1.5-.1.6 0 1.3.5 1.9 0l.2-.2c1.2-1.6-.8-2.4.8-3.9.2 0 .4-.1.7-.1.4.1.9.2 1.2 0 .7-.4 1.2-1.3 1.8-1.8l.6-.6c1.6-1.6 2.8-2.7 5.1-3.5 2.5-.9 4.8-.8 7.5-.9 1.5 0 3.3-.3 5.1-.4.9 0 1.8.1 2.7.1 1.8.1 3.1.4 4.1 1.2l.3.3.3.3v.1c.1.1.2.2.2.3.1.1.1.2.1.2.5.9.7 1.9.9 3.2.7 4.2 1.2 8.4 1.9 12.6v-.1.1c-2.9 7.6-9.2 17.2-6.2 25.4.7.7 1.1 1.6 1.4 2.4z" class="st8"/></g><g id="Blacks"><path d="M76.6 12.5c-1.4 3.4-3.9 6.2-5.8 9.3-.3-.5-.7-1-1.2-1.6-.1-.2-.3-.3-.4-.5-.1-.2-.3-.3-.4-.5-.1-.1-.1-.2-.2-.3-.1-.2-.3-.3-.4-.5-.2-.3-.5-.6-.7-.8-.3-.3-.5-.6-.8-.8-.2-.2-.4-.3-.6-.5-.1-.1-.2-.1-.3-.2-.3-.2-.5-.3-.8-.4-.4-.2-.8-.2-1.2-.1-.1 0-.2 0-.3.1-.1 0-.2.1-.3.1-.1.1-.2.1-.4.2-.1.1-.3.3-.5.4-.4.4-.7.9-1.1 1.5-.3-.2-.7-.5-1-.7-.3-.2-.6-.4-.8-.5-3.1-1.9-5.8-2.7-9.3-.8-.3.1-.6.3-.9.5-.1 0-.2.1-.3.2.6-.4 1.2-.9 1.7-1.4.5-.4 1.1-.9 1.5-1.4 1.4-2.2 2.8-4.5 4.3-6.7.7-1.1 1.4-2.2 2.1-3.2 6.7-8 22.8-3.1 18.1 8.6zM19.9 376.6c-.1.2-.2.3-.3.5v.1l-.1.1c-.3.4-.5.7-.9 1l-.1.1c-1.4 1.4-3.2 2.9-4.4 3.1H14c-5.3 0-11.5-1.6-13.3-7.5-1.8-5.7 3.1-14.5 4.4-20 .3.2.7.3 1 .5.2.1.4.2.5.3 2 1 4 1.9 6.1 2.9-.5.1-1 .2-1.4.3-.5.1-.9.2-1.4.3h-.1c-.9.2-1.8.4-2.7.5 3.8 1.7 6.9 2.4 9.2 5.9-1.1-.1-12.3-2-9.3 1.8.3.3 3.9.9 4.5 1 2.7.2 2.4-1.2 4.5-2 1.1-.5 1.7-.3 1.9.2.6 1.2-.5 4.3-.3 6.2 0 .5.1 1 .3 1.4 0 .1 0 .2.1.3-.1 1.4.7 2.3 1.9 3zM19.3 377.5zM19.4 377.4zM19.6 377.2s-.1 0 0 0c-.1 0-.1 0 0 0zM106.2 99c-.2 0-2.9.4-3.7.4-2.7.1-5.8-1-8.5-1.4 1.3-1.4 3.5-4.6 5.2-5.3.3-.1.5-.2.7-.2h.2c.2.1.4.4.8.8 1.6 1.8 3.5 3.9 5.1 5.5l.2.2zM92.2 126.6c-2.3 3.7-4.6 7.4-6.8 11.1-.8 1.3-1.9 4.3-3.2 5.2-.3.2-.7.4-1 .5-.5.1-.9.1-1.4-.1-.5 0-.9-.2-1.2-.5-.9-1-1-2.5-1-3.9v-2c0-.3.1-.7.1-1 0-.2.1-.4.1-.6.1-.6.3-1.1.6-1.7.1-.2.2-.3.2-.5.1-.2.3-.5.4-.7.1-.2.3-.5.4-.7 2.2-3.2 5.7-5.8 8.7-8.4.3-.2.5-.4.8-.7 1.2 1 2.2 2.3 3.3 4zM77.6 136.8v2c-.1-.6-.1-1.3 0-2zM103.1 366.4c-2.3-1.4-5.4-1.7-8.4-1.8-2.4 0-4.8.1-6.8 0-1.8-.1-3.6-.2-5.5-.3h-2.3c-3.2-.4-6.5-.8-9.7-1.2-.6-.1-1.3-.2-1.9-.2-.5-.1-1.1-.1-1.6-.2-4-.5-13.4-.6-15.9-5v-.1c-.8-1.5-.3-4.4.4-7 .5-2 1.2-3.9 1.5-5 3.8.2 8-.4 11.9-.6 3.1-.2 5.3-1.4 8.5-1.3-.1-.1-.1-.3-.2-.4.9.5 1.7.9 2.6 1.4-3.1 1.9-4.1 2.4-5.8 5.8 2.5-.3 5.4 0 7.4-1.7.4 4.3 8.7 5.8 12.1 7.2 5.1 2.2 13.7 3.6 13.7 10.4zM19.6 377.2s-.1 0 0 0c-.1 0-.1 0 0 0z"/><path d="M70.8 21.8c-2 6.1-2.2 11.3-2.4 17.6v.1c-.7-4.2-1.3-8.4-1.9-12.6-.2-1.3-.4-2.3-.9-3.2 0-.1-.1-.2-.1-.2-.1-.1-.1-.2-.2-.3v-.1l-.3-.3-.3-.3c-1-.8-2.3-1.1-4.1-1.2-.8 0-1.8-.1-2.7-.1-1.8.1-3.6.4-5.1.4-2.7.1-5 0-7.5.9-2.3.8-3.5 1.8-5.1 3.5l-.6.6c-.5.6-1.1 1.5-1.8 1.8-.3.1-.8 0-1.2 0-.3.1-.5.1-.7.1-1.7 1.5.4 2.3-.8 3.9-.1.1-.1.2-.2.2.6-1.1-.2-1.9-.1-3 0-.7.2-1.3.4-1.8 0-.3 0-.7.2-1.2.4-1.3 4.3-3.1 6.2-4.2.3-.2.5-.3.7-.4.4-.3.7-.5 1.1-.8 1.6-1.3 3.2-2.7 4.9-4 .4-.3.8-.6 1.2-.8.3-.2.5-.3.8-.5 3.4-1.8 6.1-1.3 9.3.7.3.2.5.3.8.5.3.2.6.4 1 .7.3-.7.7-1.2 1.1-1.5.1-.2.3-.3.5-.4.1-.1.2-.2.4-.2.1-.1.2-.1.3-.1.1 0 .2-.1.3-.1.4-.1.8 0 1.2.1.3.1.5.2.8.4.1.1.2.1.3.2.2.2.4.3.6.5.3.3.6.5.8.8.3.3.5.5.7.8.1.2.3.3.4.5.1.1.1.2.2.3.1.2.3.3.4.5.1.2.2.3.4.5.2.7.6 1.2 1 1.7z" style="fill:#1b263a"/><path d="M103.2 367.8c-.5 5.5-15.2 2.5-17.9 2l-1.8-.3c-.2 0-.4-.1-.5-.1-6-1-11.8-1.3-17.8-1.6h-.1c-3.1.1-6.2.1-9.1-.5h-.1c-1.7-.2-3.4-.7-4.3-1.6-.9-.9-1.1-2-1.1-3.1v-.4c.1-1.2.3-2.6.5-4.2v-.1.1c2.5 4.3 11.8 4.4 15.9 5 .5.1 1.1.1 1.6.2.6.1 1.3.2 1.9.2 3.2.4 6.5.8 9.7 1.2h2.3c1.8.1 3.6.2 5.5.3 2.1.1 4.5-.1 6.8 0 4.8.2 8.7 1 8.5 2.9z" style="fill:#292a2f"/></g></svg>