<svg id="Layer_1" data-name="Layer 1" xmlns="http://www.w3.org/2000/svg" viewBox="0 0 242.95 481.35"><title>painter_back</title><path d="M119.47,270.32c0,.12,0,.23,0,.35-.34,4.72-4.24,10.11-5.48,10.47a2,2,0,0,1-1.42-.22,6.75,6.75,0,0,1-3.41-.1,55.44,55.44,0,0,1-8.66-2.82c-1.89,0-4.43-.31-5.55-.43a29.2,29.2,0,0,1-5.5-.35c1.18-4.27,2.6-8,3.88-11.56,1.43.63,2.59,1.15,3.25,1.43.08-.06,11.48-7.21,15-5.84,0,0,1.39,2.14-3.53,4.79,0,0-.08.15-.22.38l2.69.61c.37-1,.72-1.94,1-2.54,1.25-2.67,5.75.72,6.29,1.24A5.7,5.7,0,0,1,119.47,270.32Z" transform="translate(-5.05 -40.91)" fill="#e7a376"/><path d="M199.45,103.73a85.91,85.91,0,0,1,3.8-8.21c5.05-10-6.77-18.09-8.31-19.08-12.27-10.16-12.48-14.67-11.43-19.92.73-3.69,2-6,3.61-6.56,2.09-.79,4.78,1.17,4.81,1.19l2.85-3.68c-.19-.15-4.71-3.59-9.3-1.87-3.26,1.22-5.46,4.59-6.53,10-1.55,7.78.06,13.71,13.14,24.51l.26.18c.1.07,10.13,6.42,6.75,13.13a82,82,0,0,0-4,8.78Z" transform="translate(-5.05 -40.91)" fill="#55739e"/><path d="M186.75,53c0-.1,0-.21,0-.31s0-.21,0-.32l0-.31c0-.11,0-.22,0-.33v0c0-.11,0-.21,0-.31s0-.23,0-.34.05-.23.07-.34.06-.23.08-.35a2.68,2.68,0,0,1,.07-.27h0a.13.13,0,0,0,0-.06c0-.11.07-.22.1-.34s.06-.22.1-.33l.1-.32.12-.32.09-.24v0l0,0c0-.11.08-.22.13-.32l.15-.35.18-.4c.07-.12.15-.28.22-.41l0-.07,0-.09c.15-.27.29-.53.45-.78s.26-.41.39-.61l.27-.38.24-.32a3.5,3.5,0,0,1,.24-.3l.24-.29,0-.05,0,0a1.68,1.68,0,0,1,.18-.21l.25-.28.28-.27.27-.26.14-.12s0,0,0,0l.11-.09.27-.23a2.78,2.78,0,0,1,.27-.21l.27-.19.26-.17.06,0,.21-.13.26-.15.16-.08.05,0,0,0,.25-.12.26-.11h0l0,0,.17-.06.27-.08.13,0h.05l.08,0,.29-.06.17,0h.11l.3,0h.24a.34.34,0,0,0,.1,0l.36,0h0l.12,0a1.76,1.76,0,0,1,.33.07h0a2.57,2.57,0,0,1,.52.21L246,67.07a4.4,4.4,0,0,0-.5-.21,3.13,3.13,0,0,0-.44-.1h0a3.87,3.87,0,0,0-.49,0h-.09a4.19,4.19,0,0,0-.5,0h0a5.12,5.12,0,0,0-.54.1l-.05,0q-.28.08-.57.18h0a4.78,4.78,0,0,0-.61.28h0c-.22.11-.43.23-.64.36a9.57,9.57,0,0,0-1.25,1,0,0,0,0,0,0,0A11.44,11.44,0,0,0,239,69.83h0a13.57,13.57,0,0,0-1.05,1.35h0a16.79,16.79,0,0,0-.88,1.47.3.3,0,0,1,0,.08c-.26.5-.49,1-.7,1.53h0a13.33,13.33,0,0,0-.53,1.62h0a11.07,11.07,0,0,0-.38,3.19,7.16,7.16,0,0,0,.19,1.39s0,0,0,0a5.1,5.1,0,0,0,.41,1.13h0a4.28,4.28,0,0,0,.52.74l.18.21a3,3,0,0,0,.73.55L188.79,57.38a3,3,0,0,1-.73-.55l-.19-.22c-.07-.09-.16-.17-.24-.27a3.91,3.91,0,0,1-.26-.44h0v0l-.15-.32a2.19,2.19,0,0,1-.12-.33c0-.12-.07-.22-.1-.33l0-.14,0,0,0-.14a2.68,2.68,0,0,1-.05-.3,2.87,2.87,0,0,1,0-.31l0-.3c0-.11,0-.21,0-.31V53Z" transform="translate(-5.05 -40.91)" fill="#dea226"/><path d="M241.37,67.69a14.22,14.22,0,0,0-6,11.4c.18,4.1,3.14,5.64,6.63,3.44a14.18,14.18,0,0,0,6-11.4C247.82,67,244.87,65.49,241.37,67.69Z" transform="translate(-5.05 -40.91)" fill="#c38e2c"/><path d="M100.33,383.38c0-.57,0-1.15,0-1.71s0-1.14,0-1.7,0-1.12,0-1.67,0-1.25,0-1.86c0-.84,0-1.65-.09-2.47s0-1.47-.09-2.19c0-.53,0-1.06-.08-1.59,0-.79-.08-1.57-.14-2.34,0-.39,0-.77-.07-1.16s-.06-.76-.08-1.14l-.12-1.5c0-.63-.1-1.24-.16-1.86s-.09-1-.14-1.57a1.54,1.54,0,0,1,0-.19c-.06-.61-.12-1.2-.18-1.79s-.13-1.24-.2-1.85c0-.42-.09-.84-.15-1.26-.22-1.89-.47-3.72-.72-5.51-.07-.44-.13-.87-.2-1.29-.11-.75-.23-1.51-.35-2.24,0-.33-.1-.66-.15-1-.11-.66-.22-1.3-.34-1.93-.08-.47-.17-.93-.25-1.38-.7-3.8-1.45-7.28-2.21-10.44-.17-.65-.33-1.28-.48-1.91-.1-.42-.21-.83-.32-1.24-.2-.76-.4-1.49-.6-2.2s-.39-1.4-.58-2.06c-.05-.19-.11-.37-.16-.56-.14-.47-.28-.92-.42-1.36-1.13-3.72-2.17-6.6-3-8.58h0l0-.09,0-.1c-.36-1.11-1.46-5.28-1.6-5.81a.43.43,0,0,0,0,0v0a38.75,38.75,0,0,1-19.94,2.09,50,50,0,0,1-9-2.24h0l-.59-.2a.7.7,0,0,1-.06-.19h0c-5.54-18.63-9.62-34.18-12.56-47.17C49.74,246.82,55.69,237.5,61.55,231h0c10.65-11.84,21-14.57,22.77-15l.26,0c-1.27-2.6-6.63-4.66-7.33-4.92h-.07c-15.69,1.1-26.78,20.17-34.07,39.76-11.39-55.88,1.15-56.28,1.15-56.28a8.51,8.51,0,0,0-9.12-1.24c-8.76,1.87-2.91,39.44,3.57,70.76a263.8,263.8,0,0,0-6.55,27.47c-1-.87-1.65-1.56-2.07-2l-.44-.45L26.57,295c.06-.09.12-.18.17-.27,0,.09-.1.19-.16.28h0L26,296.06c-.09.16-.18.32-.26.48l-.17.31-.35.68a67.82,67.82,0,0,0-4.17,10.41c-.22.69-.43,1.39-.62,2.11-.42,1.54-.8,3.14-1.13,4.82-.05.29-.11.58-.16.88-.34,1.88-.62,3.84-.8,5.89l-.06.65c-.05.69-.1,1.39-.13,2.1,0,.28,0,.57,0,.85s0,.52,0,.77c0,.46,0,.92,0,1.38a64,64,0,0,0,.43,7.45q.22,1.94.57,3.9c.23,1.33.51,2.66.84,4,.66,2.75-3.77,30.55-3.77,54.28v0l-.06.21c0,.05,0,.12-.06.19s-.14.47-.23.8C13.34,407.08-.93,461,7.9,496c.29,0,.58.06.87.07a1.06,1.06,0,0,0,.23-.16,2.18,2.18,0,0,0,.43-.43c0,.21,0,.42,0,.63a23.2,23.2,0,0,0,8.26-1.18,20.85,20.85,0,0,0,2.41-1l.4-.18.12-.05a22.75,22.75,0,0,0,5.76-4,18.18,18.18,0,0,0,1.44-1.47s11.62-50.11,11.62-82.89A445.74,445.74,0,0,0,55.8,359.13c0-.28,0-.56,0-.85h0c0,.28,0,.55,0,.83,0,2.19.14,4.36.33,6.5h0c.12,1.28.27,2.55.43,3.81a.88.88,0,0,1,0,.16c.4,2.83.92,5.58,1.53,8.26l.33,1.36c.13.55.27,1.1.41,1.64.68,2.57,1.44,5.06,2.26,7.45.15.41.28.82.43,1.23.29.81.59,1.61.88,2.4s.6,1.55.9,2.3c.23.57.46,1.12.69,1.67s.35.83.52,1.22l.4.9c.27.6.53,1.19.8,1.76l.39.85c.19.38.37.76.55,1.13.47,1,1,1.95,1.43,2.87.15.31.31.61.47.91s.31.58.46.88.32.58.46.85c.62,1.13,1.22,2.18,1.79,3.16.28.49.56,1,.83,1.42.67,1.12,1.31,2.13,1.87,3,.11.17.22.35.33.5.64,1,1.18,1.79,1.59,2.36a1.52,1.52,0,0,0,.19.28l.63.88h0l-.06.16s0,0,0,0c-.22.6-.43,1.21-.64,1.81a1.87,1.87,0,0,0-.07.22c-.22.66-.43,1.31-.63,2a.21.21,0,0,0,0,.06c-.06.18-.11.36-.17.54s-.09.3-.13.46c-.1.33-.2.66-.29,1-5.06,17.39-5.29,36.13-4.13,50.92a.17.17,0,0,0,0,.07c1.05,11.28,2.89,21,4.07,27.32a.5.5,0,0,0,0,.12,1.83,1.83,0,0,0,1.61-.44.07.07,0,0,0,.06,0l-.06,1a20.65,20.65,0,0,0,8,.62,21.53,21.53,0,0,0,5.36-1.36l5.41-3.6,1.61-1.09c2.27-12.21,3.53-34.71,3.65-36.89,0-.11,0-.17,0-.17C103.43,430.18,100.33,383.38,100.33,383.38Zm-62.62-88.3A173.29,173.29,0,0,1,41,274.61c2.45,11.08,4.73,20.57,6.14,26.19Z" transform="translate(-5.05 -40.91)" fill="#3767b0"/><path d="M58.34,307.62l-.59-.2a.7.7,0,0,1-.06-.19Z" transform="translate(-5.05 -40.91)" fill="#341f0f"/><path d="M93.56,225.63h0Z" transform="translate(-5.05 -40.91)" fill="#341f0f"/><path d="M93.57,225.64Z" transform="translate(-5.05 -40.91)" fill="#341f0f"/><path d="M97,251.55c-.06.3-.1.61-.15.92,0-.31.09-.62.14-.92Z" transform="translate(-5.05 -40.91)" fill="#341f0f"/><path d="M97.23,233.79l0,.13-.09-.38C97.2,233.63,97.21,233.71,97.23,233.79Z" transform="translate(-5.05 -40.91)" fill="#341f0f"/><path d="M97.36,234.34l0-.11s0,0,0,.05S97.36,234.31,97.36,234.34Z" transform="translate(-5.05 -40.91)" fill="#341f0f"/><path d="M47.42,194.68l-.19-.15h0Z" transform="translate(-5.05 -40.91)" fill="#e7a376"/><path d="M47.23,194.52l.19.16-.19-.15Z" transform="translate(-5.05 -40.91)" fill="#e7a376"/><path d="M69.89,196.62v0l-.28.06v0A2.3,2.3,0,0,0,69.89,196.62Z" transform="translate(-5.05 -40.91)" fill="#e7a376"/><path d="M69.61,196.68a2.3,2.3,0,0,0,.28-.06v0l-.28.06Z" transform="translate(-5.05 -40.91)" fill="#e7a376"/><path d="M37.85,152.77c0,.22,0-.22,0,0Z" transform="translate(-5.05 -40.91)" fill="#3d2211"/><path d="M80.85,148h0a10.11,10.11,0,0,0-1.88-1.4,37.44,37.44,0,0,0-6.65-3h0a.64.64,0,0,0-.18-.06A45.41,45.41,0,0,0,61,141.19l-.9-.06-.88,0c-.59,0-1.17,0-1.76,0-12,.11-16.86,6.4-17.19,6.87l0,0a18.47,18.47,0,0,0-2.57,3.87v0a10.1,10.1,0,0,0-1.48,3.91,0,0,0,0,0,0,0,3.1,3.1,0,0,0-.11.46c0,.05,0,.11,0,.15s-.08.32-.12.47-.12.48-.17.7c-1,4.42-.72,6.2-.63,6.58a.43.43,0,0,0,0,.05,16.42,16.42,0,0,0,.17,1.87c0,.32.09.62.14.91.13.83.3,1.7.51,2.62,0,.07,0,.17.05.29.53,2.68,3.53,16.73,10,23.47l.06.06.25.25c.31.31.64.6,1,.88h0l.19.16.42.32a9.55,9.55,0,0,0,4.4,1.87h0l.06,0c.16,0,.6.18,1.19.32a10.17,10.17,0,0,0,6.05-.34,5.71,5.71,0,0,0,.64-.35,5.34,5.34,0,0,0,1.88-2,8.91,8.91,0,0,0,1.07-3.88c0-.1,0-.2,0-.3a21.26,21.26,0,0,0-.06-2.48v-.09l.44-7.5v0a6.32,6.32,0,0,1,4.54-4.37c4.15-1.31,6.89,2.9,6.89,5.45,0,0,5.09-4.34,1.82-10.1a8.66,8.66,0,0,1-1-6.2h0a8.36,8.36,0,0,1,.81-2.24h0l-.4.06.39-.07h.14l.17,0a28.94,28.94,0,0,0,3.46-.88,8.54,8.54,0,0,0,2.54-1.31s0,0,0,0a0,0,0,0,0,0,0l-.1-.24a.35.35,0,0,0,.4,0l0,0,.15-.13C86.76,156.92,85.14,151.28,80.85,148Zm-43,4.75c0,.22,0-.22,0,0Z" transform="translate(-5.05 -40.91)" fill="#341f0f"/><path d="M77.42,194.68l-.19-.15h0Z" transform="translate(-5.05 -40.91)" fill="#341f0f"/><path d="M75.76,195.39a35,35,0,0,0-5.35,1.12h0l-.15,0-.35.09v0a2.3,2.3,0,0,1-.28.06v0l.28-.06a12.79,12.79,0,0,0-.1,6.67c0,.12,0,.25.09.36l0,0a2.87,2.87,0,0,1-.33.26,13.32,13.32,0,0,0,1,3c-1.06-.59-2.12-1.18-3.19-1.76-.5-.28-1-.55-1.52-.82l-1.44-.76,0,0-2.52-1.3-2-1-2-1-1-.47-1-.5-1.73-.83c-1.59-.76-3.14-1.47-4.58-2.14l-.83-.38-1-.42q-.33-.17-.66-.3h0c-.29-.13-.59-.25-.86-.38a9.45,9.45,0,0,0,.09-1.22c.31.31.64.6,1,.88l.19.15.42.32a9.55,9.55,0,0,0,4.4,1.87h0l.06,0c.16,0,.6.18,1.19.32a10.17,10.17,0,0,0,6.05-.34,5.71,5.71,0,0,0,.64-.35,5.34,5.34,0,0,0,1.88-2,8.91,8.91,0,0,0,1.07-3.88l.5.17-.48-.47a21.26,21.26,0,0,0-.06-2.48v-.09l.44-7.5v0a6.32,6.32,0,0,1,4.54-4.37c4.15-1.31,6.89,2.9,6.89,5.45,0,0,5.09-4.34,1.82-10.1a8.66,8.66,0,0,1-1-6.2h0l.82-2.24.23,0h0l.94-.2.83-.19c.32-.08.62-.16.9-.25a7.39,7.39,0,0,0,.79-.24,8.23,8.23,0,0,0,1.47-.63,3.11,3.11,0,0,0,.4-.22l.25-.17c.14-.08.28-.19.42-.29s0,0,0,0a1.48,1.48,0,0,0,.31-.26,9,9,0,0,1,.33,3.43,71.47,71.47,0,0,0-.83,8.51c.11,1.92,1.23,2.91,1.34,4.54S81.78,195.05,75.76,195.39Z" transform="translate(-5.05 -40.91)" fill="#f0b185"/><path d="M42.76,496.51a2.7,2.7,0,0,1,0,.28c0,.12,0,.25-.07.38a.12.12,0,0,1,0,.07,2.77,2.77,0,0,1-.12.41,5.75,5.75,0,0,1-.83,1.58,6.73,6.73,0,0,1-.49.63l-.07.08a3.65,3.65,0,0,1-.27.3,11.08,11.08,0,0,1-1.5,1.31l-.55.4c-.22.15-.45.3-.7.45l-.71.41c-.5.28-1,.55-1.61.81-10,4.53-11.42,8.05-16.88,11l-.65.31a11.74,11.74,0,0,1-1.59.55c-.25.06-.5.13-.76.18l-.08,0-.43.08a4.14,4.14,0,0,1-.45.07,5.58,5.58,0,0,1-.57.08l-.52,0c-.24,0-.49,0-.74,0s-.71,0-1-.05a7.17,7.17,0,0,1-1.46-.32.55.55,0,0,1-.18-.06,4,4,0,0,1-.67-.3l-.16-.1a1.86,1.86,0,0,1-.35-.22,2,2,0,0,1-.34-.26,3,3,0,0,1-.31-.31l-.15-.16a3.34,3.34,0,0,1-.45-.66,1.62,1.62,0,0,1-.1-.18.11.11,0,0,1,0-.06,3.7,3.7,0,0,1-.18-.4,6.18,6.18,0,0,1-.3-1.1.57.57,0,0,1,0-.18.11.11,0,0,1,0-.08,4.18,4.18,0,0,1-.06-.51,13.82,13.82,0,0,1,.61-4.84A42.44,42.44,0,0,0,9,496.09l.42,0a23.2,23.2,0,0,0,8.26-1.18,20.85,20.85,0,0,0,2.41-1l.4-.18.12-.05a16.75,16.75,0,0,0,5.74-3.85c0,.35-.08.72-.12,1.15-.27,3.34,7.82,1.31,12.51,1.31A4,4,0,0,1,42,493.79l.16.19a3.46,3.46,0,0,1,.51,1.08,2.46,2.46,0,0,1,.07.29,1.55,1.55,0,0,1,0,.21A3.34,3.34,0,0,1,42.76,496.51Z" transform="translate(-5.05 -40.91)" fill="#331c11"/><path d="M16.66,515.47c-.22.06-.43.12-.66.16l-.1,0C16.16,515.6,16.41,515.53,16.66,515.47Z" transform="translate(-5.05 -40.91)" fill="#331c11"/><path d="M42.11,494l-.16-.19v0Z" transform="translate(-5.05 -40.91)" fill="#331c11"/><path d="M123.52,506.6a4.18,4.18,0,0,1,0,.5c0,.17,0,.34,0,.51a3.4,3.4,0,0,1-.09.46,2.37,2.37,0,0,1-.09.36,4,4,0,0,1-.15.45,5.9,5.9,0,0,1-.67,1.36c-.15.24-.33.48-.51.72s-.19.24-.3.36l-.41.43-.45.43c-.15.14-.32.27-.49.41s-.36.29-.56.42-.39.29-.6.44l-.64.38c-.45.27-.93.53-1.46.79s-1.08.52-1.69.76c-.14.07-.3.12-.45.19l-1.47.54c-.69.24-1.42.46-2.2.69l-1.19.32-1.27.31-.52.11-.52.08-.53,0-.64,0c-1.55,0-3.18-.11-5.06-.08l-.58,0-.61,0-.94.09-1,.13c-.45.07-.91.17-1.39.28a18.54,18.54,0,0,0-2.25.65c-.54.17-1.08.38-1.64.62s-1.15.51-1.75.81c-.31.15-.61.31-.92.48l-.31.13-.14,0c-.29.1-.69.25-1.19.41a1.72,1.72,0,0,0-.28.08l-.3.08c-.18.06-.38.1-.58.16l-.23.05h-.06l-.13,0-1,.2-.12,0-.25,0h-.07l-.32.05c-.47.07-1,.13-1.47.16s-.75,0-1.12,0h-.38a9.57,9.57,0,0,1-1.19-.11l-.57-.11-.57-.16-.12,0a1.9,1.9,0,0,1-.4-.14l-.57-.23a7.1,7.1,0,0,1-1-.61l-.2-.17a2.74,2.74,0,0,1-.36-.32l-.28-.27,0-.06a4.66,4.66,0,0,1-.39-.49c-.1-.15-.2-.3-.29-.46l-.06-.09-.24-.47a.29.29,0,0,1,0-.1l-.08-.16v0c-.08-.17-.15-.36-.22-.54h0l-.06-.18c-.06-.19-.11-.37-.16-.57s-.06-.25-.08-.38-.06-.35-.09-.53a15.79,15.79,0,0,1-.15-1.78v-.31h0c0-.1,0-.19,0-.28s0-.09,0-.14,0-.1,0-.15c.12-.86.34-2.58.54-5,0-.42.06-.83.1-1.26,0-.26,0-.53,0-.8.07-.73.11-1.46.16-2.19a20.65,20.65,0,0,0,8,.62,21.53,21.53,0,0,0,5.36-1.36,20.51,20.51,0,0,0,5.62-3.39,2,2,0,0,0,1.26.58c2.59,0,21.75-2.46,24.22,0a10,10,0,0,1,2.63,4.8v0q.06.32.09.63A4.44,4.44,0,0,1,123.52,506.6Z" transform="translate(-5.05 -40.91)" fill="#331c11"/><path d="M76,508.3c-.2,2.45-.42,4.17-.54,5C75.65,511.66,75.83,510,76,508.3Z" transform="translate(-5.05 -40.91)" fill="#492918"/><path d="M75.91,517.67c.07.18.14.37.22.54a1.09,1.09,0,0,1-.08-.15h0C76,517.92,76,517.8,75.91,517.67Z" transform="translate(-5.05 -40.91)" fill="#492918"/><path d="M76.25,518.51l.24.47c0-.1-.11-.2-.15-.3Z" transform="translate(-5.05 -40.91)" fill="#492918"/><path d="M76.55,519.07c.09.16.19.31.29.46,0-.08-.09-.14-.14-.22s0,0,0-.06Z" transform="translate(-5.05 -40.91)" fill="#492918"/><path d="M77.27,520.08l.28.27-.27-.25Z" transform="translate(-5.05 -40.91)" fill="#492918"/><path d="M78.11,520.84a7.1,7.1,0,0,0,1,.61l-.35-.19a3.12,3.12,0,0,1-.49-.31l-.18-.12-.09-.07a.36.36,0,0,1-.08-.09Z" transform="translate(-5.05 -40.91)" fill="#492918"/><path d="M80.19,521.86l.57.16a9.63,9.63,0,0,1-.81-.23h0a1.73,1.73,0,0,1-.24-.1,1.9,1.9,0,0,0,.4.14Z" transform="translate(-5.05 -40.91)" fill="#492918"/><path d="M81.33,522.13a9.57,9.57,0,0,0,1.19.11A8,8,0,0,1,81.33,522.13Z" transform="translate(-5.05 -40.91)" fill="#492918"/><path d="M82.9,522.25c.37,0,.75,0,1.12,0H82.9Z" transform="translate(-5.05 -40.91)" fill="#492918"/><path d="M85.88,522l.25,0h0Z" transform="translate(-5.05 -40.91)" fill="#492918"/><path d="M87.33,521.7h0l-.13,0Z" transform="translate(-5.05 -40.91)" fill="#492918"/><path d="M97.09,290.53a2.74,2.74,0,0,1-2.28-4l99.51-185a2.75,2.75,0,1,1,4.85,2.61l-99.51,185A2.73,2.73,0,0,1,97.09,290.53Z" transform="translate(-5.05 -40.91)" fill="#341f0f"/><path d="M164.6,186.71a2.91,2.91,0,0,0-.95-1.14,9.26,9.26,0,0,1,.95,1.14c-5,30.5-19.78,50.86-24,55.46-4.36,4.76-17.65,8.85-19.88,6.9,1-1.78,4.57-8.31,4.42-15.13,0-.28,0-.55,0-.83a19.62,19.62,0,0,0-.35-2.49c0-.21-.1-.43-.17-.65s-.06-.26-.1-.39-.17-.55-.27-.81a14.64,14.64,0,0,0-1.57-3.11q-.19-.3-.42-.6l-.4-.53c-.17-.2-.33-.39-.51-.58s-.45-.48-.69-.72l-.36-.35a3.23,3.23,0,0,0-.4-.35l-.31-.27-.1-.07c.16-1.22,10.76,2.7,10.76,2.7L152.18,184c-2.37-10.3,2.85-19.48,4.08-19.42,1.45.05,1.52,5.16,1.52,6.14,0,6,6.82-1.83,6.82-1.83,4-13.15,8-14.22,8-14.22C179.32,169.05,164.6,186.71,164.6,186.71Z" transform="translate(-5.05 -40.91)" fill="#e7a376"/><path d="M47.13,300.8l-9.42-5.72A173.29,173.29,0,0,1,41,274.61C43.44,285.69,45.72,295.18,47.13,300.8Z" transform="translate(-5.05 -40.91)" fill="#c42f38"/><path d="M77.19,211c-15.69,1.1-26.78,20.17-34.07,39.76-11.39-55.88,1.15-56.28,1.15-56.28a8.51,8.51,0,0,0-9.12-1.24c-8.76,1.87-2.91,39.44,3.57,70.76a263.8,263.8,0,0,0-6.55,27.47c-1-.87-1.65-1.56-2.07-2,1.55-2.91,6-15.75-8-52.74-10.27-27.06-3.66-48.52,15.73-45.47h0l.14.06.81.34.28.12c.41.16.9.37,1.48.62.14.06.3.12.45.2,1.36.57,3.11,1.34,5.14,2.24.27.13.57.25.86.38h0q.33.13.66.3l1,.42.83.38c1.44.67,3,1.38,4.58,2.14l1.73.83,1,.5,1,.47,2,1,2,1,2.52,1.3,0,0,1.44.76c.5.27,1,.54,1.52.82,1.07.58,2.13,1.17,3.19,1.76l.28.16h0c2.12,1.2,4.19,2.43,6.16,3.68l.2.12Z" transform="translate(-5.05 -40.91)" fill="#c42f38"/><path d="M77.24,211h0l-.06-.06Z" transform="translate(-5.05 -40.91)" fill="#c42f38"/><path d="M125.13,233.11a19.62,19.62,0,0,0-.35-2.49c0-.21-.1-.43-.17-.65s-.06-.26-.1-.39-.17-.55-.27-.81a14.64,14.64,0,0,0-1.57-3.11q-.19-.3-.42-.6l-.4-.53c-.17-.2-.33-.39-.51-.58s-.45-.48-.69-.72l-.36-.35a3.23,3.23,0,0,0-.4-.35l-.31-.27-.1-.07c-.14-.12-.29-.23-.42-.33l-.64-.12-.58-.11-.75-.13-.92-.14h0c-.63-.11-1.38-.21-2.19-.33h-.18c-.57-.08-1.17-.16-1.82-.23l-1.83-.21-1.25-.12-.41,0-.76-.07c-.77-.05-1.57-.12-2.39-.16l-.34,0c-.45,0-.91-.05-1.37-.06l-1,0L101,220c-1.39,0-2.82,0-4.26,0a71.77,71.77,0,0,0-7.27.55h0c-.23-.25-.46-.49-.71-.72l-.76-.75c-.53-.49-1.08-1-1.65-1.5s-1.29-1.11-2-1.66c-1.76.39-12.12,3.12-22.77,15h0c-5.86,6.54-11.81,15.86-16.43,29.09,2.94,13,7,28.54,12.56,47.17h0l.65.39h0a50,50,0,0,0,9,2.24,38.75,38.75,0,0,0,19.94-2.09v0c0-.47-.1-.93-.13-1.4-.19-1.85-.31-3.63-.37-5.33s-.1-3.55-.07-5.23l0-1v-.19c0-.17,0-.34,0-.51a2.83,2.83,0,0,1,0-.29c0-.24,0-.48,0-.72,0-1,.11-2,.21-2.91,0-.35.06-.69.1-1,0-.19,0-.37,0-.54,0-.36.09-.71.13-1.05.1-.86.22-1.69.36-2.5.06-.4.14-.81.21-1.19s.14-.79.22-1.18.16-.77.24-1.15.11-.53.17-.8.12-.52.19-.78l0-.13c.07-.28.13-.57.21-.84.14-.61.3-1.19.47-1.77,1.18-4.27,2.59-8,3.88-11.56a1.69,1.69,0,0,0,.08-.24c.26-.71.51-1.41.75-2.11s.52-1.54.76-2.31.44-1.46.64-2.2a8.67,8.67,0,0,0,.22-.84c.07-.26.13-.53.2-.78a1.42,1.42,0,0,1,0-.2l0-.13c0-.12,0-.25.08-.37s.1-.47.15-.71.07-.38.11-.56l.15-.88c.1-.63.2-1.25.29-1.86,0-.31.09-.62.14-.92h0a100.65,100.65,0,0,0,23.48-2l.29-.46c1-1.78,4.57-8.31,4.42-15.13C125.15,233.66,125.14,233.39,125.13,233.11Zm-31.58-7.5h0Zm2.37,4.31v0l0,0Z" transform="translate(-5.05 -40.91)" fill="#c42f38"/><path d="M58.34,307.62l-.59-.2a.7.7,0,0,1-.06-.19Z" transform="translate(-5.05 -40.91)" fill="#c42f38"/><path d="M86.81,301.06c-.08-1.82-.1-3.55-.07-5.23C86.72,297.5,86.73,299.23,86.81,301.06Z" transform="translate(-5.05 -40.91)" fill="#c42f38"/><path d="M87.18,306.39c-.19-1.85-.31-3.63-.37-5.33C86.88,302.76,87,304.53,87.18,306.39Z" transform="translate(-5.05 -40.91)" fill="#c42f38"/><path d="M87.05,290.18c-.09.94-.15,1.91-.21,2.91C86.89,292.09,87,291.11,87.05,290.18Z" transform="translate(-5.05 -40.91)" fill="#c42f38"/></svg>