<svg xmlns="http://www.w3.org/2000/svg" xml:space="preserve" id="Layer_1" x="0" y="0" version="1.1" viewBox="0 0 357.9 520.1">
  <style>
    .st0{fill:#babbd3}.st1{fill:#263779}.st2{fill:#e58966}.st4{fill:#eeeded}.st6{fill:#f0e8e6}.st8{fill:#010101}.st9{fill:#4f4e4f}
  </style>
  <path d="M317.7 497.3c-.1 2.8-2.6 3.8-4.9 4.3-9.5 2.2-19.2 1.6-28.8.8-16.7-1.5-33.3-3.7-50-5.6-17.3-2-34.8-2-52.2-3.4-19.5-1.6-38.9 0-58.3.6-23.9.7-47.7 3.5-71.4 6.5-15 1.9-30.1 2.8-45.3 2.2-.7 0-1.4 0-2-.2-1.8-.5-4.4-.4-4.8-2.8-.4-2.3 1.9-3.3 3.6-4.2 7.1-3.6 14.9-4.8 22.6-5.8 44.2-5.6 87.7-14.4 129.6-29.9 2.3-.8 6.1-1.2 5.9-3.7-.2-3-4.2-2.8-6.6-3.1-6.9-1-13.5 1.5-20.1 3-3.8.9-7 .6-10.5-1-15-6.9-31-9.8-47.2-12.2-2.9-.4-5.9-.9-8.8-1.4 0-.4-.1-.9-.1-1.3 11.9-2.8 23.9-3.9 36.3-3.1 18.5 1.2 36.1 7.5 54.5 9.4 6.8.7 13.6-.8 20.1-2.9.9-.3 2.1-.8 1.8-2-.2-1.1-1.4-1.3-2.3-1.6-4-1.4-8.2-1-12.4-1.1-2.6-.1-5.9.8-6.5-3.5-.2-1.2-1.8-1.2-3-1.4-3.3-.4-6.5-.9-10.3-1.5 8-4.6 16-3.4 24.3-2.5 13.7 1.5 27.4 2.8 41.3 1.2 8.7-1 17.5-1.3 26.3-2.4 3.8-.5 7 1.1 10.2 3.1-1.2 1.6-2.6.8-3.8 1-5.3 1-10.9.4-15.5 4.5-2.3 2-5.7 1.7-8.7 1.5-5-.3-10 .5-14.8 1.7-1.2.3-2.9.5-2.7 2.3.1 1.4 1.6 1.6 2.6 2 7.6 2.8 15.4 1.7 23.1.5 15-2.3 29.8-5.2 44.8-7.2 12.9-1.7 25.8-2.4 38.7.5 1.5.3 2.9.8 4.3 1.3.4.1.7.6 1.5 1.4-8.6 1.2-16.7 2.3-24.8 3.4-17 2.3-33.8 5.7-50.2 10.9-4.5 1.4-8.7 1.6-13.1-.3-6.5-2.7-13.2-3.3-20-1.2-2 .6-4.8.8-5.1 3.3s2.5 2.8 4.1 3.8c26.6 16.6 56.6 22.6 86.9 27.7 5.9 1 11.9 1.7 17.5 4.1 1.9.8 4.3 1.8 4.2 4.3z" style="fill:hsla(215, 21%, 23%, .3)"/>
  <path d="m244.9 427.6-.7.1c-1.1 4.3-2.1 8.6-3.2 13l-.7-.1c-8.9-.3-17.7-.3-26.2 2.9-.8-3.8-1.6-7.7-2.4-11.5l.3-3-.5.2c0-.9 0-1.8.1-2.7-1.6-1.1-.2-3.8-2.5-4.6-.1-1.4-.3-2.9-.4-4.3 1-2.9.6-5.7 0-8.6-.5-5.3-1.3-10.6-1.1-16 .4-11.9 1.5-24.1-.6-35.7-4.3-23.9-10.3-47.4-16-71.1-.7-2.8.2-7.9-3.1-7.9-3.9.1-2.4 5.4-3.7 8.2.6 3.1-.3 6-1.5 8.8.6 2.5-.2 4.8-1.3 7 .2 3 .8 6.1-1.2 8.8-1.1 8.9-1.9 17.8-4.4 26.5 0 4.8.1 9.6.1 14.5 1.1 9.2 2.4 18.3-.1 27.5V398c2 2.9.6 6.5 1.8 9.6.2.7.4 1.5.5 2.2.1 1.1.3 2.3.4 3.4 0 1.4.1 2.9.1 4.3v6.2c-.2 1.7-.3 3.5-.5 5.2-.3 0-.7.1-1 .1-.8 4.2-2.1 8.2-4.4 11.8-5.3.6-9.3-3.9-14.8-3.4-4.5.4-8.8.4-12.6 3-1-3.8-2.1-7.6-3.1-11.4-.2-1.4-1.9-2.7-.5-4.3-.1-1-.1-1.9-.2-2.9-.1-.9-.3-1.9-.4-2.8 1.3-4.3 1.2-8.6 1-13 .4-3.9.7-7.8 1.1-11.7.6-10.8 0-21.7 1.9-32.4-.8-12.2-1.7-24.5-2.5-36.7-2.7-26.8-5-53.5-6.3-80.4.1-1.8.3-3.7.4-5.5-1.1-5-2.1-9.6 6-8.5 3.5.5 6.6-.5 8.3-4.9 2-5.1-1.2-6.6-4-9.1s-8-2.8-7.8-8.2c.1-1.9.3-3.7.4-5.6 2.5-12.9 2.7-25.9 2.6-39-.1-9.6 1.8-18.9 4.5-28 .9-3.2 2.2-6.3 1.1-9.8-4.2-13.8-8.3-27.6-12.5-41.5 4.3-2.9 9.2-4 14.3-4.3 3.4 14.4 6.8 28.8 10.1 43.2.7 3 1.2 5.1 5.4 4.9 14.1-.9 28.2-1.3 42.4-1.7 3.9-.1 5.1-1.4 5.7-5.3 1.6-12.7 1.1-25.4 1.4-38 3.8 1.9 7.6 3.8 11.4 5.6.4 4.9-.9 9.5-2.2 14-5.2 18.2-3.8 36 2.3 53.7.1 1 .3 1.9.4 2.9 1 .7 1.2 1.7 1 2.9 2 8.6 1.6 17.4 2.1 26.2.6 11.6-.5 23.4 2.5 34.8 2.1 7.9 3 15.8 2.4 23.9 0 4.4.1 8.8.1 13.2.8 32 2.5 64.1 1 96.1.1 1.5.1 3.1.2 4.6.3 2.2.5 4.4.8 6.6 3.4 11.5 4.2 23.3 5.6 35.1-.7 5.4 1.1 10.5 1.5 15.8v4.3c.3.1.6.1 1 .2.1 1.4.1 2.8.2 4.2z" class="st1"/>
  <path d="M208.9 80.4c.8 3.8-1 6.4-3.9 8.4-5.7 3.9-12.1 5.5-18.8 5.7-11.5.4-22.8-6.5-25.8-15.1 2.3-.7 4.7-1.1 6.9-2.1 4.2-1.8 6.2-6 3.7-9.4-4-5.2-4-12.5-10.6-16.9-5.6-3.7-3.3-10.8-1.5-16.7 2.8-.1 4.3 2.3 6.9 3.5.1-6.6 5.3-8.3 9.5-10.7 3-1.8 6.4-6.8 8.7-5.3 6.5 4.2 14.4 7.1 18.8 14.2 1.9-1.2 4-2.4 6-3.7l.2.2c0 .2-.1.3-.1.5 2.1 7.2 1.7 13.6-3.5 20.1-3.7 4.7-4.5 11.4-7.7 16.8-1.7 2.9-.5 6.7 3.6 8.1 2.5 1 5.1 1.7 7.6 2.4z" class="st2"/>
  <path fill="#ce9f7a" d="m209.1 32.8-.2.4c0-.2.1-.4.2-.4z"/>
  <path d="M147 135.9c-2.7 9.2-4.6 18.4-4.5 28-3.6-.7-3.4-3.8-4.3-6.4-1.6-4.9-1.5-10.6-6.9-13.6-2.7-3.3-4.6-.3-6.6 1-4.4 2.8-8.5 6.3-13.8 7.5-6.1-6.5-12.2-12.9-18.3-19.4-3.8-5 .6-7.4 3.4-9.6 7.7-6.1 11.8-15.2 18.7-22 4.2-4.1 7.6-9 11.3-13.7 2.6-3.4 6.1-3.1 9.7-3.1 4.1 13.8 8.3 27.7 12.5 41.5.9 3.5-.3 6.7-1.2 9.8z" class="st4"/>
  <path fill="#e2e1e1" d="M214.8 83.5c-.3 12.7.3 25.4-1.4 38-.5 4-1.7 5.2-5.7 5.3-14.1.3-28.3.8-42.4 1.7-4.2.3-4.7-1.9-5.4-4.9-3.3-14.4-6.7-28.8-10.1-43.2 3.3-2 6.5-5.2 10.4-.9 3 8.6 14.4 15.4 25.8 15.1 6.7-.2 13.2-1.8 18.8-5.7 3-2 4.8-4.6 3.9-8.4 2.6.1 4.6 1 6.1 3z"/>
  <path d="M308.6 179.1c6.2 9.2.7 15.9-4.3 23.2-3.6 5.3-3.1 12.3-4.4 18.6-11.1 53.6-21.9 107.4-32.8 161.1-1.6 7.9-3.2 15.9-4.8 23.8-2.2.5-4-.5-5.8-1.4 5.5-27.1 10.9-54.2 16.4-81.3 7.9-38.6 15.8-77.1 24-115.6 1.2-5.5 1.2-9.4-5.3-11.2-2.8-.8-5.1-3.3-7.7-5.1 6.7-2.1 4.6-8.2 5.7-12.9 3.2.2 5.8-1 6.8-4 1.1-3.2 2.8-5.2 6.1-6.3 4.6-1.4 2.5-6.2 3.8-9.2 1-2.3.4-5.1.6-7.7 2.4.5 4.8 1 7.3 1.5l-5.4 23.7c-.3.9-.6 2.2-.2 2.8z" class="st6"/>
  <path d="M259.2 145.7c-7.5 2.8-13.8 7.6-20 12.5-5.8-.4-7.1-6-10.6-9.2-2.1 2.2.5 5.8-2.4 7.8-6.1-17.7-7.5-35.5-2.3-53.7 1.3-4.5 2.6-9.2 2.2-14 9.8 7.8 17.1 17.6 22.3 28.8 3.4 7.4 6.8 14.8 10.8 21.9 1.4 2.4 1 4 0 5.9z" class="st4"/>
  <path d="M125.7 206.9c-2 3.8-5.5 3.4-9 3.3-10.8-13-21.9-25.7-30.7-40.2-5.5-8.9-5.6-17.3 0-26 2.3-3.6 4.4-7.3 6.6-11 6.1 6.5 12.2 12.9 18.3 19.4-6.3 4-4.4 9.1-2.1 14.3 5.8 13.4 12.2 26.5 16.9 40.2z" class="st2"/>
  <path d="M350.4 81.5c-2.2 4.1-5.2 4.8-9.9 3.7-17.6-4-35.3-7.2-53-10.7-1.4-.3-2.6-1-3.9-1.6 2.3-5.5 3.6-11.2 3.5-17.1 20.3 2.4 40.1 7.6 60.1 11.5 6.8 1.3 3.3 6.8 4.3 10.4-1.6.9-1.3 2.4-1.1 3.8z" class="st6"/>
  <path d="m209 32.7-.2-.2c-6-2.1-10.8-6.4-15.7-10.1-4-3-8.1-3.5-11.9-1.7-7.8 3.6-15.2 8.1-22.7 12.2-.9-7.1 1.5-13.9 1.6-20.9 0-.7.2-1.4.6-2 7.1-11.8 37.2-13.8 44.2-1.8 3.9 6.7 6.7 15.6 4.1 24.5z" class="st1"/>
  <path fill="#192a51" d="m209.1 32.8-.2.4c0-.2.1-.4.2-.4z"/>
  <path d="M289.6 178.4c-1.1 4.6 1 10.7-5.7 12.9-18-6.8-33.3-17.3-44.7-33.1 6.2-4.9 12.4-9.8 20-12.5 1.5 5.5 4.5 9.6 9.4 12.7 8.3 5.2 14.5 12.8 21 20z" class="st2"/>
  <path d="m261.1 426.1-1.5 7.2c-1.4 6.8-2.8 13.5-4.2 20.3-3.5 3.4-6.9 0-10.4-.1.8-5.3 1.6-10.6 2.5-15.8.5-2.9 1.1-5.8 1.6-8.7.7-2.9 2.1-5.6 1.6-8.6 1.5-4.2 2.6-8.5 2.8-13 .4-1.6 1.3-2.7 3-3 1.9.8 3.7 1.8 5.8 1.4.4.2.8.3 1.3.3 1.1 6.9-2.1 13.3-2.5 20z" class="st8"/>
  <path d="M151.3 225.9c-1.7 4.4-4.8 5.3-8.3 4.9-8.1-1.1-7 3.5-6 8.5-.1 1.8-.3 3.7-.4 5.5-.1-.2-.4-.4-.4-.6 2.7-14-8-20.6-16-28.7-1.5-1.5-3.4-2.8-3.5-5.2 3.4.1 7 .5 9-3.3 4.6.4 9 2.7 13.8 1.6-.3 5.4 4.9 5.7 7.8 8.2 2.7 2.4 6 4 4 9.1z" class="st0"/>
  <path d="M324 109.3c-1.7 14-5.2 27.6-8.1 41.3-.2.7-1.2 1.3-1.8 2-2.4-.5-4.8-1-7.3-1.5-3-3.7 0-7.2.6-10.6 1.8-11 4.5-21.8 6.8-32.7 1.5-.3 3.4.7 4.1-1.5 1.6-1 1.9-2.6 1.4-4.3 2.6 1.3-.1 4.5 2.1 5.9.3-.1.5-.1.6.2.7.4 1.1.8 1.6 1.2z" class="st8"/>
  <path d="M357.6 82.1c-1.5 5.2 1.7 13.2-7.9 14.3-6.8.8-13.6 2.6-20.4 3.4-5.2.6-7.5 3.1-7.3 8.2-2.2-1.4.5-4.6-2.1-5.9-.8-3.6 1.4-4.4 4.3-4.9 8-1.3 15.9-3 23.8-4.1 5.1-.7 4.4-4.6 5.5-7.8 1.2-3.5-1.2-3.3-3.2-3.7-.2-1.4-.5-2.9 1.1-3.8 1.8 1.9 7.7-1 6.2 4.3z" class="st0"/>
  <path d="M208.8 32.4c-2 1.3-4 2.5-6 3.7-4.4-7.1-12.3-10-18.8-14.2-2.3-1.5-5.7 3.5-8.7 5.3-4.1 2.5-9.4 4.2-9.5 10.7-2.6-1.3-4.1-3.7-6.9-3.5-.2-.5-.3-1-.5-1.6 7.5-4.1 14.9-8.6 22.7-12.2 3.8-1.8 7.9-1.3 11.9 1.7 5 3.8 9.8 8 15.8 10.1z" class="st8"/>
  <path d="M283.5 72.9c-1.6.5-2.9-.1-3.1-1.8-.8-5.5.3-10.6 3.2-15.4 1-1.7 2.3-1.1 3.4 0 .2 6-1.1 11.7-3.5 17.2z" class="st0"/>
  <path d="M318.4 106.4c-.8 2.2-2.7 1.2-4.1 1.5.6-2.9 2.9-.6 4.1-1.5zM318.5 106.4c0-1.6.3-3.1 1.4-4.3.4 1.7.2 3.2-1.4 4.3zM324 109.3c-.4-.4-.9-.8-1.3-1.2.9-.2 1.4.1 1.3 1.2z" class="st9"/>
  <path d="M173 440.9c-2.4 3-5.1 5.8-5.8 9.8-1.5 1.3-3 2.7-4.5 4-2.6.2-5.2.5-7.7.4-13-.3-14.2-2.1-9.5-14.6 3.8-2.6 8.2-2.6 12.6-3 5.6-.5 9.6 4 14.9 3.4zM243.7 453.6c-1.2 1.3-2.4 2.6-3.7 3.9-6-.2-12.1 1.6-17.9-1.1-2.6-4.3-5.3-8.6-7.9-12.9 8.5-3.2 17.3-3.2 26.2-2.9 1.1 4.3 2.2 8.7 3.3 13z" class="st8"/>
</svg>