<!-- Generator: Adobe Illustrator 22.1.0, SVG Export Plug-In  -->
<svg version="1.1"
	 xmlns="http://www.w3.org/2000/svg" xmlns:xlink="http://www.w3.org/1999/xlink" xmlns:a="http://ns.adobe.com/AdobeSVGViewerExtensions/3.0/"
	 x="0px" y="0px" width="194px" height="548.1px" viewBox="0 0 194 548.1" style="enable-background:new 0 0 194 548.1;"
	 xml:space="preserve">
<style type="text/css">
	.st0{fill:#EFC297;}
	.st1{fill:#131D33;}
	.st2{fill:#121D33;}
	.st3{fill:#2D2220;}
	.st4{fill:#DF3B26;}
	.st5{fill:#DF3C26;}
	.st6{fill:#A78771;}
	.st7{fill:#EDB58A;}
	.st8{fill:#2F2422;}
	.st9{fill:#A3876F;}
	.st10{fill:#E7BA91;}
	.st11{fill:#6A5544;}
	.st12{fill:#BF9978;}
</style>
<defs>
</defs>
<g>
	<path class="st0" d="M193.3,204.6c-0.3-0.5-0.5-1.1-0.6-1.6c-3.9-17.1-7.9-34.3-11.8-51.4c-6,1.1-12.5,1.2-17.9,3.6
		c-2.6,1.2-3.9,6.7-4.5,10.4c-1,6.1-1,12.5-1.4,18.7c-1.7,4.8-2.7,13.2-5.1,13.7c-11,2-23.4,8.6-32.9-3.5c-3.7-4.8-6.9-10-10.5-14.9
		c-1.1-1.5-2.5-2.9-3.8-4.3c-0.5,2.3-2,5-1.4,6.9c2.9,8.1,4,14.4-8,13.5c-0.2,0-0.8,1-0.8,1.5c0.4,5.6,1,11.1,1.3,16.7
		c0.4,6,2.5,9.7,9.4,8.1c0.5,0,1-0.1,1.5-0.1c0.1,0.2,0.1,0.4,0.1,0.6c1.1,0,2.3,0,3.4,0c0.4-0.1,0.7-0.1,1.1-0.2
		c7.3,0,14.6,0,21.9,0c0.9,0,1.9,0,2.8,0c0.8,0,1.5,0,2.2,0c6.9-0.1,13.8-0.1,20.7-0.2c12-1.4,25.7,4.6,35.1-8.2v-9.5
		C193.8,204.5,193.3,204.7,193.3,204.6z M111.2,212.5L111.2,212.5L111.2,212.5C111.2,212.5,111.2,212.5,111.2,212.5z M117.1,211.7
		L117.1,211.7l0.2-0.2L117.1,211.7z"/>
	<path class="st1" d="M142.2,42.5c0,2.2,0,4.4,0,6.7c-1.3,0-2.7-0.1-4-0.1c-0.1-2.2-0.2-4.4-0.3-6.6c-14-12.9-29.4-14.9-46.2-5.8
		c-3.2,2.4-6.5,4.8-9.7,7.3c-1.7,0.2-3.3,0.5-5,0.7C74,28.6,77.7,4.8,97.1,1.3c0.4-0.1,0.7-0.8,1.1-1.3h22.7
		c12.8,4.5,19.5,14.1,21.4,27C143.1,32.1,142.3,37.3,142.2,42.5z"/>
	<path class="st2" d="M173.6,516.6c-10.8,1.3-23.1-4.3-31.5,7.4c-10.4-17-12.1-35.9-13.4-55.2c-3-45.9-7.1-91.6-10.9-137.4
		c-0.1-1.7-1.8-3.3-2.7-5c-1.3,1.8-3.4,3.4-3.6,5.3c-1.1,10.9-2.4,21.8-2.4,32.7c-0.2,32.7-0.6,65.4,0.7,98
		c0.8,20.6,1,40.6-8.7,59.5c-10.5-1.7-21-3.4-31.5-5.1c-10.4-34.3-12.3-69.4-11.4-105.1c1.2-46.2-0.1-92.5-0.4-138.7
		c2-1.3,3.9-2.6,5.9-3.9c-1-1.7-2.1-3.4-3.2-5.1c3,1.5,6.1,2.9,9.1,4.4c2.9,1.5,5.8,3,8.7,4.5c1.7-1,3.5-1.9,5.2-2.9l0,0
		c0.2-0.3,0.4-0.6,0.6-0.8c-2.6-4.2-5.2-8.4-7.8-12.7c-0.8-1.4-1.5-2.9-2.3-4.4c1.7,0,3.5-0.3,5.2,0c3.1,0.5,6.1,1.4,9.2,2.1
		c-2.6-3-4.9-6.4-7.9-9c-1.5-1.3-4.4-0.7-6.2-1.7c-4-2.5-7.7-5.5-11.5-8.2c0-5.3,0.1-10.7,0.1-16c0-8.5,0-17-0.1-25.5
		c0-0.4,0-0.9,0-1.3c6.3-27,12.8-54,1.3-81.3c4.2-1.8,8.4-3.5,12.6-5.3c3.3,9.1,6,18.5,10,27.2c1.4,3.1,5.8,6.6,9.1,6.9
		c10.3,0.9,20.7,0.9,31,0c3.5-0.3,8.5-3.6,9.7-6.8c3.7-9.3,5.8-19.2,8.6-28.8c4.3,1.5,8.7,3,13,4.4c-3,10.7-8.4,21.5-8.2,32.2
		c0.2,14.6,4.6,29.1,7.1,43.7c-1.7,4.8-2.7,13.2-5.1,13.7c-11,2-23.4,8.6-32.9-3.5c-3.7-4.8-6.9-10-10.5-14.9
		c-1.1-1.5-2.5-2.9-3.8-4.3c-0.5,2.3-2,5-1.4,6.9c2.9,8.1,4,14.4-8,13.5c-0.2,0-0.8,1-0.8,1.5c0.4,5.6,1,11.1,1.3,16.7
		c0.4,6,2.5,9.7,9.4,8.1c0.5,0.2,1.1,0.3,1.6,0.5c1.1,0,2.3,0,3.4,0c0.4-0.1,0.7-0.1,1.1-0.2c7.3,0,14.6,0,21.9,0c0.9,0,1.9,0,2.8,0
		c0.8,0,1.5,0,2.2,0c6.8,0,13.6,0.1,20.5,0.2c3.2,32.4,6.7,64.8,9.6,97.2c3.4,38.6,7.7,77.2,9,116
		C178.4,462.6,175.1,489.6,173.6,516.6z"/>
	<path class="st3" d="M101.1,536c-4.1,3.3-8.2,6.5-12.3,9.8c-7.9,0.8-15.7,1.8-23.6,2.2s-10-3.8-6.8-10.5c3.4-7.1,7.4-14,11.2-21
		c10.5,1.7,21,3.4,31.5,5.1C101.1,526.5,101.1,531.3,101.1,536z"/>
	<path class="st0" d="M74.1,251.8c1.7,0,3.5-0.3,5.2,0c3.1,0.5,6.1,1.4,9.2,2.1c-2.6-3-4.9-6.4-7.9-9c-1.5-1.3-4.4-0.7-6.2-1.7
		c-4-2.5-7.7-5.5-11.5-8.2c-3.7,0.5-7.3,1.1-11,1.6c-2.5-3.1-4.9-6.3-7.4-9.4c-3.1-4-6.2-8-9.3-12c-0.2-0.6-0.3-1.2-0.4-1.8
		c-1-3.3-1.2-7.3-3.1-9.9c-8.5-11.5-4.9-19.3,6.3-26.2c4.5-2.8,7.8-7.6,11.6-11.4c-2.4-1.5-4.7-3.1-7.1-4.6
		c-4.9-6.3-9.9-12.5-14.8-18.8c-8.5,12.4-17.1,24.8-25.6,37.2c-0.7,0.5-1.4,1-2.1,1.5v17.6c0.8,0.6,1.7,1.1,2.4,1.8
		c11.9,13.8,23.8,27.6,35.7,41.4c6.2,7.3,12.5,14.7,18.7,22c0.4,3,0.7,5.9,1.1,8.9c2-1.3,3.9-2.6,5.9-3.9c-1-1.7-2.1-3.4-3.2-5.1
		c3,1.5,6.1,2.9,9.1,4.4c2.9,1.5,5.8,3,8.7,4.5c1.7-1,3.5-1.9,5.2-2.9l0,0c0.2-0.3,0.4-0.6,0.6-0.8c-2.6-4.2-5.2-8.4-7.8-12.7
		C75.6,254.8,74.9,253.3,74.1,251.8z M70.2,261c-1.3-0.6-2.5-1.3-6.3-3.3c2.5-0.6,3.4-1.1,3.7-0.9c1.4,1.1,2.6,2.5,3.8,3.7
		C71,260.7,70.5,261.2,70.2,261z"/>
	<path class="st4" d="M63,192.1c-1-5.8-1.5-11.7-3.1-17.3c-1.3-4.9,0.2-14.2-10.3-9.1c-2.4-1.5-4.7-3.1-7.1-4.6
		c-4.9-6.3-9.9-12.5-14.8-18.8c9.8-10,19.5-20.1,29.5-29.9c1.5-1.4,4.6-1.1,7-1.5C75.8,138.1,69.3,165.1,63,192.1z"/>
	<path class="st5" d="M145.3,104.1c-2.8,9.7-4.9,19.5-8.6,28.8c-1.3,3.1-6.2,6.5-9.7,6.8c-10.3,0.9-20.7,0.9-31,0
		c-3.3-0.3-7.6-3.8-9.1-6.9c-4-8.8-6.8-18.1-10-27.2c1.7-1,3.4-2,5.1-3c3.5,2.4,6.8,5.2,10.5,7c6.6,3.2,14.6,9.4,19.9,7.7
		c9.1-2.9,16.5-10.9,24.6-16.8C139.8,101.6,142.6,102.8,145.3,104.1z"/>
	<path class="st6" d="M142.1,49.2c-1.3,0-2.7-0.1-4-0.1c-0.1,2.4-0.2,4.8-0.3,7.3c-0.2,2.3-0.5,4.5-0.7,6.7
		c-0.3,1.5-0.5,2.9-0.8,4.4c-0.4,1.9-0.7,3.8-1.1,5.7c-3.3-2.5-6.7-4.9-9.8-7.5c-0.5-0.5-0.1-2.1-0.1-3.2c-2.7,1.6-5.3,4.3-8.3,4.7
		c-7.5,1.1-15.2,1.1-22.8,1.7c-10.6,0.9-10.6,1-12.3-17.7c-1.9-1.2-3.8-2.5-5.8-3.7c0.4,5.7-0.6,12,1.5,16.9
		c4,9.5,9.8,18.2,14.8,27.2c13.1,11.3,18.4,11.5,36.6,1.4c2.9-7,5.9-14,8.8-21c1.9-5.9,3.9-11.8,5.8-17.7
		C143.1,52.6,142.6,50.9,142.1,49.2z M117.1,85.3c-5.6,1.2-11.9,0-17.7-1.1c-1.8-0.4-3.1-3.8-4.7-5.8c2.1-0.7,4.1-1.5,6.2-2.2
		c6-0.3,12-0.5,18-0.7c2.3,0.3,4.7,0.6,7,1C123,79.5,120.5,84.5,117.1,85.3z"/>
	<path class="st7" d="M137.1,100.4c-8.1,5.9-15.5,13.9-24.6,16.8c-5.3,1.7-13.3-4.5-19.9-7.7c-3.8-1.8-7-4.6-10.5-7
		c3.5-3.6,6.9-7.3,10.3-10.9c13.1,11.3,18.4,11.5,36.6,1.4C131.7,95.5,134.4,97.9,137.1,100.4z"/>
	<path class="st8" d="M177.4,548c-7.6-0.4-15.2-1.4-22.9-2.2c-4.1-3.2-8.2-6.4-12.3-9.6c0-4.1,0-8.2,0-12.3
		c8.3-11.7,20.7-6.1,31.5-7.4c3.8,7.1,8.1,13.9,11.2,21.3C187.5,544.3,184.5,548.4,177.4,548z"/>
	<path class="st9" d="M159.1,222.1c0,0.1-0.1,0.3-0.2,0.4c-6.8-0.1-13.6-0.1-20.5-0.2C145.3,222.3,152.2,222.2,159.1,222.1z"/>
	<path class="st4" d="M181,151.6c-6,1.1-12.5,1.2-17.9,3.6c-2.6,1.2-3.9,6.7-4.5,10.4c-1,6.1-1,12.5-1.4,18.7
		c-2.6-14.6-7-29.1-7.1-43.7c-0.1-10.7,5.3-21.4,8.2-32.2C174.6,111.9,184.3,130.4,181,151.6z"/>
	<path class="st10" d="M95.3,61.6l-0.1,0.2L95.3,61.6c0.1-0.1,0.1-0.2,0.2-0.3C95.4,61.4,95.3,61.5,95.3,61.6z M100.5,47
		C100.5,47,100.4,47,100.5,47C100.5,47,100.5,47,100.5,47L100.5,47z M95.3,61.6l-0.1,0.2L95.3,61.6c0.1-0.1,0.1-0.2,0.2-0.3
		C95.4,61.4,95.3,61.5,95.3,61.6z"/>
	<path class="st0" d="M137.8,42.5c-14-12.9-29.4-14.9-46.2-5.8c0,0.9,0,1.8,0,2.7c5.8-0.8,11.3-1.2,8.8,7.6l0,0c0,0,0,0,0,0
		c0,0,0,0,0,0c-0.5,1.4-1,2.8-1.5,4.2c-0.8,1-1.6,1.9-2.3,2.8c-2.4-0.7-4.8-1.5-7.1-2.2c1.7-1.9,3-4.4,5.1-5.5
		c1-0.6,2.6-0.1,4.2,0.3c0.4,0.1,0.8,0.2,1.2,0.3c0.2,0,0.3,0.1,0.5,0.1c-0.3-0.1-0.7-0.2-1-0.3c-0.4-0.1-0.8-0.2-1.2-0.3
		c-0.8-0.2-1.5-0.4-2.3-0.6c-1.5-0.4-3.1-0.8-4.6-1.1c-1.5-0.3-3.1-0.1-4.7-0.2c-1.3,0-2.6,0.1-3.9,0.1c-0.3,2.2-0.5,4.3-0.8,6.5
		c1.7,18.7,1.7,18.6,12.3,17.7c7.6-0.6,15.3-0.6,22.8-1.7c2.9-0.4,5.5-3.1,8.3-4.7c0,1.1-0.4,2.7,0.1,3.2c3.2,2.7,6.5,5,9.8,7.5
		c0.4-1.9,0.8-3.8,1.1-5.7c0.3-1.5,0.5-2.9,0.8-4.4c0.3-2.3,0.5-4.5,0.7-6.7c0.1-2.4,0.2-4.8,0.3-7.3
		C138,46.9,137.9,44.7,137.8,42.5z M95.3,61.6l-0.2,0.1L95.3,61.6c0-0.1,0.1-0.2,0.1-0.3C95.4,61.4,95.3,61.5,95.3,61.6z
		 M130.4,50.3c-1.6,1.2-3.5,3.6-4.9,3.3c-2.2-0.4-4.6-2.2-5.8-4.1c-0.5-0.8,1-2.8,2.3-5.2c-1.6-0.8-3.1-1.6-4.7-2.4
		c1.9-0.8,3.9-2.3,5.8-2.2c2.7,0.2,6,1,7.7,2.8c1.1,1.1-0.2,4.5-0.5,6.9c-1.1-0.8-2.2-1.6-3.4-2.4C128.4,48.4,129.4,49.4,130.4,50.3
		z"/>
	<path class="st6" d="M71.5,260.6c-0.4,0.2-1,0.6-1.3,0.5c-1.3-0.6-2.5-1.3-6.3-3.3c2.5-0.6,3.4-1.1,3.7-0.9
		C69,258,70.2,259.3,71.5,260.6z"/>
	<path class="st0" d="M125.9,76.4c-2.9,3.1-5.4,8.2-8.8,8.9c-5.6,1.2-11.9,0-17.7-1.1c-1.8-0.4-3.1-3.8-4.7-5.8
		c2.1-0.7,4.1-1.5,6.2-2.2c6-0.3,12-0.5,18-0.7C121.2,75.8,123.5,76.1,125.9,76.4z"/>
	<path class="st11" d="M100.5,47C100.5,47,100.5,47,100.5,47C100.4,47,100.5,47,100.5,47L100.5,47z"/>
	<path class="st11" d="M100.5,47C100.5,47,100.4,47,100.5,47C100.4,47,100.4,47,100.5,47c-0.5,1.5-1,2.9-1.5,4.3
		c-0.8,1-1.6,1.9-2.3,2.8c-2.4-0.7-4.8-1.5-7.1-2.2c1.7-1.9,3-4.4,5.1-5.5c1-0.6,2.6-0.1,4.2,0.3c0.4,0.1,0.8,0.2,1.2,0.3
		C100.1,47,100.2,47,100.5,47c-0.4-0.1-0.8-0.2-1.1-0.2c-0.4-0.1-0.8-0.2-1.2-0.3c-0.8-0.2-1.5-0.4-2.3-0.6
		c-1.5-0.4-3.1-0.8-4.6-1.1c-1.5-0.3-3.1-0.1-4.7-0.2c-1.3,0-2.6,0.1-3.9,0.1c-0.3,2.2-0.5,4.3-0.8,6.5c-1.9-1.2-3.8-2.5-5.8-3.7
		c0.3-0.9,0.5-1.9,0.8-2.8c1.6-0.2,3.3-0.5,5-0.7c3.2-2.4,6.5-4.8,9.7-7.3c0,0.9,0,1.8,0,2.7C97.4,38.7,102.9,38.2,100.5,47z"/>
	<path class="st11" d="M100.5,47C100.5,47,100.5,47,100.5,47C100.4,47,100.5,47,100.5,47L100.5,47z"/>
	<path class="st11" d="M127,47.1c1.4,1.3,2.4,2.2,3.4,3.2c-1.6,1.2-3.5,3.6-4.9,3.3c-2.2-0.4-4.6-2.2-5.8-4.1
		c-0.5-0.8,1-2.8,2.3-5.2c-1.6-0.8-3.1-1.6-4.7-2.4c1.9-0.8,3.9-2.3,5.8-2.2c2.7,0.2,6,1,7.7,2.8c1.1,1.1-0.2,4.5-0.5,6.9
		C129.3,48.7,128.2,47.9,127,47.1z"/>
	<polygon class="st12" points="95.3,61.6 95.1,61.7 95.3,61.6 	"/>
	<path class="st12" d="M95.4,61.3c0,0.1-0.1,0.2-0.1,0.3l0,0C95.3,61.5,95.4,61.4,95.4,61.3z"/>
</g>
</svg>
