<svg xmlns="http://www.w3.org/2000/svg" width="82.318" height="71.278" viewBox="0 0 82.318 71.278"><g transform="translate(-46.728 -85)"><path d="M450.98,270.339v.065a1.616,1.616,0,0,0-1.18.521c-.118,0-.253-.015-.184.171a.7.7,0,0,0-.726.46c-.006.015.013.04.027.065-.223-.038-.224-.034-.175.175-.222-.048-.226-.044-.175.175-.205-.047-.209-.044-.173.177-.048-.013-.112-.044-.135-.027a1.507,1.507,0,0,0-.563.909,1.424,1.424,0,0,0-.205.247,5.169,5.169,0,0,0-.515,2.361c0,.475,0,.95,0,1.426-.222-.006-.295-.146-.281-.369l-.251-.175v-.2l-.049-.027c-.154-.048-.255-.131-.255-.277a.4.4,0,0,1,.011-.091c-.295-.057-.451-.291-.629-.5l-.034-.032-.165-.285.009-.008a1.268,1.268,0,0,1-.713-.7l-.013.021c-.019,0-.036,0-.055,0a.5.5,0,0,1-.481-.519c-.122.009-.179-.046-.182-.167-.283.038-.422-.131-.508-.367l-.39.019.348,1.017.135.329.3.749.12.346a15.7,15.7,0,0,1,1.023,3.111c.353,1.4.631,2.813.943,4.218a.658.658,0,0,0,.076.156c.1.232.194.468.3.7h-.306c-.122-.228-.253-.452-.39-.673a4.319,4.319,0,0,1-.24-.532.946.946,0,0,1-.526-.7.223.223,0,0,1-.059-.015.253.253,0,0,1-.139-.319c-.127.008-.179-.057-.167-.181-.125.009-.181-.05-.173-.175-.125.008-.182-.051-.175-.175-.124.01-.188-.04-.181-.167a.212.212,0,0,1-.057.015.252.252,0,0,1-.279-.207c-.11,0-.19-.034-.182-.165h-1.391c.008.127-.055.181-.181.171.011.123-.038.19-.171.181,0,.082.034.177,0,.24a12.42,12.42,0,0,0-.95,2.7l-8.3,0a2.206,2.206,0,0,1-.433-.021,1.294,1.294,0,0,1-.308-.143,5.539,5.539,0,0,0,1.226-2.893c.1-.711.131-1.427.19-2.142l.933-.087c.046-.162.084-.268.106-.38.264-1.369.544-2.735.785-4.107.338-1.918.641-3.839.808-5.78.1-1.129.217-2.256.279-3.389a19.916,19.916,0,0,0-.131-4.436,4.338,4.338,0,0,0-1.169-2.568l.992-.059.2.01H441.6c.319.009.639.027.958.028h4.533a3.76,3.76,0,0,1,2.3.673,3.412,3.412,0,0,1,1.507,2.807c.011,1.161,0,2.325.009,3.486C450.928,266.794,450.957,268.566,450.98,270.339Z" transform="translate(-329.576 -148.171)" fill="none" stroke="#1a1818" stroke-width="0.1"/><path d="M182.333,284.606h0V284.6A.011.011,0,0,0,182.333,284.606Zm-.182-.355.009,0-.006-.009S182.152,284.249,182.15,284.251Zm-7.878-7.515.009,0-.006-.009A.015.015,0,0,0,174.272,276.735Zm-.346-.525a.007.007,0,0,0,.006,0l-.006-.01Z" transform="translate(-108.887 -163.743)" fill="#c0051d"/><path d="M169.272,266.8l-2.032-.025c-.171-.213-.414-.157-.637-.163-.567-.018-1.136-.027-1.725-.039-.211-.306-.4-.593-.605-.863-.054-.071-.176-.092-.265-.137v.007c.019-.354-.035-.434-.354-.531v.007c.021-.357-.035-.439-.355-.531v.007c.121-.191-.029-.319-.121-.454q-.871-1.324-1.753-2.641a1.492,1.492,0,0,0-.242-.227l.006.008a.645.645,0,0,0-.356-.533l.006.008a.639.639,0,0,0-.354-.532v.007c-.071-.281-.149-.554-.525-.535h0q.07-.249-.179-.179h0c-.035-.1-.041-.229-.11-.282-.317-.242-.652-.471-.98-.7a8.82,8.82,0,0,1,2.753-.351c4.213-.01,8.425,0,12.639,0,.348,0,.7-.019,1.044-.03h1.733c.318.011.638.031.956.031H189.48c.376,0,.753.028,1.129.044a6.841,6.841,0,0,0-.6.345,3.743,3.743,0,0,0-1.416,1.486l.008-.011a2.783,2.783,0,0,0-.4.433c-.4.675-.811,1.346-1.158,2.049-.771,1.563-1.5,3.146-2.256,4.719-.083.175-.2.335-.294.494-.166-.025-.282-.038-.395-.062q-3.189-.706-6.379-1.408a2.131,2.131,0,0,0-.5.008c-.558-.131-1.114-.27-1.675-.388a4.143,4.143,0,0,0-.593-.041c-.324-.442-.647-.883-.975-1.323a4.714,4.714,0,0,0-.484-.6.437.437,0,0,0-.381-.09.458.458,0,0,0-.224.332,3.5,3.5,0,0,0,.048.686c.018.167.047.333.074.515a1.332,1.332,0,0,1-1.2,0c-.5-.265-.9-.332-1.274.2-.1.145-.431.15-.5.294A8.769,8.769,0,0,1,169.272,266.8Z" transform="translate(-95.839 -148.229)" fill="none" stroke="#1a1818" stroke-width="0.1"/><path d="M106.628,211.075c-.229-.034-.462-.052-.686-.107s-.538-.039-.626-.372a.225.225,0,0,0-.178,0,.473.473,0,0,1-.589-.006,5.912,5.912,0,0,1-.012-1.624c.072-1.012.167-2.021.278-3.025a2.482,2.482,0,0,1,1.624-2.086,3.042,3.042,0,0,1,2.034-.23c.474.121.968.2,1.424.363a2.42,2.42,0,0,1,1.729,2.362c.023,1.042.007,2.089-.074,3.127a4.788,4.788,0,0,1-.254,1.708l-.543-.242a.933.933,0,0,1-.986.114,2.931,2.931,0,0,0-.338-.045l-.093-.325.085-.662a1.46,1.46,0,0,0,1.029-1.077,4.234,4.234,0,0,0,.121-1.724c-.1-1.244-.114-1.251-1.176-1.926-.037-.024-.1,0-.176,0a3.372,3.372,0,0,1-2.073,1.736,2.458,2.458,0,0,0-.378-.157.745.745,0,0,0-.453,1.419,4.908,4.908,0,0,0,.524.146v2.5Z" transform="translate(-49.421 -101.521)" fill="#040505"/><path d="M117.172,221.022l.092.326v.352c.426.063.8.121,1.166.174a3.138,3.138,0,0,1,1.459.5,8.641,8.641,0,0,1-.734.951,2.4,2.4,0,0,1-1.9.655,3.976,3.976,0,0,1-3.407-1.851.574.574,0,0,1,.079-.033c.45-.114.511-.042.537-.685l.213-.13v-2.5a4.9,4.9,0,0,1-.524-.146.745.745,0,1,1,.453-1.419h0a2.472,2.472,0,0,1,.377.157,3.372,3.372,0,0,0,2.076-1.745c.074,0,.139-.021.176,0,1.062.675,1.077.682,1.176,1.926a4.232,4.232,0,0,1-.121,1.724,1.459,1.459,0,0,1-1.028,1.077c-.23-.019-.462-.028-.691-.059-.25-.035-.5-.092-.872-.163A1.8,1.8,0,0,0,117.172,221.022Zm-.459-2.2c0,.257.134.405.351.408a1.531,1.531,0,0,0,.477-.192C117.242,218.809,117.022,218.661,116.714,218.817Zm1.079-1.13.191.1c.023-.046.077-.121.064-.134a.647.647,0,0,0-.163-.111Zm-.1-.675-.007.1.293.018.006-.091Z" transform="translate(-57.255 -111.86)" fill="#e66b48"/><path d="M204.216,86.112c.226-.2.392-.363.576-.5a1.171,1.171,0,0,1,1.384-.121,1.3,1.3,0,0,1,.7,1.306,2.315,2.315,0,0,1-.2.755,7.275,7.275,0,0,1-2.917,3.115,6.789,6.789,0,0,1-2.246-3.611,3.671,3.671,0,0,1-.027-.869,1.24,1.24,0,0,1,.957-1.12,1.154,1.154,0,0,1,1.321.43C203.92,85.671,204.044,85.869,204.216,86.112Z" transform="translate(-132.481)" fill="#c0051d"/><path d="M147.413,128.459a3.452,3.452,0,0,1-1.8-.605,2.905,2.905,0,0,1-1.152-1.036,1.025,1.025,0,0,1-.121-.753.847.847,0,0,1,.967-.707l.061.012a5.926,5.926,0,0,1,.6.188,5.05,5.05,0,0,1,.242-.575.885.885,0,0,1,1.56-.027,1.948,1.948,0,0,1,.242.819A4.968,4.968,0,0,1,147.413,128.459Z" transform="translate(-83.532 -33.829)" fill="#c0051d"/><path d="M46.778,355.455q.007-2.783.012-5.566a6.031,6.031,0,0,1,.266-1.972,5.052,5.052,0,0,1,5.014-3.434,7.555,7.555,0,0,1,1.027.168,1.471,1.471,0,0,1,1.292,1.116,8.46,8.46,0,0,0,.469,1.122l.2.381-.008-.015c0,.154.016.3.182.363l-.007-.012c-.019.16,0,.3.182.363v-.008c-.03.164-.007.3.182.357v-.007a1.276,1.276,0,0,0,.215.9c.432.874.877,1.74,1.317,2.609a2,2,0,0,0-.128.491c0,1.826.012,3.653.021,5.479l-.022.306v20.259c-.2.013-.4.039-.6.039h-7.73c-.2,0-.4-.024-.6-.037V358.08c0-.347-.011-.7-.016-1.043l.52-.182a3.631,3.631,0,0,0,0-1.257A12.363,12.363,0,0,0,46.778,355.455Z" transform="translate(0 -222.212)" fill="none" stroke="#1a1818" stroke-width="0.1"/><path d="M198.8,558.486l-.049-.509c-.169-.11-.333-.232-.509-.327a1.69,1.69,0,0,0-1.507-.057c-.182.076-.357.19-.545.264a2.6,2.6,0,0,1-3.035-.53l-.673.312,1.726,2.752h-2.045l-1.283-2.07c-.9.367-1.817.715-2.708,1.11a1.409,1.409,0,0,0-.918.96v.285h20.379v-.285l-.042-2.382c-.139-.1-.277-.2-.428-.294a1.7,1.7,0,0,0-1.652-.1c-.106.046-.205.108-.31.158a2.706,2.706,0,0,1-3.273-.443l-.618.3c.43.675.865,1.348,1.285,2.028.146.236.257.487.382.734h-2.011l-1.293-2.06c-.3.006-.549.281-.872.16" transform="translate(-120.3 -404.493)" fill="#0a2a67"/><path d="M218.318,563.7c-.154-.3-.292-.618-.465-.91-.292-.491-.6-.968-.911-1.452l.363-.184c.336.542.674,1.089,1.009,1.626.182.3.363.6.537.893Z" transform="translate(-145.725 -407.773)" fill="#c0051d"/><path d="M279.621,563.748c-.25-.421-.5-.847-.75-1.263-.224-.37-.457-.736-.686-1.1l.356-.155c.386.6.777,1.21,1.157,1.815.135.218.248.451.371.678Z" transform="translate(-198.173 -407.832)" fill="#c0051d"/><path d="M268.027,262.438a4.114,4.114,0,0,1,.593.041c.56.121,1.117.258,1.675.388a1.855,1.855,0,0,0,.442.242q3.267.733,6.547,1.442a4.9,4.9,0,0,0,.506.058c.121-.242.225-.45.322-.659a62.169,62.169,0,0,1,3.537-6.993c.05-.08.019-.209.025-.317l-.008.011c.272.1.353-.144.466-.279a4.64,4.64,0,0,1,2.957-1.658c.313-.048.627-.1.935-.177a1.154,1.154,0,0,0,.289-.163l.2-.022c0,.087.007.174.015.26a1.21,1.21,0,0,0,1.117,1.3h.017a2.247,2.247,0,0,0,1.2-.064,1.711,1.711,0,0,0,1.175-1.661,10.744,10.744,0,0,1,3.1.35,2.062,2.062,0,0,0,.345.038l.22.139.242.087a4.356,4.356,0,0,1,1.169,2.569,20.036,20.036,0,0,1,.131,4.436c-.063,1.13-.181,2.258-.279,3.388-.168,1.936-.471,3.864-.807,5.78-.242,1.372-.521,2.74-.786,4.108-.022.111-.06.219-.105.381l-.933.086c-.745-.1-1.494-.178-2.237-.294a17.157,17.157,0,0,1-5.486-1.851,23.78,23.78,0,0,0-5.852-2.384l.213-.363c1.305-.068,2.612-.121,3.918-.208a4.233,4.233,0,0,0,1.849-.451c.557-.315,1.1-.653,1.643-.99a.968.968,0,0,0,.186-.214.776.776,0,0,0-.515.11c-.4.234-.807.465-1.2.72a2.921,2.921,0,0,1-1.22.443c-.69.094-1.385.175-2.081.206-1.075.046-2.151.041-3.228.066q-.342.024-.681.082c-.376-.03-.751-.073-1.128-.088-2-.082-4.008-.156-6.01-.242-.25-.011-.532.069-.726-.177.007-.7.011-1.4.024-2.093a4.667,4.667,0,0,1,.218-1.406c.6-.052,1.179-.111,1.754-.15,1.331-.087,2.671-.16,4.006-.242q2.264-.144,4.527-.3c.494-.034.985-.086,1.477-.131.338-.031.5-.229.56-.587a2.208,2.208,0,0,1-.827.26c.034-.143.062-.277.1-.409.347-1.29.7-2.578,1.043-3.872a.393.393,0,0,0-.109-.484c-.07.182-.131.307-.166.438-.353,1.287-.7,2.577-1.054,3.865a5.881,5.881,0,0,1-.223.569c-1.715.121-3.4.242-5.082.355-1.277.085-2.554.15-3.831.232-.847.054-1.681.121-2.522.189-.338-.221-.659-.469-1.015-.657-.513-.271-.685-.184-.94.387-.2.03-.363-.027-.385-.242a4.858,4.858,0,0,1-.007-.605l.189-1.049v.007l.127-.381Zm19.315-3.411.186-.176.173-.184.887-.885.16-.16c.052-.073.206-.121.06-.235-.022-.017-.121.065-.179.1l-.18.167-.874.875-.173.177-.171.182-.092.2Zm5.251,5.42.177-.174c.046-.034.109-.058.133-.1a.937.937,0,0,0,.056-.22.781.781,0,0,0-.215.042c-.044.022-.065.088-.1.135l-.174.174-.174.173-1.117.976c-.622.42-.622.42-.756.86a3.409,3.409,0,0,0,.886-.726l1.133-.989Zm-3.388-7.25a1.489,1.489,0,0,0,.726-.692,1.331,1.331,0,0,0-.847.58l-.069.2Zm-3.267,3.4,1-1.128.09-.2-.2.062-1,1.125c-.082.063-.165.134-.058.231.023.017.121-.056.183-.088Zm6.123-5.022c0-.05.016-.1,0-.1-.068-.038-.144-.1-.211-.092a3.606,3.606,0,0,0-1.7.794c-.069.051-.2.145-.017.281.242-.136.888-.515.888-.515a4.043,4.043,0,0,1,1.047-.362Zm-5.4,13.08c.437.041.668-.242.95-.4.146-.081.142-.092.363-.531A5.744,5.744,0,0,0,286.661,268.653Zm3.559-2.337a1.573,1.573,0,0,0-1.013.763,1.687,1.687,0,0,0,1.007-.763Zm-4.585-5.468c-.641.428-.667.463-.72.924a1.671,1.671,0,0,0,.714-.924Zm-1.58,1.9c-.415.229-.417.228-.556.7.387-.247.387-.247.548-.7Zm.135-.16a.951.951,0,0,0,.557-.7c-.41.254-.41.254-.564.7Zm-.759,1.116-.121-.121c-.175.159-.417.278-.334.708Zm-1.063,1.073.121.121c.173-.156.409-.276.332-.705Zm6.672,2.435c-.215-.136-.3.019-.39.172.208.138.293-.021.382-.172Zm-.94.461a1,1,0,0,0,.121.121,2.972,2.972,0,0,0,.261-.189c-.029-.035-.074-.105-.085-.1-.109.05-.2.108-.3.168Z" transform="translate(-188.873 -144.882)" fill="#0a2a67"/><path d="M290.528,371.415a23.768,23.768,0,0,1,5.853,2.382,17.154,17.154,0,0,0,5.486,1.851c.743.121,1.492.2,2.237.294-.062.715-.1,1.433-.19,2.143a5.537,5.537,0,0,1-1.227,2.892l-.339.121a1.852,1.852,0,0,0-.417-.075c-.987.047-1.975.105-2.962.163a73.719,73.719,0,0,1-10.811-.167c-.053,0-.115.081-.242.173l.593.195-.307.413.685-.1c-.186,4.665-.369,9.281-.554,13.925a4.38,4.38,0,0,1-.7.172c-.869.065-1.74.1-2.611.159-.227.015-.455.044-.682.065l-2.089.016-.882-.111c-.06-.854-.121-1.658-.174-2.462-.042-.692-.068-1.384-.1-2.076v-.336l-.027-.428q.01-.221.021-.443c.014-.173.039-.345.043-.517q.113-3.6.22-7.208c.013-.434.021-.869.031-1.3l.167-1.041a19.252,19.252,0,0,1,.145-2.5c.11-.674.1-1.373.192-2.057a1.21,1.21,0,0,1,.552-.928,10.379,10.379,0,0,1,1.505-.854c.9-.387,1.827-.719,2.75-1.05.816-.293,1.643-.554,2.466-.83.242-.082.508-.145.6-.434Zm-2.939,21.634a4.571,4.571,0,0,0,.095-.477c.227-3.04.177-6.086.217-9.131a.393.393,0,0,0-.015-.172,1.236,1.236,0,0,0-.184-.2c-.113,3.308-.224,6.542-.332,9.777,0,.024.024.052.044.074A2.011,2.011,0,0,0,287.589,393.049Z" transform="translate(-200.64 -245.281)" fill="#ebecf6"/><path d="M260.315,319.027" transform="translate(-182.869 -200.417)" fill="#e66b48"/><path d="M235.924,302.245a4.864,4.864,0,0,0,.007.605c.028.213.189.269.385.242.257-.571.428-.658.941-.387.355.188.678.436,1.014.656q-.065,1.868-.129,3.737c-.8-.121-1.6-.223-2.4-.35a4.116,4.116,0,0,0-1.378-.031.627.627,0,0,1-.34.01c-.121-.055-.261-.172-.277-.28a.39.39,0,0,1,.2-.323,8.354,8.354,0,0,1,.847-.183,2.164,2.164,0,0,0,.317-.121,3.544,3.544,0,0,0-1.054-.112,4.3,4.3,0,0,1-.6-.023c-.242-.038-.321-.214-.294-.444a1.139,1.139,0,0,1,.819-.194,8.441,8.441,0,0,0,1.356-.04c-.027-.1-.031-.189-.056-.195-.416-.1-.832-.2-1.254-.283a.54.54,0,0,0-.33.073c-.249.139-.484.3-.726.455l-1,.484-.242-.439a3.219,3.219,0,0,0-.685-1.8v.01c.028-.163.01-.3-.18-.363v.008a.277.277,0,0,0-.162-.357l-.019-.006.006.008.01-.652c-.128-.454.121-.847.188-1.279a8.74,8.74,0,0,0,.8-1.006c.07-.144.4-.149.5-.294.373-.53.771-.465,1.274-.2a1.331,1.331,0,0,0,1.2,0c-.027-.184-.056-.35-.074-.516a3.5,3.5,0,0,1-.048-.686.458.458,0,0,1,.224-.33.436.436,0,0,1,.381.09,4.734,4.734,0,0,1,.484.6c.352.431.675.872,1,1.319l-.376,1.168" transform="translate(-157.473 -182.091)" fill="#e66b48"/><path d="M268.631,322.515" transform="translate(-189.991 -203.404)" fill="#e66b48"/><path d="M167.672,349.044c-.146-.091-.1-.154.019-.213a.507.507,0,0,1,0-.169c-.374-.03-.751-.072-1.127-.087-2-.086-4.007-.158-6.01-.243-.241-.01-.53.067-.726-.177l-.232-.036c-.8-.116-1.6-.222-2.4-.35a4.081,4.081,0,0,0-1.376-.032.626.626,0,0,1-.34.009c-.116-.055-.26-.171-.277-.279a.388.388,0,0,1,.2-.323,7.985,7.985,0,0,1,.848-.182,2.114,2.114,0,0,0,.316-.122,3.566,3.566,0,0,0-1.053-.112,4.274,4.274,0,0,1-.6-.025c-.243-.036-.321-.213-.295-.443a1.143,1.143,0,0,1,.817-.192,8.514,8.514,0,0,0,1.357-.04c-.027-.1-.032-.19-.055-.2-.416-.1-.833-.205-1.255-.283a.544.544,0,0,0-.331.072c-.247.141-.483.3-.726.456l-.013-.013-1,.485c.015.228.025.458.048.68s.061.448.1.69c-.836.439-1.631.867-2.427,1.285a12.088,12.088,0,0,1-1.4.709,19.176,19.176,0,0,0-2.566,1.292s.006.006.008.009l-.338.179.027.034-.028-.034-.338.184.029.034,0,0-.028-.036-.344.19v0l-.338.184.038.042-.04-.042v0l-1.266.644v0l-.251.122-.029.179a9.041,9.041,0,0,1-1.5.8,1.474,1.474,0,0,1-.23.243q-1.431.952-2.868,1.895c-.24.156-.483.3-.726.449a7.3,7.3,0,0,0,2.672,2.165l9.53.49c.053-.576.114-1.152.156-1.728.135-1.7.26-3.408.4-5.113.027-.266.108-.6.15-.872a3.505,3.505,0,0,1,1.473-.62,26.535,26.535,0,0,1,3.936-.7c2.136-.236,4.273-.464,6.413-.629,1.068-.082,2.148-.017,3.222-.027.317,0,.637-.028.954-.044A1.017,1.017,0,0,0,167.672,349.044Zm-20.457,2.218c.013.013.025.028.038.044a.007.007,0,0,1-.006,0c-.011-.015-.025-.029-.036-.044Z" transform="translate(-78.921 -223.127)" fill="#1a1818"/><path d="M196.612,385.391a.007.007,0,0,1-.006,0c-.011-.015-.025-.029-.036-.044l0,0C196.587,385.36,196.6,385.375,196.612,385.391Z" transform="translate(-128.279 -257.212)" fill="#1a1818"/><path d="M196.612,385.391a.007.007,0,0,1-.006,0c-.011-.015-.025-.029-.036-.044l0,0C196.587,385.36,196.6,385.375,196.612,385.391Z" transform="translate(-128.279 -257.212)" fill="#1a1818"/><path d="M186.816,390.206l-.04-.042h0Z" transform="translate(-119.892 -261.337)" fill="#040505"/><path d="M196.612,385.391a.007.007,0,0,1-.006,0c-.011-.015-.025-.029-.036-.044l0,0C196.587,385.36,196.6,385.375,196.612,385.391Z" transform="translate(-128.279 -257.212)" fill="#040505"/><path d="M191.571,387.578l0,0-.029-.036h0Z" transform="translate(-123.972 -259.093)" fill="#040505"/><path d="M186.816,390.206l-.04-.042h0Z" transform="translate(-119.892 -261.337)" fill="#040505"/><path d="M191.571,387.578l0,0-.029-.036h0Z" transform="translate(-123.972 -259.093)" fill="#040505"/><path d="M129.443,247.969a1.8,1.8,0,0,1-1.479-.885c.375.071.623.128.872.163.229.032.461.04.691.059Z" transform="translate(-69.526 -138.806)" fill="#e33f3e"/><path d="M135.066,237.506c.309-.156.53-.008.828.217a1.526,1.526,0,0,1-.477.192C135.2,237.911,135.071,237.763,135.066,237.506Z" transform="translate(-75.608 -130.548)" fill="#f6c0b4"/><path d="M142.59,229.15l.092-.147a.646.646,0,0,1,.163.111c.013.016-.041.089-.064.134Z" transform="translate(-82.052 -123.322)" fill="#040505"/><path d="M141.855,225.322l.292.023-.006.091-.293-.018Z" transform="translate(-81.416 -120.169)" fill="#040505"/><path d="M103.119,274.815c-.023-.226-.032-.452-.048-.68l-.243-.439a3.512,3.512,0,0,1-.684-1.79c-.234-.036-.255-.173-.183-.355-.226-.038-.272-.162-.182-.355-.074-.017-.173-.01-.213-.055-.173-.192-.327-.4-.5-.62a13.7,13.7,0,0,0-2.326.739c-3.358,1.293-6.706,2.617-10.058,3.925a2.269,2.269,0,0,1-1,.283c.154-.361.519-.323.709-.532l-.325-.259c.044-.053.07-.125.11-.133.483-.091.969-.171,1.517-.264l-.093-.726.606.6c.629-.124,4.733-1.688,6.633-2.534a5.049,5.049,0,0,0-.264-.513q-1.223-1.856-2.469-3.7a1.535,1.535,0,0,1-.34-1.131c.089-.6-.306-1.038-.572-1.515l-.173-.173-.181-.169a6.4,6.4,0,0,1-1.249-.89l.707.089.181-.371c.059.023.141.031.154.067.124.323.234.652.348.979l.173.177.16.16a2.083,2.083,0,0,1,.777,1.756,1.187,1.187,0,0,0,.184.737c.907,1.344,1.806,2.7,2.7,4.043.065.1.124.2.177.285,1.41-.325,2.629-.977,3.925-1.237.283.089.407.41.72.331-.127-.454.124-.853.188-1.279l-2.032-.027c-.375.021-.751.051-1.125.059s-.747,0-1.055,0c-.283.238-.108.648-.536.77a2.221,2.221,0,0,0-.5-1.865c-.027-.036-.011-.1-.01-.16a.477.477,0,0,1-.355-.525.483.483,0,0,1-.354-.524,1.06,1.06,0,0,1-.259-.2q-.887-1.32-1.762-2.651c-.086-.139-.2-.285-.091-.464-.335-.076-.378-.143-.346-.525-.336-.076-.378-.139-.35-.523l-.038,0c-.344,0-.433-.251-.487-.538-.118.01-.181-.042-.181-.154,0-.008,0-.015,0-.025-.15-.072-.3-.135-.45-.215-.3-.162-.6-.333-.9-.5a8.7,8.7,0,0,1-.734.952,2.4,2.4,0,0,1-1.9.654,3.971,3.971,0,0,1-3.406-1.851c-.677.15-1.361.272-2.03.454a4.532,4.532,0,0,0-2.891,5.286c.293,1.028.641,2.043.967,3.064.3.137.346.452.513.726.365.819.7,1.648,1.066,2.467q.815,1.907,1.811,3.729c-.04-.059-.082-.118-.122-.177a1.272,1.272,0,0,0,.215.9c.43.874.876,1.741,1.315,2.61.593.954,1.18,1.912,1.775,2.864.122.194.274.373.4.566a.545.545,0,0,0,.684.2c.243-.15.485-.295.726-.451q1.437-.941,2.866-1.9a1.385,1.385,0,0,0,.232-.241c-.4.008-.812.03-1.215.034a4.688,4.688,0,0,0,1.718-.458c.26-.12.526-.226.789-.336l.253-.122,1.266-.644.342-.184.344-.19.342-.184.344-.183a19.266,19.266,0,0,1,2.564-1.292,11.981,11.981,0,0,0,1.4-.709c.8-.418,1.591-.842,2.427-1.285C103.178,275.262,103.142,275.041,103.119,274.815Zm-21.655-7.46,0,0a1.081,1.081,0,0,1-.312-.992c.011-.2.036-.411.315-.483Zm.7.338c-.424-.219-.388-.566-.451-.855a.566.566,0,0,1,.255-.65c.025.3.032.546.063.787.029.215.078.428.135.717Zm3.733.137a.96.96,0,0,1,.494.819h0A.833.833,0,0,1,85.9,267.83Zm-.135-.177a.751.751,0,0,1-.41-.791.881.881,0,0,1,.414.791Zm.679,1.042a2.206,2.206,0,0,1,.747,1.216v0A1.581,1.581,0,0,1,86.442,268.695Zm2.824,4.408c.158.076.295.158.158.363h0C89.265,273.389,89.126,273.308,89.267,273.1Zm-.1-.3-.139.1c-.061-.076-.125-.156-.182-.243a.39.39,0,0,1,.1-.076C89.024,272.652,89.094,272.728,89.17,272.8Zm-.31-.451c-.308-.059-.308-.059-.492-.378h.006c-.355-.521-.707-1.044-1.047-1.566a.735.735,0,0,1-.04-.257,4.107,4.107,0,0,1,1.224,1.7ZM87.387,263.8a3.791,3.791,0,0,1,1.33.257,3.04,3.04,0,0,1-2.739-.667A6.3,6.3,0,0,1,87.387,263.8Zm-1.414-.462h0a1.328,1.328,0,0,1-.869-.591,1.456,1.456,0,0,1-.449-1.042Z" transform="translate(-28.516 -150.687)" fill="#c0051d"/><path d="M103.257,361.6l-.2-.381Z" transform="translate(-48.198 -236.55)" fill="#e11d19"/><path d="M94.764,343.7c0,.068-.011.137-.017.2l-.1-.1A.663.663,0,0,1,94.764,343.7Z" transform="translate(-40.997 -221.55)" fill="#ebecf6"/><path d="M289.348,542.808l2.087-.016c.133.207.35.168.542.171a16.213,16.213,0,0,0,3.081-.149q-.016,1.375-.033,2.749c-.143-.1-.281-.2-.427-.294a1.694,1.694,0,0,0-1.652-.1c-.107.045-.2.108-.309.157a2.708,2.708,0,0,1-3.276-.443Q289.356,543.843,289.348,542.808Z" transform="translate(-207.733 -392.045)" fill="#e66b48"/><path d="M222.452,380.91c.053-.576.113-1.152.157-1.728.133-1.7.259-3.408.393-5.112.023-.288.076-.572.121-.859a3.525,3.525,0,0,1,1.563-.686,26.68,26.68,0,0,1,3.937-.7c2.134-.235,4.27-.462,6.413-.628,1.069-.082,2.147-.018,3.221-.027.318,0,.635-.029.953-.045l.2.085c-.1.289-.363.352-.605.434-.821.277-1.649.537-2.466.83-.923.331-1.85.663-2.75,1.05a10.367,10.367,0,0,0-1.505.854,1.21,1.21,0,0,0-.552.928c-.09.687-.082,1.388-.192,2.057a19.249,19.249,0,0,0-.145,2.5,4.938,4.938,0,0,0-2.644.559h.623c.041.229.225.262.413.292.054,1.166-.427,13.907-.563,14.691-.41.055-.837.121-1.264.168-.605.069-1.21.128-1.815.191h-2.8l-.639-.113c-.064-.741-.16-1.46-.183-2.178-.109-3.522-.108-7.045.074-10.566C222.432,382.249,222.434,381.579,222.452,380.91Zm5.887,12.205c.083-.1.194-.171.2-.254a6.938,6.938,0,0,0,.048-.869q-.011-4.4-.032-8.806c0-.2-.01-.406-.028-.6-.013-.148-.063-.276-.311-.195.007,3.5.249,7.012.027,10.527,0,.042.044.094.092.2Z" transform="translate(-150.279 -245.035)" fill="#d7d8ed"/><path d="M228.346,542.758h2.8c.1.053.192.154.287.152.549-.008,1.1-.036,1.648-.066.288-.016.576-.05.863-.075q0,1.367-.007,2.733c-.169-.109-.333-.231-.511-.325a1.693,1.693,0,0,0-1.506-.057c-.188.076-.363.19-.546.265a2.6,2.6,0,0,1-3.036-.53Q228.34,543.8,228.346,542.758Z" transform="translate(-155.48 -392.016)" fill="#e66b48"/><path d="M397.159,219.944a1.308,1.308,0,0,1-.866-1.433c.036-1.038.044-2.076.063-3.115a6.084,6.084,0,0,0,2.42.036.605.605,0,0,1,.68.307v.9a1.1,1.1,0,0,1,1.1-.031.925.925,0,0,1-.023,1.254.905.905,0,0,0-.217.629,9.884,9.884,0,0,0,.161,2.478,1.711,1.711,0,0,1-1.175,1.661,2.246,2.246,0,0,1-1.2.064,1.21,1.21,0,0,1-1.135-1.281c0-.005,0-.011,0-.016-.006-.087-.01-.173-.014-.26l.087-.172a2.057,2.057,0,0,0,1.01-.191,1.758,1.758,0,0,0,1.113-1.02,1.134,1.134,0,0,0,0-.318A3.337,3.337,0,0,1,397.159,219.944Zm-.161-3.33a.181.181,0,0,0,.007.069c.006.012.034.013.052.019l-.066-.084c-.121-.149-.242-.242-.467,0Zm1.877.4.113.039-.041-.109a.761.761,0,0,0-.968-.264c.081.068.121.121.163.133.241.071.492.134.734.2Zm-1.066,1.777-.045-.194c-.191-.01-.384-.03-.575-.025-.11,0-.163.194-.074.267s.2.171.285.155a1.542,1.542,0,0,0,.408-.2Zm.484-1.492c-.024-.045-.039-.114-.074-.121a.448.448,0,0,0-.149.038l.1.186Zm-1.474-.229-.108-.07c-.019.041-.058.085-.053.121s.061.053.095.08Z" transform="translate(-299.306 -111.67)" fill="#e66b48"/><path d="M395.16,202.137a1.1,1.1,0,0,0-1.1.031v-.9a.605.605,0,0,0-.68-.307,6.085,6.085,0,0,1-2.42-.036c-.2-.11-.41-.212-.6-.33a.669.669,0,0,1-.363-.726.782.782,0,0,1,.6-.675,4.2,4.2,0,0,1,.605-.075,1.777,1.777,0,0,1,.057-.252c.121-.3.242-.407.5-.352a8.213,8.213,0,0,1,3.025,1.264,1.125,1.125,0,0,1,.484.976C395.249,201.22,395.193,201.68,395.16,202.137Z" transform="translate(-293.913 -97.199)" fill="#040505"/><path d="M361.558,114.572A4.9,4.9,0,0,1,359,113.309a1.91,1.91,0,0,1-.363-.484.944.944,0,0,1,.062-1.064.817.817,0,0,1,.927-.3c.167.037.329.1.532.16.09-.209.169-.419.267-.62a.9.9,0,0,1,1.47-.08,1.574,1.574,0,0,1,.273.628A4.7,4.7,0,0,1,361.558,114.572Z" transform="translate(-266.957 -21.9)" fill="#c0051d"/><path d="M295.339,145.342a3.309,3.309,0,0,1-.645-1.849,1.492,1.492,0,0,1,.105-.6.643.643,0,0,1,1.123-.171c.082.121.153.242.242.376.177-.042.341-.091.509-.121a.651.651,0,0,1,.644.939,2.426,2.426,0,0,1-.348.495A3.485,3.485,0,0,1,295.339,145.342Z" transform="translate(-212.311 -49.214)" fill="#c0051d"/><path d="M401.7,244.043a3.337,3.337,0,0,0,2-.506,1.134,1.134,0,0,1,0,.318,1.759,1.759,0,0,1-1.113,1.02,2.057,2.057,0,0,1-1.01.191Z" transform="translate(-303.846 -135.768)" fill="#e33f3e"/><path d="M402.539,237.731a1.533,1.533,0,0,1-.408.2c-.085.016-.2-.086-.285-.155s-.036-.264.074-.267c.191,0,.382.016.575.025Z" transform="translate(-304.037 -130.61)" fill="#f6c0b4"/><path d="M408.992,224.2c-.242-.066-.492-.129-.736-.2-.046-.013-.082-.065-.163-.133a.76.76,0,0,1,.968.264Q409.026,224.164,408.992,224.2Z" transform="translate(-309.424 -118.857)" fill="#a74434"/><path d="M409.034,227.833l-.121.1-.1-.186c.051-.014.109-.051.149-.037S409.009,227.793,409.034,227.833Z" transform="translate(-310.044 -122.208)" fill="#492620"/><path d="M398.494,223h-.469c.224-.242.348-.143.467,0Z" transform="translate(-300.802 -118.054)" fill="#434246"/><path d="M399.076,226.646l-.066.132c-.034-.027-.089-.05-.094-.08s.034-.081.053-.121Z" transform="translate(-301.564 -121.244)" fill="#492620"/><path d="M414.424,226.2l.041.109-.112-.039A.353.353,0,0,1,414.424,226.2Z" transform="translate(-314.785 -120.92)" fill="#a74434"/><path d="M401.243,223.886l.067.083c-.018-.006-.045-.007-.052-.019a.183.183,0,0,1-.007-.069Z" transform="translate(-303.558 -118.935)" fill="#434246"/><path d="M513.466,364.881h-.01a.014.014,0,0,1,0-.008Z" transform="translate(-399.652 -239.678)" fill="#c0051d"/><path d="M517.022,367.422a.016.016,0,0,0-.01,0v-.01Z" transform="translate(-402.701 -241.855)" fill="#c0051d"/><path d="M518.289,368.6h-.006v-.008Z" transform="translate(-403.789 -242.864)" fill="#c0051d"/><path d="M538.906,390.544h0l0-.009Z" transform="translate(-421.446 -261.655)" fill="#c0051d"/><path d="M540.26,392.873a.012.012,0,0,1-.008,0v-.008Z" transform="translate(-422.602 -263.65)" fill="#c0051d"/><path d="M545.079,399.014s-.008,0-.01,0,0,0,0-.006Z" transform="translate(-426.728 -268.909)" fill="#c0051d"/><path d="M546.386,401.4l-.006,0v-.008Z" transform="translate(-427.85 -270.948)" fill="#c0051d"/><path d="M547.539,402.667h-.008v-.01Z" transform="translate(-428.836 -272.036)" fill="#c0051d"/><path d="M549.955,406.332h0s0-.006,0-.009Z" transform="translate(-430.91 -275.175)" fill="#c0051d"/><path d="M552.536,411.135h0s0-.006,0-.008Z" transform="translate(-433.121 -279.29)" fill="#c0051d"/><path d="M553.8,413.523l-.008,0v-.011Z" transform="translate(-434.197 -281.33)" fill="#c0051d"/><path d="M554.9,414.831h-.008s0-.008,0-.011Z" transform="translate(-435.138 -282.452)" fill="#c0051d"/><path d="M507.08,372.854a4.254,4.254,0,0,0-.641-1.125.932.932,0,0,0-1.256-.22,2.934,2.934,0,0,0-.848.726c-.376.511-.679,1.078-1.011,1.621a7.537,7.537,0,0,0-.4,2.2c-.122.914-.207,1.834-.3,2.75-.078.719-.152,1.435-.2,2.154-.078,1.182-.133,2.362-.2,3.543h-.283a5.254,5.254,0,0,0,.076-.523c.076-1.247.12-2.5.226-3.741.12-1.414.291-2.828.452-4.24.12-1.038.245-2.076.393-3.108a45.241,45.241,0,0,1,1.439-6.717c.076-.245.22-.483.089-.753-.232-.089-.3.122-.4.238a22.543,22.543,0,0,0-3.195,4.879,26.925,26.925,0,0,0-1.427,3.752c.091.274.173.553.276.823a23.76,23.76,0,0,1,1.49,5.987c.122,1.127.194,2.258.287,3.387l-.373-.009h0a13.631,13.631,0,0,0,.067-1.646,27.13,27.13,0,0,0-2.627-9.771c-.146-.3-.407-.576-.319-.956-.129,0-.164-.074-.158-.188a.258.258,0,0,1-.181-.346.586.586,0,0,1-.371-.688c-.316-.106-.348-.16-.348-.526-.127,0-.171-.07-.165-.184a.247.247,0,0,1-.188-.344c-.314-.1-.354-.163-.354-.515-.262.015-.336-.137-.338-.365a.25.25,0,0,1-.074-.019.243.243,0,0,1-.12-.314c-.019,0-.038,0-.055,0-.222-.006-.295-.146-.281-.369l-.251-.175v-.2l-.049-.027c-.154-.048-.255-.131-.255-.277a.4.4,0,0,1,.011-.091c-.295-.057-.451-.291-.629-.5l-.034-.032-.165-.285.009-.008a1.268,1.268,0,0,1-.713-.7l-.013.021a.534.534,0,0,1-.055,0,.5.5,0,0,1-.481-.519c-.122.009-.179-.046-.182-.167-.283.038-.422-.131-.508-.367l-.39.019.348,1.017.135.329.3.749.12.346a15.7,15.7,0,0,1,1.023,3.111c.353,1.4.631,2.813.943,4.218a.659.659,0,0,0,.076.156c.1.232.194.468.3.7.048.114.1.226.152.336a12.216,12.216,0,0,1,1.2,4.071c.16,1.41.355,2.819.536,4.227a1.7,1.7,0,0,0,.078.249l-.3.006h-.01c-.146-1.173-.289-2.344-.443-3.514-.1-.713-.177-1.433-.323-2.136a12.416,12.416,0,0,0-1.192-3.239c-.122-.228-.253-.452-.39-.673a4.33,4.33,0,0,1-.24-.532.946.946,0,0,1-.526-.7.222.222,0,0,1-.059-.015.253.253,0,0,1-.139-.319c-.127.008-.179-.057-.167-.181-.125.009-.181-.05-.173-.175-.125.008-.182-.051-.175-.175-.123.01-.188-.04-.181-.167a.213.213,0,0,1-.057.015.252.252,0,0,1-.279-.207c-.11,0-.19-.034-.182-.165h-1.391c.008.127-.055.18-.181.171.011.124-.038.19-.171.181,0,.082.034.177,0,.24a12.426,12.426,0,0,0-.95,2.7c-.07.31-.129.623-.175.939a39.851,39.851,0,0,0-.633,5.177c-.013.289.021.58.032.869l.344-.789c.464-1.064.907-2.136,1.4-3.186a5.4,5.4,0,0,1,.726-1.08c.241-.3.538-.26.684.084a8.449,8.449,0,0,1,.477,1.395,49.236,49.236,0,0,1,.918,5.668l-.53.148a3.426,3.426,0,0,0-.051.521c.07,1.214.114,2.435.241,3.645A23.024,23.024,0,0,0,494,393.4a5.19,5.19,0,0,0,1.412,2.456c.344.032.686.091,1.03.091q2.341.014,4.677,0c.344,0,.69-.055,1.032-.085a6,6,0,0,0,1.482-2.817,23.691,23.691,0,0,0,.5-2.383c.2-1.5.34-3,.485-4.5.04-.428.006-.869.006-1.353l-1.125-.205-.241-.008h0a56.823,56.823,0,0,1,.709-5.868c.188-.906.439-1.8.7-2.689a2.061,2.061,0,0,1,.7-1.173l.224-.093-.023-.011c.487-.447.637-.449,1.171,0h-.023l.2.167.161.163.164.188.4.2A8.525,8.525,0,0,0,507.08,372.854ZM495.931,388.19l.082.1a.694.694,0,0,1-.122.038c-.015,0-.049-.055-.049-.055A.719.719,0,0,1,495.931,388.19Zm-1.716-8.335a.226.226,0,0,1-.032-.068.253.253,0,0,0,.009-.036,1.989,1.989,0,0,1-.205-.295l-.175-.348c-.181-.173-.353-.35-.268-.656a.694.694,0,0,1,.34.589l.177.348a.328.328,0,0,1,.131.361c.032.036.065.074.1.108l-.108-.072C494.25,379.856,494.224,379.865,494.214,379.856Zm-.165,6.542c.085-.029.154-.072.179-.053a2.68,2.68,0,0,1,.855.931l.173.175.171.181.175.177c.036.04.106.108.1.122-.085.124-.133.025-.184-.04l-.175-.183-.175-.173-.169-.181A2.832,2.832,0,0,1,494.049,386.4Zm2.169,3.581-.167-.181a.934.934,0,0,1-.5-.547l-.163-.181-.355-.378c.1-.03.177-.066.188-.051.086.108.162.22.241.342l.175.184a.92.92,0,0,1,.494.551l.169.182c.034.04.1.108.095.122C496.311,390.152,496.267,390.042,496.218,389.979Zm.582.646-.192-.158-.08-.163.16.078.131.222.063.044Zm.144-1.2-.338-.353-.173-.177-.173-.177-.078-.165.163.072.171.177.167.181.177.177.173.182a.666.666,0,0,1,.416.422C497.159,389.732,497.159,389.732,496.944,389.43Zm4.625-17.807c-.211-.793-.143-1.078.469-1.954,0-.006,0-.011,0-.017a.048.048,0,0,1,.015,0l.074-.057c-.008.019,0,.046-.021.055a.1.1,0,0,1-.053,0l-.01.006a.031.031,0,0,1-.008.009c-.013.163-.023.329-.049.49a2.744,2.744,0,0,0-.093.329C501.878,371.225,501.889,371.229,501.568,371.622Zm3.923.741c-.078.07-.219.163-.209.226.074.464-.283.412-.555.534l-.028-.591a3.2,3.2,0,0,1,1.034-.555h0C505.774,372.27,505.571,372.293,505.491,372.363Z" transform="translate(-378.644 -239.724)" fill="none" stroke="#1a1818" stroke-miterlimit="10" stroke-width="0.1"/><path d="M504.817,418.128s0,.006,0,.008,0,0,.006,0Zm-.523-.69a.017.017,0,0,0,.01,0l-.011-.013S504.295,417.434,504.295,417.438Zm-.2-.334s.009,0,.013,0l-.01-.013A.034.034,0,0,0,504.1,417.1Zm-.167-.181s.008,0,.011,0l-.011-.01Zm-.173-.175h.012l-.012-.011Zm-.175-.175h.009l-.009-.01Zm-.181-.167a.033.033,0,0,0,.013,0l-.013-.009S503.4,416.4,503.4,416.406Zm-.336-.192h.011l-.013-.01A.017.017,0,0,0,503.065,416.214Zm-.183-.165h.012l-.012-.009Zm-1.391,0v-.011l-.011.011Zm-.181.171v-.01l-.01.01Zm-.171.18v-.013l-.008.013Z" transform="translate(-389.101 -283.494)" fill="#c0051d"/></g></svg>