<!-- Generator: Adobe Illustrator 22.1.0, SVG Export Plug-In  -->
<svg version="1.1"
	 xmlns="http://www.w3.org/2000/svg" xmlns:xlink="http://www.w3.org/1999/xlink" xmlns:a="http://ns.adobe.com/AdobeSVGViewerExtensions/3.0/"
	 x="0px" y="0px" width="631.5px" height="568.9px" viewBox="0 0 631.5 568.9" style="enable-background:new 0 0 631.5 568.9;"
	 xml:space="preserve">
<style type="text/css">
	.st0{fill:#C45D4A;}
	.st1{fill:#C0BDD0;}
	.st2{fill:#F4B275;}
	.st3{fill:#0F172D;}
	.st4{fill:#CD6E60;}
	.st5{fill:#A3A2A8;}
	.st6{fill:#90CBBB;}
	.st7{fill:#644832;}
	.st8{fill:#B0DDD0;}
	.st9{fill:#B0D2C9;}
	.st10{fill:#085072;}
	.st11{fill:#72CADF;}
	.st12{fill:#6275B8;}
	.st13{fill:#3B55A6;}
	.st14{fill:#E48F2F;}
	.st15{fill:#EB433A;}
	.st16{fill:#EBE9E5;}
	.st17{fill:#999999;}
</style>
<defs>
</defs>
<path class="st0" d="M44.7,520.1c1.6,2.3,4,1.8,6.2,1.8c25.8,0,51.6,0.3,77.4-0.2c7.6-0.1,14.2,1.3,20.2,5.7c1.9,1.4,4,2.3,6.4,1.9
	c0.3,0.3,0.7,0.7,1,1c1.3,1.6,2.9,3.1,2.9,5.4c-1.9,5.1-3.8,10.1-5.8,15.2c0,0.4-0.1,0.7-0.1,1.1c-0.4,1.2-0.9,2.3-1.3,3.5
	c-1,0.2-1.9,0.4-2.9,0.6c-2.9,0-5.7,0-8.6,0c-1.9-0.1-3.9-0.3-5.8-0.3c-33.9,0-67.8-0.1-101.7,0.1c-4.5,0-7.8-0.7-9.1-5.4
	c-1.7-4.9-3.5-9.9-5.2-14.8c-0.2-2.5,1.6-3.8,3-5.4C29.6,527.9,36.2,521.9,44.7,520.1z M144.1,532.3c0.5-2.1-0.9-2.5-2.5-2.8
	c-2.9-1-5.4-2.7-8.9-2.6c-29.3,0.2-58.5,0.2-87.8,0.1c-4.2,0-8,0.6-11.3,3.3c-1.2,0-1.7,0.8-2.2,1.7c-3.8,2.6-1.6,6.5-1.6,9.7
	c0,2.5,2,2,3.9,1.2c1.3-0.6,1.1,1,1.2,1.7c0.2,1.7,1.2,2.5,2.9,2.4c1.4-0.1,2.3-0.8,2.5-2.3c0.6-3.6,2.2-3.9,4.2-1.1
	c2.1,2.9,3.4,1.1,5-0.6c0.1,0.6,0.2,1,0.3,1.5c0.2,1.7-0.4,3.7,2.3,3.9c2.8,0.2,3.3-1.5,3.1-3.7c-0.2-2.2,1-2,2.6-1.9
	c2.1,0.1,2.5-1.5,2.6-3.3c0.1-2.1,0.3-4.2,0.5-6.3c13.3,0,26.7,0.1,40,0.1c-0.7,0.5-2,0.9-2,1.5c-0.1,1.3,1.3,0.5,2,0.8
	c2.1,1,4.5,1.1,6.7,0.9c14.4-1.5,28.9-0.8,43.4-1c1.1,0,2.4,0.6,3.5-0.9C151.4,531.8,146.9,535.2,144.1,532.3z M138.8,552.4
	c0-0.2,0-0.3,0-0.5c-19.1,0-38.1,0-57.2,0c0,0.2,0,0.3,0,0.5C100.7,552.4,119.8,552.4,138.8,552.4z"/>
<path class="st1" d="M628.9,530c0,1.9,0,3.8,0,5.8c0,0.5,0,1.1,0,1.6c0,15.5,1.4,12.4-13.2,14.7c-19.7,3.1-39.8,2.6-59.7,0.7
	c-5.1-0.5-10.2-1-15.2-1.7c-1.6-0.2-3.9-0.4-4.2-2.6c-0.3-2.8,2.5-1.9,3.8-2.5c4.7-2.2,10-1.9,15-2.6c6.6-0.9,6.7-0.5,6.2-7.5
	c4.2-1.3,0.1-4.2,1.2-6.1c0-7.3,0-14.5,0-21.8c0.9,0.1,1.8,0.3,2.2,1.3c3.1,7.3,10,9.3,16.6,11.3c6.2,1.9,12.9,1.8,19.4,1.1
	c10.1-1,19.9-3.1,24.9-13.6c0.8-0.1,1.7-0.2,2.5-0.4C629.5,515.1,628.5,522.6,628.9,530z M626.8,525.3c-0.7-1.7,1.3-4.8-1.8-5.1
	c-2.1-0.2-1.4,2.5-1.4,3.9c0.1,2-1,5.2,1.6,5.5C627.9,529.8,626.2,526.8,626.8,525.3z"/>
<path class="st1" d="M628.5,481.9c0.2,2.2,0.3,4.4,0.5,6.6c-0.4,0.1-0.8,0.2-1.2,0.2c-3.1-0.3-4.5,0.7-4.3,4.1
	c0.2,5.1,0,10.1,0,15.2c-2.3,3.2-4.7,6.3-8.5,7.7c-7.8,3-15.9,4.8-24.3,3.7c-7.3-0.9-14.4-2.8-20.3-7.8c-7.6-6.4-7.6-15.4-8.7-24.1
	c2-1.5-0.6-3.7,0.8-5.3c2.5-0.9,4.2,2.5,6.8,1.4c0.7,0.2,1.4,0.4,2,0.5c1.2,1.5,2.7,1.2,4.3,0.8c2.8,0.1,5.6,0.3,8.4,0.4
	c2.1,0,4.2,0,6.3,0c6,0,12.1,0,18.1,0c4.1,0.4,7.9-1,11.9-1.2C623.6,484.8,625.7,482.1,628.5,481.9z M607.5,487.4c0-0.1,0-0.3,0-0.4
	c-7.7,0-15.4,0-23.1,0c0,0.1,0,0.3,0,0.4C592.1,487.4,599.8,487.4,607.5,487.4z"/>
<path class="st2" d="M356.2,110.8c-2.1,7.9-0.5,15.7,1,23.4c-5.9-2.7-11.8-5.5-17.8-8c-4.6-1.8-7.5-5-9.5-9.4
	c-4.2-9.4-8.4-18.9-12.7-28.3c0.8-7.9,3.3-11.4,8.8-12.7c3.4-0.8,6,1.6,9.1,1.9c0,0-0.1-0.1-0.1-0.1c0.3,0.3,0.6,0.7,0.8,1
	c4,9,7.9,18.1,12.1,27C349.5,108.8,352.8,110.1,356.2,110.8z"/>
<path class="st3" d="M278.9,2.3c8.8,0,17.5,0,26.3,0c1.8,0,4.1,0.7,4.4-2.3c3.8,3.5,7.7,6.9,11.5,10.4c-2.3,0.4-2.1,2.2-2.3,3.9
	c-2.3,3.8-6.3,6.9-4.8,12.1c-0.4,0-0.8,0-1.1,0c-0.1-1.7-0.1-3.4-0.2-5.1c-0.3-1.1-1.2-1.2-2.1-1c-10.6,0-21.3,0-31.9,0
	c3-5.4,4.7-10.9,0.2-16.4C278.5,3.6,278.8,2.8,278.9,2.3z"/>
<path class="st4" d="M495.6,512.3c2.1,0.3,4.1,0.6,6.2,0.8c1.6,0.2,3.3-0.1,3.3,2.3c0.1,1.9-1,2.8-2.8,3.1c-1.2,0.2-2.3,0.7-3.5,1
	c-0.7,0.1-1.4,0.2-2.1,0.3c-0.4,0.3-0.8,0.5-1.2,0.8c0,0-0.1-0.2-0.1-0.2c-2.5,0.1-5.1,0.3-7.4,1.4c-13.1,1.7-25.9,4.8-38.7,7.9
	c-0.9-0.2-1.7-0.3-2.6-0.5c0.1-3.6-1.4-5.6-5.3-5.2c-0.9-1.7-1.3-3.5-1.3-5.3c14.6-2.3,28.7-8.1,43.9-6.6c2.8,0.1,5.6,0.2,8.4,0.3
	C493.6,512.3,494.6,512.3,495.6,512.3z"/>
<path class="st4" d="M480.5,457.6c1.6,0.7,4.8-0.8,4.6,2.6c-0.3,4.3-4.4,1.9-6.4,3.3c-1.1-0.3-2.2-0.3-3.2,0.5
	c-2.2,0.2-4.5-0.1-6.6,1.2c-2.6,0.2-5.2,0.3-7.8,0.7c-9.4,1.2-18.7,2.5-28.1,3.7c-2.2-1.9-3.5-5.5-7.5-4.1c-1.2-1.3-0.9-2.8-0.9-4.3
	c13.6-1.7,27-4.8,40.8-4.3c2.4,0.1,4.8,0.2,7.2,0.3C475.1,457.6,477.7,458.2,480.5,457.6z"/>
<path class="st4" d="M461.5,411.6c-0.3-0.1-0.6,0-0.8,0.2c-1.1,0.1-2.1,0.1-3.2,0.2c-2.3,0.1-4.5,0.3-6.8,0.4c-13,1-26,2-39.1,3
	c-2.1-2.1-2-4.8-2.3-7.5c12.5-0.5,24.9-2.5,37.5-1.7c3.8,0.1,7.6,0.1,11.4,0.2c6.6,0.8,6.7,1,3.9,5.1
	C461.9,411.3,461.7,411.4,461.5,411.6z"/>
<path class="st2" d="M420.1,109.4c-8,0.1-16.1,0.2-24.1,0.3c0.3-4.4-0.6-8.2-5-10.5c-2.4-1.3-2.5-3.7-1.8-6
	c1.4-4.7,2.5-9.5,5.1-13.7c2.2,4.1,4.9,7.8,8,11.2c1.7,12.9,2.1,13.4,14.7,15.4c0.9,0.1,1.7,0.1,2.6,0.2
	C419.8,107.3,420,108.4,420.1,109.4z"/>
<path class="st4" d="M418,354.1c4.6,1.5,9.4,0.3,14.1,1c3,1.3,6.2,1.4,9.4,1.2c1,0.1,2,0.3,3,0.3c1.5,0.1,2,0.8,2.1,2.3
	c0.1,2.8-2.1,2-3.6,2.5c-3.4,0.2-6.7,0.5-10.1,0.7c-12.1,0.4-24.2,0.8-36.3,1.1c-1.5-1.5-1.3-3.5-1.7-5.3
	C403.1,358.9,410.6,356.5,418,354.1z"/>
<path class="st5" d="M562.8,529.7c-1.1,1.9,3,4.8-1.2,6.1c-18.7,0-37.4,0-56.2,0c-1.7-1.6-2.4-3.5-2.3-5.8c18.3,0,36.6,0,54.9,0
	C559.7,530.1,561.3,529.9,562.8,529.7z"/>
<path class="st2" d="M628.5,481.9c-2.8,0.2-4.9,2.8-7.9,2.3c0.5-1.4-0.2-1.7-1.5-1.8c-12-1.3-24-1.6-35.9-0.8
	c-4.5,0.3-9.4-0.5-13.6,2.1c-2.6,1.1-4.2-2.3-6.8-1.4c0.4-2.9,3-3.4,4.9-3.6c19.2-2.2,38.4-2.8,57.6,0.7c0.9,0.2,1.6,0.6,2.5,1
	c0.3,0.4,0.7,0.9,1,1.3L628.5,481.9z"/>
<path class="st6" d="M433,362c3.4-0.2,6.7-0.5,10.1-0.7c0.1,0.2,0.1,0.4,0,0.6c-2.2,0.2-4.4,0.1-3.1,3.6c4.6,12.3,9,24.7,13.3,37.1
	c0.8,2.4,2.4,3.3,4.8,3.2c0.1,0.2,0.2,0.4,0.1,0.6c-3.8-0.1-7.6-0.1-11.4-0.2c1.4-1.3,0.5-2.6,0.1-3.9
	C442.3,388.9,437.7,375.4,433,362z"/>
<path class="st5" d="M561.9,487.6c1,8.7,1.1,17.7,8.7,24.1c5.9,5,13,6.8,20.3,7.8c8.4,1.1,16.5-0.7,24.3-3.7
	c3.8-1.5,6.2-4.6,8.5-7.7c0.6-0.2,1.1-0.4,1.7-0.5c0.2,0.2,0.4,0.3,0.5,0.5c-5,10.5-14.8,12.6-24.9,13.6c-6.5,0.6-13.1,0.8-19.4-1.1
	c-6.5-2-13.4-4-16.6-11.3c-0.4-0.9-1.3-1.1-2.2-1.3c-0.5-5.4-3.5-10.3-3.2-15.9C559.8,490.3,558.9,488,561.9,487.6z"/>
<path class="st7" d="M419.7,106.3c-0.9,0-1.8,0-2.6-0.2c-12.6-2-13-2.5-14.7-15.4c6.9,3.7,13.7,8,22.2,5.6c0.3-0.1,0.8,0.6,1.2,0.9
	C424.4,100.7,422.6,103.9,419.7,106.3z"/>
<path class="st8" d="M475.5,464c1-0.8,2.1-0.8,3.2-0.5c5.7,16.3,12,32.3,17,48.8c-1,0-2.1,0-3.1-0.1c-4.2-11.5-8.5-22.9-12.5-34.4
	C478.4,473.3,475.4,469.1,475.5,464z"/>
<path class="st8" d="M458.1,405.8c-2.4,0.2-3.9-0.8-4.8-3.2c-4.4-12.4-8.8-24.8-13.3-37.1c-1.3-3.5,0.9-3.4,3.1-3.6
	C448.2,376.5,454,390.9,458.1,405.8z"/>
<path class="st8" d="M457.5,412.1c1.1-0.1,2.1-0.1,3.2-0.2c4.9,13.8,9.8,27.5,14.6,41.3c0.9,2.7,2.8,3.7,5.2,4.5
	c-2.8,0.6-5.4,0-8.1-0.6c-2.6-7.3-4.4-14.8-7.4-22C461.9,427.6,459.3,419.9,457.5,412.1z"/>
<path class="st0" d="M312.8,26.4c0.4,0,0.8,0,1.1,0c4.5,0,5.7-2.4,5.1-6.5c-0.3-1.9-0.2-3.8-0.3-5.7c0.2-1.6-0.1-3.5,2.3-3.9
	c2.2,5.5,1.5,11.3,0.7,16.8c-0.4,3-5.2,2.5-8,3.8c-5.3,0.8-7.4,3.3-4.3,8.5c-1,0.6-2,1.2-2.9,1.8c-0.6-3.7-5.3-6.8-3.3-10.3
	C304.9,28.1,310,29,312.8,26.4z"/>
<path class="st9" d="M503.3,530.1c-0.1,2.3,0.6,4.2,2.3,5.8c-0.5,4.9,2.2,9.1,3.5,13.5c0.8,2.7,1.2,5-2.6,5.2
	c-2.2-11.9-8.2-22.5-10.8-34.3c0,0,0.1,0.2,0.1,0.2c0.4-0.3,0.8-0.5,1.2-0.8c0.7-0.1,1.4-0.2,2.1-0.3
	C499.9,523.2,500.7,527,503.3,530.1z"/>
<path class="st7" d="M306.5,41.2c1-0.6,2-1.2,2.9-1.8c1.3,0.7,2.5,1.4,3.8,2c0.6,1.9,1.1,3.7,1.7,5.6c-1.1,1.2-1.4,2.7-1.3,4.4
	c0.5,5.9-0.5,6.9-6.6,6.9c3.2-1.9,3.3-4.2,1.7-7.5C307.4,47.9,305.6,44.8,306.5,41.2z"/>
<path class="st9" d="M441.5,356.2c-3.2,0.2-6.4,0.2-9.4-1.2c2.6-1,1.7-3.1,1.5-4.9c-0.5-6.3-1.1-12.6-1.6-18.9
	C435.2,339.5,438.4,347.9,441.5,356.2z"/>
<path class="st5" d="M627.9,488.8c0.4-0.1,0.8-0.2,1.2-0.2c4.3,2.9,1.7,6.9,1.4,10.4c-0.2,2.9-1.4,5.8-2.1,8.7
	c-0.8,0.1-1.7,0.2-2.5,0.4c-0.2-0.2-0.3-0.3-0.5-0.5c0.5-2.3,1-4.7,1.6-7c2.7-2.8,3.2-6.1,1.9-9.7
	C628.5,490.2,628.2,489.5,627.9,488.8z"/>
<path class="st10" d="M384.7,114.4c-0.1,0.1-0.2,0.2-0.2,0.3c0.2,0,0.5,0,0.7,0C385.2,114.5,385,114.4,384.7,114.4z"/>
<path class="st10" d="M335.8,78.7c-0.3-0.3-0.6-0.7-0.8-1C335.3,78,335.5,78.4,335.8,78.7z"/>
<path class="st1" d="M628.6,481.6c-0.3-0.4-0.7-0.9-1-1.3C628,480.7,628.3,481.2,628.6,481.6z"/>
<path class="st8" d="M461.5,411.6c0.2-0.3,0.4-0.3,0.7-0.2c0,0-0.3,0.3-0.3,0.3L461.5,411.6z"/>
<path class="st11" d="M187,508c0.2-5.8-1-11.5-1.8-17.3c-1-7.6-0.6-8.4,6.9-10c7-1.4,14.2-2.6,21.4-2.7c1.5,0,3.1-0.5,4.6-0.7
	c2,1.2,4.1,0.7,6.2,0.7c11.9-0.2,23.8-0.2,35.5,2c14.4,2.7,13.7,2.8,11.9,17.2c-1.3,10.9-6.4,21.3-5,32.6c-0.3,2-0.6,4-0.8,6
	c0,4.2-1.7,8.2-1.1,12.5c-0.4,2.5-2.9,3.4-4,5.3c-1.9-0.1-3.9-0.2-5.6,1.1c-2.8,0.1-5.6,0.2-8.4,0.4c-15.3,1.3-30.6,1.4-45.8-1.2
	c-4.7-0.8-8.4-2.3-8.8-7.9c-0.1-3.4-0.3-6.8-0.4-10.2c8.3-0.4,16-2.8,21.9-8.7c5.8-5.7,13.7-9.5,17.3-17.3c-3.4,1.4-5.7,4-8.2,6.4
	c-6.9,6.6-14.7,11.9-23.2,15.9c-2.8,1.3-7.2,4.5-8.7-2c-0.5-6,0.1-12.2-2.9-17.8C188.2,510.8,187.8,509.4,187,508z M261.7,489.3
	c-1.2-1.8-2.8-1.3-4.1-1.5c-9.7-1.6-19.4-1.6-29.2-1.5c-9.2,0.1-18.4,0.1-27.6,1.6c-1.1,0.2-3.5,1.1-3,1.4c3.6,2.3,0.6,5.6,1.7,8.1
	c1,2.3-2,6.7,2.3,6.8c4.1,0.1,1.4-4.2,2.2-6.3c0.4-1.1-0.2-2.9,1.5-2.9c2.2,0,1.6,1.9,1.6,3.2c0,4.8,0,9.6,0.1,14.4
	c0,1.9-0.1,4,3,3.8c2.9-0.1,2.4-2.1,2.4-3.8c0.1-4.6,0.1-9.2,0-13.8c0-1.8,0.6-2.7,2.4-2.6c1.9,0,1.7,1.4,1.7,2.7c0,3.2,0,6.4,0,9.6
	c0,1.6,0,3.4,2.3,3.5c2.2,0.1,2.6-1.6,2.7-3.2c0.2-3.9,0.5-7.8,0.2-11.7c-0.3-4.3,1.2-5.4,5.4-5.3
	C238.8,492,250.1,491.1,261.7,489.3z"/>
<path class="st6" d="M280.5,555.9c-0.6-0.1-1.2-0.1-1.9-0.2c-0.4-3,1.7-5.3,2.3-8.1c4.8-22.4,11-44.5,16.3-66.8
	c7.2-30.2,14.8-60.2,22.2-90.4c4.7-19.3,9.7-38.6,14-58c2.5-11.4,4.8-23,8.5-34.2c2-6.1,3.8-12.4,5.1-18.7c1.3-6,2.6-12.5,8.1-16.7
	c4.4-3.3,4.3-3.9-0.9-6.2c-0.3-2.1-0.7-4.1-1-6.2c2.7-0.7,1.8-2.4,1.3-4.1c-4.2-15.3-8.5-30.6-12.4-45.9c-2.2-8.7-6-17-5-26.3
	c0.4-3.4,1.3-6.3,5.3-6.7c-1.7,4.1-2.7,8.3-1.9,12.9c4.1,22.4,12,43.8,17.7,65.8c3.7,14.4,8.4,28.7,12.5,43.1
	c3.5,12.5,7.3,24.9,10.5,37.5c3.2,12.6,6.9,25.1,10.7,37.6c1.8,5.7,2.6,11.7,4.7,17.3c3.8,10,6.3,20.5,9.2,30.8
	c4,14.7,8.1,29.4,11.7,44.3c4.5,18.3,10.3,36.2,15.5,54.3c3.2,11.1,6.5,22.2,9.6,33.3c2.2,8.1,4.2,16.3,6.3,24.5
	c-5.5,1.2-8.6-0.5-8.9-6.6c-0.1-1.8-1.2-3.6-1.9-5.4c-0.4-5.8-2.5-11-4.3-16.4c0.3-1.9,0.1-3.6-1.9-4.5c-0.3-1.9,0.6-4.1-1.2-5.7
	c0.3-1.3,0.1-2.4-1-3.2c0.4-2,0.3-4-1-5.7c-0.1-1.2,0-2.5-0.3-3.7c-4.6-16.4-9.3-32.9-14-49.3c0.5-2.2-0.5-3.8-1.7-5.4
	c-3.5-16.5-8-32.7-13.1-48.7c0.3-2-0.5-3.8-1.5-5.5c-3.7-15.8-8-31.3-12.5-46.8c-0.5-1.7-1.1-3.5-1.6-5.2c-0.3-3.4-0.7-6.7-2.7-9.9
	c-2.1,3.2-1.2,6.9-3.2,9.7c-0.7,0.4-1.4,0.8-2.1,1.3c0.8-5,1.7-10,2.3-15c0.5-4.4,1.8-9-2.5-12.5c0.2-5.8-0.6-11.4-3.7-16.5
	c0.5-3.1-0.3-5.9-1.8-8.6c-1.2-3.8,0.1-8.5-4.3-11.1c1.9-2.5,0.4-5.2-0.1-7.5c-1-4.8-3.2-9.4-3.9-14.2c-0.4-3.1-2.1-5.5-4.2-5.9
	c-2.4-0.5-3.9,2.3-4.9,4.7c-2.2,5.7-4.2,11.5-5,17.6c-1.6,5.8-3.4,11.6-4.2,17.6c-1.4,2.2-1.2,4.8-1.8,7.2c-4.7,18.7-9.4,37.3-14,56
	c-11.1,45.5-22.2,90.9-33.2,136.4c-1.1,4.6-4.1,8.7-3.1,13.8c-1.9,1.5-0.9,3.6-1.2,5.4c-1,1.6-1.3,3.2-0.9,5.1
	c-1.5,1.6-1.9,3.6-2.1,5.6c-0.8,3.4-2.4,6.7-2.2,10.3C283.3,549.2,284,553.5,280.5,555.9z"/>
<path class="st1" d="M433.9,540.2c1.9,5.4,4,10.7,4.3,16.4c-14.2-0.4-28.3,1.1-42.5,2.2c0-0.5,0-1.1,0-1.6c2.6-0.7,5.5,0.5,7.9-1.8
	c-29.7-0.1-59.5,1.4-89.2-0.7c-2.5,0.5-1.7,2.5-1.9,4.1c-0.7,0-1.4,0-2.2,0c-0.7-0.9-1.4-0.9-2,0c-1.1-0.1-2.2-0.1-3.3-0.2
	c-1-0.9-2.3-0.6-3.5-0.5c-7.1-0.3-14.3,0.8-21.1-2.2c3.5-2.4,2.8-6.7,4.5-9.9c7.1-0.3,14.2-0.6,21.2-1c1.1-0.1,3,0.5,2.8-1.4
	c-0.3-2.6,1.8-2.5,3-2.6c7.2-0.9,14.3-2.7,21.6-1.9c2.1,1.4,4.3,1.3,6.6,0.7c1.6,0.2,2.8-0.5,3.4-2
	C373.8,536.6,403.8,540.3,433.9,540.2z"/>
<path class="st8" d="M448.9,568.6c-2.1-8.2-4-16.4-6.3-24.5c-3.1-11.1-6.4-22.2-9.6-33.3c-5.2-18.1-11-36.1-15.5-54.3
	c-3.7-14.8-7.7-29.6-11.7-44.3c-2.8-10.3-5.3-20.8-9.2-30.8c-2.2-5.7-3-11.6-4.7-17.3c-3.8-12.5-7.5-25-10.7-37.6
	c-3.2-12.6-7-25-10.5-37.5c-4.1-14.4-8.8-28.6-12.5-43.1c-5.7-22-13.6-43.4-17.7-65.8c-0.8-4.5,0.2-8.7,1.9-12.9
	c1.6-0.4,3.4-0.7,4.4-2.3c1.4,0.4,2.8,0.9,4.1,1.3c0.4,0.3,0.8,0.6,1.2,0.9l0,0c-0.2,1.7,0.1,3.6-2.7,2.6c-1.3-0.4-1.5,0.9-1.8,1.9
	c-4.4,1.5-3.1,4.7-2.3,7.8c3.3,12.2,6.5,24.5,9.9,36.7c3.2,11.5,6.6,22.9,9.9,34.4c1.6,4.4,3.3,8.8,3.9,13.6c0.2,1,0.2,2.1,0.5,3.1
	c2.4,8.5,4.9,17,7.4,25.5c1.2,4.7,1.9,9.5,3.9,13.9c0.2,3.4,1.1,6.6,4.3,8.6c0.3,1.5,1.1,3.2,0.9,4.6c-1.5,8.9,3.7,16.2,5.5,24.3
	c0.7,4.7,1.8,9.3,3.6,13.8c0.4,1.8,0.2,3.8,1.7,5.3c4.2,15,7.5,30.1,12.6,44.8c0.2,2.7,0.2,5.4,2.3,7.5c0,0.5-0.1,1.1,0,1.6
	c3.2,14,8.2,27.5,10.8,41.7c0.2,1.1,1,1.8,2,2.3c0,1.5-0.3,3.1,0.9,4.3c-0.1,1.6,0.1,3.1,1.3,4.4c0.1,1.2,0,2.5,0.3,3.6
	c2.5,9.1,4.9,18.2,7.7,27.2c1.9,6,2.5,12.3,5.6,17.9c0.1,1.9,0.4,3.7,1.3,5.3c-0.1,2.1-0.4,4.2,1.9,5.5c0.2,2.4-0.5,5,2.3,6.4
	c-0.2,1.7-0.6,3.5,0.8,5c0.4,5.6,1.7,11,4.4,16c0.4,2.2,0.5,4.5,1.2,6.6C453.2,566.6,452.4,568.4,448.9,568.6z"/>
<path class="st8" d="M354.2,256.6c5.2,2.4,5.3,2.9,0.9,6.2c-5.5,4.2-6.8,10.6-8.1,16.7c-1.4,6.4-3.1,12.6-5.1,18.7
	c-3.6,11.2-5.9,22.8-8.5,34.2c-4.3,19.4-9.3,38.7-14,58c-7.3,30.1-15,60.2-22.2,90.4c-5.3,22.3-11.6,44.4-16.3,66.8
	c-0.6,2.8-2.7,5.1-2.3,8.1c-0.6,0-1.3,0.1-1.9,0.1c-4.1-0.9-5.3-3.4-3.7-7.3c0.1-0.3-0.1-0.7-0.2-1c2.6-3.4,2.6-7.7,3.5-11.6
	c0.4-1.9,0.7-3.8,1.1-5.7c0.4-1,0.9-1.9,1.2-2.9c4.4-17.6,8.7-35.3,13.3-52.9c5.3-20.5,11.1-40.9,16.3-61.5
	c5.4-21.2,10.4-42.5,15.8-63.7c5.7-22.4,11.6-44.7,17.3-67.1c1.1-4.4,2.3-8.8-0.3-13.4c-1.3-2.4-0.9-5.6,1.5-7.8
	c0.3,0.4,0.8,0.7,0.9,1.2c0.5,1.3-0.5,3.5,1.6,3.9c1.7,0.3,2-1.6,2.9-2.6C350.1,261.2,352.1,258.9,354.2,256.6z"/>
<path class="st1" d="M192.4,546.1c0.3,5.5,4,7.1,8.8,7.9c15.2,2.6,30.5,2.5,45.8,1.2c2.8-0.2,5.6-0.3,8.4-0.4
	c-3.4,2.5-7.6,2.3-11.5,2.7c-3.8,0.5-7.5,1.2-11,2.8c-5.1-3.4-9.9,0.2-16-0.1c2.7,1.4,4.7,0.3,6.1,1.8c-8.1,0.1-16.2,1.6-24.3,0.2
	c2.5-2.4,5.9,0,8.5-1.9c-8.2,1.5-16.5-3.1-24.6,1.1c-3.6-0.6-7.3-0.1-10.1-4c-1.1-1.6-5.2-1.1-8-1.5c-4.1-0.6-8.3-0.8-11.6-3.9
	c0-0.4,0.1-0.7,0.1-1.1c3.2-0.9,6.4-2,9.7-2.5C172.6,546.7,182.5,546.5,192.4,546.1z"/>
<path class="st1" d="M451,556.8c-2.7-5-4-10.4-4.4-16c9.3,0.1,18.6,0.6,27.8,2.3c1.2,0.2,3.3,0.7,3.3,1.1c0,5.6,4.2,2.9,6.5,3.3
	c4.1,0.8,8.4,1,12.5,1.4c1.2,1.2,1.7,2.5,0.5,4C482,555.9,466.4,555.6,451,556.8z"/>
<path class="st1" d="M23.6,550.5c1.3,4.7,4.5,5.5,9.1,5.4c33.9-0.2,67.8-0.1,101.7-0.1c1.9,0,3.9,0.2,5.8,0.3
	c-6.7,1.8-13.7,1.3-20.5,1.4c-15.6,0.3-31.1,1.3-46.7,1.6c-19.3,0.4-38.5,1.8-57.8,2.2c-5,0.1-10,1.1-15.3-0.7
	c4.8-2.3,9.5-4.9,14.5-6.8C17.5,552.6,19.6,549,23.6,550.5z"/>
<path class="st6" d="M497.2,553c1.3-1.5,0.8-2.8-0.5-4c-0.5-4.7-2.4-8.9-4.3-13.1c-0.2-2.1-0.6-4.1-2.1-5.6c0.5-3.1-2-5.5-2.2-8.4
	c2.4-1,4.9-1.3,7.4-1.4c2.7,11.7,8.7,22.4,10.8,34.3C503.2,554.8,499.9,555.5,497.2,553z"/>
<path class="st1" d="M312.7,558.8c0.2-1.6-0.7-3.6,1.9-4.1c0.3,1.7,1.3,2.3,3,2.3c5.3,0.2,10.5,0.7,15.8,0.9
	c20.8,0.6,41.6-0.4,62.4-0.8c0,0.5,0,1.1,0,1.6C368,559.5,340.4,560.6,312.7,558.8z"/>
<path class="st1" d="M272.8,547.5c0.1,0.3,0.3,0.8,0.2,1c-1.5,3.9-0.4,6.3,3.7,7.3c-5.4,0.8-10.6-0.4-15.7-2.1
	c1.1-1.9,3.6-2.8,4-5.3C267.6,548.1,270.2,547.8,272.8,547.5z"/>
<path class="st12" d="M182.6,561.3c8.1-4.2,16.4,0.4,24.6-1.1c-2.6,2-6-0.5-8.5,1.9C193.4,562.3,187.9,563.3,182.6,561.3z"/>
<path class="st12" d="M223.1,562c-1.4-1.5-3.4-0.4-6.1-1.8c6.1,0.3,11-3.4,16,0.1C229.8,561.5,226.6,562.7,223.1,562z"/>
<path class="st1" d="M148.8,556.1c1-0.2,1.9-0.4,2.9-0.6C151,557.3,149.9,556.9,148.8,556.1z"/>
<path class="st5" d="M158.8,535.7c0-2.3-1.6-3.8-2.9-5.4c1.1-0.1,2.2-0.3,3.3-0.4c1.5,0,3,0,4.4,0c0.7,0,1.3,0,2,0
	c5.7,0.4,11.5,0.5,17.2,0c0.8,0.1,1.6,0.3,2.5,0.4c0.2-0.1,0.5-0.1,0.7-0.1l0.4,0.2l0.5,0c0,0,0.1,0.1,0.1,0.1
	c-0.2,3.1,3,3.4,4.3,5.3C180.5,535.7,169.6,535.7,158.8,535.7z"/>
<path class="st13" d="M278.9,2.3c0,0.5-0.3,1.2-0.1,1.5c4.6,5.5,2.8,11-0.2,16.4c-4.5,2.4-6.4-3.3-10.2-3.2c0-1.3,0.9-1.8,1.8-2.2
	c2.8,1.3,5.6,2.1,6.3-2.2c0.3-1.7,0.2-3.6-1.7-4.6c-2.4-1.3-3.9,0.6-5.6,1.7c-1.8-1.6-1.9-3,0.4-4.4C272.6,3.7,275.6,2.6,278.9,2.3z
	"/>
<path class="st7" d="M269.3,9.7c1.7-1.1,3.2-3,5.6-1.7c1.9,1,2,2.9,1.7,4.6c-0.7,4.3-3.5,3.5-6.3,2.2c-0.3-0.3-0.6-0.7-0.9-1
	c-0.1-0.7-0.2-1.4-0.3-2.1C269.1,11.1,269.2,10.4,269.3,9.7z"/>
<path class="st9" d="M186,530.1c-0.3,0-0.5,0-0.7,0.1c-0.1-0.3-0.2-0.7-0.3-1c-0.7-7.2-1.3-14.4,2.1-21.2c0.8,1.3,1.1,2.8,1,4.3
	c-2.9,6-2.4,11.9,0.3,17.8c-0.4,0.1-0.9,0.1-1.3,0.2c0,0-0.1-0.1-0.1-0.1C186.7,529.7,186.4,529.6,186,530.1z"/>
<path class="st7" d="M307.1,58.3c-0.1,1.2-0.7,2.4,1.2,2.8c1,0.2,1.3,1.9,0.5,1.9c-5.2,0.6-0.1,3.7-1.4,5.2
	C304.9,65.1,303.2,61.8,307.1,58.3z"/>
<path class="st14" d="M159.2,529.9c-1.1,0.1-2.2,0.3-3.3,0.4c-0.3-0.3-0.7-0.7-1-1C156.3,529.3,157.9,528.8,159.2,529.9z"/>
<path class="st14" d="M184.9,529.2c0.1,0.3,0.2,0.7,0.3,1c-0.8-0.1-1.6-0.3-2.5-0.4C183.5,529.6,184.2,529.4,184.9,529.2z"/>
<path class="st14" d="M165.7,529.9c-0.7,0-1.3,0-2,0C164.3,529.1,165,529.1,165.7,529.9z"/>
<path class="st11" d="M372.6,250.3c4.6,0.3,8.3-0.3,7.4-6.4c1.4,12.7,0.7,25.6,1.1,38.3c0.1,2.8,1.7,5.8-0.2,8.7
	c-1.3,0.6-2.6,1.2-3.9,1.8c-2.5-8.5-4.9-17-7.4-25.5c-0.3-1-0.3-2.1-0.5-3.1c2.8,0.1,3.4-1.7,3.4-4
	C372.5,256.8,372.5,253.5,372.6,250.3z"/>
<path class="st6" d="M377.6,196c-0.6-1.4-1.5-2.8-1.9-4.3c-2.8-12.3-11.3-17.5-22.9-19.3c-1.7-0.3-3.5-0.5-5.2-0.8
	c0.2-1,0.4-2.3,1.8-1.9c2.8,0.9,2.6-1,2.7-2.6c5.3,5.6,12,2.7,18.1,3c1.4,0.8,2.8,1.6,4.2,2.4c1.4,4.5,1,9.3,3.1,13.7
	C375.5,189.4,378.6,192.7,377.6,196z"/>
<path class="st4" d="M380.9,306.6c6.2-1.9,12.5-0.3,18.8-1c1.2,2.4,1.5,5.1,1.7,7.7c-3.6,0.2-7.3,0.3-10.9,0.4
	c-1.9,0.1-3.8-0.2-5.3,1.4C382.1,313.2,381.2,310.1,380.9,306.6z"/>
<path class="st11" d="M33.5,530.3c3.3-2.7,7.1-3.3,11.3-3.3c29.3,0.1,58.5,0.1,87.8-0.1c3.5,0,6,1.6,8.9,2.6
	c0.2,3.5-2.5,1.7-3.7,1.7c-33,0.1-65.9,0.2-98.9,0.1C37.2,531.4,35.1,532.1,33.5,530.3z"/>
<path class="st2" d="M60.7,533.4c-0.2,2.1-0.4,4.2-0.5,6.3c-0.1,1.7-0.5,3.4-2.6,3.3c-1.6-0.1-2.8-0.4-2.6,1.9
	c0.2,2.2-0.3,3.9-3.1,3.7c-2.7-0.2-2.2-2.2-2.3-3.9c0-0.5-0.2-0.9-0.3-1.5c-1.6,1.7-2.9,3.5-5,0.6c-2.1-2.8-3.6-2.5-4.2,1.1
	c-0.2,1.5-1.1,2.2-2.5,2.3c-1.7,0.1-2.6-0.7-2.9-2.4c-0.1-0.7,0.1-2.3-1.2-1.7c-1.9,0.9-3.9,1.3-3.9-1.2c0-3.2-2.2-7.1,1.6-9.7
	c9.8,0.2,19.6,0.4,29.4,0.7C60.6,532.9,60.6,533.2,60.7,533.4z"/>
<path class="st4" d="M144.1,532.3c2.8,3,7.3-0.5,10.2,2.5c-1.1,1.5-2.4,0.9-3.5,0.9c-14.5,0.2-28.9-0.5-43.4,1
	c-2.3,0.2-4.6,0.1-6.7-0.9c-0.7-0.3-2.1,0.5-2-0.8c0-0.5,1.3-1,2-1.5c4.7,0,9.5,0.2,14.2-0.1c5.5-0.3,11.1,1.1,16.6-0.9
	C135.7,531.9,139.9,533.8,144.1,532.3z"/>
<path class="st5" d="M144.1,532.3c-4.2,1.5-8.4-0.4-12.6,0.3c-23.6,0-47.2,0.1-70.8,0.1c-9.8-0.2-19.6-0.4-29.4-0.7
	c0.4-0.9,1-1.7,2.2-1.7c1.5,1.8,3.6,1.1,5.5,1.1c33,0,65.9,0,98.9-0.1c1.2,0,3.9,1.8,3.7-1.7C143.1,529.8,144.6,530.2,144.1,532.3z"
	/>
<path class="st15" d="M60.7,532.7c23.6,0,47.2-0.1,70.8-0.1c-5.4,2-11,0.6-16.6,0.9c-4.7,0.3-9.5,0.1-14.2,0.1
	c-13.3,0-26.7-0.1-40-0.1C60.6,533.2,60.6,532.9,60.7,532.7z"/>
<path class="st4" d="M138.8,552.4c-19.1,0-38.1,0-57.2,0c0-0.2,0-0.3,0-0.5c19.1,0,38.1,0,57.2,0C138.9,552,138.9,552.2,138.8,552.4
	z"/>
<path class="st2" d="M374.5,172.5c-1.4-0.8-2.8-1.6-4.2-2.4c-6.1-5-6.1-8.2-0.2-14c1.3-0.3,2-1.2,2.3-2.4
	C373.3,159.9,374.5,166.1,374.5,172.5z"/>
<path class="st2" d="M358,135.2c-0.2-0.3-0.4-0.5-0.6-0.8C357.9,134.4,358.1,134.6,358,135.2z"/>
<path class="st16" d="M626.8,525.3c-0.7,1.5,1,4.5-1.6,4.2c-2.6-0.3-1.5-3.5-1.6-5.5c0-1.4-0.7-4.1,1.4-3.9
	C628.1,520.5,626.1,523.6,626.8,525.3z"/>
<path class="st16" d="M627.9,488.8c0.3,0.7,0.6,1.4,0.9,2.1c-4,2.6-1.2,6.4-1.9,9.7c-0.5,2.3-1,4.7-1.6,7c-0.6,0.2-1.1,0.4-1.7,0.5
	c0-5.1,0.2-10.1,0-15.2C623.4,489.5,624.8,488.4,627.9,488.8z"/>
<ellipse class="st9" cx="596" cy="487.2" rx="16.3" ry="0.3"/>
<path class="st2" d="M574.3,483.7c0.5,0.5,1,0.9,1.5,1.4c-1.5,0.3-3.1,0.7-4.3-0.8C572.3,483.4,573.3,483.7,574.3,483.7z"/>
<path class="st2" d="M584.2,485.4c2.1-1.1,4.2-1.1,6.3,0C588.4,485.5,586.3,485.4,584.2,485.4z"/>
<path class="st6" d="M484.1,512c-1.3-7.2-4.5-13.7-6.6-20.6c-2.8-8.8-5.7-17.4-8.6-26.2c2-1.2,4.4-0.9,6.6-1.2
	c0,5.1,2.9,9.3,4.5,13.9c4.1,11.5,8.3,22.9,12.5,34.4C489.7,512.2,486.9,512.1,484.1,512z"/>
<path class="st5" d="M490.3,530.2c1.6,1.5,1.9,3.6,2.2,5.6c-15.5,0-31.1,0-46.6,0c-2.8-1.4-2.1-4.1-2.3-6.4c1.1-0.1,2.2-0.2,3.3-0.3
	c0.9,0.2,1.7,0.3,2.6,0.5C463,530.9,476.7,529.9,490.3,530.2z"/>
<path class="st0" d="M446.9,529.1c-1.1,0.1-2.2,0.2-3.3,0.3c-2.3-1.2-2-3.4-1.9-5.5C445.5,523.5,447,525.5,446.9,529.1z"/>
<path class="st6" d="M496.8,519.8c-0.4,0.3-0.8,0.5-1.2,0.8C496,520.3,496.4,520,496.8,519.8z"/>
<path class="st6" d="M465.3,456.7c-4.3-12.9-8.5-25.8-12.8-38.7c-0.6-1.8-1.1-3.7-1.7-5.6c2.2-0.1,4.5-0.3,6.8-0.4
	c1.8,7.9,4.4,15.5,7.5,23c3,7.2,4.9,14.7,7.4,22C470,456.9,467.7,456.8,465.3,456.7z"/>
<path class="st0" d="M432.9,469.5c-2.1,0.8-4.2,0.3-6.2,0.3c-1.2-1.2-1.4-2.8-1.3-4.4C429.4,464.1,430.7,467.7,432.9,469.5z"/>
<path class="st1" d="M626.9,500.5c0.7-3.2-2.1-7.1,1.9-9.7C630.1,494.5,629.6,497.7,626.9,500.5z"/>
<path class="st12" d="M261.7,489.3c-11.5,1.8-22.9,2.7-34.3,2.3c-4.2-0.1-5.7,1-5.4,5.3c0.3,3.9-0.1,7.8-0.2,11.7
	c-0.1,1.7-0.5,3.3-2.7,3.2c-2.3-0.1-2.2-1.9-2.3-3.5c0-3.2,0-6.4,0-9.6c0-1.2,0.2-2.6-1.7-2.7c-1.8,0-2.4,0.8-2.4,2.6
	c0.1,4.6,0,9.2,0,13.8c0,1.7,0.5,3.6-2.4,3.8c-3.1,0.2-3-1.9-3-3.8c-0.1-4.8,0-9.6-0.1-14.4c0-1.3,0.6-3.2-1.6-3.2
	c-1.7,0-1.1,1.8-1.5,2.9c-0.8,2.2,1.9,6.4-2.2,6.3c-4.3-0.1-1.3-4.5-2.3-6.8c-1.1-2.5,2-5.8-1.7-8.1c-0.5-0.3,1.8-1.2,3-1.4
	c9.1-1.5,18.4-1.5,27.6-1.6c9.7-0.1,19.5-0.1,29.2,1.5C258.9,488,260.4,487.6,261.7,489.3z"/>
<path class="st8" d="M192,535.9c-0.2-0.1-0.5-0.1-0.7-0.2c-1.3-1.9-4.4-2.3-4.3-5.3c0.4-0.1,0.9-0.1,1.3-0.2c0.9,0,1.7,0,2.6,0
	c1.5,6.4,6,3.3,8.7,2c8.6-4,16.4-9.4,23.2-15.9c2.5-2.4,4.8-5,8.2-6.4c-3.6,7.8-11.5,11.6-17.3,17.3
	C207.9,533,200.3,535.5,192,535.9z"/>
<path class="st5" d="M276.3,535.9c-3.4,0-6.8,0-10.3,0.1c0.3-2,0.6-4,0.9-6c3.5,0.1,7,0.2,10.5,0.3
	C277.1,532.1,276.7,534,276.3,535.9z"/>
<path class="st8" d="M291.5,519.6c10.3,0,20.2-3.1,30.3-4.6c3.7-0.5,7.3-1.5,11-1.7c4.9-0.2,6.9-2.9,7.5-7.2
	c1.8-13.6,5.2-27,7.9-40.4c5.3-26.4,10.4-52.9,15.8-79.3c2.5-12.4,5.4-24.8,7.8-37.2c1.2-6.4,2.1-12.9,4-19.1
	c4.4,3.4,3.1,8.1,2.5,12.5c-0.6,5-1.5,10-2.3,15c0,0.8,0,1.5-0.1,2.3c-0.4,0.5-1.1,1-1.2,1.6c-3.3,16.2-6.6,32.4-9.7,48.6
	c-3.8,19.5-7.4,39-11.2,58.5c-2.5,12.6-5.1,25.2-7.6,37.7c-1.1,5.5-2.4,8.9-8.3,9.2c-1.4,0.1-0.7,1.2-0.5,2
	c-6.1,1-12.2,1.9-18.2,2.9c-9.5,1.5-19.1,3.1-28.6,4.7C290.6,523.2,289.6,521.1,291.5,519.6z"/>
<path class="st11" d="M347.8,288.6c0.8-6.1,2.7-11.9,5-17.6c1-2.4,2.5-5.2,4.9-4.7c2.1,0.4,3.8,2.8,4.2,5.9
	c0.7,4.8,2.8,9.4,3.9,14.2c0.5,2.4,2,5,0.1,7.5c-7,3.2-7.8,4.9-4.7,10.8c-3.5,2.7-7.4,1-11.2,1.1C349.7,300,349.7,294.2,347.8,288.6
	z"/>
<path class="st5" d="M345.8,530.1c28.3,0,56.6,0,84.9,0c1.8,1.6,1,3.7,1.2,5.7c-29.1,0-58.3-0.1-87.4-0.1
	C344.9,533.7,344,531.6,345.8,530.1z"/>
<path class="st0" d="M350,305.8c3.7-0.1,7.7,1.7,11.2-1.1c3,0.8,5.9,2,9,0.3c1.5,2.7,2.4,5.5,1.8,8.6c-10,0.1-20.1,0.5-30.1-0.2
	c0.6-2.4,0.4-5,1.8-7.2C345.8,306.1,347.9,305.9,350,305.8z"/>
<path class="st5" d="M327.6,535.8c-13.4,0-26.9-0.1-40.3-0.1c0.2-2,0.7-4,2.1-5.6c14.9,0,29.7,0,44.6-0.1c0.2,2.1-0.1,4-1.2,5.8
	c-1,0-2,0-3,0C329,535.8,328.3,535.8,327.6,535.8z"/>
<path class="st11" d="M342.4,260.9c0-0.4,0-0.7,0-1.1c0.2-10.2,0.2-10.2,10.8-9.5c0.3,2.1,0.7,4.1,1,6.2c-2.1,2.3-4.1,4.6-6.2,6.8
	c-0.9,0.9-1.2,2.9-2.9,2.6c-2.2-0.4-1.1-2.6-1.6-3.9C343.2,261.7,342.7,261.3,342.4,260.9z"/>
<path class="st0" d="M375.8,359.8c0-0.8,0-1.5,0.1-2.3c0.7-0.4,1.4-0.8,2.1-1.3c2,0.1,4,0.1,6,0.2c0.5,1.7,1.1,3.5,1.6,5.2
	c-2.7-0.1-5.3-0.2-8-0.3C377.1,360.8,376.4,360.3,375.8,359.8z"/>
<path class="st4" d="M399.6,414c-2.3-0.3-4.5-0.5-6.8-0.8c-1.6-0.2-2.8-0.6-2.6-2.5c0.1-1.7,1.5-1.8,2.7-1.9
	c1.7-0.2,3.5-0.2,5.2-0.3C399.2,410.2,399.9,412,399.6,414z"/>
<path class="st4" d="M414.4,468.1c-0.7,0-1.4,0.2-2.1,0c-1.8-0.5-4.7,0.3-4.5-3c0.2-3.2,3-2.1,4.8-2.5
	C413.9,464.3,414.9,466,414.4,468.1z"/>
<path class="st0" d="M429.7,526.8c-0.9-0.1-1.7-0.3-2.6-0.4c-1.6-0.2-2.6-0.8-2.6-2.6c0-3.2,2.7-2,4.2-2.7
	C430.1,522.8,430.1,524.8,429.7,526.8z"/>
<path class="st6" d="M375.8,359.8c0.6,0.5,1.2,1,1.8,1.5c-3.2,17.2-6.5,34.4-9.7,51.6c-5,26-10,52.1-15,78.1
	c-2.2,11.3-4.5,22.6-6.8,33.8c-0.4,1.8-0.6,3.5-0.3,5.3c-1.9,1.5-1,3.7-1.2,5.5c-0.8,0.6-1.1,1.3-0.8,2.2c-0.7,1.5-1.8,2.1-3.4,2
	c0.1-7.9,3.4-15.4,3.2-23.4c0.1-0.2,0.2-0.3,0.2-0.5c-0.1,0.2-0.2,0.3-0.3,0.5c-2.1,0.3-4.2,0.7-6.3,1c0,0,0,0,0,0
	c-0.2-0.8-0.9-1.9,0.5-2c6-0.3,7.2-3.7,8.3-9.2c2.5-12.6,5.1-25.2,7.6-37.7c3.8-19.5,7.4-39,11.2-58.5c3.2-16.2,6.4-32.4,9.7-48.6
	C374.7,360.8,375.4,360.3,375.8,359.8z"/>
<path class="st1" d="M395.8,557.2c-20.8,0.4-41.6,1.3-62.4,0.8c-5.3-0.1-10.5-0.6-15.8-0.9c-1.6-0.1-2.7-0.6-3-2.3
	c29.7,2.1,59.4,0.5,89.2,0.7C401.2,557.6,398.3,556.5,395.8,557.2z"/>
<path class="st8" d="M337.2,517.5c2.1-0.3,4.2-0.7,6.3-1l0,0c0.2,8-3.2,15.4-3.2,23.4c-2.3,0.6-4.6,0.7-6.6-0.7
	c0.5-1.3-0.2-2.3-0.9-3.3c1.1-1.8,1.4-3.7,1.2-5.8C336.5,526.2,336.6,521.8,337.2,517.5z"/>
<path class="st6" d="M351,166.3c0.7-0.2,1.1,0.2,1.2,0.9C351.8,166.9,351.4,166.6,351,166.3z"/>
<path class="st8" d="M186,530.1c0.4-0.5,0.7-0.4,0.9,0.2c0,0-0.5,0-0.5,0L186,530.1z"/>
<path class="st8" d="M395.5,343.2l-0.2,0.3c0,0-0.3-0.2-0.3-0.2C395.1,343.1,395.3,343,395.5,343.2z"/>
<path class="st8" d="M343.5,516.4c0.1-0.2,0.2-0.3,0.3-0.5C343.7,516.2,343.6,516.3,343.5,516.4
	C343.5,516.5,343.5,516.4,343.5,516.4z"/>
<path class="st17" d="M395.5,343.2c4.1,0,8-0.6,11.9-1.8c1,6.4,4.6,10.6,10.7,12.7c-7.5,2.4-14.9,4.8-22.9,3.8
	c-1.7-4.4-2.9-9-3.6-13.8c1.2-0.3,2.3-0.5,3.5-0.8c0,0,0.3,0.2,0.3,0.2L395.5,343.2z"/>
<path class="st17" d="M377,292.7c1.3-0.6,2.6-1.2,3.9-1.8c3.1,2.8,6.9,3.8,10.9,4.6c7.7,1.5,7.9,1.8,7.9,10.2
	c-6.2,0.7-12.6-0.9-18.8,1C378.9,302.2,378.2,297.4,377,292.7z"/>
<path class="st17" d="M370.1,305c-3,1.7-6,0.6-9-0.3c-3.1-5.9-2.4-7.7,4.7-10.8C370.3,296.4,369,301.2,370.1,305z"/>
<path class="st3" d="M426.1,115.1c2.5,0.4,5.2,0.3,6.9,2.8c-3.7,9.2-5.9,18.8-8.6,28.3c-4.2,14.8,3,26.5,14.5,34.5
	c1.6,1.1,3.5,1.7,5.6,1.1c0.4,10.9,2.3,21.8-0.7,32.7c-2.8,10.1-8,18.5-16.3,24.9c-2.6,2-3.5,4-3.2,7.1c2.6,28.2,5.1,56.4,7.6,84.6
	c0.5,6.3,1.1,12.6,1.6,18.9c0.2,1.8,1.1,3.9-1.5,4.9c-4.7-0.6-9.5,0.5-14.1-1c-6.1-2.1-9.7-6.3-10.7-12.7c-1.3-9.5-3.3-18.8-6-28
	c-0.2-2.7-0.5-5.3-1.7-7.7c-0.1-8.4-0.2-8.6-7.9-10.2c-3.9-0.8-7.8-1.8-10.9-4.6c1.9-2.8,0.3-5.8,0.2-8.7
	c-0.5-12.8,0.2-25.6-1.1-38.3c0.3-4.4-1.6-9.4,4-12.1c1-0.5,0.4-2,0.2-3c-2.1-10.9-4.3-21.9-6.4-32.8c0.9-3.3-2.2-6.6,0-9.8
	c6.1,5.4,12.7,8.8,21.1,5.5c13.9-5.6,21.7-30.4,13.4-43.3c-7.3-11.4-15.2-22.5-22.8-33.7c1.7-0.9,3.4-1.8,5.1-2.7
	c7.5,11,14.9,21.9,23.1,33.8C420.6,134.7,423.4,124.9,426.1,115.1z"/>
<path class="st3" d="M394.3,79.5c-0.5-3.2-1.9-5.6-5.2-6.6c-1-0.3-1.8-1.1-2.7-1.7c-2.9-1.9-5-4.4-3.2-8c1.7-3.5,5.4-4.9,8.6-3.1
	c5.3,2.9,9.5,1.5,14.6-0.4c12.3-4.6,25.9,7.1,25.1,21.3c-0.3,5.9-1.9,11.5-5.6,16.2c-0.4-0.3-0.9-1-1.2-0.9
	c-8.5,2.5-15.3-1.8-22.2-5.6C399.2,87.3,396.5,83.6,394.3,79.5z"/>
<path class="st3" d="M335.1,77.8c-3.1-0.3-5.7-2.7-9.1-1.9c-5.4,1.2-8,4.8-8.8,12.7c-1.1-1.9-2.3-3.7-3.4-5.5
	c-2.1-4.9-4.3-9.8-6.4-14.7c1.3-1.5-3.8-4.6,1.4-5.2c0.7-0.1,0.5-1.7-0.5-1.9c-1.9-0.4-1.4-1.6-1.2-2.8c0,0,0,0,0,0
	c6.1,0.1,7.1-1,6.6-6.9c-0.1-1.7,0.2-3.1,1.3-4.4c4-1.5,6.6-0.3,8.4,3.7C327.2,59.8,332,68.4,335.1,77.8z"/>
<path class="st3" d="M370.1,156.1c-5.9,5.9-5.9,9.1,0.2,14c-6.2-0.2-12.9,2.6-18.1-3c0,0,0,0,0,0c-0.1-0.7-0.4-1-1.2-0.9
	c-1.4-0.4-2.8-0.9-4.1-1.3c-2.9-6.1-1.2-9,5.4-9.1C358.2,155.8,364.1,156,370.1,156.1z"/>
</svg>
